<?xml version="1.0" encoding="UTF-8"?>
<svg id="Capa_1" xmlns="http://www.w3.org/2000/svg" version="1.1" viewBox="0 0 512 492.36">
  <!-- Generator: Adobe Illustrator 30.5.1, SVG Export Plug-In . SVG Version: 2.1.4 Build 3)  -->
  <path d="M383.36,297.48h-126.53v-40.69c0-4.26-3.45-7.71-7.71-7.71h-113.22c-4.26,0-7.71,3.45-7.71,7.71v227.87c0,4.26,3.45,7.71,7.71,7.71h247.45c4.26,0,7.71-3.45,7.71-7.71v-55.19c0-4.26-3.45-7.71-7.71-7.71s-7.71,3.45-7.71,7.71v47.49h-232.04v-164.06h232.04v85.65c0,4.26,3.45,7.71,7.71,7.71s7.71-3.45,7.71-7.71v-93.35c0-4.26-3.45-7.71-7.71-7.71ZM241.42,264.49v32.99h-97.81v-32.99h97.81Z"/>
  <path d="M504.29,29.76h-60.92V7.71c0-4.26-3.45-7.71-7.71-7.71h-57.89c-4.26,0-7.71,3.45-7.71,7.71v121.53c0,4.26,3.45,7.71,7.71,7.71h68.67v40.35h-179.11v-40.35h51.92c4.26,0,7.71-3.45,7.71-7.71V37.47c0-4.26-3.45-7.71-7.71-7.71h-60.92V7.71C258.33,3.45,254.88,0,250.63,0h-57.89C188.49,0,185.04,3.45,185.04,7.71v121.53c0,4.26,3.45,7.71,7.71,7.71h59.19v40.35H62.54v-40.35h71.68c4.26,0,7.71-3.45,7.71-7.71v-29.76c0-4.26-3.45-7.71-7.71-7.71s-7.71,3.45-7.71,7.71v22.06H15.41V45.18h111.1v22.71c0,4.26,3.45,7.71,7.71,7.71s7.71-3.45,7.71-7.71v-30.41c0-4.26-3.45-7.71-7.71-7.71h-60.92V7.71C73.3,3.45,69.85,0,65.59,0H7.71C3.45,0,0,3.45,0,7.71v121.53c0,4.26,3.45,7.71,7.71,7.71h39.43v48.05c0,4.26,3.45,7.71,7.71,7.71h197.09v25.68h-18.7c-4.26,0-7.71,3.45-7.71,7.71s3.45,7.71,7.71,7.71h55.53c4.26,0,7.71-3.45,7.71-7.71s-3.45-7.71-7.71-7.71h-21.42v-25.68h186.82c4.26,0,7.71-3.45,7.71-7.71v-48.05h42.43c4.26,0,7.71-3.45,7.71-7.71V37.47c0-4.26-3.45-7.71-7.71-7.71h0ZM242.92,15.41v14.35h-42.48v-14.35h42.48ZM200.45,45.18h111.1v76.35h-111.1V45.18ZM57.89,15.41v14.35H15.41v-14.35h42.48ZM427.96,15.41v14.35h-42.48v-14.35h42.48ZM496.59,121.53h-111.1V45.18h111.1v76.35h0Z"/>
</svg>