<?xml version="1.0" encoding="utf-8"?>
<!-- Generator: Adobe Illustrator 28.4.1, SVG Export Plug-In . SVG Version: 6.00 Build 0)  -->
<svg version="1.0" id="Layer_1" xmlns="http://www.w3.org/2000/svg" xmlns:xlink="http://www.w3.org/1999/xlink" x="0px" y="0px"
	 viewBox="0 0 64 64" style="enable-background:new 0 0 64 64;" xml:space="preserve">
<style type="text/css">
	.st0{fill:none;stroke:#231F20;stroke-width:2;stroke-linecap:round;stroke-linejoin:round;stroke-miterlimit:10;}
</style>
<g>
	<line class="st0" x1="44.1" y1="38" x2="37.5" y2="38"/>
	<line class="st0" x1="42.3" y1="42.2" x2="39.3" y2="42.2"/>
	<polyline class="st0" points="23.5,42.2 2.7,42.2 2.7,38 6.4,38 22.3,38 25.3,38 	"/>
	<polyline class="st0" points="56.3,38 61.3,38 61.3,42.2 58.1,42.2 	"/>
	<path class="st0" d="M6.4,38v-2.9c0-4.4,3.6-8,8-8h0c4.4,0,8,3.6,8,8V38"/>
	<circle class="st0" cx="14.3" cy="21.1" r="6"/>
	<path class="st0" d="M23.4,49v-5.8c0-4.4,3.6-8,8-8h0c4.4,0,8,3.6,8,8V49"/>
	<circle class="st0" cx="31.4" cy="29.2" r="6"/>
	<path class="st0" d="M42.2,49v-5.8c0-4.4,3.6-8,8-8h0c4.4,0,8,3.6,8,8V49"/>
	<circle class="st0" cx="50.2" cy="29.2" r="6"/>
</g>
</svg>
