<svg id="Capa_1" enable-background="new 0 0 512 512" height="512" viewBox="0 0 512 512" width="512" xmlns="http://www.w3.org/2000/svg"><g><path d="m492.78 131.075h-50.034v-12.002c0-6.209-3.93-11.503-9.427-13.566v-15.546c0-9.469-7.703-17.173-17.172-17.173h-14.517c-9.469 0-17.172 7.704-17.172 17.173v15.546c-5.497 2.063-9.427 7.357-9.427 13.566v12.002h-197.696v-9.431c0-12.217-9.939-22.156-22.156-22.156h-7.145v-7.149c0-9.397 7.646-17.043 17.043-17.043h93.347c17.669 0 32.043-14.375 32.043-32.044v-12.007c0-4.143-3.358-7.5-7.5-7.5s-7.5 3.357-7.5 7.5v12.007c0 9.398-7.646 17.044-17.043 17.044h-93.347c-17.668 0-32.043 14.374-32.043 32.043v7.149h-7.145c-12.217 0-22.156 9.939-22.156 22.156v9.431h-84.513c-10.598 0-19.22 8.622-19.22 19.22v226.72c0 4.143 3.358 7.5 7.5 7.5s7.5-3.357 7.5-7.5v-226.72c0-2.327 1.893-4.22 4.22-4.22h355.811v20.16h-25.811c-4.142 0-7.5 3.357-7.5 7.5s3.358 7.5 7.5 7.5h25.811v47.195c-18.194 2.263-40.854 8.692-54.874 25.811-20.822 25.426-14.597 64.992-11.724 78.265l-26.373 25.186-35.198-30.429c3.336-11.553 9.488-40.368-4.581-60.885-17.59-25.646-58.692-26.5-60.434-26.523-.034-.001-.068-.001-.103-.001-3.132 0-5.939 1.949-7.031 4.893-.605 1.633-14.625 40.28 2.964 65.931 15.148 22.09 47.736 25.785 57.601 26.401l39.533 34.177v26.539c0 4.143 3.358 7.5 7.5 7.5s7.5-3.357 7.5-7.5v-26.765l29.791-28.45c15.202.076 42.263-.965 64.855-16.85v15.086c0 4.892 1.303 9.71 3.768 13.936l10.008 17.151c2.236 3.831 6.219 6.118 10.655 6.118 4.437 0 8.419-2.287 10.655-6.118l10.008-17.151c2.465-4.225 3.768-9.044 3.768-13.936v-23.537c5.497-2.063 9.427-7.357 9.427-13.566v-122.478h19.094v256.859h-44.31c-4.142 0-7.5 3.357-7.5 7.5s3.358 7.5 7.5 7.5h45.95c7.367 0 13.36-5.993 13.36-13.359v-260.14c0-7.366-5.993-13.359-13.36-13.359h-20.734v-20.16h50.034c2.327 0 4.22 1.893 4.22 4.22v318.74c0 2.327-1.893 4.22-4.22 4.22h-473.56c-2.327 0-4.22-1.893-4.22-4.22v-57.021c0-4.143-3.358-7.5-7.5-7.5s-7.5 3.357-7.5 7.5v57.021c0 10.598 8.622 19.22 19.22 19.22h473.56c10.598 0 19.22-8.622 19.22-19.22v-318.74c0-10.599-8.622-19.221-19.22-19.221zm-374.047-9.43c0-3.946 3.21-7.156 7.156-7.156h29.289c3.946 0 7.156 3.21 7.156 7.156v9.431h-43.602v-9.431zm71.316 180.548c-9.997-14.579-5.621-36.925-2.878-46.995 12.156 1.233 33.417 6.066 42.739 19.661 9.997 14.579 5.621 36.924 2.878 46.994-12.156-1.233-33.417-6.066-42.739-19.66zm199.982 1.02v-183.64h37.715v183.64zm11.599-215.425h14.517c1.198 0 2.172.975 2.172 2.173v14.612h-18.861v-14.612c0-1.198.974-2.173 2.172-2.173zm-69.867 175.957c10.507-12.83 28.282-18.106 43.268-20.188v60.156c0 3.1.986 5.969 2.65 8.328-16.861 13.812-43.504 15.509-54.924 15.553-2.49-12.634-6.733-44.631 9.006-63.849zm84.832 83.446-7.707 13.209-7.707-13.209c-1.128-1.933-1.724-4.137-1.724-6.375v-22.604h18.861v22.604c.001 2.239-.595 4.444-1.723 6.375z"/><path d="m103.73 439.735c0 7.366 5.993 13.359 13.36 13.359h265.44c4.142 0 7.5-3.357 7.5-7.5s-3.358-7.5-7.5-7.5h-263.8v-199.979c0-4.143-3.358-7.5-7.5-7.5s-7.5 3.357-7.5 7.5z"/><path d="m321.72 173.735c0-4.143-3.358-7.5-7.5-7.5h-197.13c-7.367 0-13.36 5.993-13.36 13.359v23.521c0 4.143 3.358 7.5 7.5 7.5s7.5-3.357 7.5-7.5v-21.88h195.49c4.142 0 7.5-3.357 7.5-7.5z"/><path d="m177.335 208.893c0-4.143-3.358-7.5-7.5-7.5h-23.441c-4.142 0-7.5 3.357-7.5 7.5v23.44c0 4.143 3.358 7.5 7.5 7.5s7.5-3.357 7.5-7.5v-15.94h15.941c4.142 0 7.5-3.358 7.5-7.5z"/><path d="m434.179 417.938c4.142 0 7.5-3.357 7.5-7.5v-23.44c0-4.143-3.358-7.5-7.5-7.5s-7.5 3.357-7.5 7.5v15.94h-15.94c-4.142 0-7.5 3.357-7.5 7.5s3.358 7.5 7.5 7.5z"/><path d="m146.394 379.497c-4.142 0-7.5 3.357-7.5 7.5v23.44c0 4.143 3.358 7.5 7.5 7.5h23.441c4.142 0 7.5-3.357 7.5-7.5s-3.358-7.5-7.5-7.5h-15.941v-15.94c0-4.143-3.358-7.5-7.5-7.5z"/><path d="m59.367 218.901c14.521 0 26.335-11.813 26.335-26.335s-11.814-26.335-26.335-26.335-26.335 11.813-26.335 26.335 11.814 26.335 26.335 26.335zm0-37.67c6.25 0 11.335 5.085 11.335 11.335s-5.085 11.335-11.335 11.335-11.335-5.085-11.335-11.335 5.085-11.335 11.335-11.335z"/><path d="m59.367 453.098c14.521 0 26.335-11.813 26.335-26.335s-11.814-26.335-26.335-26.335-26.335 11.813-26.335 26.335 11.814 26.335 26.335 26.335zm0-37.67c6.25 0 11.335 5.085 11.335 11.335s-5.085 11.335-11.335 11.335-11.335-5.085-11.335-11.335 5.085-11.335 11.335-11.335z"/><path d="m33.032 371.159c0 7.366 5.994 13.359 13.36 13.359h25.95c7.367 0 13.36-5.993 13.36-13.359v-122.988c0-7.366-5.993-13.359-13.36-13.359h-25.95c-7.367 0-13.36 5.993-13.36 13.359zm15-1.64v-52.354h22.67v52.354zm22.67-119.707v52.354h-22.67v-52.354z"/><path d="m408.888 174.593c-4.142 0-7.5 3.357-7.5 7.5v11.72c0 4.143 3.358 7.5 7.5 7.5s7.5-3.357 7.5-7.5v-11.72c0-4.143-3.358-7.5-7.5-7.5z"/><path d="m408.888 221.474c-4.142 0-7.5 3.357-7.5 7.5v11.721c0 4.143 3.358 7.5 7.5 7.5s7.5-3.357 7.5-7.5v-11.721c0-4.143-3.358-7.5-7.5-7.5z"/></g></svg>