<svg xmlns="http://www.w3.org/2000/svg" width="128" height="128" viewBox="0 0 128 128">
  <title>FOOD DONATION</title>
  <g>
    <path d="M59.007,109.545a7.261,7.261,0,0,0,9.986,0l9.54-9.033a9.838,9.838,0,0,0-.475-14.356,10,10,0,0,0-13.63.641L64,87.225l-.623-.623A9.836,9.836,0,1,0,49.5,100.545ZM51.941,89.077a6.344,6.344,0,0,1,8.961,0l1.861,1.86a1.75,1.75,0,0,0,2.474,0L66.9,89.272a6.5,6.5,0,0,1,8.845-.486A6.334,6.334,0,0,1,76.093,98l-9.506,9a3.764,3.764,0,0,1-5.174,0h0l-9.472-8.966A6.345,6.345,0,0,1,51.941,89.077Z"/>
    <path d="M113.629,73.813l-5.8-23.778a1.75,1.75,0,0,0-1.7-1.336H97.036a73.53,73.53,0,0,0,.408-7.738c0-18.5-6.719-32.987-15.3-32.987s-15.3,14.489-15.3,32.987a73.673,73.673,0,0,0,.407,7.738H61.647V39.9a16.544,16.544,0,0,0-2.687-9.051l-4.273-6.561v-8A4.272,4.272,0,0,0,58.126,12.1V9.488a4.272,4.272,0,0,0-4.268-4.267H38.345a4.272,4.272,0,0,0-4.268,4.267V12.1a4.272,4.272,0,0,0,3.439,4.184v8l-4.274,6.562A16.548,16.548,0,0,0,30.556,39.9v8.8H21.871a1.75,1.75,0,0,0-1.7,1.336l-5.8,23.778a1.75,1.75,0,0,0,1.7,2.165h4.05v37.514a9.3,9.3,0,0,0,9.287,9.287H98.592a9.3,9.3,0,0,0,9.287-9.287V75.978h4.05a1.75,1.75,0,0,0,1.7-2.165ZM70.349,40.961c0-17.378,6.217-29.487,11.8-29.487s11.8,12.109,11.8,29.487a70.007,70.007,0,0,1-.423,7.738H70.771A69.875,69.875,0,0,1,70.349,40.961Zm-29.333-24.6H51.187v6.691H41.016ZM37.577,9.488a.769.769,0,0,1,.768-.767H53.858a.769.769,0,0,1,.768.767V12.1a.769.769,0,0,1-.768.768H38.345a.769.769,0,0,1-.768-.768ZM34.056,39.9a13.055,13.055,0,0,1,2.12-7.141l4.038-6.2H51.988l4.038,6.2A13.047,13.047,0,0,1,58.147,39.9v8.8H34.056Zm70.323,73.6a5.794,5.794,0,0,1-5.787,5.787H29.408a5.794,5.794,0,0,1-5.787-5.787V75.978h80.758ZM18.3,72.478,23.245,52.2h81.51L109.7,72.478Z"/>
    <path d="M88.357,39.21H75.929a1.75,1.75,0,0,0,0,3.5H88.357a1.75,1.75,0,0,0,0-3.5Z"/>
    <path d="M78.249,29.244h7.788a1.75,1.75,0,0,0,0-3.5H78.249a1.75,1.75,0,0,0,0,3.5Z"/>
  </g>
</svg>
