<svg xmlns="http://www.w3.org/2000/svg" width="128" height="128" viewBox="0 0 128 128">
  <title>SERVICES</title>
  <g>
    <path d="M64,34.112A29.888,29.888,0,1,0,80.426,88.979l.007,0a29.917,29.917,0,0,0,8.911-9.144l.009-.013.017-.026A29.873,29.873,0,0,0,64,34.112Zm15.672,51.13-10.1-10.1a1.743,1.743,0,0,0-1.866-.4A13.121,13.121,0,0,1,49.913,61.17l6.4,6.395a1.751,1.751,0,0,0,1.69.453l7.314-1.962a1.752,1.752,0,0,0,1.238-1.238l1.962-7.313a1.749,1.749,0,0,0-.453-1.69l-6.4-6.4a13.019,13.019,0,0,1,10.6,3.772,13.191,13.191,0,0,1,2.971,14.03,1.749,1.749,0,0,0,.4,1.862L85.643,79.091A26.515,26.515,0,0,1,79.667,85.242ZM87.5,75.994,78.881,67.38A16.688,16.688,0,0,0,74.74,50.717a16.516,16.516,0,0,0-17.128-3.966,1.751,1.751,0,0,0-.673,2.894l7.93,7.929-1.438,5.362-5.364,1.439-7.928-7.929a1.749,1.749,0,0,0-2.894.672A16.618,16.618,0,0,0,67.864,78.39l8.776,8.775A26.47,26.47,0,1,1,87.5,75.994Z"/>
    <path d="M106.764,54.462l-.881-.06a5.158,5.158,0,0,1-4.455-3.446,39.716,39.716,0,0,0-1.777-4.143,5.154,5.154,0,0,1,.8-5.7l.533-.61a4.287,4.287,0,0,0-.2-5.836l-7.458-7.458a4.289,4.289,0,0,0-5.834-.2l-.817.713a5.33,5.33,0,0,1-5.781.753c-1.192-.559-2.433-1.068-3.69-1.51a5.318,5.318,0,0,1-3.592-4.63l-.075-1.107a4.286,4.286,0,0,0-4.265-3.987H58.727a4.285,4.285,0,0,0-4.265,3.986l-.075,1.109a5.319,5.319,0,0,1-3.592,4.63,39.836,39.836,0,0,0-3.69,1.509,5.332,5.332,0,0,1-5.78-.753l-.819-.714a4.287,4.287,0,0,0-5.834.2l-7.457,7.457a4.286,4.286,0,0,0-.2,5.835l.535.613a5.158,5.158,0,0,1,.8,5.7,39.722,39.722,0,0,0-1.778,4.143A5.156,5.156,0,0,1,22.118,54.4l-.881.06a4.286,4.286,0,0,0-3.987,4.265V69.272a4.286,4.286,0,0,0,3.985,4.266l.49.033a5.151,5.151,0,0,1,4.5,3.576A39.375,39.375,0,0,0,28,81.55a5.169,5.169,0,0,1-.7,5.621l-.283.323a4.289,4.289,0,0,0,.2,5.834l7.458,7.457a4.285,4.285,0,0,0,5.832.2l.123-.107a5.15,5.15,0,0,1,5.7-.658,39.734,39.734,0,0,0,4.495,1.893,5.358,5.358,0,0,1,3.636,4.651,4.286,4.286,0,0,0,4.265,3.987H69.273a4.285,4.285,0,0,0,4.265-3.986,5.356,5.356,0,0,1,3.637-4.651,39.732,39.732,0,0,0,4.494-1.895,5.156,5.156,0,0,1,5.709.664l.115.1a4.288,4.288,0,0,0,5.835-.2l7.457-7.457a4.286,4.286,0,0,0,.2-5.835l-.277-.318a5.171,5.171,0,0,1-.7-5.626,39.538,39.538,0,0,0,1.772-4.4,5.155,5.155,0,0,1,4.505-3.577l.484-.033a4.285,4.285,0,0,0,3.988-4.266V58.727A4.285,4.285,0,0,0,106.764,54.462Zm.486,14.81a.777.777,0,0,1-.725.774l-.484.033a8.638,8.638,0,0,0-7.586,5.959,36.3,36.3,0,0,1-1.616,4.012,8.666,8.666,0,0,0,1.229,9.428l.278.318a.776.776,0,0,1-.036,1.057L90.853,98.31a.777.777,0,0,1-1.061.033l-.115-.1a8.643,8.643,0,0,0-9.563-1.159,36.4,36.4,0,0,1-4.1,1.727,8.849,8.849,0,0,0-5.972,7.718.776.776,0,0,1-.773.722H58.727a.776.776,0,0,1-.773-.724,8.85,8.85,0,0,0-5.97-7.716,36.4,36.4,0,0,1-4.1-1.727,8.894,8.894,0,0,0-3.955-.936,8.492,8.492,0,0,0-5.605,2.092l-.123.107a.775.775,0,0,1-1.058-.036l-7.457-7.456A.778.778,0,0,1,29.65,89.8l.284-.322a8.669,8.669,0,0,0,1.228-9.427,36.194,36.194,0,0,1-1.616-4.013,8.639,8.639,0,0,0-7.584-5.958l-.49-.033a.777.777,0,0,1-.722-.774V58.727a.776.776,0,0,1,.723-.773l.881-.059a8.658,8.658,0,0,0,7.508-5.744,36.677,36.677,0,0,1,1.62-3.779,8.638,8.638,0,0,0-1.294-9.555l-.534-.613a.778.778,0,0,1,.035-1.058l7.456-7.456a.778.778,0,0,1,1.059-.037l.818.714a8.831,8.831,0,0,0,9.57,1.285c1.1-.513,2.228-.976,3.363-1.375a8.816,8.816,0,0,0,5.924-7.7l.075-1.108a.776.776,0,0,1,.773-.723H69.273a.776.776,0,0,1,.773.723l.075,1.106a8.812,8.812,0,0,0,5.923,7.7c1.145.4,2.277.868,3.364,1.377a8.835,8.835,0,0,0,9.57-1.284l.818-.714a.779.779,0,0,1,1.057.035l7.457,7.457a.778.778,0,0,1,.036,1.059l-.533.61a8.641,8.641,0,0,0-1.294,9.558,36.328,36.328,0,0,1,1.619,3.777,8.66,8.66,0,0,0,7.508,5.745l.882.059a.776.776,0,0,1,.722.773Z"/>
  </g>
</svg>
