<svg xmlns="http://www.w3.org/2000/svg" width="128" height="128" viewBox="0 0 128 128">
  <title>BULB</title>
  <g>
    <path d="M64,17.046a1.751,1.751,0,0,0,1.75-1.75V6.307a1.75,1.75,0,0,0-3.5,0V15.3A1.751,1.751,0,0,0,64,17.046Z"/>
    <path d="M112.7,53.259h-8.99a1.75,1.75,0,0,0,0,3.5h8.99a1.75,1.75,0,0,0,0-3.5Z"/>
    <path d="M24.287,53.259H15.3a1.75,1.75,0,1,0,0,3.5h8.99a1.75,1.75,0,0,0,0-3.5Z"/>
    <path d="M93.318,81.853a1.75,1.75,0,1,0-2.474,2.475L97.2,90.685a1.75,1.75,0,0,0,2.475-2.475Z"/>
    <path d="M34.681,28.165a1.75,1.75,0,0,0,2.475-2.475L30.8,19.334a1.75,1.75,0,1,0-2.474,2.475Z"/>
    <path d="M97.2,19.334,90.844,25.69a1.75,1.75,0,1,0,2.474,2.475l6.358-6.356A1.75,1.75,0,1,0,97.2,19.334Z"/>
    <path d="M34.681,81.853,28.325,88.21A1.75,1.75,0,0,0,30.8,90.685l6.357-6.357a1.75,1.75,0,1,0-2.475-2.475Z"/>
    <path d="M90.558,75.141A33.329,33.329,0,1,0,30.669,55.009a33.032,33.032,0,0,0,6.574,19.868A72.347,72.347,0,0,1,47.616,93.7l.792,2.209V113c0,.042.009.08.012.121a1.889,1.889,0,0,0,.02.2c.01.055.028.106.043.159a1.712,1.712,0,0,0,.052.168,1.544,1.544,0,0,0,.078.158c.025.049.048.1.078.144a1.741,1.741,0,0,0,.123.16c.026.031.045.065.073.094l8.227,8.7a1.746,1.746,0,0,0,1.271.547h11.23a1.75,1.75,0,0,0,1.272-.547l8.226-8.7c.029-.031.05-.066.076-.1a1.768,1.768,0,0,0,.12-.154c.031-.048.054-.1.08-.148s.054-.1.076-.154.037-.116.054-.174a1.561,1.561,0,0,0,.04-.153,1.611,1.611,0,0,0,.021-.208c0-.038.012-.074.012-.113V95.913l1.089-3.034A66.963,66.963,0,0,1,90.558,75.141ZM40.051,72.787a29.559,29.559,0,0,1-5.882-17.778A29.94,29.94,0,0,1,43.649,33.2,29.828,29.828,0,0,1,87.77,73.024,70.48,70.48,0,0,0,77.386,91.7l-.776,2.161H70.458l-1.34-13.447a1.75,1.75,0,0,0-1.741-1.577H65.75V67.077l12.289-10.75a1.75,1.75,0,1,0-2.305-2.635L64,63.957,52.266,53.692a1.75,1.75,0,0,0-2.3,2.635L62.25,67.077V78.834H60.623a1.75,1.75,0,0,0-1.741,1.577l-1.34,13.447H51.389L50.91,92.52A76.858,76.858,0,0,0,40.051,72.787Zm25.742,9.547,1.148,11.524H61.059l1.149-11.524Zm10.3,15.024v5.195H51.908V97.358Zm-24.184,8.695H76.092v5.2H51.908Zm16.954,13.89H59.138l-4.915-5.195H73.777Z"/>
  </g>
</svg>
