<svg xmlns="http://www.w3.org/2000/svg" width="128" height="128" viewBox="0 0 128 128">
  <title>WORKPLACE</title>
  <g>
    <path d="M64,17.25A37.689,37.689,0,0,0,26.353,54.9c0,12.2,6.189,25.266,18.4,38.847a126.348,126.348,0,0,0,18.23,16.678,1.75,1.75,0,0,0,2.04,0A126.348,126.348,0,0,0,83.25,93.744c12.208-13.581,18.4-26.651,18.4-38.847A37.689,37.689,0,0,0,64,17.25Zm0,89.561c-5.787-4.44-34.147-27.457-34.147-51.914a34.147,34.147,0,0,1,68.294,0C98.147,79.354,69.787,102.371,64,106.811Z"/>
    <path d="M76.71,43.734H71.877V40.72a4.373,4.373,0,0,0-4.369-4.368H60.492a4.373,4.373,0,0,0-4.369,4.368v3.014H51.29A5.572,5.572,0,0,0,45.724,49.3V66.233A5.572,5.572,0,0,0,51.29,71.8H76.71a5.572,5.572,0,0,0,5.566-5.566V49.3A5.572,5.572,0,0,0,76.71,43.734ZM59.623,40.72a.869.869,0,0,1,.869-.868h7.016a.869.869,0,0,1,.869.868v3.014H59.623ZM78.776,66.233A2.069,2.069,0,0,1,76.71,68.3H51.29a2.069,2.069,0,0,1-2.066-2.066V49.3a2.069,2.069,0,0,1,2.066-2.066H76.71A2.069,2.069,0,0,1,78.776,49.3Z"/>
  </g>
</svg>
