<svg id="Capa_1" enable-background="new 0 0 511.991 511.991" height="512" viewBox="0 0 511.991 511.991" width="512" xmlns="http://www.w3.org/2000/svg"><g><path d="m88.334 409.354h23c5.523 0 10-4.477 10-10 0-5.522-4.477-10-10-10h-23c-5.523 0-10 4.478-10 10s4.477 10 10 10z"/><path d="m164.334 429.354h-76c-5.523 0-10 4.478-10 10 0 5.523 4.477 10 10 10h76c5.523 0 10-4.477 10-10s-4.478-10-10-10z"/><circle cx="359.827" cy="479.353" r="10"/><path d="m509.482 274.48-37.504-56.257c-1.855-2.782-4.977-4.453-8.32-4.453h-415.324c-3.344 0-6.466 1.671-8.32 4.453l-37.506 56.257c-3.057 4.586-3.34 10.452-.739 15.311 2.6 4.858 7.638 7.876 13.149 7.876h23.416v171.688c0 11.028 8.972 20 20 20h261.493c5.522 0 10-4.477 10-10 0-5.522-4.478-10-10-10h-53.831v-212.557l21.308 31.962c3.718 5.577 9.939 8.907 16.642 8.907h149.713v171.688h-53.831c-5.522 0-10 4.478-10 10 0 5.523 4.478 10 10 10h53.831c11.028 0 20-8.972 20-20v-171.689h23.416c5.511 0 10.55-3.019 13.149-7.877 2.599-4.859 2.315-10.725-.742-15.309zm-455.796-40.71h183.626l-29.263 43.896h-183.628zm4.648 235.584v-171.688h149.713c6.703 0 12.924-3.33 16.641-8.906l21.309-31.963v212.557zm245.611-191.688-29.264-43.896h183.625l29.264 43.896z"/><path d="m204.138 120.91-4.066 30.171c-.984 7.299 2.106 14.522 8.064 18.852 3.483 2.53 7.604 3.823 11.753 3.823 2.948 0 5.911-.653 8.668-1.979l27.438-13.191 27.437 13.191c6.638 3.191 14.465 2.483 20.422-1.845 5.959-4.329 9.049-11.553 8.064-18.852l-4.066-30.171 21.024-22.019c5.086-5.327 6.832-12.987 4.557-19.992-2.276-7.005-8.191-12.176-15.438-13.496l-29.952-5.455-14.443-26.8c-3.494-6.483-10.239-10.511-17.604-10.511 0 0 0 0-.001 0-7.365 0-14.111 4.027-17.605 10.511l-14.444 26.8-29.951 5.455c-7.246 1.32-13.161 6.492-15.437 13.497s-.529 14.665 4.557 19.991zm28.122-42.148c2.989-.544 5.569-2.419 7.011-5.094l16.693-31.083s.012.015.032.051l16.725 31.032c1.441 2.675 4.022 4.55 7.011 5.094l34.682 6.316-24.345 25.496c-2.099 2.198-3.084 5.23-2.678 8.242l4.709 34.935-31.771-15.273c-2.738-1.316-5.927-1.315-8.665 0l-31.771 15.274 4.709-34.936c.406-3.012-.579-6.044-2.678-8.242l-24.344-25.496z"/><path d="m381.712 120.91-4.066 30.171c-.984 7.299 2.105 14.522 8.064 18.852 5.957 4.328 13.782 5.034 20.422 1.845l27.438-13.191 27.438 13.191c2.758 1.325 5.72 1.979 8.669 1.979 4.148 0 8.27-1.293 11.753-3.823 5.958-4.329 9.049-11.553 8.064-18.852l-4.066-30.171 21.022-22.019c5.087-5.326 6.834-12.986 4.558-19.991-2.275-7.005-8.19-12.177-15.438-13.497l-29.951-5.455-14.443-26.8c0-.001 0-.001 0-.001-3.495-6.483-10.242-10.511-17.607-10.51-7.365 0-14.11 4.027-17.604 10.511l-14.444 26.8-29.951 5.455c-7.246 1.32-13.161 6.491-15.438 13.496-2.275 7.005-.529 14.665 4.557 19.992zm28.122-42.148c2.989-.544 5.569-2.419 7.011-5.094l16.694-31.083s.012.016.031.052l16.725 31.031c1.441 2.675 4.022 4.55 7.011 5.094l34.681 6.317-24.344 25.496c-2.099 2.197-3.084 5.229-2.678 8.241l4.709 34.935-31.77-15.273c-2.738-1.316-5.928-1.316-8.666 0l-31.771 15.274 4.709-34.936c.406-3.012-.579-6.044-2.678-8.242l-24.345-25.496z"/><path d="m26.564 120.91-4.066 30.171c-.984 7.299 2.106 14.522 8.064 18.852 3.483 2.53 7.604 3.823 11.753 3.823 2.948 0 5.911-.653 8.668-1.979l27.438-13.191 27.438 13.191c6.639 3.19 14.462 2.484 20.422-1.845 5.958-4.329 9.049-11.553 8.064-18.852l-4.066-30.171 21.024-22.019c5.086-5.327 6.832-12.987 4.556-19.992s-8.191-12.176-15.437-13.496l-29.951-5.455-14.444-26.8v-.001c-3.495-6.483-10.241-10.51-17.605-10.51-7.365 0-14.111 4.027-17.606 10.511l-14.444 26.8-29.952 5.456c-7.245 1.32-13.16 6.491-15.436 13.496s-.53 14.665 4.556 19.992zm28.122-42.148c2.989-.544 5.569-2.419 7.011-5.094l16.693-31.083s.012.015.032.052l16.725 31.031c1.441 2.675 4.021 4.55 7.011 5.094l34.681 6.316-24.344 25.496c-2.099 2.198-3.084 5.23-2.678 8.242l4.709 34.935-31.771-15.273c-2.738-1.316-5.927-1.316-8.665 0l-31.771 15.274 4.709-34.936c.406-3.012-.579-6.044-2.678-8.242l-24.345-25.495z"/></g></svg>