<svg xmlns="http://www.w3.org/2000/svg" width="128" height="128" viewBox="0 0 128 128">
  <title>STEP</title>
  <path d="M109.22,49.141H95.936V19a1.75,1.75,0,0,0-1.75-1.75H74.1A1.751,1.751,0,0,0,72.353,19V32.933a1.751,1.751,0,0,0,1.75,1.75H92.436V49.141H79.152a1.75,1.75,0,0,0-1.75,1.75v15.23H49.15a1.751,1.751,0,0,0-1.75,1.75v15.79H19.148a1.751,1.751,0,0,0-1.75,1.75V109a1.751,1.751,0,0,0,1.75,1.75H109.22a1.751,1.751,0,0,0,1.75-1.75V50.891A1.751,1.751,0,0,0,109.22,49.141ZM75.853,31.183V20.75H92.436V31.183ZM77.4,69.621V107.25H50.965V85.411a1.743,1.743,0,0,0-.065-.447V69.621ZM20.9,87.161H47.4V107.25H20.9ZM107.47,107.25h-26.5V67.871a1.71,1.71,0,0,0-.066-.449V52.641H107.47Z"/>
</svg>
