<?xml version="1.0" encoding="utf-8"?>
<!-- Generator: Adobe Illustrator 24.1.3, SVG Export Plug-In . SVG Version: 6.00 Build 0)  -->
<svg version="1.1" xmlns="http://www.w3.org/2000/svg" xmlns:xlink="http://www.w3.org/1999/xlink" x="0px" y="0px"
	 viewBox="0 0 24 24" style="enable-background:new 0 0 24 24;" xml:space="preserve">
<style type="text/css">
	.st0{fill:#231F20;}
</style>
<g id="Design_here">
	<g>
		<path d="M4.5,21C4.22,21,4,20.78,4,20.5v-17C4,3.22,4.22,3,4.5,3S5,3.22,5,3.5v17C5,20.78,4.78,21,4.5,21z"/>
	</g>
	<g>
		<path d="M11.5,11h-7C4.22,11,4,10.78,4,10.5S4.22,10,4.5,10H11V5H4.5C4.22,5,4,4.78,4,4.5S4.22,4,4.5,4h7C11.78,4,12,4.22,12,4.5
			v6C12,10.78,11.78,11,11.5,11z"/>
	</g>
	<g>
		<path d="M19.5,13h-10C9.22,13,9,12.78,9,12.5v-2C9,10.22,9.22,10,9.5,10s0.5,0.22,0.5,0.5V12h8.29l-2.15-2.15
			c-0.2-0.2-0.2-0.51,0-0.71L18.29,7H11.5C11.22,7,11,6.78,11,6.5S11.22,6,11.5,6h8c0.2,0,0.38,0.12,0.46,0.31
			c0.08,0.19,0.03,0.4-0.11,0.54L17.21,9.5l2.65,2.65c0.14,0.14,0.19,0.36,0.11,0.54C19.88,12.88,19.7,13,19.5,13z"/>
	</g>
</g>
<g id="Guide">
</g>
</svg>
