<svg xmlns="http://www.w3.org/2000/svg" width="128" height="128" viewBox="0 0 128 128">
  <title>SHARE FOLDER</title>
  <path d="M48.126,107.1a1.743,1.743,0,0,0,1.237-.513L56.2,99.75a1.749,1.749,0,0,0,0-2.475l-.913-.913,4.447-4.446a1.351,1.351,0,0,1,.947-.393h14.4A7.539,7.539,0,0,0,80.449,89.3L98.892,70.858a1.75,1.75,0,0,0,0-2.474,12.934,12.934,0,0,0-18.267,0l-4.04,4.039a7.005,7.005,0,0,0-6.948-6.09H52.17a6.025,6.025,0,0,0-4.288,1.776L37.46,78.531,36.169,77.24a1.8,1.8,0,0,0-2.474,0l-6.841,6.842a1.749,1.749,0,0,0,0,2.475l20.035,20.034A1.741,1.741,0,0,0,48.126,107.1Zm2.231-36.52a2.548,2.548,0,0,1,1.813-.751H69.637a3.511,3.511,0,0,1,3.5,3.862,3.663,3.663,0,0,1-3.721,3.162H60.878a1.75,1.75,0,0,0,0,3.5h12a1.75,1.75,0,0,0,1.238-.512L83.1,70.858a9.436,9.436,0,0,1,11.964-1.122L77.975,86.826a4.066,4.066,0,0,1-2.892,1.2h-14.4a4.875,4.875,0,0,0-3.422,1.418l-4.445,4.445-12.863-12.9ZM34.932,80.952l17.56,17.561-4.366,4.366-17.56-17.56Z"/>
  <path d="M69.913,28.974l-3.352-5.862A4.45,4.45,0,0,0,62.694,20.9H49.577a5.779,5.779,0,0,0-5.851,5.691V52.861a5.779,5.779,0,0,0,5.851,5.691H85.559a5.78,5.78,0,0,0,5.852-5.691v-18.2a5.779,5.779,0,0,0-5.852-5.691Zm18,5.691v18.2a2.278,2.278,0,0,1-2.352,2.191H49.577a2.277,2.277,0,0,1-2.351-2.191V26.587A2.277,2.277,0,0,1,49.577,24.4H62.694a.946.946,0,0,1,.829.453l3.855,6.743a1.75,1.75,0,0,0,1.519.882H85.559A2.278,2.278,0,0,1,87.911,34.665Z"/>
</svg>
