<?xml version="1.0" encoding="utf-8"?>
<!-- Generator: Adobe Illustrator 23.0.6, SVG Export Plug-In . SVG Version: 6.00 Build 0)  -->
<svg version="1.1" id="Layer_1" xmlns="http://www.w3.org/2000/svg" xmlns:xlink="http://www.w3.org/1999/xlink" x="0px" y="0px"
	 viewBox="0 0 128 128" style="enable-background:new 0 0 128 128;" xml:space="preserve">
<title>TEAM</title>
<path d="M35.7,101.7c0,1,0.8,1.7,1.8,1.8h46c1,0,1.7-0.8,1.8-1.8v-0.3h20.1c1,0,1.8-0.8,1.8-1.8V94c0-8.7-5.3-16.4-13.4-19.5
	c6.7-4.1,8.8-12.9,4.6-19.7S85.4,46,78.7,50.2c-0.8,0.5-1.5,1-2.1,1.6C73.7,42.9,64.2,38,55.3,40.9c-5.2,1.7-9.3,5.7-10.9,10.9
	c-5.8-5.4-14.8-5-20.2,0.8s-5,14.8,0.8,20.2c0.7,0.7,1.5,1.2,2.3,1.7C19.2,77.6,13.8,85.3,13.8,94v5.6c0,1,0.8,1.7,1.7,1.8
	c0,0,0,0,0,0h20.1V101.7z M81.7,100H39.2v-6.6c0-10.5,8.5-19.7,19.6-19.6h3.2c10.9,0,19.6,8.8,19.6,19.6c0,0,0,0,0,0
	C81.7,93.5,81.7,100.1,81.7,100z M42.2,74.5c2.5-1.5,4.5-3.8,5.7-6.5c1.1,1.3,2.5,2.4,4,3.3c-2.8,0.9-5.3,2.3-7.5,4.1
	C43.6,75.1,42.9,74.7,42.2,74.5z M69.1,71.3c1.5-0.9,2.8-2,4-3.3c1.2,2.7,3.2,4.9,5.7,6.5c-0.7,0.3-1.4,0.6-2.1,0.9
	C74.4,73.6,71.9,72.2,69.1,71.3z M98.5,81.7c3.3,3.3,5.1,7.7,5.1,12.3v3.9H85.2v-4.5c0-6.1-2.7-12-5.8-15.4
	C85.9,75.2,93.5,76.7,98.5,81.7L98.5,81.7z M77.3,56.9c0-0.2,0-0.5,0-0.7c3.4-4.9,10.1-6.1,15-2.7s6.1,10.1,2.7,15
	c-3.4,4.9-10.1,6.1-15,2.7c-2.3-1.6-3.9-4.1-4.4-6.8C76.4,63,77.3,59.8,77.3,56.9z M47.1,55.8c0.6-7.4,7.1-12.8,14.4-12.2
	c6.9,0.6,12.3,6.4,12.3,13.3c0,9.9-10.7,16.6-19.7,11.7C49.3,66,46.7,60.9,47.1,55.8z M23.9,62.3c0-6,4.9-10.8,10.9-10.8
	c3.5,0,6.8,1.7,8.8,4.6c-0.1,2.8,0.5,5.7,1.7,8.2c-1.2,5.9-6.8,9.7-12.7,8.5C27.6,71.9,23.9,67.5,23.9,62.3z M17.3,97.9V94
	c0-9.6,7.8-17.4,17.4-17.4c2.3,0,4.6,0.5,6.8,1.4c-3.5,3.9-5.8,9.5-5.8,15.4v4.5L17.3,97.9z"/>
<path d="M17.1,26.4v7.8c0,2.4,1.9,4.3,4.3,4.3h14.1l6.2,4.7c1.2,0.9,2.8,0,2.8-1.4V26.4c0-2.4-1.9-4.3-4.3-4.3H21.5
	C19.1,22.1,17.1,24,17.1,26.4z M20.6,26.4c0-0.5,0.4-0.8,0.8-0.8h18.8c0.5,0,0.8,0.4,0.8,0.8v11.9l-3.9-2.9c-0.3-0.2-0.7-0.3-1-0.3
	H21.5c-0.5,0-0.8-0.4-0.8-0.8V26.4z"/>
<path d="M81.1,25.1c-2.4,0-4.3,1.9-4.3,4.3v15.4c0,1.4,1.7,2.3,2.8,1.4l6.2-4.7h14.1c2.4,0,4.3-1.9,4.3-4.3v-7.8
	c0-2.4-1.9-4.3-4.3-4.3H81.1z M100.7,29.5v7.8c0,0.5-0.4,0.8-0.8,0.8H85.2c-0.4,0-0.7,0.1-1.1,0.3l-3.9,2.9V29.5
	c0-0.5,0.4-0.8,0.8-0.8h18.8C100.3,28.6,100.7,29,100.7,29.5L100.7,29.5z"/>
</svg>
