<svg xmlns="http://www.w3.org/2000/svg" width="128" height="128" viewBox="0 0 128 128">
  <title>SPEED</title>
  <g>
    <path d="M110.356,74.425A46.5,46.5,0,1,0,18.72,89.014,9.023,9.023,0,0,0,27.587,96h72.9a9.036,9.036,0,0,0,8.875-7.015A46.738,46.738,0,0,0,110.356,74.425Zm-3.918,13.888A6.127,6.127,0,0,1,100.487,93h-72.9a6.112,6.112,0,0,1-5.943-4.658,43.637,43.637,0,0,1-1.1-9.764,43.5,43.5,0,0,1,43.486-43.5q.759,0,1.523.026a43.5,43.5,0,0,1,40.89,53.21Z"/>
    <path d="M64.039,46.721a1.5,1.5,0,0,0,1.5-1.5V40.889a1.5,1.5,0,1,0-3,0v4.332A1.5,1.5,0,0,0,64.039,46.721Z"/>
    <path d="M101.727,77.077H97.394a1.5,1.5,0,0,0,0,3h4.333a1.5,1.5,0,0,0,0-3Z"/>
    <path d="M30.682,77.077H26.35a1.5,1.5,0,1,0,0,3h4.332a1.5,1.5,0,1,0,0-3Z"/>
    <path d="M38.449,50.867a1.5,1.5,0,1,0-2.121,2.121l3.063,3.064a1.5,1.5,0,0,0,2.121-2.121Z"/>
    <path d="M85.173,53.16,64.5,69.212a9.3,9.3,0,0,0-7.1,2.726,9.39,9.39,0,1,0,16,6.181L89.451,57.447a3.052,3.052,0,0,0-4.278-4.287ZM68.557,83.1a6.39,6.39,0,1,1-4.532-10.91,6.479,6.479,0,0,1,.773.047,6.382,6.382,0,0,1,3.759,1.826,6.39,6.39,0,0,1,0,9.037Zm3.907-8.658a9.353,9.353,0,0,0-4.287-4.287L87.029,55.5c.031.008.079.058.057.1Z"/>
  </g>
</svg>
