<svg xmlns="http://www.w3.org/2000/svg" width="128" height="128" viewBox="0 0 128 128">
  <title>GRAPHIC TABLET</title>
  <g>
    <path d="M100.44,42.74H27.56a10.317,10.317,0,0,0-10.3,10.305V95.273A10.317,10.317,0,0,0,27.56,105.579h72.88a10.317,10.317,0,0,0,10.305-10.306V53.045A10.317,10.317,0,0,0,100.44,42.74ZM20.755,95.273V53.045a6.813,6.813,0,0,1,6.805-6.8H37.715v55.839H27.56A6.813,6.813,0,0,1,20.755,95.273Zm86.49,0a6.813,6.813,0,0,1-6.805,6.806H41.215V46.24H100.44a6.813,6.813,0,0,1,6.805,6.805Z"/>
    <path d="M29.235,68.668a5.492,5.492,0,1,0,5.492,5.491A5.5,5.5,0,0,0,29.235,68.668Zm0,7.483a1.992,1.992,0,1,1,1.992-1.992A1.994,1.994,0,0,1,29.235,76.151Z"/>
    <path d="M26.514,63.967h5.442a1.75,1.75,0,1,0,0-3.5H26.514a1.75,1.75,0,1,0,0,3.5Z"/>
    <path d="M26.514,55.767h5.442a1.75,1.75,0,1,0,0-3.5H26.514a1.75,1.75,0,0,0,0,3.5Z"/>
    <path d="M31.956,92.553H26.514a1.75,1.75,0,1,0,0,3.5h5.442a1.75,1.75,0,1,0,0-3.5Z"/>
    <path d="M31.956,84.352H26.514a1.75,1.75,0,1,0,0,3.5h5.442a1.75,1.75,0,1,0,0-3.5Z"/>
    <path d="M52.847,49.835h-3.19a3.427,3.427,0,0,0-3.424,3.423v3.19a1.75,1.75,0,0,0,3.5,0V53.335h3.114a1.75,1.75,0,0,0,0-3.5Z"/>
    <path d="M52.847,94.984H49.733V91.87a1.75,1.75,0,0,0-3.5,0v3.19a3.428,3.428,0,0,0,3.424,3.424h3.19a1.75,1.75,0,0,0,0-3.5Z"/>
    <path d="M100.477,90.12a1.749,1.749,0,0,0-1.75,1.75v3.114H95.613a1.75,1.75,0,0,0,0,3.5H98.8a3.429,3.429,0,0,0,3.424-3.424V91.87A1.75,1.75,0,0,0,100.477,90.12Z"/>
    <path d="M98.8,49.835h-3.19a1.75,1.75,0,0,0,0,3.5h3.114v3.113a1.75,1.75,0,1,0,3.5,0v-3.19A3.428,3.428,0,0,0,98.8,49.835Z"/>
    <path d="M27.657,31.033l12.7,5.245a1.742,1.742,0,0,0,.668.133H94.43a6.995,6.995,0,0,0,0-13.99H41.023a1.742,1.742,0,0,0-.668.133L27.657,27.8a1.749,1.749,0,0,0,0,3.234Zm13.714-5.112H94.43a3.495,3.495,0,0,1,0,6.99H41.371l-8.462-3.5Z"/>
  </g>
</svg>
