<?xml version="1.0" encoding="utf-8"?>
<!-- Generator: Adobe Illustrator 24.1.3, SVG Export Plug-In . SVG Version: 6.00 Build 0)  -->
<svg version="1.1" xmlns="http://www.w3.org/2000/svg" xmlns:xlink="http://www.w3.org/1999/xlink" x="0px" y="0px"
	 viewBox="0 0 24 24" style="enable-background:new 0 0 24 24;" xml:space="preserve">
<g id="Design_here">
	<g>
		<path d="M17.5,18h-14C3.22,18,3,17.78,3,17.5v-11C3,6.22,3.22,6,3.5,6h14C17.78,6,18,6.22,18,6.5v11C18,17.78,17.78,18,17.5,18z
			 M4,17h13V7H4V17z"/>
	</g>
	<g>
		<path d="M5.5,15.5C5.22,15.5,5,15.28,5,15V9c0-0.28,0.22-0.5,0.5-0.5S6,8.72,6,9v6C6,15.28,5.78,15.5,5.5,15.5z"/>
	</g>
	<g>
		<path d="M20.5,15h-3c-0.28,0-0.5-0.22-0.5-0.5s0.22-0.5,0.5-0.5H20v-4h-2.5C17.22,10,17,9.78,17,9.5S17.22,9,17.5,9h3
			C20.78,9,21,9.22,21,9.5v5C21,14.78,20.78,15,20.5,15z"/>
	</g>
</g>
<g id="Guide">
</g>
</svg>
