<svg xmlns="http://www.w3.org/2000/svg" width="128" height="128" viewBox="0 0 128 128">
  <title>CLOUD NETWORK</title>
  <path d="M99.985,81.961a7.74,7.74,0,0,0-7.524,5.981H72.136a7.748,7.748,0,0,0-5.774-5.774v-10.2H94.125a11.517,11.517,0,1,0,0-23.034h-1.6A13.966,13.966,0,0,0,75.78,39.9,20.5,20.5,0,0,0,36.3,47.622c0,.427.016.862.049,1.31H35.1a11.517,11.517,0,0,0,0,23.034H62.862v10.2a7.748,7.748,0,0,0-5.774,5.774H36.763a7.731,7.731,0,1,0,0,3.5H57.088a7.723,7.723,0,0,0,15.048,0H92.461a7.729,7.729,0,1,0,7.524-9.481ZM29.24,93.923a4.231,4.231,0,1,1,4.231-4.231A4.236,4.236,0,0,1,29.24,93.923ZM35.1,68.466a8.017,8.017,0,0,1,0-16.034h3.225A1.751,1.751,0,0,0,40.052,50.4a16.983,16.983,0,0,1,32.982-7.791,1.748,1.748,0,0,0,2.328,1.107A10.465,10.465,0,0,1,89.5,51.074a1.751,1.751,0,0,0,1.7,1.358h2.922a8.017,8.017,0,1,1,0,16.034ZM64.612,93.923a4.231,4.231,0,1,1,4.232-4.231A4.236,4.236,0,0,1,64.612,93.923Zm35.373,0a4.231,4.231,0,1,1,4.232-4.231A4.236,4.236,0,0,1,99.985,93.923Z"/>
</svg>
