<?xml version="1.0" encoding="UTF-8"?>
<svg id="Capa_1" xmlns="http://www.w3.org/2000/svg" version="1.1" viewBox="0 0 512 355.95">
  <!-- Generator: Adobe Illustrator 30.5.1, SVG Export Plug-In . SVG Version: 2.1.4 Build 3)  -->
  <path d="M181.57,0H26.31C11.8,0,0,11.8,0,26.31v303.33c0,14.51,11.8,26.31,26.31,26.31h155.27c14.51,0,26.31-11.8,26.31-26.31V26.31C207.88,11.8,196.08,0,181.57,0h0ZM15.09,26.31c0-6.19,5.03-11.22,11.22-11.22h155.27c6.18,0,11.22,5.03,11.22,11.22v21.47H15.09v-21.47ZM192.79,62.86v230.22H15.09V62.86h177.7ZM192.79,329.64c0,6.18-5.03,11.22-11.22,11.22H26.31c-6.18,0-11.22-5.03-11.22-11.22v-21.47h177.7v21.47Z"/>
  <path d="M485.69,0h-155.27C315.92,0,304.12,11.8,304.12,26.31v213.27c0,4.17,3.38,7.55,7.55,7.55s7.55-3.38,7.55-7.55V62.86h177.7v230.22h-177.7v-23.19c0-4.17-3.38-7.55-7.55-7.55s-7.55,3.38-7.55,7.55v59.74c0,14.51,11.8,26.31,26.31,26.31h155.27c14.51,0,26.31-11.8,26.31-26.31V26.31c0-14.51-11.8-26.31-26.31-26.31h0ZM319.21,47.77v-21.47c0-6.19,5.03-11.22,11.22-11.22h155.27c6.18,0,11.22,5.03,11.22,11.22v21.47h-177.7ZM496.91,329.64c0,6.18-5.03,11.22-11.22,11.22h-155.27c-6.18,0-11.22-5.03-11.22-11.22v-21.47h177.7v21.47Z"/>
  <path d="M290.32,160.03h-49.09l9.49-10.22c2.83-3.05,2.66-7.83-.4-10.66s-7.83-2.66-10.66.4l-21.27,22.9c-2.04,2.2-2.59,5.4-1.39,8.15s3.92,4.53,6.92,4.53h66.4c4.17,0,7.55-3.38,7.55-7.55s-3.38-7.55-7.54-7.55h0Z"/>
  <path d="M290.32,185.92h-66.4c-4.17,0-7.55,3.38-7.55,7.55s3.38,7.55,7.55,7.55h49.09l-9.49,10.22c-2.83,3.05-2.66,7.83.4,10.66,1.45,1.35,3.29,2.02,5.13,2.02,2.03,0,4.05-.81,5.53-2.41l21.27-22.9c2.04-2.2,2.59-5.4,1.39-8.15s-3.92-4.53-6.92-4.53h0Z"/>
  <path d="M55.96,224.72h17.13l25.5,25.65c1.42,1.42,3.34,2.23,5.35,2.23s3.93-.8,5.35-2.23l25.5-25.65h17.13c14.15,0,25.65-11.51,25.65-25.65v-63.45c0-14.15-11.51-25.65-25.65-25.65h-44.07c-4.17,0-7.55,3.38-7.55,7.55s3.38,7.55,7.55,7.55h44.07c5.82,0,10.56,4.74,10.56,10.56v63.45c0,5.82-4.74,10.56-10.56,10.56h-20.27c-2.01,0-3.93.8-5.35,2.23l-22.36,22.49-22.36-22.49c-1.42-1.42-3.34-2.23-5.35-2.23h-20.27c-5.82,0-10.56-4.74-10.56-10.56v-63.45c0-5.82,4.74-10.56,10.56-10.56h19.83c4.17,0,7.55-3.38,7.55-7.55s-3.38-7.55-7.55-7.55h-19.83c-14.15,0-25.65,11.51-25.65,25.65v63.45c0,14.15,11.51,25.65,25.65,25.65Z"/>
  <path d="M377.21,224.72l25.5,25.65c1.42,1.42,3.34,2.23,5.35,2.23s3.93-.8,5.35-2.23l25.5-25.65h17.13c14.15,0,25.65-11.51,25.65-25.65v-63.45c0-14.15-11.51-25.65-25.65-25.65h-95.97c-14.15,0-25.65,11.51-25.65,25.65v63.45c0,14.15,11.51,25.65,25.65,25.65h17.13ZM349.51,199.07v-63.45c0-5.82,4.74-10.56,10.56-10.56h95.97c5.82,0,10.56,4.74,10.56,10.56v63.45c0,5.82-4.74,10.56-10.56,10.56h-20.27c-2.01,0-3.93.8-5.35,2.23l-22.36,22.49-22.36-22.49c-1.42-1.42-3.34-2.23-5.35-2.23h-20.27c-5.83,0-10.56-4.74-10.56-10.56h0Z"/>
</svg>