<svg xmlns="http://www.w3.org/2000/svg" width="128" height="128" viewBox="0 0 128 128">
  <title>PAINT BUCKET</title>
  <path d="M118.21,71.086H96.28v-.175a3.123,3.123,0,0,0-3.12-3.119H88.216a3.123,3.123,0,0,0-3.12,3.119v.266a17.454,17.454,0,0,0-6.4,1.89V62.291h4.775A8.039,8.039,0,0,0,91.5,54.254V42.726A24.736,24.736,0,0,0,66.853,18.02h-36.5A24.735,24.735,0,0,0,5.71,42.726V54.254a8.04,8.04,0,0,0,8.024,8.037h4.777v34.5A13.2,13.2,0,0,0,31.689,109.98H65.5a13.282,13.282,0,0,0,11.314-6.416,17.687,17.687,0,0,0,8.286,3.028v.266a3.123,3.123,0,0,0,3.12,3.12H93.16a3.123,3.123,0,0,0,3.12-3.12v-.174h21.93a4.085,4.085,0,0,0,4.08-4.081V75.166A4.084,4.084,0,0,0,118.21,71.086Zm-52.742,5.1a4.555,4.555,0,0,1-5.02-4.635V58.7a7.907,7.907,0,0,0-15.813.005c0,.188,0,7.311,0,6.857a4.405,4.405,0,0,1-8.81,0V45.484H69.257c0,2.7,0-9.767-.005,26.369A4.362,4.362,0,0,1,65.468,76.189ZM32.324,49.565H16.932V45.484H32.324Zm40.433,0V45.484h7.526v4.081ZM13.734,58.791A4.535,4.535,0,0,1,9.21,54.254V42.726A21.229,21.229,0,0,1,30.353,21.52h36.5A21.23,21.23,0,0,1,88,42.726V54.254a4.535,4.535,0,0,1-4.524,4.537H78.7V53.065h3.337a1.749,1.749,0,0,0,1.75-1.75V43.734a1.75,1.75,0,0,0-1.75-1.75H15.182a1.75,1.75,0,0,0-1.75,1.75v7.581a1.749,1.749,0,0,0,1.75,1.75h3.329v5.726ZM65.5,106.48H31.689a9.694,9.694,0,0,1-9.678-9.689V53.071H32.319V65.557a7.908,7.908,0,0,0,15.816,0V59.016a4.67,4.67,0,0,1,4.232-4.7A4.377,4.377,0,0,1,56.945,58.7V71.851a7.906,7.906,0,0,0,15.812,0V53.071H75.2V75.432a18.286,18.286,0,0,0-3.068,3.449,7.427,7.427,0,0,1-6.434,3.377L44.575,81.4a7.919,7.919,0,0,0-7.07,3.7,7.117,7.117,0,0,0-1.054,3.427v0h0c0,.011,0,.022,0,.034a7.488,7.488,0,0,0,7.794,7.8l21.449-.864a7.424,7.424,0,0,1,6.432,3.373,19.922,19.922,0,0,0,1.959,2.406A9.758,9.758,0,0,1,65.5,106.48Zm9.525-9.565a11.035,11.035,0,0,0-9.467-4.9L44.1,92.877a3.992,3.992,0,0,1-4.156-4.185,4.23,4.23,0,0,1,4.489-3.79l21.118.854a11.014,11.014,0,0,0,9.471-4.911A14.293,14.293,0,0,1,85.1,74.689v28.387A14.263,14.263,0,0,1,75.021,96.915Zm17.759,9.563H88.6c0-54.652,0,4.79,0-35.186H92.78Zm25.43-3.294H96.28v-28.6h21.93a.58.58,0,0,1,.58.58v6.7h-5.268a1.75,1.75,0,1,0,0,3.5h5.268V92.4h-8.154a1.75,1.75,0,0,0,0,3.5h8.154v6.7A.581.581,0,0,1,118.21,103.184Z"/>
</svg>
