<?xml version="1.0" encoding="utf-8"?>
<!-- Generator: Adobe Illustrator 28.4.1, SVG Export Plug-In . SVG Version: 6.00 Build 0)  -->
<svg version="1.0" id="Layer_1" xmlns="http://www.w3.org/2000/svg" xmlns:xlink="http://www.w3.org/1999/xlink" x="0px" y="0px"
	 viewBox="0 0 64 64" style="enable-background:new 0 0 64 64;" xml:space="preserve">
<style type="text/css">
	.st0{fill:none;stroke:#231F20;stroke-width:2;stroke-linecap:round;stroke-linejoin:round;stroke-miterlimit:10;}
</style>
<g>
	<path class="st0" d="M25.4,8.3c1.9,0.3,3.4,1.7,3.9,3.6l1.4,8.2c0,0.1,0,0.2,0,0.2c0,0.6-0.5,1.2-1.2,1.2c-0.5,0-1-0.3-1.1-0.8
		l-1.6-4.2c-0.3-0.6-0.9-1-1.6-1h-9c-0.7,0-1.3,0.4-1.6,1l-1.6,4.2c-0.2,0.5-0.6,0.8-1.1,0.8c-0.7,0-1.3-0.7-1.2-1.4l1.4-8.2
		c0.5-1.9,2.1-3.3,4-3.6"/>
	<circle class="st0" cx="20.8" cy="8" r="4.6"/>
	<path class="st0" d="M47.9,8.3c1.9,0.3,3.4,1.7,3.9,3.6l1.4,8.2c0,0.1,0,0.2,0,0.2c0,0.6-0.5,1.2-1.2,1.2c-0.5,0-1-0.3-1.1-0.8
		l-1.6-4.2c-0.3-0.6-0.9-1-1.6-1h-9c-0.7,0-1.3,0.4-1.6,1l-1.6,4.2c-0.2,0.5-0.6,0.8-1.1,0.8c-0.7,0-1.3-0.7-1.2-1.4l1.4-8.2
		c0.5-1.9,2.1-3.3,4-3.6"/>
	<circle class="st0" cx="43.3" cy="8" r="4.6"/>
	<line class="st0" x1="29.6" y1="13.9" x2="34.4" y2="13.9"/>
	<path class="st0" d="M16.2,55.7c-1.9-0.3-3.5-1.7-4-3.6l-1.4-8.2c-0.1-0.7,0.4-1.4,1.2-1.4c0.5,0,1,0.3,1.1,0.8l1.6,4.2
		c0.3,0.6,0.9,1,1.6,1h9c0.7,0,1.3-0.4,1.6-1l1.6-4.2c0.2-0.5,0.6-0.8,1.1-0.8c0.7,0,1.2,0.5,1.2,1.2c0,0.1,0,0.2,0,0.2l-1.4,8.2
		c-0.5,1.9-2,3.3-3.9,3.6"/>
	<circle class="st0" cx="20.8" cy="56" r="4.6"/>
	<path class="st0" d="M38.7,55.7c-1.9-0.3-3.5-1.7-4-3.6l-1.4-8.2c-0.1-0.7,0.4-1.4,1.2-1.4c0.5,0,1,0.3,1.1,0.8l1.6,4.2
		c0.3,0.6,0.9,1,1.6,1h9c0.7,0,1.3-0.4,1.6-1l1.6-4.2c0.2-0.5,0.6-0.8,1.1-0.8c0.7,0,1.2,0.5,1.2,1.2c0,0.1,0,0.2,0,0.2l-1.4,8.2
		c-0.5,1.9-2,3.3-3.9,3.6"/>
	<circle class="st0" cx="43.3" cy="56" r="4.6"/>
	<line class="st0" x1="29.6" y1="50.1" x2="34.4" y2="50.1"/>
	<polyline class="st0" points="52.1,50.1 59.1,50.1 59.1,13.9 52.1,13.9 	"/>
	<polyline class="st0" points="11.9,50.1 4.9,50.1 4.9,13.9 11.9,13.9 	"/>
</g>
</svg>
