<svg xmlns="http://www.w3.org/2000/svg" width="24" height="24" viewBox="0 0 24 24">
  <path d="M20.947,12.192a.5.5,0,0,0,0-.384.514.514,0,0,0-.109-.162L18.01,8.818a.5.5,0,0,0-.707.707L19.278,11.5H12.5V4.722L14.475,6.7a.5.5,0,0,0,.707-.707L12.354,3.162a.5.5,0,0,0-.708,0L8.818,5.989a.5.5,0,0,0,.707.707L11.5,4.722V11.5H4.722L6.7,9.525a.5.5,0,1,0-.707-.707L3.162,11.646a.514.514,0,0,0-.109.162.5.5,0,0,0,0,.384.514.514,0,0,0,.109.162L5.99,15.182a.5.5,0,1,0,.707-.707L4.722,12.5H11.5v6.778L9.525,17.3a.5.5,0,0,0-.707.707l2.828,2.827a.5.5,0,0,0,.708,0l2.828-2.827a.5.5,0,0,0-.707-.707L12.5,19.278V12.5h6.778L17.3,14.475a.5.5,0,0,0,.707.707l2.828-2.828A.514.514,0,0,0,20.947,12.192Z"/>
</svg>
