<svg xmlns="http://www.w3.org/2000/svg" width="128" height="128" viewBox="0 0 128 128">
  <title>CUTTER</title>
  <g>
    <path d="M113.278,10.671a17.463,17.463,0,0,0-24.667,0L31.124,68.159a1.751,1.751,0,0,0-.4,1.86l1.128,2.958L10.125,94.706a1.75,1.75,0,0,0-.416,1.809l8.553,24.736a1.752,1.752,0,0,0,2.892.666L42.41,100.66l.569,1.493a1.75,1.75,0,0,0,2.872.614l67.428-67.428A17.433,17.433,0,0,0,113.278,10.671ZM20.657,117.464,13.374,96.406,33.22,76.56l7.823,20.518Zm90.147-84.6L45.287,98.382,34.4,69.832,91.086,13.146A13.943,13.943,0,0,1,110.8,32.865Z"/>
    <path d="M89.752,25.03l-21.9,21.9a9.5,9.5,0,0,0-9.843,9.844L46.641,68.14a6.487,6.487,0,1,0,9.174,9.174L67.19,65.939A9.485,9.485,0,0,0,77.028,56.1l21.9-21.9a6.487,6.487,0,1,0-9.174-9.174ZM53.341,74.839a2.987,2.987,0,1,1-4.225-4.224l9.891-9.892a9.617,9.617,0,0,0,4.22,4.23Zm13.384-12.43a6.025,6.025,0,1,1,6.766-6.754A5.991,5.991,0,0,1,66.725,62.409Zm29.726-30.68L76.034,52.144a9.608,9.608,0,0,0-4.229-4.219L92.226,27.5a2.988,2.988,0,1,1,4.225,4.225Z"/>
  </g>
</svg>
