<?xml version="1.0" encoding="utf-8"?>
<!-- Generator: Adobe Illustrator 24.1.3, SVG Export Plug-In . SVG Version: 6.00 Build 0)  -->
<svg version="1.1" xmlns="http://www.w3.org/2000/svg" xmlns:xlink="http://www.w3.org/1999/xlink" x="0px" y="0px"
	 viewBox="0 0 24 24" style="enable-background:new 0 0 24 24;" xml:space="preserve">
<style type="text/css">
	.st0{fill:#231F20;}
</style>
<g id="Design_here">
	<g>
		<g>
			<path class="st0" d="M12,21c-0.14,0-0.27-0.06-0.36-0.16l-7.04-7.48c-2.12-2.25-2.12-5.91,0-8.16c1.03-1.1,2.41-1.7,3.89-1.7
				c1.31,0,2.54,0.48,3.52,1.35c0.98-0.87,2.22-1.35,3.52-1.35c1.47,0,2.85,0.6,3.89,1.7c2.12,2.25,2.12,5.91,0,8.16l-7.04,7.48
				C12.27,20.94,12.14,21,12,21z M8.48,4.5c-1.19,0-2.31,0.49-3.16,1.39c-1.76,1.87-1.76,4.92,0,6.79L12,19.77l6.68-7.09
				c1.76-1.87,1.76-4.92,0-6.79c-0.84-0.9-1.97-1.39-3.16-1.39c-1.19,0-2.31,0.49-3.16,1.39c-0.19,0.2-0.54,0.2-0.73,0
				C10.79,4.99,9.67,4.5,8.48,4.5z"/>
		</g>
	</g>
</g>
<g id="Guide">
</g>
</svg>
