<svg xmlns="http://www.w3.org/2000/svg" width="128" height="128" viewBox="0 0 128 128">
  <title>COMPASS</title>
  <path d="M92.918,80.866H90.976V60.438a1.751,1.751,0,0,0-1.75-1.75H80a1.751,1.751,0,0,0-1.75,1.75V80.866H76.009L67.942,43.427h.494a3.254,3.254,0,0,0,3.25-3.25V30.441a3.254,3.254,0,0,0-3.25-3.25h-1.6V21.3a1.75,1.75,0,0,0-1.75-1.75H62.275V12.075a6.689,6.689,0,1,0-13.378,0v7.476H46.081a1.75,1.75,0,0,0-1.75,1.75v5.89h-1.6a3.254,3.254,0,0,0-3.25,3.25v9.736a3.254,3.254,0,0,0,3.25,3.25h.5L29.812,106.359a6.722,6.722,0,0,0,3.1,7.162l-1.579,6.956a1.75,1.75,0,0,0,3.413.775l1.535-6.763a6.749,6.749,0,0,0,6.7-5.32L55.6,50.025,62.658,82.8v6.208a5.426,5.426,0,0,0,5.419,5.42H78.25v13.283a2.8,2.8,0,0,0,.1.579c1.154,3.287,4.613,13.15,4.613,13.15a1.75,1.75,0,0,0,3.3,0l4.612-13.15a1.97,1.97,0,0,0,.1-.579V94.431h1.942a5.426,5.426,0,0,0,5.419-5.42V86.286A5.426,5.426,0,0,0,92.918,80.866ZM81.75,62.188h5.726V80.866H81.75ZM52.4,12.075a3.189,3.189,0,0,1,6.378,0v7.476H52.4ZM47.831,23.051h15.51v4.14H47.831Zm-4.846,7.64h25.2v9.236h-25.2Zm-3.427,77.747a3.233,3.233,0,0,1-6.323-1.348L46.814,43.427h6.609Zm24.8-65.011,8.068,37.439H65.821L57.753,43.427Zm20.252,72.15-2.144-6.113h4.289Zm2.863-9.613H81.75V94.431h5.726Zm7.361-16.953a1.922,1.922,0,0,1-1.919,1.92H68.077a1.922,1.922,0,0,1-1.919-1.92V84.366h26.76a1.922,1.922,0,0,1,1.919,1.92Z"/>
</svg>
