<svg xmlns="http://www.w3.org/2000/svg" width="24" height="24" viewBox="0 0 24 24">
  <path d="M21,12.5H17V10h1.5A1.5,1.5,0,0,0,20,8.5v-2a.5.5,0,0,0-1,0v2a.5.5,0,0,1-.5.5H17V8.5a1.5,1.5,0,0,0-1-1.408V6.5A3.779,3.779,0,0,0,12,3,3.779,3.779,0,0,0,8,6.5v.592A1.5,1.5,0,0,0,7,8.5V9H5.5A.5.5,0,0,1,5,8.5v-2a.5.5,0,0,0-1,0v2A1.5,1.5,0,0,0,5.5,10H7v2.5H3a.5.5,0,0,0,0,1H7V16H5.5A1.5,1.5,0,0,0,4,17.5v2a.5.5,0,0,0,1,0v-2a.5.5,0,0,1,.5-.5H7.1a5,5,0,0,0,9.8,0h1.6a.5.5,0,0,1,.5.5v2a.5.5,0,0,0,1,0v-2A1.5,1.5,0,0,0,18.5,16H17V13.5h4a.5.5,0,0,0,0-1ZM12,4a2.788,2.788,0,0,1,3,2.5V7H9V6.5A2.788,2.788,0,0,1,12,4ZM8,16V8.5A.5.5,0,0,1,8.5,8h3V19.949A3.992,3.992,0,0,1,8,16Zm4.5,3.949V8h3a.5.5,0,0,1,.5.5V16A3.992,3.992,0,0,1,12.5,19.949Z"/>
</svg>
