<svg xmlns="http://www.w3.org/2000/svg" width="128" height="128" viewBox="0 0 128 128">
  <title>PAINT</title>
  <g>
    <path d="M26.724,93.079a5.8,5.8,0,1,0,8.209,0A5.761,5.761,0,0,0,26.724,93.079Zm5.734,5.734a2.3,2.3,0,1,1,0-3.26A2.307,2.307,0,0,1,32.458,98.813Z"/>
    <path d="M110.382,62.931A182.591,182.591,0,0,0,89.4,38.237,184.2,184.2,0,0,0,65.158,17.564a1.749,1.749,0,0,0-2.365.342L46.552,38.188a5.794,5.794,0,0,0-5.91,1.388L38.91,41.308a5.816,5.816,0,0,0-.755,7.282l-4.033,4.033a10.038,10.038,0,0,0,0,14.2l1.326,1.326a5.875,5.875,0,0,1-.464,8.727L22.451,87a13.791,13.791,0,0,0-5.112,9.758,12.927,12.927,0,0,0,3.536,9.849A13.252,13.252,0,0,0,30.5,110.75c.173,0,.346,0,.519-.01a13.24,13.24,0,0,0,9.782-4.911l10.338-12.8a5.876,5.876,0,0,1,8.727-.463l1.327,1.326a10.052,10.052,0,0,0,14.2,0l4.033-4.034A5.813,5.813,0,0,0,86.7,89.1l1.732-1.733A5.8,5.8,0,0,0,89.563,80.8L110,65.318A1.75,1.75,0,0,0,110.382,62.931ZM72.914,91.416a6.55,6.55,0,0,1-9.249,0l-1.326-1.327a9.375,9.375,0,0,0-13.925.739l-10.337,12.8a9.739,9.739,0,0,1-14.659.567,9.46,9.46,0,0,1-2.587-7.21,10.279,10.279,0,0,1,3.819-7.269L37.184,79.6a9.376,9.376,0,0,0,.738-13.925L36.6,64.346a6.54,6.54,0,0,1,0-9.248l3.944-3.944L75.476,86.088l1.382,1.383ZM85.961,84.9l-1.733,1.732a2.312,2.312,0,0,1-3.264,0l-.394-.394h0l-19.4-19.4L41.384,47.048a2.312,2.312,0,0,1,0-3.265l1.733-1.733a2.314,2.314,0,0,1,3.265,0l5.739,5.739,0,0,0,0L66.169,61.837l0,0,0,0,7.019,7.02,0,0,0,0L85.961,81.629A2.313,2.313,0,0,1,85.961,84.9Zm1.4-6.822-3.425-3.425,6.275-6.275A1.75,1.75,0,0,0,87.734,65.9L81.46,72.173l-4.55-4.549,3.79-3.79a1.75,1.75,0,0,0-2.474-2.475l-3.79,3.79L69.886,60.6l6.275-6.275a1.75,1.75,0,0,0-2.475-2.475l-6.275,6.275-4.549-4.549,3.79-3.79a1.75,1.75,0,0,0-2.474-2.475l-3.79,3.79-4.55-4.549,6.275-6.275A1.75,1.75,0,0,0,59.638,37.8l-6.275,6.275-3.911-3.911L64.5,21.379a184.757,184.757,0,0,1,22.43,19.332,183.15,183.15,0,0,1,19.616,22.834Z"/>
  </g>
</svg>
