<svg id="Capa_1" enable-background="new 0 0 512 512" height="512" viewBox="0 0 512 512" width="512" xmlns="http://www.w3.org/2000/svg"><g><path d="m512 178.712c0-51.374-39.453-93.701-89.651-98.292v-20.42h39.651c16.542 0 30-13.458 30-30s-13.458-30-30-30h-39.651c-11.028 0-20 8.972-20 20v60s-168.364 0-168.365 0c-36.778.002-70.372 20.497-87.352 52.73h-126.632c-11.028 0-20 8.972-20 20v157.43c0 11.028 8.972 20 20 20h263.637v161.84c0 11.028 8.972 20 20 20h40c11.028 0 20-8.972 20-20v-161.84h128.363c11.028 0 20-8.972 20-20v-31.316c0-5.523-4.477-10-10-10s-10 4.477-10 10v31.316h-159.3v-131.45c0-26.358-10.266-51.147-28.911-69.803-3.227-3.225-6.642-6.193-10.213-8.907h108.773v40.566c-11.639 4.128-20 15.243-20 28.28 0 16.542 13.458 30 30 30s30-13.458 30-30c0-13.036-8.361-24.152-20-28.28v-40.028c39.147 4.51 69.651 37.838 69.651 78.174v20.132c0 5.522 4.477 10 10 10s10-4.478 10-10zm-416.38 52.737-75.62 66.577v-133.165zm15.132 13.324 10.736 9.454c3.769 3.318 8.493 4.978 13.218 4.978s9.45-1.66 13.217-4.978l10.737-9.455c24.754 21.792 49.51 43.589 74.265 65.387h-196.44zm63.04-13.324 75.623-66.59v133.173c-25.207-22.197-50.416-44.393-75.623-66.583zm-39.086 7.769-98.219-86.488h196.438zm208.931 252.782h-40v-161.84h40zm-30.937-313.29v131.45h-43.285v-157.43c0-11.028-8.972-20-20-20h-79.311c14.611-20.268 38.279-32.73 63.886-32.73 21.019 0 40.786 8.188 55.657 23.05 14.866 14.875 23.053 34.641 23.053 55.66zm109.649-158.71h39.651c5.514 0 10 4.486 10 10s-4.486 10-10 10h-39.651zm-10 158.846c-5.514 0-10-4.486-10-10s4.486-10 10-10 10 4.486 10 10-4.486 10-10 10z"/><ellipse cx="501.999" cy="238.846" rx="10" ry="10" transform="matrix(.987 -.16 .16 .987 -31.777 83.495)"/></g></svg>