<?xml version="1.0" encoding="utf-8"?>
<!-- Generator: Adobe Illustrator 28.4.1, SVG Export Plug-In . SVG Version: 6.00 Build 0)  -->
<svg version="1.0" id="Layer_1" xmlns="http://www.w3.org/2000/svg" xmlns:xlink="http://www.w3.org/1999/xlink" x="0px" y="0px"
	 viewBox="0 0 64 64" style="enable-background:new 0 0 64 64;" xml:space="preserve">
<style type="text/css">
	.st0{fill:none;stroke:#231F20;stroke-width:2;stroke-linecap:round;stroke-linejoin:round;stroke-miterlimit:10;}
</style>
<g>
	<circle class="st0" cx="11.3" cy="12.7" r="4.1"/>
	<path class="st0" d="M16.5,30.4V33c0,0.9,0.7,1.7,1.7,1.7h0c0.9,0,1.7-0.7,1.7-1.7v-8.3c0-2.6-1.9-4.9-4.5-5.2c-0.2,0-0.4,0-0.5,0
		H8c-0.2,0-0.4,0-0.5,0C4.9,19.7,3,22.1,3,24.6V33c0,0.9,0.7,1.7,1.7,1.7h0c0.9,0,1.7-0.7,1.7-1.7v-2.5"/>
	<line class="st0" x1="6.3" y1="54.4" x2="6.3" y2="24.5"/>
	<line class="st0" x1="16.5" y1="24.5" x2="16.5" y2="54.4"/>
	<line class="st0" x1="11.4" y1="37.2" x2="11.4" y2="54.4"/>
	<circle class="st0" cx="33.2" cy="8.9" r="3.4"/>
	<path class="st0" d="M40.3,25.8v-6.9c0-2.1-1.6-4.1-3.7-4.3c-0.1,0-0.3,0-0.4,0h-5.7c-0.1,0-0.3,0-0.4,0c-2.1,0.2-3.7,2.1-3.7,4.3
		v6.9"/>
	<line class="st0" x1="29.5" y1="25.8" x2="29.5" y2="19.5"/>
	<line class="st0" x1="37.1" y1="19.5" x2="37.1" y2="25.8"/>
	<rect x="24.3" y="25.8" class="st0" width="36.7" height="4"/>
	<circle class="st0" cx="51.9" cy="8.9" r="3.4"/>
	<path class="st0" d="M59,25.8v-6.9c0-2.1-1.6-4.1-3.7-4.3c-0.1,0-0.3,0-0.4,0h-5.7c-0.1,0-0.3,0-0.4,0c-2.1,0.2-3.7,2.1-3.7,4.3
		v6.9"/>
	<line class="st0" x1="48.2" y1="25.8" x2="48.2" y2="19.5"/>
	<line class="st0" x1="55.8" y1="19.5" x2="55.8" y2="25.8"/>
	<circle class="st0" cx="33.2" cy="37.6" r="3.4"/>
	<path class="st0" d="M40.3,54.4v-6.9c0-2.1-1.6-4.1-3.7-4.3c-0.1,0-0.3,0-0.4,0h-5.7c-0.1,0-0.3,0-0.4,0c-2.1,0.2-3.7,2.1-3.7,4.3
		v6.9"/>
	<line class="st0" x1="29.5" y1="54.4" x2="29.5" y2="48.2"/>
	<line class="st0" x1="37.1" y1="48.2" x2="37.1" y2="54.4"/>
	<rect x="24.3" y="54.4" class="st0" width="36.7" height="4"/>
	<circle class="st0" cx="51.9" cy="37.6" r="3.4"/>
	<path class="st0" d="M59,54.4v-6.9c0-2.1-1.6-4.1-3.7-4.3c-0.1,0-0.3,0-0.4,0h-5.7c-0.1,0-0.3,0-0.4,0c-2.1,0.2-3.7,2.1-3.7,4.3
		v6.9"/>
	<line class="st0" x1="48.2" y1="54.4" x2="48.2" y2="48.2"/>
	<line class="st0" x1="55.8" y1="48.2" x2="55.8" y2="54.4"/>
</g>
</svg>
