<svg xmlns="http://www.w3.org/2000/svg" width="128" height="128" viewBox="0 0 128 128">
  <title>STICKY TAPE</title>
  <g>
    <path d="M30.462,43.584c2.169,1.072,10.358,4.569,24.7,4.569s22.529-3.5,24.7-4.569a1.749,1.749,0,0,0,0-3.137c-2.169-1.072-10.358-4.569-24.7-4.569s-22.529,3.5-24.7,4.569a1.749,1.749,0,0,0,0,3.137Zm24.7-4.206a64.806,64.806,0,0,1,19.145,2.638A64.844,64.844,0,0,1,55.16,44.653a64.832,64.832,0,0,1-19.144-2.637A64.794,64.794,0,0,1,55.16,39.378Z"/>
    <path d="M109.712,60.746A27.971,27.971,0,0,1,96.031,47.6l-2.988-6.054c-.568-8.821-17-15.666-37.883-15.666-21.258,0-37.91,7.089-37.91,16.138V79.828c0,9.042,16.652,16.125,37.91,16.125,17.323,0,31.584-4.7,36.272-11.338a31.6,31.6,0,0,0,13.2,15.024l3.492,2.027a1.75,1.75,0,0,0,2.629-1.514V62.345A1.75,1.75,0,0,0,109.712,60.746ZM55.16,29.378c16.275,0,34.41,5.19,34.41,12.638S71.435,54.653,55.16,54.653s-34.41-5.19-34.41-12.637S38.885,29.378,55.16,29.378Zm0,63.075c-16.275,0-34.41-5.184-34.41-12.625V48.9c5.964,5.515,18.968,9.257,34.41,9.257S83.606,54.411,89.57,48.9V79.828C89.57,87.269,71.435,92.453,55.16,92.453Zm52.09,4.66-.863-.5a28.074,28.074,0,0,1-11.743-13.38l-1.57-3.757V49.509A31.486,31.486,0,0,0,107.25,63.458Z"/>
  </g>
</svg>
