<?xml version="1.0" encoding="utf-8"?>
<!-- Generator: Adobe Illustrator 24.1.3, SVG Export Plug-In . SVG Version: 6.00 Build 0)  -->
<svg version="1.1" xmlns="http://www.w3.org/2000/svg" xmlns:xlink="http://www.w3.org/1999/xlink" x="0px" y="0px"
	 viewBox="0 0 24 24" style="enable-background:new 0 0 24 24;" xml:space="preserve">
<style type="text/css">
	.st0{fill:#231F20;}
</style>
<g id="Design_here">
	<g>
		<path class="st0" d="M19.5,21h-15C3.67,21,3,20.33,3,19.5v-15C3,3.67,3.67,3,4.5,3h15C20.33,3,21,3.67,21,4.5v15
			C21,20.33,20.33,21,19.5,21z M4.5,4C4.22,4,4,4.22,4,4.5v15C4,19.78,4.22,20,4.5,20h15c0.28,0,0.5-0.22,0.5-0.5v-15
			C20,4.22,19.78,4,19.5,4H4.5z"/>
	</g>
	<g>
		<path class="st0" d="M3.5,17.5c-0.15,0-0.3-0.07-0.4-0.2c-0.17-0.22-0.12-0.53,0.1-0.7l3.65-2.75c0.53-0.4,1.27-0.4,1.8,0
			l1.98,1.49c0.18,0.13,0.42,0.13,0.6,0l3.05-2.29c0.53-0.4,1.27-0.4,1.8,0l4.71,3.55c0.22,0.17,0.26,0.48,0.1,0.7
			c-0.17,0.22-0.48,0.26-0.7,0.1l-4.71-3.55c-0.18-0.13-0.42-0.13-0.6,0l-3.05,2.29c-0.53,0.4-1.27,0.4-1.8,0l-1.98-1.49
			c-0.18-0.13-0.42-0.13-0.6,0L3.8,17.4C3.71,17.47,3.6,17.5,3.5,17.5z"/>
	</g>
	<g>
		<path class="st0" d="M10,12c-1.65,0-3-1.35-3-3s1.35-3,3-3s3,1.35,3,3S11.65,12,10,12z M10,7C8.9,7,8,7.9,8,9s0.9,2,2,2s2-0.9,2-2
			S11.1,7,10,7z"/>
	</g>
</g>
<g id="Guide">
</g>
</svg>
