<svg xmlns="http://www.w3.org/2000/svg" width="128" height="128" viewBox="0 0 128 128">
  <title>Memory Card</title>
  <path d="M26.43,73.084a1.749,1.749,0,0,0-1.75,1.75v38.7a1.749,1.749,0,0,0,1.75,1.75h75.14a1.749,1.749,0,0,0,1.75-1.75v-38.7a1.749,1.749,0,0,0-1.75-1.75H98.206V48.3h3.364a1.75,1.75,0,0,0,1.75-1.75V14.483a1.75,1.75,0,0,0-1.75-1.75H39a1.749,1.749,0,0,0-1.492.835L24.938,34.061a1.748,1.748,0,0,0-.258.915v11.57a1.75,1.75,0,0,0,1.75,1.75h3.364V73.084Zm16.6,38.7V100.253h41.95v11.528ZM31.544,44.8H28.18V35.47l11.8-19.237h5.994V31.291a1.75,1.75,0,1,0,3.5,0V16.233H60.487V31.291a1.75,1.75,0,1,0,3.5,0V16.233H75V31.291a1.75,1.75,0,0,0,3.5,0V16.233H89.519V31.291a1.75,1.75,0,0,0,3.5,0V16.233h6.8V44.8H96.456a1.75,1.75,0,0,0-1.75,1.75V74.834a1.749,1.749,0,0,0,1.75,1.75H99.82v35.2H88.475V98.5a1.75,1.75,0,0,0-1.75-1.75H41.275a1.75,1.75,0,0,0-1.75,1.75v13.278H28.18v-35.2h3.364a1.749,1.749,0,0,0,1.75-1.75V46.546A1.75,1.75,0,0,0,31.544,44.8Z"/>
</svg>
