<svg xmlns="http://www.w3.org/2000/svg" width="128" height="128" viewBox="0 0 128 128">
  <title>HIGH PERFORMANCE</title>
  <g>
    <path d="M110.116,19.336a1.751,1.751,0,0,0-1.435-1.436c-15.765-2.663-31.765,2.051-45.035,13.268-1.575,1.306-3.971,3.6-5.2,4.83a69.2,69.2,0,0,0-7.821,9.369l-11.186.851a11.336,11.336,0,0,0-9.5,6.688l-4.389,9.829a1.748,1.748,0,0,0,1.3,2.439l12.95,2.19-2.029,2.59a6.434,6.434,0,0,0,.514,8.507L49.486,89.654a6.432,6.432,0,0,0,8.507.514l2.589-2.029,2.19,12.95A1.749,1.749,0,0,0,65.21,102.4l9.83-4.376a11.337,11.337,0,0,0,6.7-9.512l.839-11.1a67.044,67.044,0,0,0,9.439-7.841c1.225-1.226,3.519-3.618,4.823-5.191C108.045,51.119,112.759,35.124,110.116,19.336Zm-76.979,35a7.838,7.838,0,0,1,6.571-4.625l8.538-.65A64.117,64.117,0,0,0,44.563,56.2a56.8,56.8,0,0,0-2.836,7.935L29.668,62.1Zm22.7,33.08a2.928,2.928,0,0,1-3.873-.234L40.768,75.986a2.93,2.93,0,0,1-.235-3.874l2.625-3.349L59.183,84.789Zm22.417.83a7.837,7.837,0,0,1-4.633,6.578l-7.77,3.459L63.82,86.291a55.541,55.541,0,0,0,7.959-2.845A62.778,62.778,0,0,0,78.89,79.79Zm15.913-26.12-.012.013c-1.1,1.324-3.149,3.495-4.608,4.955A63.376,63.376,0,0,1,79.915,75a58.654,58.654,0,0,1-9.548,5.24,52.244,52.244,0,0,1-7.962,2.817L44.944,65.6a53.25,53.25,0,0,1,2.821-7.979,60.558,60.558,0,0,1,5.259-9.587,65.825,65.825,0,0,1,7.9-9.561c1.458-1.458,3.628-3.509,4.969-4.62C78.024,23.6,92.521,19.114,106.855,21.158,108.881,35.513,104.4,50.013,94.163,62.123Z"/>
    <path d="M74.356,37.035a19.682,19.682,0,0,0-5.284,9.075c-1.015,4.155-.158,7.976,2.349,10.483a9.893,9.893,0,0,0,7.145,2.768,14.066,14.066,0,0,0,3.333-.416,19.682,19.682,0,0,0,9.081-5.286A19.19,19.19,0,0,0,96.47,43.57c.654-3.8-.253-7.168-2.555-9.47C89.332,29.517,80.558,30.834,74.356,37.035ZM93.02,42.977a15.683,15.683,0,0,1-4.514,8.208h0a16.139,16.139,0,0,1-7.43,4.358c-2.94.718-5.556.2-7.179-1.425s-2.142-4.239-1.422-7.183a16.143,16.143,0,0,1,4.357-7.426c3.008-3.008,6.79-4.651,9.965-4.651a6.4,6.4,0,0,1,4.644,1.717C92.915,38.05,93.477,40.324,93.02,42.977Z"/>
    <path d="M24.525,87.188c-8.274,8.273-6.713,20.9-6.642,21.437a1.75,1.75,0,0,0,1.506,1.5,24.737,24.737,0,0,0,3.025.162c4.357,0,12.5-.889,18.413-6.8,7.739-7.739,1.605-13.874-.411-15.89S32.265,79.447,24.525,87.188Zm13.827,13.826c-5.563,5.56-13.827,5.869-17.1,5.745-.123-3.275.184-11.536,5.745-17.1,4.384-4.386,7.437-3.094,10.941.41S42.736,96.629,38.352,101.014Z"/>
  </g>
</svg>
