<?xml version="1.0" encoding="utf-8"?>
<!-- Generator: Adobe Illustrator 23.0.6, SVG Export Plug-In . SVG Version: 6.00 Build 0)  -->
<svg version="1.1" id="Layer_1" xmlns="http://www.w3.org/2000/svg" xmlns:xlink="http://www.w3.org/1999/xlink" x="0px" y="0px"
	 viewBox="0 0 128 128" style="enable-background:new 0 0 128 128;" xml:space="preserve">
<title>SOON</title>
<g>
	<path d="M41.4,54.5h29.9v4.3c0,1.3,1.5,2,2.5,1.1l13.9-11.8c0.7-0.6,0.7-1.7,0-2.3L73.7,34.1c-1-0.8-2.5-0.1-2.5,1.1v4.3H41.4
		c-0.8,0-1.5,0.7-1.5,1.5V53C39.9,53.8,40.6,54.5,41.4,54.5z M42.9,42.6h29.9c0.8,0,1.5-0.7,1.5-1.5v-2.6L84.3,47l-10.1,8.5V53
		c0-0.8-0.7-1.5-1.5-1.5H42.9V42.6z"/>
	<path d="M103.4,21.7H24.6c-4.1,0-7.4,3.3-7.4,7.4v70c0,4.1,3.3,7.4,7.4,7.4h78.8c4.1,0,7.4-3.3,7.4-7.4V29
		C110.7,25,107.5,21.7,103.4,21.7z M107.3,99c0,2.1-1.7,3.9-3.9,3.9H24.6c-2.1,0-3.9-1.7-3.9-3.9V29c0-2.1,1.7-3.9,3.9-3.9h78.8
		c2.1,0,3.9,1.7,3.9,3.9V99z"/>
	<path d="M37.1,70.4h0.4c2.1,0,3.9,1.7,3.9,3.9c0,1,0.8,1.8,1.8,1.8s1.8-0.8,1.8-1.8c0-4.1-3.3-7.4-7.4-7.4h-0.4
		c-4.1,0-7.4,3.3-7.4,7.4c0,2.4,1.2,4.6,3.2,5.8l6.8,4.2c1,0.6,1.6,1.7,1.6,2.8c0,2.1-1.7,3.9-3.9,3.9h-0.4c-2.1,0-3.9-1.7-3.9-3.9
		c0-1-0.8-1.8-1.8-1.8c-1,0-1.8,0.8-1.8,1.8c0,4.1,3.3,7.4,7.4,7.4h0.4c4.1,0,7.4-3.3,7.4-7.4c0-2.4-1.2-4.6-3.2-5.8l-6.8-4.2
		c-1-0.6-1.6-1.7-1.6-2.8C33.2,72.2,34.9,70.4,37.1,70.4z"/>
	<path d="M55.1,66.9c-4,0-7.3,3.3-7.3,7.3v12.9c0,4,3.4,7.3,7.4,7.2c4,0,7.2-3.3,7.2-7.2V74.3C62.4,70.2,59.1,66.9,55.1,66.9z
		 M58.9,87.2c0,2.1-1.8,3.8-3.9,3.7c-2.1,0-3.7-1.7-3.7-3.7V74.3c0-2.1,1.6-3.8,3.7-3.9c2.2,0,3.9,1.7,3.9,3.9V87.2z"/>
	<path d="M73.6,66.9c-4,0-7.3,3.3-7.3,7.3v12.9c0,4,3.3,7.3,7.3,7.3c4,0,7.3-3.3,7.3-7.3V74.3C80.9,70.2,77.7,66.9,73.6,66.9z
		 M77.4,87.2c0,2.1-1.7,3.8-3.8,3.8c-2.1,0-3.8-1.7-3.8-3.8l0,0V74.3c0-2.1,1.7-3.8,3.8-3.8c2.1,0,3.8,1.7,3.8,3.8V87.2z"/>
	<path d="M96.1,68.7C96.1,68.7,96.1,68.7,96.1,68.7v16.1L88.3,68c-0.8-1.7-3.3-1.1-3.3,0.7v24c0,2.3,3.5,2.3,3.5,0V76.6
		c0,0,7.3,15.8,7.8,16.8c0.8,1.8,3.4,1.2,3.4-0.7c0-6,0-24,0-24C99.6,66.4,96.1,66.4,96.1,68.7z"/>
</g>
</svg>
