<svg xmlns="http://www.w3.org/2000/svg" width="128" height="128" viewBox="0 0 128 128">
  <title>Processor</title>
  <path d="M40.772,89.016H87.228a1.751,1.751,0,0,0,1.75-1.75V40.81a1.75,1.75,0,0,0-1.75-1.75H53.215a1.752,1.752,0,0,0-1.277.553L39.495,52.886a1.749,1.749,0,0,0-.473,1.2V87.266A1.751,1.751,0,0,0,40.772,89.016Zm1.75-34.242L53.974,42.56h31.5V85.516H42.522Z"/>
  <path d="M14.228,81.368a1.75,1.75,0,1,0,0,3.5H28.78v8.639a5.757,5.757,0,0,0,5.75,5.75h8.64V113.81a1.75,1.75,0,0,0,3.5,0V99.257H62.25V113.81a1.75,1.75,0,0,0,3.5,0V99.257H81.33V113.81a1.75,1.75,0,0,0,3.5,0V99.257h8.64a5.757,5.757,0,0,0,5.75-5.75V84.868h14.552a1.75,1.75,0,0,0,0-3.5H99.22V65.788h14.552a1.75,1.75,0,0,0,0-3.5H99.22V46.708h14.552a1.75,1.75,0,1,0,0-3.5H99.22v-8.64a5.757,5.757,0,0,0-5.75-5.75H84.83V14.266a1.75,1.75,0,0,0-3.5,0V28.818H65.75V14.266a1.75,1.75,0,0,0-3.5,0V28.818H46.67V14.266a1.75,1.75,0,1,0-3.5,0V28.818H34.53a5.757,5.757,0,0,0-5.75,5.75v8.64H14.228a1.75,1.75,0,0,0,0,3.5H28.78v15.58H14.228a1.75,1.75,0,1,0,0,3.5H28.78v15.58Zm18.052-46.8a2.253,2.253,0,0,1,2.25-2.25H93.47a2.253,2.253,0,0,1,2.25,2.25V93.507a2.253,2.253,0,0,1-2.25,2.25H34.53a2.253,2.253,0,0,1-2.25-2.25Z"/>
</svg>
