<svg xmlns="http://www.w3.org/2000/svg" width="128" height="128" viewBox="0 0 128 128">
  <title>GLOBE</title>
  <path d="M64,5.25A58.75,58.75,0,1,0,122.75,64,58.816,58.816,0,0,0,64,5.25Zm1.75,38.2a109.511,109.511,0,0,0,25.6-3.045,93.764,93.764,0,0,1,2.88,21.844H65.75Zm0-3.5V8.849C76.327,9.957,85.46,21.036,90.379,37.005A105.44,105.44,0,0,1,65.75,39.951Zm-3.5,0a105.386,105.386,0,0,1-24.629-2.946C42.54,21.036,51.673,9.957,62.25,8.849Zm0,3.5v18.8H33.774a93.771,93.771,0,0,1,2.88-21.844A109.511,109.511,0,0,0,62.25,43.451ZM30.275,62.25H8.794a54.9,54.9,0,0,1,9.764-29.624c2.229,1.63,6.915,4.488,14.782,6.861A95.655,95.655,0,0,0,30.275,62.25Zm0,3.5A95.648,95.648,0,0,0,33.34,88.513c-7.867,2.374-12.553,5.232-14.782,6.862A54.915,54.915,0,0,1,8.794,65.75Zm3.5,0H62.25v18.8a109.511,109.511,0,0,0-25.6,3.045A93.764,93.764,0,0,1,33.774,65.75Zm28.476,22.3v31.1C51.673,118.043,42.54,106.964,37.621,91A105.433,105.433,0,0,1,62.25,88.049Zm3.5,0A105.386,105.386,0,0,1,90.379,91c-4.919,15.969-14.052,27.048-24.629,28.156Zm0-3.5V65.75H94.226a93.771,93.771,0,0,1-2.88,21.844A109.511,109.511,0,0,0,65.75,84.549Zm31.974-18.8h21.482a54.9,54.9,0,0,1-9.764,29.624c-2.229-1.63-6.915-4.488-14.782-6.861A95.6,95.6,0,0,0,97.724,65.75Zm0-3.5A95.6,95.6,0,0,0,94.66,39.487c7.867-2.374,12.553-5.232,14.782-6.862a54.924,54.924,0,0,1,9.764,29.625ZM107.345,29.8a47.026,47.026,0,0,1-13.656,6.281C90.2,24.874,84.667,15.867,77.975,10.545A55.361,55.361,0,0,1,107.345,29.8ZM50.025,10.545C43.333,15.867,37.8,24.874,34.311,36.083A47.065,47.065,0,0,1,20.654,29.8,55.368,55.368,0,0,1,50.025,10.545ZM20.654,98.2a47.036,47.036,0,0,1,13.657-6.281c3.492,11.209,9.022,20.216,15.714,25.538A55.368,55.368,0,0,1,20.654,98.2Zm57.321,19.257c6.692-5.322,12.222-14.329,15.714-25.538A47.04,47.04,0,0,1,107.345,98.2,55.361,55.361,0,0,1,77.975,117.455Z"/>
</svg>
