<?xml version="1.0" encoding="UTF-8"?>
<svg id="Layer_1" xmlns="http://www.w3.org/2000/svg" version="1.1" viewBox="0 0 77 98.42">
  <!-- Generator: Adobe Illustrator 30.5.1, SVG Export Plug-In . SVG Version: 2.1.4 Build 3)  -->
  <path d="M12.06,8.02c-.7.7-.8,1.8-.1,2.5l6.6,7.2c.7.7,1.8.7,2.5.1.7-.7.7-1.8.1-2.5l-6.6-7.2c-.7-.8-1.8-.8-2.5-.1Z"/>
  <path d="M25.56,1.32c-.9.3-1.4,1.3-1.1,2.2h0l3.2,8.8c.3.9,1.3,1.4,2.2,1.1s1.4-1.3,1.1-2.2l-3.1-8.8c-.3-.9-1.3-1.4-2.3-1.1h0Z"/>
  <path d="M41.87.05c-.89-.24-1.92.32-2.16,1.31h0l-2.18,9.02c-.25,1.09.51,2.12,1.61,2.17.8.03,1.62-.53,1.76-1.33l2.18-9.02c.34-.99-.22-1.91-1.21-2.15Z"/>
  <path d="M75.16,47.42c-2.5-2.5-6.8-3-9.7-.1l-1.4,1.4v-21c0-3.2-2.6-5.7-5.7-5.7-.8,0-1.5.2-2.2.4-.1-3.2-2.7-5.7-5.8-5.6-3.1.1-5.6,2.6-5.6,5.7v.7c-3.8-1.6-8,1.2-7.9,5.3v.9c-.7-.3-1.5-.5-2.2-.5-.8,0-1.5.2-2.2.5v-.7c0-3.2-2.5-5.7-5.7-5.8-3.2,0-5.7,2.5-5.8,5.7-3.8-1.6-7.9,1.2-8,5.3v21l-1.4-1.4c-2.7-2.6-6.9-2.6-9.6,0-2.6,2.6-2.6,6.9-.1,9.5l8.9,11.3c.7,3.7,2.7,6.9,5.7,9.2v2.1h-1.7c-1,0-1.8.8-1.8,1.8h0v9.2c0,1,.8,1.8,1.8,1.8h29.5c1,0,1.8-.8,1.8-1.8v-4.4h16.2c1,0,1.8-.8,1.8-1.8v-9.2c0-1-.8-1.8-1.8-1.8h-1.7v-2.1c3-2.3,5-5.6,5.7-9.2,0,0,6.6-8.4,8.9-11.2,2.3-2.9,2.6-6.9,0-9.5ZM40.26,28.52c0-1.2,1-2.2,2.2-2.2s2.2,1,2.2,2.2v7.2c-.7-.3-1.4-.5-2.2-.5s-1.5.2-2.2.4c0,0,0-7.2,0-7.1ZM14.16,73.22c0-.3-.2-.6-.4-.8l-9.3-11.7c-1.6-2-1.3-3.7-.1-4.8,1.3-1.3,3.4-1.3,4.7,0l4.4,4.4c1.1,1.1,3,.3,3-1.2v-25.2c0-1.2,1-2.2,2.2-2.2s2.2,1,2.2,2.2h0v21.1c0,1,.8,1.8,1.8,1.8s1.8-.8,1.8-1.8v-21.1h0v-5.2c0-1.2,1-2.2,2.2-2.2s2.2,1,2.2,2.2h0v26.5c0,1,.8,1.8,1.8,1.8s1.8-.8,1.8-1.8v-20.4c0-1.2,1-2.3,2.3-2.2,1.2.1,2.1,1.1,2.1,2.1v20.3c0,1,.8,1.8,1.8,1.8s1.8-.8,1.8-1.8v-14.1c0-1.2,1-2.2,2.2-2.2s2.2.9,2.2,2.1v30.6c0,4.1-2.1,7.7-5.2,9.7-.5.3-.8.9-.8,1.5v3h-18.9v-3c0-.6-.3-1.1-.8-1.5-2.6-1.8-4.5-4.7-5-7.9ZM42.56,94.82h-26v-5.7h26c0,.2,0,5.9,0,5.7ZM60.46,88.62h-14.4v-1.3c0-1-.8-1.8-1.8-1.8h-2.1v-2.1c.3-.3.6-.5.7-.6h17.6v5.8ZM72.46,54.62l-9.3,11.7c-.2.2-.3.5-.4.8-.5,3.2-2.3,6.1-5,7.9-.5.3-.8.9-.8,1.5v3h-11c1.2-2,2.3-5,2.3-8V22.52c0-1.2,1-2.2,2.2-2.2s2.2,1,2.2,2.2v26.3c0,1,.8,1.8,1.8,1.8s1.8-.8,1.8-1.8h0v-21.1c0-1.3,1-2.3,2.2-2.3s2.2,1,2.2,2.2v25.2c0,1.6,1.9,2.3,3,1.2l4.4-4.4c1.3-1.3,3.4-1.3,4.6,0,1.1,1.3,1.3,3.1-.2,5Z"/>
</svg>