<?xml version="1.0" encoding="utf-8"?>
<!-- Generator: Adobe Illustrator 23.0.6, SVG Export Plug-In . SVG Version: 6.00 Build 0)  -->
<svg version="1.1" id="Layer_1" xmlns="http://www.w3.org/2000/svg" xmlns:xlink="http://www.w3.org/1999/xlink" x="0px" y="0px"
	 viewBox="0 0 128 128" style="enable-background:new 0 0 128 128;" xml:space="preserve">
<title>SUBTITUTE</title>
<path d="M22.6,106.9h36.2c1,0,1.7-0.8,1.8-1.7c0,0,0,0,0,0v-5.3c0-8.2-5-15.5-12.6-18.5c4.1-2.6,6.4-7,6.4-11.5
	c0-7.6-6.3-13.6-13.6-13.6c-7.5,0-13.6,6-13.6,13.5c0,4.7,2.4,9.1,6.4,11.6c-7.6,3-12.6,10.3-12.6,18.5v5.3
	C20.9,106.1,21.7,106.9,22.6,106.9z M30.6,69.9c0-5.6,4.6-10.1,10.1-10.1c5.6,0,10.1,4.5,10.1,10.1c0,5.6-4.6,10.1-10.1,10.1h0
	C35.2,80,30.6,75.4,30.6,69.9z M24.4,99.8c0-9,7.3-16.3,16.3-16.3h0c9,0,16.3,7.3,16.3,16.3v3.6H24.4V99.8z"/>
<path d="M94.5,47c6.3-4,8.3-12.3,4.3-18.6c-2.5-4.1-7-6.4-11.6-6.4c-7.5,0-13.6,6-13.6,13.5c0,4.7,2.4,9.1,6.4,11.6
	c-7.6,3-12.6,10.3-12.6,18.4v5.3c0,1,0.8,1.7,1.7,1.8c0,0,36.2,0,36.2,0c1,0,1.8-0.8,1.8-1.8v-5.3C107.1,57.3,102.1,49.9,94.5,47z
	 M77.1,35.5c0-5.6,4.6-10.1,10.1-10.1c5.6,0,10.1,4.5,10.1,10.1c0,5.7-4.6,10.1-10.1,10.1C81.7,45.6,77.1,41.1,77.1,35.5z M103.6,69
	H70.9v-3.6c0-9,7.3-16.3,16.3-16.3h0c9,0,16.3,7.3,16.3,16.3V69z"/>
<path d="M75.2,85.9c-0.7-0.7-1.8-0.7-2.5,0c0,0,0,0,0,0l-5.5,5.5c-0.7,0.7-0.7,1.8,0,2.5l5.5,5.5c0.7,0.7,1.8,0.7,2.5,0
	s0.7-1.8,0-2.5l0,0l-2.5-2.5h4.9c8.5,0,15.3-6.9,15.3-15.3c0-1-0.8-1.8-1.8-1.8s-1.8,0.8-1.8,1.8c0,6.5-5.3,11.8-11.8,11.8h-4.9
	l2.5-2.5C75.9,87.7,75.9,86.6,75.2,85.9z"/>
<path d="M39.5,48.1c0,1,0.8,1.8,1.8,1.8s1.8-0.8,1.8-1.8c0-6.5,5.3-11.8,11.8-11.8h4.9l-2.5,2.5c-0.7,0.7-0.7,1.8,0,2.5
	c0.7,0.7,1.8,0.7,2.5,0c0,0,0,0,0,0l5.5-5.5c0.6-0.6,0.7-1.8,0-2.5l-5.5-5.5c-0.7-0.7-1.8-0.7-2.5,0c-0.7,0.7-0.7,1.8,0,2.4l2.5,2.5
	h-4.9C46.4,32.8,39.5,39.6,39.5,48.1z"/>
</svg>
