<svg id="Capa_1" enable-background="new 0 0 512 512" height="512" viewBox="0 0 512 512" width="512" xmlns="http://www.w3.org/2000/svg"><g><path d="m512 192.63c0-5.421-2.112-10.519-5.947-14.354l-172.329-172.328c-7.916-7.915-20.793-7.915-28.709 0l-207.577 207.577c-3.913 3.913-3.913 10.257 0 14.17 3.914 3.913 10.256 3.913 14.17 0l207.578-207.578c.104-.105.264-.105.368 0l134.518 134.518-16.744 16.744-105.114-105.113c-3.785-3.785-8.817-5.869-14.17-5.869s-10.386 2.085-14.17 5.869l-237.608 237.607c-7.813 7.814-7.813 20.527 0 28.34l105.114 105.115-16.744 16.744-134.518-134.519c-.106-.105-.106-.263 0-.368l26.933-26.933c3.913-3.913 3.913-10.257 0-14.17-3.914-3.913-10.256-3.912-14.17 0l-26.934 26.933c-3.835 3.836-5.947 8.934-5.947 14.354s2.112 10.519 5.947 14.354l172.329 172.329c3.958 3.957 9.156 5.936 14.354 5.936s10.396-1.979 14.354-5.936l54.959-54.959c1.48.73 3.064 1.285 4.724 1.638 1.4.298 2.808.444 4.206.444 5.253 0 10.332-2.067 14.14-5.874l162.29-162.29h-.001c4.821-4.82 6.851-11.678 5.431-18.345-.354-1.66-.908-3.244-1.639-4.724l54.959-54.959c3.835-3.834 5.947-8.932 5.947-14.353zm-431.564 125.414 237.608-237.607 105.113 105.113-237.607 237.607zm112.378 173.838c-.063.063-.305.063-.368 0l-23.64-23.64 67.988-67.988 13.194 34.455zm240.318-221.04-162.29 162.29-18.532-48.395 132.43-132.429 47.963 18.329c.143.071.288.137.433.201-.001.002 0 .001-.004.004zm58.75-78.027-57.173 57.173-34.455-13.194 44.159-44.159c.002-.002.003-.004.005-.005l23.825-23.825 23.64 23.64c.031.031.078.079.078.184 0 .107-.047.154-.079.186z"/><path d="m375.209 197.869c7.813-7.814 7.813-20.527 0-28.34l-41.143-41.144c-7.814-7.813-20.527-7.813-28.341 0l-177.34 177.34c-3.785 3.785-5.869 8.818-5.869 14.17 0 5.353 2.084 10.385 5.869 14.17l41.143 41.143c3.785 3.785 8.817 5.87 14.17 5.87s10.386-2.085 14.17-5.869zm-55.314-55.314 41.152 41.135s-.002.003-.009.009l-19.401 19.401c-1.514-10.013-6.11-19.645-13.803-27.339-7.694-7.694-17.327-12.29-27.341-13.804zm-6.244 88.531c-11.345 11.332-29.793 11.327-41.132-.011-11.343-11.343-11.344-29.798-.002-41.142l.005-.005c5.671-5.67 13.12-8.505 20.569-8.505 7.451 0 14.901 2.836 20.573 8.507 11.34 11.34 11.343 29.788.011 41.132zm-123.719 41.433c5.494-5.495 12.801-8.521 20.572-8.521s15.076 3.026 20.572 8.522c11.344 11.343 11.344 29.8 0 41.143-5.495 5.495-12.801 8.522-20.572 8.522s-15.077-3.026-20.572-8.522c-5.495-5.495-8.522-12.801-8.522-20.572s3.027-15.077 8.522-20.572zm55.313-14.17c-7.505-7.504-17.01-12.279-27.311-13.832l26.611-26.611c1.514 10.013 6.11 19.646 13.804 27.34 7.695 7.694 17.328 12.29 27.34 13.803l-26.64 26.64c-1.513-10.013-6.11-19.646-13.804-27.34zm-61.545 102.69-41.144-41.144 19.373-19.374c1.554 10.302 6.328 19.807 13.832 27.311 7.504 7.505 17.009 12.279 27.312 13.833z"/><circle cx="72.299" cy="252.826" r="10.02"/><circle cx="210.496" cy="293.091" r="10.02"/><circle cx="204.359" cy="456.14" r="10.02"/><circle cx="287.74" cy="372.759" r="10.02"/><circle cx="330.251" cy="330.248" r="10.02"/><circle cx="372.761" cy="287.738" r="10.02"/><circle cx="456.141" cy="204.358" r="10.02"/><circle cx="293.088" cy="210.499" r="10.02"/></g></svg>