<svg id="Outline_Expand" data-name="Outline Expand" xmlns="http://www.w3.org/2000/svg" viewBox="0 0 64 64"><title>Pet</title><path d="M53.19,12.29a5,5,0,0,0-2.76-3.21c-3.13-1.46-7.74,0-9.73.79C38.24,8,34.81,8.2,32.83,8.74H31.07c-2-.53-5.37-.71-7.83,1.1-2-.76-6.5-2.22-9.64-.77a5.08,5.08,0,0,0-2.79,3.22,72.06,72.06,0,0,1-3.46,7.77C3.22,28.57.66,34.33,2.73,36.81a6.52,6.52,0,0,0,5.13,2.11h.45a10.27,10.27,0,0,0,4.91-1.51c-.51,4.31-.14,8,1.7,10.49a9.64,9.64,0,0,0,7.64,4.24A8.16,8.16,0,0,0,25,51.77a9.14,9.14,0,0,0,.87-.33A6.28,6.28,0,0,0,32,55.62a6.28,6.28,0,0,0,6.1-4.18,9.14,9.14,0,0,0,.87.33c3.65,1.1,7.41-.35,10.06-3.88,1.86-2.47,2.22-6.22,1.69-10.56a10.28,10.28,0,0,0,4.81,1.58l.65,0a6.52,6.52,0,0,0,5.14-2.13c2.07-2.47-.49-8.23-4.62-16.74A72.06,72.06,0,0,1,53.19,12.29ZM13.71,34.34a7.61,7.61,0,0,1-5.49,2.58,4.92,4.92,0,0,1-4-1.4c-1.39-1.66,2.39-9.44,4.89-14.59a71.55,71.55,0,0,0,3.56-8,3.13,3.13,0,0,1,1.72-2c1.85-.84,4.85-.3,7.31.55a6.39,6.39,0,0,0-.68,1.24l-.37.87C18,19.87,15,27.57,13.71,34.34ZM32,53.62a4.16,4.16,0,0,1-4.28-3.21A11.88,11.88,0,0,0,32,43.83a11.87,11.87,0,0,0,4.28,6.57A4.15,4.15,0,0,1,32,53.62Zm-.12-15.37c-3.51,0-6.37-2.37-6.37-5.28,0-2.08,1.37-2.66,6.37-2.66s6.36.58,6.36,2.66C38.19,35.88,35.33,38.25,31.83,38.25Zm15.55,8.44c-2.12,2.83-5.07,4-7.88,3.17S33.74,46,33.36,40.13c3.88-.64,6.83-3.6,6.83-7.16,0-4.66-4.83-4.66-8.36-4.66s-8.37,0-8.37,4.66c0,3.63,3.08,6.65,7.08,7.19-.39,5.89-3.41,8.87-6.14,9.7s-5.76-.34-7.88-3.17c-3.26-4.34-1.24-15.23,6-32.37l.37-.88c1.06-2.52,3.38-3.07,5.22-3.07a10,10,0,0,1,2.54.33.86.86,0,0,0,.28,0h2a.9.9,0,0,0,.28,0c.24-.07,5.91-1.66,7.75,2.74l.37.88C48.62,31.46,50.64,42.35,47.38,46.69ZM59.74,35.52a4.79,4.79,0,0,1-4.12,1.39,7.4,7.4,0,0,1-5.46-2.74c-1.34-6.73-4.29-14.35-6.94-20.63l-.37-.87a7.1,7.1,0,0,0-.67-1.22c1.91-.66,5.28-1.55,7.41-.56a3.11,3.11,0,0,1,1.7,2,71.55,71.55,0,0,0,3.56,8C57.35,26.08,61.13,33.86,59.74,35.52ZM26.35,18.32a3.59,3.59,0,1,0,3.59,3.59A3.59,3.59,0,0,0,26.35,18.32Zm0,5.18a1.59,1.59,0,1,1,1.59-1.59A1.59,1.59,0,0,1,26.35,23.5Zm11.3-5.18a3.59,3.59,0,1,0,3.59,3.59A3.59,3.59,0,0,0,37.65,18.32Zm0,5.18a1.59,1.59,0,1,1,1.59-1.59A1.59,1.59,0,0,1,37.65,23.5Z"/></svg>