<?xml version="1.0" encoding="utf-8"?>
<!-- Generator: Adobe Illustrator 28.4.1, SVG Export Plug-In . SVG Version: 6.00 Build 0)  -->
<svg version="1.0" id="Layer_1" xmlns="http://www.w3.org/2000/svg" xmlns:xlink="http://www.w3.org/1999/xlink" x="0px" y="0px"
	 viewBox="0 0 64 64" style="enable-background:new 0 0 64 64;" xml:space="preserve">
<style type="text/css">
	.st0{fill:none;stroke:#231F20;stroke-width:2;stroke-linecap:round;stroke-linejoin:round;stroke-miterlimit:10;}
</style>
<g>
	<circle class="st0" cx="31.9" cy="43" r="4.4"/>
	<path class="st0" d="M27.3,60.9v-6.1"/>
	<path class="st0" d="M40.4,60.9v-8.3c0-2.6-1.9-4.9-4.4-5.1c-0.2,0-0.4,0-0.5,0h-6.9c-0.2,0-0.4,0-0.5,0c-2.6,0.3-4.4,2.6-4.4,5.1
		v8.3"/>
	<path class="st0" d="M36.7,54.8v6.1"/>
	<circle class="st0" cx="31.9" cy="7.5" r="4.4"/>
	<path class="st0" d="M27.3,22.3v-3.1"/>
	<path class="st0" d="M40.4,22.3v-5.2c0-2.6-1.9-4.9-4.4-5.1c-0.2,0-0.4,0-0.5,0h-6.9c-0.2,0-0.4,0-0.5,0c-2.6,0.3-4.4,2.6-4.4,5.1
		v5.2"/>
	<path class="st0" d="M36.7,19.3v3.1"/>
	<path class="st0" d="M50.6,34.7l-2.7,2.5c-0.6,0.6-1.4,0.9-2.2,0.9l-6.9,0c-0.7,0-1.3-0.5-1.3-1.2l0,0c0-0.6,0.5-1.1,1.1-1.2l7-0.7
		l3.3-4c1-1.2,2.6-2,4.2-2h2.4c1.2,0,2.3,1,2.3,2.3v9.1"/>
	<circle class="st0" cx="53.9" cy="25.2" r="3.8"/>
	<polyline class="st0" points="16,32 18.3,22.3 45.7,22.3 48,32 	"/>
	<polyline class="st0" points="23.6,54.5 10.6,54.5 15,36.1 	"/>
	<polyline class="st0" points="49,36.1 53.4,54.5 40.4,54.5 	"/>
	<path class="st0" d="M13.4,34.7l2.7,2.5c0.6,0.6,1.4,0.9,2.2,0.9l6.9,0c0.7,0,1.3-0.5,1.3-1.2l0,0c0-0.6-0.5-1.1-1.1-1.2l-7-0.7
		l-3.3-4c-1-1.2-2.6-2-4.2-2H8.6c-1.2,0-2.3,1-2.3,2.3v9.1"/>
	<circle class="st0" cx="10.1" cy="25.2" r="3.8"/>
	<polyline class="st0" points="10.6,54.5 10.6,58.3 23.6,58.3 	"/>
	<polyline class="st0" points="53.4,54.5 53.4,58.3 40.4,58.3 	"/>
</g>
</svg>
