<svg xmlns="http://www.w3.org/2000/svg" width="128" height="128" viewBox="0 0 128 128">
  <title>ORGANIZATION</title>
  <path d="M42.046,102.536v-4.7a9.5,9.5,0,0,0-5.473-8.591,8.029,8.029,0,0,0-5.895-13.49,8.023,8.023,0,0,0-5.908,13.5,9.5,9.5,0,0,0-5.458,8.584v4.7a1.749,1.749,0,0,0,1.75,1.75H40.3A1.749,1.749,0,0,0,42.046,102.536ZM30.678,79.253a4.544,4.544,0,0,1,4.27,6.155,4.591,4.591,0,0,1-4.258,2.928h-.022a4.542,4.542,0,1,1,.01-9.083Zm7.868,21.533H22.812V97.834a6,6,0,0,1,6-6h3.738a6,6,0,0,1,6,6Z"/>
  <path d="M53.777,100.834v4.7a1.75,1.75,0,0,0,1.75,1.75H74.762a1.749,1.749,0,0,0,1.75-1.75v-4.7a9.5,9.5,0,0,0-5.473-8.591,7.987,7.987,0,0,0-2.2-12.593,8.036,8.036,0,0,0-9.6,12.6A9.5,9.5,0,0,0,53.777,100.834ZM65.144,82.253a4.544,4.544,0,0,1,4.27,6.155,4.591,4.591,0,0,1-4.258,2.928h-.022a4.542,4.542,0,1,1,.01-9.083Zm-7.867,18.581a6,6,0,0,1,6-6h3.739a6,6,0,0,1,6,6v2.952H57.277Z"/>
  <path d="M52.251,45.693v6.676A1.749,1.749,0,0,0,54,54.119H76.286a1.749,1.749,0,0,0,1.75-1.75V45.693a9.5,9.5,0,0,0-6.261-8.917A8.978,8.978,0,0,0,69.3,22.625a9.034,9.034,0,0,0-10.8,14.157A9.506,9.506,0,0,0,52.251,45.693ZM65.143,25.116a5.546,5.546,0,0,1,5.207,7.509,5.6,5.6,0,0,1-5.195,3.57h-.032a5.54,5.54,0,1,1,.02-11.079ZM55.751,45.693a6,6,0,0,1,6-6h6.789a6,6,0,0,1,6,6v4.926H55.751Z"/>
  <path d="M103.216,89.243a8.029,8.029,0,0,0-5.9-13.49,8.023,8.023,0,0,0-5.908,13.5,9.5,9.5,0,0,0-5.458,8.584v4.7a1.749,1.749,0,0,0,1.75,1.75h19.234a1.749,1.749,0,0,0,1.75-1.75v-4.7A9.5,9.5,0,0,0,103.216,89.243Zm-5.9-9.99a4.544,4.544,0,0,1,4.271,6.155,4.592,4.592,0,0,1-4.258,2.928h-.022a4.542,4.542,0,1,1,.009-9.083Zm7.868,21.533H89.454V97.834a6,6,0,0,1,6-6H99.19a6,6,0,0,1,6,6Z"/>
  <path d="M97.739,72.2a1.749,1.749,0,0,0,1.75-1.75V67.166a6,6,0,0,0-6-6h-26.6V59.356a1.75,1.75,0,1,0-3.5,0v1.813H36.8a6,6,0,0,0-6,6v3.281a1.75,1.75,0,1,0,3.5,0V67.166a2.5,2.5,0,0,1,2.5-2.5h26.6v8.969a1.75,1.75,0,1,0,3.5,0V64.669h26.6a2.5,2.5,0,0,1,2.5,2.5v3.281A1.749,1.749,0,0,0,97.739,72.2Z"/>
</svg>
