<svg xmlns="http://www.w3.org/2000/svg" width="128" height="128" viewBox="0 0 128 128">
  <title>REACTION</title>
  <g>
    <path d="M121.6,88.693a7.551,7.551,0,0,0-10.4-2.406L92.213,98.14A7.558,7.558,0,0,0,87.2,90.96L56.649,80.076a22.173,22.173,0,0,0-19.38,2.143l-6.536,4.12H7a1.75,1.75,0,0,0,0,3.5H31.238a1.75,1.75,0,0,0,.933-.27l6.964-4.389a18.685,18.685,0,0,1,16.339-1.807L86.029,94.257a4.052,4.052,0,0,1-2.719,7.634L60.9,93.907a1.75,1.75,0,0,0-1.175,3.3l22.413,7.984a7.446,7.446,0,0,0,6.408-.66c.074-.033,24.509-15.272,24.509-15.272a4.052,4.052,0,0,1,4.291,6.874l-34.3,21.413a11.231,11.231,0,0,1-5.957,1.707H7a1.75,1.75,0,0,0,0,3.5H77.087a14.735,14.735,0,0,0,7.811-2.238L119.2,99.1A7.552,7.552,0,0,0,121.6,88.693Z"/>
    <path d="M76.119,38.75A16.75,16.75,0,1,0,59.369,22,16.769,16.769,0,0,0,76.119,38.75Zm0-30A13.25,13.25,0,1,1,62.869,22,13.265,13.265,0,0,1,76.119,8.75Z"/>
    <path d="M69.815,26.421a1.75,1.75,0,0,0,.136,2.472,9.25,9.25,0,0,0,12.339,0,1.75,1.75,0,0,0-2.336-2.606,5.749,5.749,0,0,1-7.668,0A1.751,1.751,0,0,0,69.815,26.421Z"/>
    <circle cx="71.119" cy="19.751" r="2"/>
    <circle cx="81.119" cy="19.751" r="2"/>
    <path d="M49.238,71.75A16.75,16.75,0,1,0,32.488,55,16.769,16.769,0,0,0,49.238,71.75Zm0-30A13.25,13.25,0,1,1,35.988,55,13.265,13.265,0,0,1,49.238,41.75Z"/>
    <path d="M42.934,62.667a1.751,1.751,0,0,0,2.471.136,5.749,5.749,0,0,1,7.668,0A1.75,1.75,0,1,0,55.409,60.2a9.25,9.25,0,0,0-12.339,0A1.751,1.751,0,0,0,42.934,62.667Z"/>
    <circle cx="44.238" cy="52.751" r="2"/>
    <circle cx="54.238" cy="52.751" r="2"/>
    <path d="M86.25,55A16.75,16.75,0,1,0,103,38.25,16.769,16.769,0,0,0,86.25,55ZM103,41.75A13.25,13.25,0,1,1,89.75,55,13.265,13.265,0,0,1,103,41.75Z"/>
    <circle cx="98" cy="52.751" r="2"/>
    <circle cx="108" cy="52.751" r="2"/>
    <path d="M96.25,61.066A1.75,1.75,0,0,0,98,62.816h10a1.75,1.75,0,0,0,0-3.5H98A1.751,1.751,0,0,0,96.25,61.066Z"/>
  </g>
</svg>
