<svg xmlns="http://www.w3.org/2000/svg" width="128" height="128" viewBox="0 0 128 128">
  <title>DEVELOPMENT</title>
  <g>
    <path d="M106.256,54.983l-5.862-.627A1.82,1.82,0,0,1,98.863,53.1a37.888,37.888,0,0,0-2.527-6,1.765,1.765,0,0,1,.2-1.991l3.706-4.61a4.8,4.8,0,0,0-.338-6.459L93.964,28.1a4.8,4.8,0,0,0-6.448-.346l-4.748,3.815a1.774,1.774,0,0,1-1.958.19,36.125,36.125,0,0,0-5.867-2.406,1.883,1.883,0,0,1-1.3-1.556l-.629-6.071a4.833,4.833,0,0,0-4.815-4.3H59.8a4.853,4.853,0,0,0-4.817,4.321L54.334,27.8a1.823,1.823,0,0,1-1.263,1.544,36.275,36.275,0,0,0-5.882,2.411,1.781,1.781,0,0,1-1.975-.205L40.5,27.761a4.8,4.8,0,0,0-6.46.337L28.1,34.036a4.8,4.8,0,0,0-.347,6.449l3.72,4.627a1.82,1.82,0,0,1,.182,2,37.985,37.985,0,0,0-2.517,5.979A1.822,1.822,0,0,1,27.6,54.357l-5.846.625A4.82,4.82,0,0,0,17.423,59.8v8.4a4.826,4.826,0,0,0,.7,2.523,4.938,4.938,0,0,0,3.617,2.294l5.691.606A1.823,1.823,0,0,1,28.976,74.9,35.72,35.72,0,0,0,31.5,81.134a1.838,1.838,0,0,1-.206,1.978L27.761,87.5a4.8,4.8,0,0,0,.338,6.459L34.036,99.9a4.8,4.8,0,0,0,6.448.346l4.305-3.46a1.827,1.827,0,0,1,1.99-.211,34.964,34.964,0,0,0,6.365,2.662,1.791,1.791,0,0,1,1.256,1.554l.584,5.476a4.855,4.855,0,0,0,4.816,4.308h8.4a4.858,4.858,0,0,0,4.817-4.321l.585-5.475a1.785,1.785,0,0,1,1.255-1.542,35.886,35.886,0,0,0,6.362-2.661,1.831,1.831,0,0,1,2,.215l4.286,3.446a4.8,4.8,0,0,0,6.46-.337L99.9,93.964a4.8,4.8,0,0,0,.347-6.449l-3.557-4.423a1.783,1.783,0,0,1-.186-1.965A37.407,37.407,0,0,0,99.023,74.9a1.826,1.826,0,0,1,1.554-1.277l5.692-.606a4.855,4.855,0,0,0,4.308-4.816V59.8A4.818,4.818,0,0,0,106.256,54.983ZM107.577,68.2a1.852,1.852,0,0,1-1.64,1.834l-5.667.6a4.794,4.794,0,0,0-4.117,3.391,34.5,34.5,0,0,1-2.315,5.725,4.765,4.765,0,0,0,.53,5.237l3.551,4.415a1.813,1.813,0,0,1-.139,2.437L91.843,97.78a1.816,1.816,0,0,1-2.449.13L85.1,94.46a4.792,4.792,0,0,0-5.3-.527,32.809,32.809,0,0,1-5.822,2.437,4.775,4.775,0,0,0-3.364,4.1l-.582,5.45a1.854,1.854,0,0,1-1.835,1.652H59.8a1.852,1.852,0,0,1-1.834-1.639l-.581-5.451a4.781,4.781,0,0,0-3.366-4.117A31.937,31.937,0,0,1,48.2,93.935a4.762,4.762,0,0,0-2.254-.567A4.823,4.823,0,0,0,42.9,94.455l-4.309,3.463a1.813,1.813,0,0,1-2.437-.137L30.22,91.842a1.815,1.815,0,0,1-.13-2.447l3.54-4.4a4.815,4.815,0,0,0,.529-5.245,32.8,32.8,0,0,1-2.313-5.724,4.789,4.789,0,0,0-4.105-3.386l-5.656-.6a1.933,1.933,0,0,1-1.405-.891,1.83,1.83,0,0,1-.257-.946V59.8a1.852,1.852,0,0,1,1.639-1.834l5.842-.625a4.822,4.822,0,0,0,4.084-3.317,34.939,34.939,0,0,1,2.319-5.508,4.814,4.814,0,0,0-.5-5.289L30.081,38.6a1.813,1.813,0,0,1,.139-2.437l5.937-5.938a1.815,1.815,0,0,1,2.448-.129l4.711,3.785a4.77,4.77,0,0,0,5.253.545,33.251,33.251,0,0,1,5.408-2.215,4.824,4.824,0,0,0,3.341-4.1l.647-6.036a1.852,1.852,0,0,1,1.835-1.65h8.4a1.832,1.832,0,0,1,1.833,1.635l.628,6.063a4.9,4.9,0,0,0,3.377,4.089,33.306,33.306,0,0,1,5.392,2.21,4.76,4.76,0,0,0,5.233-.527l4.743-3.811a1.814,1.814,0,0,1,2.437.137l5.937,5.939a1.815,1.815,0,0,1,.13,2.447L94.2,43.221a4.766,4.766,0,0,0-.507,5.3,34.832,34.832,0,0,1,2.319,5.509,4.819,4.819,0,0,0,4.074,3.314l5.857.627a1.85,1.85,0,0,1,1.634,1.833Z"/>
    <path d="M64,37.3A26.7,26.7,0,1,0,90.7,64,26.732,26.732,0,0,0,64,37.3Zm0,50.4A23.7,23.7,0,1,1,87.7,64,23.729,23.729,0,0,1,64,87.7Z"/>
    <path d="M74.016,52.353a5.463,5.463,0,0,0-3.889,1.61l-8.4,8.4-3.852-3.852A5.5,5.5,0,0,0,50.1,66.292l7.74,7.74a5.5,5.5,0,0,0,7.777,0L77.9,61.742a5.5,5.5,0,0,0-3.888-9.389Zm1.767,7.268-12.29,12.29a2.56,2.56,0,0,1-3.535,0l-7.74-7.741a2.5,2.5,0,1,1,3.535-3.536l4.912,4.912a1.5,1.5,0,0,0,2.121,0l9.462-9.462a2.562,2.562,0,0,1,3.535,0A2.5,2.5,0,0,1,75.783,59.621Z"/>
  </g>
</svg>
