<svg xmlns="http://www.w3.org/2000/svg" width="128" height="128" viewBox="0 0 128 128">
  <title>EMAIL</title>
  <path d="M108.567,35.031l-.006-.009,0,0v0A10.774,10.774,0,0,0,99.89,30.69H28.11a10.775,10.775,0,0,0-8.665,4.323l-.006.009h0A10.731,10.731,0,0,0,17.25,41.55v44.9A10.872,10.872,0,0,0,28.11,97.31H99.89a10.872,10.872,0,0,0,10.86-10.86V41.55A10.725,10.725,0,0,0,108.567,35.031ZM99.89,34.19a7.28,7.28,0,0,1,4.646,1.658L69.312,62.2a8.918,8.918,0,0,1-10.625,0L23.463,35.847A7.285,7.285,0,0,1,28.11,34.19Zm7.36,52.26a7.368,7.368,0,0,1-7.36,7.36H28.11a7.368,7.368,0,0,1-7.36-7.36V41.55a7.254,7.254,0,0,1,.62-2.9L56.592,65a12.437,12.437,0,0,0,14.816,0L106.63,38.652a7.254,7.254,0,0,1,.62,2.9Z"/>
</svg>
