<?xml version="1.0" encoding="UTF-8"?>
<svg id="Expanded" xmlns="http://www.w3.org/2000/svg" viewBox="0 0 64 64">
  <path d="M35.215,30.632v-.104c.914.034,1.547-.254,1.959-.556.774-.566,1.049-1.369,1.049-1.884v-.341c.675.04,1.329-.11,1.864-.448.727-.459,1.144-1.195,1.144-2.021v-8.827c0-2.224-1.175-4.74-1.885-6.059.723-.548,1.197-1.408,1.197-2.383v-1.01c0-1.654-1.346-3-3-3h-8.031c-1.654,0-3,1.346-3,3v1.01c0,1.119.623,2.085,1.534,2.601-.174.435-.536.871-1.15,1.562-.272.306-.568.638-.877,1.015-.811.99-1.062,1.584-1.305,2.159-.209.496-.426,1.009-1.094,1.962-.22.313-.438.611-.648.896-1.239,1.681-2.644,3.586-.726,5.412.456.434,1.031.642,1.687.609.87-.049,1.765-.559,2.515-1.14v5.532c0,1.416.607,2.096,1.118,2.418.708.448,1.562.415,2.229.275.452.726,1.328,1.153,2.479,1.153,1.426,0,2.941-.643,2.941-1.833ZM28.512,7c0-.551.448-1,1-1h8.031c.552,0,1,.449,1,1v1.01c0,.551-.448,1-1,1h-8.031c-.552,0-1-.449-1-1v-1.01ZM33.215,25.039v5.254c-.37.154-1.146.262-1.579.058-.136-.064-.181-.117-.181-.303v-4.771c0-.552-.447-1-1-1s-1,.448-1,1v4.054c-.343.081-.677.106-.822.013-.09-.057-.186-.278-.186-.727v-7.881c0-.42-.263-.795-.657-.939-.394-.143-.838-.026-1.108.296-.704.836-2.101,2.093-2.862,2.135-.106.006-.153-.021-.194-.061-.52-.494-.493-.81.956-2.776.22-.297.448-.608.678-.935.789-1.127,1.071-1.795,1.298-2.332.222-.524.381-.903,1.009-1.668.29-.354.568-.667.824-.954.724-.813,1.372-1.543,1.646-2.492h7.369c.685,1.21,1.825,3.611,1.825,5.441v8.827c0,.048,0,.196-.211.33-.169.106-.454.167-.797.123v-2.521c0-.552-.447-1-1-1s-1,.448-1,1v3.261l.003,1.572s-.051.21-.292.354c-.179.105-.428.14-.719.12v-3.477c0-.552-.447-1-1-1s-1,.448-1,1Z"/>
  <path d="M29.089,42.814l.233-.231c.402-.396.745-1.194.606-2.085-.078-.497-.321-1.138-.975-1.741l.068-.067c.219-.215.554-.704.333-1.553-.267-1.028-1.315-2.349-2.546-2.689-.389-.107-.774-.116-1.14-.031-.367-.558-.939-1.169-1.748-1.356-.592-.136-1.513-.088-2.534.917l-3.987,3.927c-.113-.927-.38-1.904-.953-2.546-.435-.487-1.003-.75-1.643-.761-2.604-.025-3.02,2.275-3.35,4.322-.056.347-.114.71-.185,1.084-.212,1.138-.427,1.651-.635,2.147-.242.576-.491,1.171-.629,2.438-.053.482-.082.924-.109,1.331-.062.917-.113,1.485-.305,1.914-1.008-.283-2.136-.048-2.929.732l-.783.771c-.568.56-.881,1.305-.881,2.099s.312,1.539.882,2.099l5.691,5.604h0c.582.573,1.346.859,2.109.859s1.527-.286,2.108-.858l.783-.771c.568-.56.881-1.305.881-2.099,0-.135-.021-.265-.039-.397,1.445-.437,4.082-1.396,5.677-2.967l6.339-6.241c.596-.586.828-1.405.637-2.245-.14-.616-.484-1.169-.979-1.605ZM15.171,56.943l-.783.77c-.389.383-1.021.383-1.412,0l-5.69-5.604c-.184-.181-.285-.42-.285-.674s.102-.493.284-.674l.783-.77c.389-.384,1.02-.382,1.41-.002l5.693,5.607c.183.181.285.42.285.673s-.102.493-.284.674ZM28.029,45.24l-6.34,6.241c-1.424,1.402-4.096,2.268-5.223,2.585l-5.192-5.114c.481-.858.546-1.823.618-2.898.026-.382.054-.797.103-1.25.106-.978.265-1.356.484-1.88.226-.538.506-1.206.758-2.554.072-.391.134-.771.192-1.133.381-2.357.592-2.641,1.293-2.641.072,0,.135-.015.232.093.5.559.582,2.406.48,3.478-.04.418.187.817.565.998.38.179.832.105,1.131-.19l5.659-5.573c.278-.274.536-.43.681-.393.175.039.381.284.554.558l-2.91,2.866c-.393.388-.397,1.021-.011,1.414.196.199.454.298.713.298.253,0,.507-.096.702-.288l3.426-3.374s0,0,0-.001c.146-.143.231-.146.378-.092.447.162.901.752,1.052,1.112l-.689.679s0,0-.001,0l-3.083,3.037c-.393.388-.397,1.021-.011,1.414.196.199.454.298.713.298.253,0,.507-.096.702-.288l2.512-2.475c.22.186.37.381.419.575.058.228-.022.408-.02.413l-1.162,1.144s-.002.003-.003.004l-2.337,2.301c-.394.387-.398,1.021-.012,1.414.196.199.454.298.713.298.253,0,.507-.096.702-.288l1.825-1.797c.273.203.429.441.472.628.054.236-.05.338-.089.377Z"/>
  <path d="M58.118,49.336l-.781-.77c-.793-.78-1.921-1.016-2.93-.733-.192-.429-.243-.997-.305-1.914-.027-.407-.057-.849-.109-1.332-.138-1.267-.387-1.862-.629-2.438-.208-.496-.423-1.009-.635-2.147-.07-.374-.129-.737-.185-1.084-.33-2.046-.713-4.364-3.35-4.322-.64.011-1.208.274-1.643.761-.573.643-.84,1.619-.953,2.546l-3.988-3.927c-1.02-1.005-1.941-1.054-2.533-.917-.809.187-1.381.798-1.748,1.356-.364-.085-.751-.077-1.14.031-1.23.34-2.279,1.661-2.546,2.689-.221.85.114,1.338.332,1.553l.069.068c-.653.603-.896,1.244-.975,1.741-.139.891.204,1.689.606,2.085l.233.231c-.495.436-.84.989-.979,1.605-.191.84.041,1.659.637,2.245l6.338,6.241c1.596,1.571,4.233,2.531,5.678,2.967-.018.131-.039.262-.039.397,0,.793.312,1.539.882,2.099l.781.77c.582.573,1.346.859,2.109.859s1.527-.286,2.109-.858h0s5.692-5.605,5.692-5.605c.568-.56.881-1.305.881-2.099s-.312-1.539-.882-2.099ZM47.533,54.066c-1.127-.317-3.798-1.183-5.223-2.585l-6.339-6.241c-.039-.039-.143-.141-.089-.377.043-.187.199-.425.472-.628l1.825,1.797c.195.192.449.288.702.288.259,0,.517-.1.713-.298.387-.394.382-1.027-.012-1.414l-2.337-2.301s-.002-.003-.003-.004l-1.134-1.113c-.025-.036-.105-.216-.048-.444.049-.194.199-.389.419-.575l2.512,2.475c.195.192.448.288.702.288.259,0,.517-.1.713-.298.387-.394.382-1.026-.011-1.414l-3.083-3.037s0,0-.001,0l-.689-.679c.15-.36.604-.951,1.052-1.112.147-.052.232-.05.378.092,0,0,0,0,0,.001l3.426,3.374c.195.192.448.288.702.288.259,0,.517-.1.713-.298.387-.394.382-1.026-.011-1.414l-2.91-2.866c.172-.273.378-.517.554-.558.145-.033.403.118.681.393l5.66,5.573c.298.295.752.371,1.132.19.379-.181.605-.581.564-.999-.104-1.069-.022-2.914.48-3.477.075-.084.122-.091.184-.092.722-.011.952.228,1.342,2.64.059.363.12.742.192,1.133.252,1.348.532,2.016.758,2.554.22.524.378.902.484,1.879.049.453.076.868.103,1.25.072,1.075.137,2.04.618,2.898l-3.205,3.157-1.988,1.957ZM56.716,52.109l-5.691,5.604c-.391.383-1.022.383-1.413,0l-.781-.77c-.184-.181-.285-.42-.285-.674,0-.252.101-.49.282-.67l5.141-5.063.553-.545c.194-.191.45-.288.705-.288s.512.096.707.288l.781.77c.184.181.285.42.285.674s-.102.493-.284.674Z"/>
</svg>