<svg xmlns="http://www.w3.org/2000/svg" width="24" height="24" viewBox="0 0 24 24">
  <g>
    <path d="M15.584,8.723l-3.662,5.492L9.354,11.646a.5.5,0,0,0-.708.708l3,3A.5.5,0,0,0,12,15.5l.049,0a.5.5,0,0,0,.367-.221l4-6a.5.5,0,1,0-.832-.554Z"/>
    <path d="M20,6.45a.5.5,0,0,0-.311-.414l-7.5-3a.5.5,0,0,0-.372,0l-7.5,3A.5.5,0,0,0,4,6.45c-.01.1-.936,10.388,7.762,14.992a.5.5,0,0,0,.468,0C20.931,16.838,20.008,6.554,20,6.45ZM12,20.432C4.942,16.523,4.908,8.491,4.979,6.847L12,4.039l7.023,2.808C19.1,8.491,19.068,16.517,12,20.432Z"/>
  </g>
</svg>
