<?xml version="1.0" encoding="utf-8"?>
<!-- Generator: Adobe Illustrator 24.1.3, SVG Export Plug-In . SVG Version: 6.00 Build 0)  -->
<svg version="1.1" xmlns="http://www.w3.org/2000/svg" xmlns:xlink="http://www.w3.org/1999/xlink" x="0px" y="0px"
	 viewBox="0 0 24 24" style="enable-background:new 0 0 24 24;" xml:space="preserve">
<g id="Design_here">
	<g>
		<path d="M10.5,18C6.36,18,3,14.64,3,10.5S6.36,3,10.5,3S18,6.36,18,10.5S14.64,18,10.5,18z M10.5,4C6.92,4,4,6.92,4,10.5
			S6.92,17,10.5,17s6.5-2.92,6.5-6.5S14.08,4,10.5,4z"/>
	</g>
	<g>
		<path d="M21,21.5c-0.13,0-0.26-0.05-0.35-0.15l-5-5c-0.2-0.2-0.2-0.51,0-0.71s0.51-0.2,0.71,0l5,5c0.2,0.2,0.2,0.51,0,0.71
			C21.26,21.45,21.13,21.5,21,21.5z"/>
	</g>
	<g>
		<path d="M10.5,14c-0.28,0-0.5-0.22-0.5-0.5v-6C10,7.22,10.22,7,10.5,7S11,7.22,11,7.5v6C11,13.78,10.78,14,10.5,14z"/>
	</g>
	<g>
		<path d="M13.5,11h-6C7.22,11,7,10.78,7,10.5S7.22,10,7.5,10h6c0.28,0,0.5,0.22,0.5,0.5S13.78,11,13.5,11z"/>
	</g>
</g>
<g id="Guide">
</g>
</svg>
