<?xml version="1.0" encoding="utf-8"?>
<!-- Generator: Adobe Illustrator 28.4.1, SVG Export Plug-In . SVG Version: 6.00 Build 0)  -->
<svg version="1.0" id="Layer_1" xmlns="http://www.w3.org/2000/svg" xmlns:xlink="http://www.w3.org/1999/xlink" x="0px" y="0px"
	 viewBox="0 0 64 64" style="enable-background:new 0 0 64 64;" xml:space="preserve">
<style type="text/css">
	.st0{fill:none;stroke:#231F20;stroke-width:2;stroke-linecap:round;stroke-linejoin:round;stroke-miterlimit:10;}
</style>
<g>
	<circle class="st0" cx="14.8" cy="36.6" r="4.2"/>
	<path class="st0" d="M20.1,54.5v2.6c0,0.9,0.7,1.7,1.7,1.7h0c0.9,0,1.7-0.7,1.7-1.7v-8.4c0-2.6-1.9-5-4.5-5.2c-0.2,0-0.4,0-0.5,0
		h-7c-0.2,0-0.4,0-0.5,0c-2.6,0.3-4.5,2.6-4.5,5.2v8.4c0,0.9,0.7,1.7,1.7,1.7h0c0.9,0,1.7-0.7,1.7-1.7v-2.6"/>
	<line class="st0" x1="9.8" y1="60.7" x2="9.8" y2="48.5"/>
	<line class="st0" x1="20.1" y1="48.5" x2="20.1" y2="60.7"/>
	<rect x="11" y="3.3" class="st0" width="42.7" height="24.9"/>
	<circle class="st0" cx="31.9" cy="36.6" r="4.2"/>
	<path class="st0" d="M37.2,54.5v2.6c0,0.9,0.7,1.7,1.7,1.7h0c0.9,0,1.7-0.7,1.7-1.7v-8.4c0-2.6-1.9-5-4.5-5.2c-0.2,0-0.4,0-0.5,0
		h-7c-0.2,0-0.4,0-0.5,0c-2.6,0.3-4.5,2.6-4.5,5.2v8.4c0,0.9,0.7,1.7,1.7,1.7h0c0.9,0,1.7-0.7,1.7-1.7v-2.6"/>
	<line class="st0" x1="26.8" y1="60.7" x2="26.8" y2="48.5"/>
	<line class="st0" x1="37.2" y1="48.5" x2="37.2" y2="60.7"/>
	<circle class="st0" cx="48.9" cy="36.6" r="4.2"/>
	<path class="st0" d="M54.2,54.5v2.6c0,0.9,0.7,1.7,1.7,1.7h0c0.9,0,1.7-0.7,1.7-1.7v-8.4c0-2.6-1.9-5-4.5-5.2c-0.2,0-0.4,0-0.5,0
		h-7c-0.2,0-0.4,0-0.5,0c-2.6,0.3-4.5,2.6-4.5,5.2v8.4c0,0.9,0.7,1.7,1.7,1.7h0c0.9,0,1.7-0.7,1.7-1.7v-2.6"/>
	<line class="st0" x1="43.9" y1="60.7" x2="43.9" y2="48.5"/>
	<line class="st0" x1="54.2" y1="48.5" x2="54.2" y2="60.7"/>
	<g>
		<circle class="st0" cx="32" cy="11.8" r="4.2"/>
		<path class="st0" d="M40.6,28.1v-4.2c0-2.6-1.9-5-4.5-5.2c-0.2,0-0.4,0-0.5,0h-7c-0.2,0-0.4,0-0.5,0c-2.6,0.3-4.5,2.6-4.5,5.2v4.2
			"/>
	</g>
	<line class="st0" x1="27.4" y1="28.3" x2="27.4" y2="24.5"/>
	<line class="st0" x1="36.8" y1="24.5" x2="36.8" y2="28.3"/>
</g>
</svg>
