<svg xmlns="http://www.w3.org/2000/svg" width="128" height="128" viewBox="0 0 128 128">
  <title>STAPLER</title>
  <g>
    <path d="M105.211,82.086H104.7V68.565a4.255,4.255,0,0,0-4.25-4.249H91.412a4.254,4.254,0,0,0-4.249,4.249v2H54.686L104.25,56.14l5.24-1.531a1.75,1.75,0,0,0,1.191-2.169l-2.81-9.648A14.161,14.161,0,0,0,90.31,33.149L26.6,51.69a12.968,12.968,0,0,0-3.3,23.422v6.974h-.5a5.548,5.548,0,0,0-5.542,5.542v2.25A5.548,5.548,0,0,0,22.8,95.42h82.416a5.548,5.548,0,0,0,5.542-5.542v-2.25A5.548,5.548,0,0,0,105.211,82.086ZM90.663,68.565a.75.75,0,0,1,.749-.749h9.038a.751.751,0,0,1,.75.749v2H90.663ZM21.918,59.594a9.4,9.4,0,0,1,5.661-4.543L91.289,36.51a10.72,10.72,0,0,1,3-.431A10.673,10.673,0,0,1,104.51,43.77l2.321,7.97L32.89,73.258A9.486,9.486,0,0,1,21.918,59.594ZM26.8,76.657a12.884,12.884,0,0,0,3.43.483,13.193,13.193,0,0,0,3.63-.52l8.8-2.56H101.2v8.026H26.8Zm80.453,13.221a2.044,2.044,0,0,1-2.042,2.042H22.8a2.044,2.044,0,0,1-2.042-2.042v-2.25A2.044,2.044,0,0,1,22.8,85.586h2.216c.013,0,.025,0,.039,0h77.9c.013,0,.026,0,.039,0h2.222a2.044,2.044,0,0,1,2.042,2.042Z"/>
    <path d="M27.326,68.866a5.21,5.21,0,0,0,2.519.651,5.321,5.321,0,0,0,1.474-.211,5.251,5.251,0,1,0-3.993-.44Zm.993-5.443a1.749,1.749,0,1,1-.147,1.33A1.735,1.735,0,0,1,28.319,63.423Z"/>
  </g>
</svg>
