<svg xmlns="http://www.w3.org/2000/svg" width="128" height="128" viewBox="0 0 128 128">
  <title>Video Player</title>
  <path d="M106.813,23.833H21.187a8.47,8.47,0,0,0-8.461,8.461V95.721a8.47,8.47,0,0,0,8.461,8.461h85.626a8.47,8.47,0,0,0,8.461-8.461V32.294A8.47,8.47,0,0,0,106.813,23.833Zm-85.626,3.5h85.626a4.967,4.967,0,0,1,4.961,4.961V79H16.226v-46.7A4.967,4.967,0,0,1,21.187,27.333Zm85.626,73.349H21.187a4.967,4.967,0,0,1-4.961-4.961V82.5h95.548V95.721A4.967,4.967,0,0,1,106.813,100.682Z"/>
  <path d="M100.049,89.273H49.1a5.954,5.954,0,0,0-11.38,0H27.948a1.75,1.75,0,0,0,0,3.5h9.774a5.953,5.953,0,0,0,11.383,0h50.944a1.75,1.75,0,0,0,0-3.5ZM43.413,93.48a2.455,2.455,0,0,1-2.453-2.445v-.02a2.454,2.454,0,1,1,2.453,2.465Z"/>
  <path d="M52.045,69.642a1.753,1.753,0,0,0,1.763-.024L77.7,55.261a1.75,1.75,0,0,0,0-3L53.808,37.9a1.751,1.751,0,0,0-2.652,1.5V68.118A1.752,1.752,0,0,0,52.045,69.642ZM54.656,42.5,73.4,53.761,54.656,65.025Z"/>
</svg>
