<?xml version="1.0" encoding="UTF-8" standalone="no"?>
<!DOCTYPE svg PUBLIC "-//W3C//DTD SVG 1.1//EN" "http://www.w3.org/Graphics/SVG/1.1/DTD/svg11.dtd">
<svg width="100%" height="100%" viewBox="0 0 48 48" version="1.1" xmlns="http://www.w3.org/2000/svg" xmlns:xlink="http://www.w3.org/1999/xlink" xml:space="preserve" xmlns:serif="http://www.serif.com/" style="fill-rule:evenodd;clip-rule:evenodd;stroke-linejoin:round;stroke-miterlimit:2;">
    <g transform="matrix(1,0,0,1,-146,-146)">
        <g id="DesignHere">
            <path d="M165.98,149L161.02,149C159.352,149 158,150.352 158,152.02C158,158.865 158,181.135 158,187.98C158,189.648 159.352,191 161.02,191L178.98,191C180.648,191 182,189.648 182,187.98C182,181.135 182,158.865 182,152.02C182,150.352 180.648,149 178.98,149L174.02,149C174.007,149 173.994,149 173.981,149L166.019,149C166.006,149 165.993,149 165.98,149ZM174.721,151L173.949,153.316C173.813,153.725 173.43,154 173,154L167,154C166.57,154 166.187,153.725 166.051,153.316L165.279,151L161.02,151C160.457,151 160,151.457 160,152.02C160,158.865 160,181.135 160,187.98C160,188.543 160.457,189 161.02,189C161.02,189 178.98,189 178.98,189C179.543,189 180,188.543 180,187.98C180,181.135 180,158.865 180,152.02C180,151.457 179.543,151 178.98,151L174.721,151ZM168,187L172,187C172.552,187 173,186.552 173,186C173,185.448 172.552,185 172,185L168,185C167.448,185 167,185.448 167,186C167,186.552 167.448,187 168,187ZM167.006,165.75L164.8,165.75C164.512,165.75 164.238,165.874 164.048,166.091C163.858,166.308 163.771,166.596 163.809,166.882L165.109,176.632C165.175,177.129 165.599,177.5 166.1,177.5L173.9,177.5C174.401,177.5 174.825,177.129 174.891,176.632L176.191,166.882C176.229,166.596 176.142,166.308 175.952,166.091C175.762,165.874 175.488,165.75 175.2,165.75L172.994,165.75C172.95,164.946 172.676,164.189 172.235,163.616C171.671,162.883 170.892,162.5 170.095,162.5C170.032,162.5 169.968,162.5 169.905,162.5C169.108,162.5 168.329,162.883 167.765,163.616C167.324,164.189 167.05,164.946 167.006,165.75ZM167,167.75L165.942,167.75C165.942,167.75 166.976,175.5 166.976,175.5C166.976,175.5 173.024,175.5 173.024,175.5L174.058,167.75L173,167.75L173,168.375C173,168.927 172.552,169.375 172,169.375C171.448,169.375 171,168.927 171,168.375L171,167.75L169,167.75L169,168.375C169,168.927 168.552,169.375 168,169.375C167.448,169.375 167,168.927 167,168.375L167,167.75ZM170.989,165.75C170.954,165.406 170.84,165.083 170.649,164.835C170.498,164.638 170.309,164.5 170.095,164.5L169.905,164.5C169.691,164.5 169.502,164.638 169.351,164.835C169.16,165.083 169.046,165.406 169.011,165.75L170.989,165.75ZM172.613,151L167.387,151L167.721,152C167.721,152 172.279,152 172.279,152L172.613,151Z"/>
        </g>
    </g>
</svg>
