<svg xmlns="http://www.w3.org/2000/svg" width="128" height="128" viewBox="0 0 128 128">
  <title>CLAPPERBOARD</title>
  <path d="M109,50.522H34.61l3.372-.765h0l14.11-3.2h0l15.427-3.5h0l14.083-3.195a.27.27,0,0,0,.028,0l15.428-3.5.02-.008,10.072-2.285a1.751,1.751,0,0,0,1.32-2.094l-2.232-9.838a5.538,5.538,0,0,0-6.62-4.172l-40.993,9.3-3.453.783h0l-14.112,3.2h0l-15.427,3.5h0l-6.4,1.453a5.532,5.532,0,0,0-4.171,6.619l2.189,9.647v51.778a6.514,6.514,0,0,0,6.507,6.507h80.486a6.514,6.514,0,0,0,6.507-6.507V52.272A1.751,1.751,0,0,0,109,50.522ZM53.161,32.089,50.278,43.378,40,45.71l2.884-11.289ZM59.1,30.741l9.484-2.152L65.705,39.878l-11.593,2.63L57,31.219Zm23.6-5.354L79.818,36.676,69.539,39.008l2.884-11.289Zm12.546,7.788L83.653,35.806l2.881-11.285,11.594-2.63Zm-56.2,2.117L36.165,46.58,24.572,49.21l2.883-11.288ZM56.78,54.022,51.47,64.393H40.93l5.309-10.371Zm30.29,0L81.761,64.393H71.22l5.31-10.371ZM20.75,64.393V54.022h5.739l-5.31,10.371Zm80.761,0,5.31-10.371h.429V64.393Zm1.378-10.371-5.31,10.371H85.692L91,54.022Zm-30.291,0-5.31,10.371H55.4l5.31-10.371ZM37,64.393H25.111l5.31-10.371H42.308ZM102.831,22.9l1.844,8.132-5.594,1.269,2.741-10.733A2.031,2.031,0,0,1,102.831,22.9ZM18.737,40.51a2.017,2.017,0,0,1,1.27-.9l3.614-.82L20.738,50.08l-.419.095-1.845-8.132A2.018,2.018,0,0,1,18.737,40.51Zm85.506,66.74H23.757a3.01,3.01,0,0,1-3.007-3.007V68.275h86.5v35.968A3.01,3.01,0,0,1,104.243,107.25Z"/>
</svg>
