<svg xmlns="http://www.w3.org/2000/svg" width="128" height="128" viewBox="0 0 128 128">
  <title>GRAPHIC DESIGN</title>
  <g>
    <path d="M116.173,7.252H11.827a7.392,7.392,0,0,0-7.384,7.384v74.8a7.392,7.392,0,0,0,7.384,7.384H47.7v11.355H44.929a5.641,5.641,0,0,0-5.634,5.635V119a1.751,1.751,0,0,0,1.75,1.75H86.956a1.751,1.751,0,0,0,1.75-1.75v-5.192a5.641,5.641,0,0,0-5.634-5.635H80.3V96.816h35.876a7.392,7.392,0,0,0,7.384-7.384v-74.8A7.392,7.392,0,0,0,116.173,7.252Zm-104.346,3.5H116.173a3.889,3.889,0,0,1,3.884,3.884v60H7.943V14.636A3.889,3.889,0,0,1,11.827,10.752ZM85.206,113.806v3.442H42.8v-3.442a2.137,2.137,0,0,1,2.134-2.135H83.072A2.137,2.137,0,0,1,85.206,113.806ZM76.8,108.171H51.2V96.816H76.8Zm39.376-14.855H11.827a3.888,3.888,0,0,1-3.884-3.884v-11.3H120.057v11.3A3.888,3.888,0,0,1,116.173,93.316Z"/>
    <path d="M31.635,27.187A6.422,6.422,0,0,0,37.8,22.522H48.357a20.626,20.626,0,0,0-9.06,15.4,4.988,4.988,0,0,0-4.747,4.969v2.843a5,5,0,0,0,4.994,4.994h2.843a5,5,0,0,0,4.994-4.994V42.889A4.983,4.983,0,0,0,42.8,37.937,17.152,17.152,0,0,1,58.146,22.608,4.984,4.984,0,0,0,63.1,27.193h2.843a4.984,4.984,0,0,0,4.952-4.579A17.155,17.155,0,0,1,86.223,37.943,4.984,4.984,0,0,0,81.644,42.9v2.843a5,5,0,0,0,4.994,4.994H89.48a5,5,0,0,0,4.994-4.994V42.9a4.988,4.988,0,0,0-4.745-4.969,20.628,20.628,0,0,0-9.061-15.4H91.223a6.416,6.416,0,1,0,0-3.5H70.9a4.986,4.986,0,0,0-4.961-4.666H63.1a4.985,4.985,0,0,0-4.96,4.66H37.8a6.413,6.413,0,1,0-6.166,8.165Zm12.246,15.7v2.843a1.5,1.5,0,0,1-1.494,1.494H39.544a1.5,1.5,0,0,1-1.494-1.494V42.889A1.5,1.5,0,0,1,39.544,41.4h2.843A1.5,1.5,0,0,1,43.881,42.889Zm47.093.006v2.843a1.5,1.5,0,0,1-1.494,1.494H86.638a1.5,1.5,0,0,1-1.494-1.494V42.9A1.5,1.5,0,0,1,86.638,41.4H89.48A1.5,1.5,0,0,1,90.974,42.9ZM97.39,17.862a2.916,2.916,0,1,1-2.916,2.916A2.918,2.918,0,0,1,97.39,17.862ZM61.605,19.356A1.5,1.5,0,0,1,63.1,17.862h2.843a1.5,1.5,0,0,1,1.494,1.494V22.2a1.5,1.5,0,0,1-1.494,1.494H63.1A1.5,1.5,0,0,1,61.605,22.2Zm-29.97-1.5a2.915,2.915,0,1,1-2.915,2.915A2.918,2.918,0,0,1,31.635,17.857Z"/>
    <path d="M49.453,83.973h-4.4a1.75,1.75,0,1,0,0,3.5h4.4a1.75,1.75,0,0,0,0-3.5Z"/>
    <path d="M66.2,83.973H61.8a1.75,1.75,0,0,0,0,3.5H66.2a1.75,1.75,0,0,0,0-3.5Z"/>
    <path d="M82.952,83.973H78.547a1.75,1.75,0,0,0,0,3.5h4.405a1.75,1.75,0,0,0,0-3.5Z"/>
    <path d="M76.531,68.027H71.894a13.333,13.333,0,0,1,5.124-10.82,1.753,1.753,0,0,0,.478-2.369S66.778,37.834,66,36.606a1.7,1.7,0,0,0-2.96,0l-11.5,18.232a1.75,1.75,0,0,0,.484,2.371,13.462,13.462,0,0,1,5.117,10.818h-4.12a1.75,1.75,0,1,0,0,3.5H76.531a1.75,1.75,0,0,0,0-3.5Zm-15.878,0a16.826,16.826,0,0,0-5.334-12.61L62.771,43.6V54.122a1.75,1.75,0,0,0,3.5,0V43.6l7.451,11.82a16.826,16.826,0,0,0-5.334,12.61Z"/>
  </g>
</svg>
