<svg xmlns="http://www.w3.org/2000/svg" width="128" height="128" viewBox="0 0 128 128">
  <title>TOOL</title>
  <g>
    <path d="M105.506,77.223a19.673,19.673,0,0,0-19.868-4.818L75.383,62.15,94.7,42.834l6.508-3.146a1.744,1.744,0,0,0,.688-.595l9.053-13.375a1.749,1.749,0,0,0-.212-2.218l-5.731-5.731a1.747,1.747,0,0,0-2.218-.212L89.412,26.61a1.748,1.748,0,0,0-.6.687l-3.143,6.5L66.354,53.12,56.094,42.861A19.63,19.63,0,0,0,31.044,18.3a1.749,1.749,0,0,0-.672,2.893l9.676,9.677L38.219,37.72l-6.846,1.829L21.7,29.873a1.748,1.748,0,0,0-2.893.672A19.63,19.63,0,0,0,43.359,55.6L48.667,60.9l-2.332,2.332a4.1,4.1,0,0,0-1.206,2.939A4.15,4.15,0,0,0,46.354,69.1a1.49,1.49,0,0,1,.441,1.05,1.417,1.417,0,0,1-.416,1.018,1.465,1.465,0,0,1-2.068-.024l-1.7-1.706a1.749,1.749,0,0,0-2.475,0L21.107,88.463a13.108,13.108,0,0,0-3.857,9.461,13.357,13.357,0,0,0,4.126,9.558,13.2,13.2,0,0,0,9.207,3.671,13.741,13.741,0,0,0,9.728-4.026L59.065,88.374a1.749,1.749,0,0,0,0-2.475l-1.7-1.7a1.488,1.488,0,0,1-.441-1.049,1.415,1.415,0,0,1,.415-1.019,1.466,1.466,0,0,1,2.068.025,4.152,4.152,0,0,0,2.928,1.225,4.221,4.221,0,0,0,2.939-1.207L67.6,79.838l5.3,5.3A19.608,19.608,0,0,0,97.953,109.7a1.749,1.749,0,0,0,.673-2.893L88.95,97.126l1.828-6.846,6.847-1.829,9.677,9.676a1.749,1.749,0,0,0,2.893-.672A19.52,19.52,0,0,0,105.506,77.223ZM62.8,79.695a.651.651,0,0,1-.918-.019,4.967,4.967,0,0,0-7.017-.025,4.892,4.892,0,0,0-1.441,3.513,4.964,4.964,0,0,0,1.466,3.5l.468.469L37.837,104.653a10.065,10.065,0,0,1-14.031.309,9.882,9.882,0,0,1-3.056-7.07,9.634,9.634,0,0,1,2.832-6.954L41.369,73.152l.468.468a4.964,4.964,0,0,0,3.5,1.466,4.841,4.841,0,0,0,3.513-1.44A4.9,4.9,0,0,0,50.3,70.132a4.964,4.964,0,0,0-1.466-3.5.674.674,0,0,1-.2-.472.617.617,0,0,1,.181-.445h0l2.332-2.331L65.126,77.363Zm25.538-43.6a1.748,1.748,0,0,0,.363-.5l3.067-6.345,11.789-7.979,3.688,3.687L99.26,36.742,93,39.77a1.727,1.727,0,0,0-.559.376L72.908,59.675,68.829,55.6Zm19.249,57.368-8.2-8.195a1.752,1.752,0,0,0-1.689-.454l-8.8,2.35A1.749,1.749,0,0,0,87.658,88.4l-2.35,8.8a1.749,1.749,0,0,0,.454,1.689l8.195,8.2a16.134,16.134,0,0,1-17.4-21.775,1.75,1.75,0,0,0-.4-1.865l-31.1-31.1a1.748,1.748,0,0,0-1.866-.4,16.134,16.134,0,0,1-21.775-17.4l8.2,8.2a1.752,1.752,0,0,0,1.689.454l8.8-2.35A1.751,1.751,0,0,0,41.34,39.6l2.35-8.8a1.749,1.749,0,0,0-.454-1.689l-8.2-8.2A16.134,16.134,0,0,1,52.446,42.692a1.749,1.749,0,0,0,.4,1.865L65.064,56.779c.017.019.03.041.048.059l6.56,6.55h0L83.941,75.657a1.752,1.752,0,0,0,1.866.4A16.18,16.18,0,0,1,103.032,79.7,16.016,16.016,0,0,1,107.582,93.458Z"/>
    <path d="M45.839,80.191,30.857,95.173a1.75,1.75,0,0,0,2.475,2.475L48.314,82.666a1.75,1.75,0,0,0-2.475-2.475Z"/>
  </g>
</svg>
