<?xml version="1.0" encoding="UTF-8" standalone="no"?>
<!DOCTYPE svg PUBLIC "-//W3C//DTD SVG 1.1//EN" "http://www.w3.org/Graphics/SVG/1.1/DTD/svg11.dtd">
<svg width="100%" height="100%" viewBox="0 0 48 48" version="1.1" xmlns="http://www.w3.org/2000/svg" xmlns:xlink="http://www.w3.org/1999/xlink" xml:space="preserve" xmlns:serif="http://www.serif.com/" style="fill-rule:evenodd;clip-rule:evenodd;stroke-linejoin:round;stroke-miterlimit:2;">
    <g transform="matrix(1,0,0,1,-214,-282)">
        <g id="DesignHere">
            <path d="M238,285C226.41,285 217,294.41 217,306C217,317.59 226.41,327 238,327C249.59,327 259,317.59 259,306C259,294.41 249.59,285 238,285ZM238,287C248.486,287 257,295.514 257,306C257,316.486 248.486,325 238,325C227.514,325 219,316.486 219,306C219,295.514 227.514,287 238,287ZM233.857,301.857L228.571,301.857C227.152,301.857 226,303.009 226,304.429C226,304.429 226,307.571 226,307.571C226,308.991 227.152,310.143 228.571,310.143L233.857,310.143C233.857,310.143 233.857,315.429 233.857,315.429C233.857,316.848 235.009,318 236.429,318L239.571,318C240.991,318 242.143,316.848 242.143,315.429C242.143,315.429 242.143,310.143 242.143,310.143C242.143,310.143 247.429,310.143 247.429,310.143C248.848,310.143 250,308.991 250,307.571C250,307.571 250,304.429 250,304.429C250,303.009 248.848,301.857 247.429,301.857L242.143,301.857C242.143,301.857 242.143,296.571 242.143,296.571C242.143,295.152 240.991,294 239.571,294C239.571,294 236.429,294 236.429,294C235.009,294 233.857,295.152 233.857,296.571L233.857,301.857ZM234.857,303.857C235.409,303.857 235.857,303.409 235.857,302.857L235.857,296.571C235.857,296.256 236.113,296 236.429,296L239.571,296C239.887,296 240.143,296.256 240.143,296.571L240.143,302.857C240.143,303.409 240.591,303.857 241.143,303.857L247.429,303.857C247.744,303.857 248,304.113 248,304.429L248,307.571C248,307.887 247.744,308.143 247.429,308.143C247.429,308.143 241.143,308.143 241.143,308.143C240.591,308.143 240.143,308.591 240.143,309.143L240.143,315.429C240.143,315.744 239.887,316 239.571,316C239.571,316 236.429,316 236.429,316C236.113,316 235.857,315.744 235.857,315.429L235.857,309.143C235.857,308.591 235.409,308.143 234.857,308.143L228.571,308.143C228.256,308.143 228,307.887 228,307.571L228,304.429C228,304.113 228.256,303.857 228.571,303.857C228.571,303.857 234.857,303.857 234.857,303.857Z"/>
        </g>
    </g>
</svg>
