<?xml version="1.0" encoding="UTF-8" standalone="no"?>
<!DOCTYPE svg PUBLIC "-//W3C//DTD SVG 1.1//EN" "http://www.w3.org/Graphics/SVG/1.1/DTD/svg11.dtd">
<svg width="100%" height="100%" viewBox="0 0 48 48" version="1.1" xmlns="http://www.w3.org/2000/svg" xmlns:xlink="http://www.w3.org/1999/xlink" xml:space="preserve" xmlns:serif="http://www.serif.com/" style="fill-rule:evenodd;clip-rule:evenodd;stroke-linejoin:round;stroke-miterlimit:2;">
    <g transform="matrix(1,0,0,1,-214,-78)">
        <g id="DesignHere">
            <path d="M229.595,81.014C229.429,81.043 229.277,81.112 229.149,81.212C229.022,81.311 228.917,81.442 228.85,81.596C228.824,81.654 228.804,81.713 228.79,81.776L220.564,114.682L218.539,121.724C218.386,122.254 218.693,122.809 219.224,122.961C219.754,123.114 220.309,122.807 220.461,122.276L222.282,115.941L236.677,115.941L235.038,121.727C234.887,122.258 235.196,122.812 235.727,122.962C236.258,123.113 236.812,122.804 236.962,122.273L238.756,115.941L253.718,115.941L255.539,122.276C255.691,122.807 256.246,123.114 256.776,122.961C257.307,122.809 257.614,122.254 257.461,121.724L255.436,114.682L247.21,81.776C247.192,81.697 247.165,81.622 247.129,81.552C247.04,81.373 246.9,81.227 246.729,81.131L246.723,81.127C246.585,81.049 246.426,81.004 246.257,81L246.235,81L229.783,81C229.72,80.999 229.657,81.004 229.595,81.014ZM246.235,86.123L253.19,113.941C253.19,113.941 239.281,113.941 239.281,113.941L246.235,86.123ZM222.81,113.941L237.219,113.941L244.955,83L230.545,83L222.81,113.941ZM226.235,111.235L235.647,111.235C236.199,111.235 236.647,110.787 236.647,110.235C236.647,109.683 236.199,109.235 235.647,109.235L226.235,109.235C225.683,109.235 225.235,109.683 225.235,110.235C225.235,110.787 225.683,111.235 226.235,111.235ZM228,104.176L237.412,104.176C237.964,104.176 238.412,103.728 238.412,103.176C238.412,102.625 237.964,102.176 237.412,102.176L228,102.176C227.448,102.176 227,102.625 227,103.176C227,103.728 227.448,104.176 228,104.176ZM229.765,97.118L239.176,97.118C239.728,97.118 240.176,96.67 240.176,96.118C240.176,95.566 239.728,95.118 239.176,95.118L229.765,95.118C229.213,95.118 228.765,95.566 228.765,96.118C228.765,96.67 229.213,97.118 229.765,97.118ZM231.529,90.059L240.941,90.059C241.493,90.059 241.941,89.611 241.941,89.059C241.941,88.507 241.493,88.059 240.941,88.059L231.529,88.059C230.977,88.059 230.529,88.507 230.529,89.059C230.529,89.611 230.977,90.059 231.529,90.059Z"/>
        </g>
    </g>
</svg>
