<svg xmlns="http://www.w3.org/2000/svg" width="128" height="128" viewBox="0 0 128 128">
  <title>NETWORK</title>
  <path d="M75.131,58.982a1.75,1.75,0,0,0-1.75-1.75h-4.1V53.565h9.548a1.75,1.75,0,0,0,1.75-1.75V32.128a1.75,1.75,0,0,0-1.75-1.75H49.167a1.75,1.75,0,0,0-1.75,1.75V51.815a1.75,1.75,0,0,0,1.75,1.75h9.548v3.667h-4.1a1.75,1.75,0,0,0,0,3.5H73.381A1.75,1.75,0,0,0,75.131,58.982Zm-9.346-1.75h-3.57V53.565h3.57Zm-5.32-7.167H50.917V33.878H77.083V50.065H60.465Z"/>
  <path d="M52.622,90.456a1.751,1.751,0,0,0,1.75-1.75V69.018a1.751,1.751,0,0,0-1.75-1.75H22.955a1.751,1.751,0,0,0-1.75,1.75V88.706a1.751,1.751,0,0,0,1.75,1.75H32.5v3.666H28.408a1.75,1.75,0,0,0,0,3.5H47.169a1.75,1.75,0,0,0,0-3.5h-4.1V90.456ZM39.573,94.122H36V90.456h3.57Zm1.75-7.166H24.705V70.768H50.872V86.956Z"/>
  <path d="M107.1,88.706V69.018a1.751,1.751,0,0,0-1.75-1.75H75.687a1.751,1.751,0,0,0-1.75,1.75V88.706a1.751,1.751,0,0,0,1.75,1.75h9.548v3.666H81.14a1.75,1.75,0,0,0,0,3.5H99.9a1.75,1.75,0,0,0,0-3.5H95.806V90.456h9.548A1.751,1.751,0,0,0,107.1,88.706Zm-14.8,5.416H88.735V90.456h3.571Zm11.3-7.166H77.437V70.768H103.6Z"/>
  <path d="M95.771,64.02a1.751,1.751,0,0,0,1.75-1.75V49.438a7.837,7.837,0,0,0-7.829-7.828H86.844a1.75,1.75,0,0,0,0,3.5h2.848a4.333,4.333,0,0,1,4.329,4.328V62.27A1.75,1.75,0,0,0,95.771,64.02Z"/>
  <path d="M33.98,62.27V49.438a4.332,4.332,0,0,1,4.327-4.328h2.849a1.75,1.75,0,0,0,0-3.5H38.307a7.836,7.836,0,0,0-7.827,7.828V62.27a1.75,1.75,0,1,0,3.5,0Z"/>
  <path d="M59,78.922a1.75,1.75,0,0,0,0,3.5H69a1.75,1.75,0,0,0,0-3.5Z"/>
</svg>
