<?xml version="1.0" encoding="utf-8"?>
<!-- Generator: Adobe Illustrator 24.1.3, SVG Export Plug-In . SVG Version: 6.00 Build 0)  -->
<svg version="1.1" xmlns="http://www.w3.org/2000/svg" xmlns:xlink="http://www.w3.org/1999/xlink" x="0px" y="0px"
	 viewBox="0 0 24 24" style="enable-background:new 0 0 24 24;" xml:space="preserve">
<style type="text/css">
	.st0{fill:#231F20;}
</style>
<g id="Design_here">
	<g>
		<path d="M14.79,18H4.21C3.54,18,3,17.49,3,16.85V7.15C3,6.51,3.54,6,4.21,6h10.59C15.46,6,16,6.51,16,7.15v9.71
			C16,17.49,15.46,18,14.79,18z M4.21,7C4.08,7,4,7.08,4,7.15v9.71C4,16.92,4.08,17,4.21,17h10.59c0.12,0,0.21-0.08,0.21-0.15V7.15
			C15,7.08,14.92,7,14.79,7H4.21z"/>
	</g>
	<g>
		<path d="M20.5,17c-0.09,0-0.18-0.02-0.26-0.07l-5-3C15.09,13.84,15,13.68,15,13.5v-3c0-0.18,0.09-0.34,0.24-0.43l5-3
			c0.15-0.09,0.35-0.09,0.5-0.01C20.9,7.15,21,7.32,21,7.5v9c0,0.18-0.1,0.35-0.25,0.44C20.67,16.98,20.58,17,20.5,17z M16,13.22
			l4,2.4V8.38l-4,2.4V13.22z"/>
	</g>
</g>
<g id="Guide">
</g>
</svg>
