<svg xmlns="http://www.w3.org/2000/svg" width="24" height="24" viewBox="0 0 24 24">
  <g>
    <path d="M20.5,5H14V4a2,2,0,0,0-4,0V5H3.5A1.5,1.5,0,0,0,2,6.5v12A1.5,1.5,0,0,0,3.5,20h17A1.5,1.5,0,0,0,22,18.5V6.5A1.5,1.5,0,0,0,20.5,5ZM11,4a1,1,0,0,1,2,0V6H11ZM21,18.5a.5.5,0,0,1-.5.5H3.5a.5.5,0,0,1-.5-.5V6.5A.5.5,0,0,1,3.5,6H10v.5a.5.5,0,0,0,.5.5h3a.5.5,0,0,0,.5-.5V6h6.5a.5.5,0,0,1,.5.5Z"/>
    <path d="M10.5,14h-5a.5.5,0,0,0-.5.5v2a.5.5,0,0,0,.5.5h5a.5.5,0,0,0,.5-.5v-2A.5.5,0,0,0,10.5,14ZM10,16H6V15h4Z"/>
    <path d="M18.5,13h-4a.5.5,0,0,0,0,1h4a.5.5,0,0,0,0-1Z"/>
    <path d="M18.5,10h-4a.5.5,0,0,0,0,1h4a.5.5,0,0,0,0-1Z"/>
    <path d="M18.5,16h-4a.5.5,0,0,0,0,1h4a.5.5,0,0,0,0-1Z"/>
    <path d="M8,13a2,2,0,1,0-2-2A2,2,0,0,0,8,13Zm0-3a1,1,0,1,1-1,1A1,1,0,0,1,8,10Z"/>
  </g>
</svg>
