<?xml version="1.0" encoding="UTF-8"?>
<svg id="Expanded" xmlns="http://www.w3.org/2000/svg" viewBox="0 0 64 64">
  <path d="M59.817,41.389c-.411-1.514-1.473-2.754-2.914-3.401l-6.998-3.144c.501-1.443.227-3.236.007-4.214.839-.732,1.343-1.629,1.501-2.676.289-1.911-.713-3.776-1.293-4.665.638-1.372,1.904-4.704.019-6.275-1.643-1.37-5.279-1.037-6.989-.785-.903-1.813-2.838-5.35-4.504-6.044-1.819-.761-6.451,1.165-8.674,2.185-3.479-.79-5.935-.524-7.303.792-.705.678-.988,1.523-1.066,2.237-.619.165-1.169.484-1.624.947-1.042,1.063-1.367,2.636-1.466,3.615-1.083.265-1.95.803-2.583,1.606-.778.987-1.008,2.158-1.062,2.977-1.46.255-2.437.896-2.909,1.913-.716,1.543.055,3.438.713,4.616l-5.356,2.122h0c-1.351.536-2.394,1.568-2.935,2.907-.537,1.328-.508,2.778.082,4.083l3.527,7.801c.608,1.345,1.767,2.377,3.18,2.832,1.423.458,2.981.294,4.275-.452l10.45-6.024c.244-.142.545-.182.848-.12,3.671.77,6.199.401,7.209.177l13.625,8.76c.89.572,1.885.846,2.87.846,1.654,0,3.275-.776,4.302-2.219l4.286-6.027c.905-1.273,1.19-2.866.782-4.37ZM37.877,12.031c.622.259,1.835,2.037,2.899,3.98-3.183-.379-6.261.016-7.588.236-.612-.927-1.188-1.782-1.608-2.402,2.877-1.243,5.67-2.065,6.297-1.814ZM24.071,14.589c.487-.457,1.838-1.079,5.406-.278.653.954,2.642,3.881,4.007,6.102.618,1.005.63,1.653.504,2.051l-10.402-6.757c.016-.315.112-.767.485-1.117ZM21.411,17.743c.259-.263.566-.406.943-.452l11.135,7.234c.836,1.286,1.14,2.311.847,2.891-.287.566-1.176.801-1.708.876l-12.132-8.006c.065-.748.29-1.908.916-2.543ZM17.509,22.796c.396-.497.977-.797,1.743-.935l12.271,8.097c.055.323-.02.777-.308,1.176-.252.349-.734.744-1.616.64-1.812-.215-4.533-1.841-5.429-2.45-.007-.005-.016-.005-.023-.009-.007-.005-.011-.012-.018-.017l-7.272-4.436c.011-.521.117-1.394.653-2.067ZM13.774,27.298c.257-.551,1.097-.764,1.857-.84l6.485,3.955c-1.909,1.628-6.15.612-7.328.283-.592-.887-1.416-2.535-1.013-3.399ZM33.948,42.351c-.043.008-.088.007-.13.02-.024.008-2.497.769-6.665-.106-.784-.164-1.586-.042-2.257.344l-10.451,6.024c-.805.464-1.777.566-2.663.281-.89-.287-1.59-.909-1.971-1.752l-3.527-7.801c-.363-.802-.38-1.693-.05-2.509.334-.827.98-1.466,1.818-1.798l6.158-2.439c1.475.429,7.092,1.814,9.669-1.105,1.226.743,3.569,2.024,5.484,2.251.173.021.343.03.511.03,1.209,0,2.271-.526,2.963-1.487.461-.64.704-1.414.706-2.151.869-.215,2.001-.707,2.572-1.823.598-1.169.383-2.646-.639-4.399.638-.913.995-2.479-.288-4.566-.249-.405-.52-.834-.798-1.269,1.828-.236,5.061-.478,7.954.215.012.003.024-.001.037.001.098.02.198.022.301.011.023-.002.046.003.068-.001.004,0,.007,0,.011,0,1.976-.369,5.172-.542,6.098.23.701.584-.002,2.905-.78,4.354-.188.352-.149.785.099,1.098.424.534,1.477,2.232,1.257,3.658-.107.698-.505,1.271-1.216,1.751-.362.245-.523.699-.397,1.118.297.989.674,3.296-.059,4.118-.021.023-.035.051-.053.076-.008.01-.019.015-.026.025-.045.066-4.649,6.634-13.663,7.579-.027.003-.048.018-.074.023ZM57.406,44.6l-4.286,6.027c-1.017,1.431-2.977,1.804-4.46.85l-11.829-7.604c6.703-1.516,10.661-5.681,11.992-7.322l7.261,3.262c.892.401,1.549,1.167,1.803,2.101.251.924.075,1.904-.482,2.687Z"/>
</svg>