<svg xmlns="http://www.w3.org/2000/svg" width="128" height="128" viewBox="0 0 128 128">
  <title>TRUCK</title>
  <g>
    <path d="M29,80.75A6.25,6.25,0,1,0,35.25,87,6.257,6.257,0,0,0,29,80.75Zm0,9A2.75,2.75,0,1,1,31.75,87,2.752,2.752,0,0,1,29,89.75Z"/>
    <path d="M99,80.75A6.25,6.25,0,1,0,105.25,87,6.257,6.257,0,0,0,99,80.75Zm0,9A2.75,2.75,0,1,1,101.75,87,2.752,2.752,0,0,1,99,89.75Z"/>
    <path d="M117.834,59.318,111.9,57.642l-8.088-15.509a6.229,6.229,0,0,0-5.542-3.36H77.4V30a1.75,1.75,0,0,0-1.75-1.75H7A1.751,1.751,0,0,0,5.25,30V87A1.751,1.751,0,0,0,7,88.75h9.385a12.734,12.734,0,0,0,25.23,0h44.77a12.734,12.734,0,0,0,25.23,0H121A1.751,1.751,0,0,0,122.75,87V65.814A6.776,6.776,0,0,0,117.834,59.318Zm-10.022-1.947H94.891l-7.141-3.36V48.8h15.593ZM37.749,77.75H73.9v7.5H41.615A12.715,12.715,0,0,0,37.749,77.75Zm36.153-46v42.5H8.75V31.75ZM8.75,77.75h11.5a12.715,12.715,0,0,0-3.866,7.5H8.75ZM29,96.25A9.25,9.25,0,1,1,38.25,87,9.26,9.26,0,0,1,29,96.25Zm70,0A9.25,9.25,0,1,1,108.25,87,9.26,9.26,0,0,1,99,96.25Zm12.615-11a12.734,12.734,0,0,0-25.23,0H77.4V42.273H98.271a2.742,2.742,0,0,1,2.439,1.478l.808,1.549H86a1.75,1.75,0,0,0-1.75,1.75v8.071a1.752,1.752,0,0,0,1,1.584l8.5,4a1.743,1.743,0,0,0,.745.166h15.956l6.427,1.815a3.263,3.263,0,0,1,2.367,3.128V66.9h-5.794a1.751,1.751,0,0,0-1.75,1.75V73a4.756,4.756,0,0,0,4.75,4.75h2.794v7.5ZM119.25,70.4V74.25h-2.794a1.251,1.251,0,0,1-1.25-1.25V70.4Z"/>
    <path d="M20.73,67.129a1.749,1.749,0,0,0,1.75-1.75V40.621a1.75,1.75,0,0,0-3.5,0V65.379A1.75,1.75,0,0,0,20.73,67.129Z"/>
    <path d="M34.461,67.129a1.75,1.75,0,0,0,1.75-1.75V40.621a1.75,1.75,0,1,0-3.5,0V65.379A1.75,1.75,0,0,0,34.461,67.129Z"/>
    <path d="M48.191,67.129a1.749,1.749,0,0,0,1.75-1.75V40.621a1.75,1.75,0,0,0-3.5,0V65.379A1.75,1.75,0,0,0,48.191,67.129Z"/>
    <path d="M61.922,67.129a1.75,1.75,0,0,0,1.75-1.75V40.621a1.75,1.75,0,0,0-3.5,0V65.379A1.75,1.75,0,0,0,61.922,67.129Z"/>
  </g>
</svg>
