<svg xmlns="http://www.w3.org/2000/svg" width="128" height="128" viewBox="0 0 128 128">
  <title>CREDENTIAL</title>
  <path d="M100.947,109.213a1.671,1.671,0,0,0,.022-.213V19c0-.015,0-.028,0-.043,0-.039-.008-.077-.011-.115a1.734,1.734,0,0,0-.05-.291c-.011-.041-.023-.08-.037-.12a1.758,1.758,0,0,0-.127-.283c-.012-.021-.017-.045-.03-.066s-.013-.014-.019-.023a1.757,1.757,0,0,0-.252-.312c-.019-.018-.041-.032-.061-.05a1.7,1.7,0,0,0-.261-.192c-.034-.021-.069-.039-.105-.057a1.708,1.708,0,0,0-.277-.112c-.036-.011-.071-.025-.107-.033a1.721,1.721,0,0,0-.408-.053H28.781a1.721,1.721,0,0,0-.408.053c-.037.008-.071.022-.107.033a1.748,1.748,0,0,0-.276.111c-.036.019-.072.037-.107.058a1.745,1.745,0,0,0-.26.192c-.02.018-.042.032-.061.05a1.766,1.766,0,0,0-.252.312c0,.008-.014.014-.019.023s-.018.046-.031.068a1.751,1.751,0,0,0-.126.279c-.014.041-.027.081-.038.123a1.919,1.919,0,0,0-.049.286c0,.041-.011.08-.012.12,0,.014,0,.028,0,.042v90a1.637,1.637,0,0,0,.022.212c0,.034,0,.066.01.1a1.68,1.68,0,0,0,.131.416c0,.01.005.02.009.03s.026.034.036.053a1.719,1.719,0,0,0,.2.3c.022.026.042.054.066.079a1.71,1.71,0,0,0,.325.275c.023.015.047.025.07.038a1.689,1.689,0,0,0,.33.148c.036.012.072.024.109.034a1.725,1.725,0,0,0,.44.063H99.219a1.725,1.725,0,0,0,.44-.063c.037-.01.072-.021.108-.033a1.743,1.743,0,0,0,.332-.149c.022-.013.046-.023.068-.037a1.759,1.759,0,0,0,.327-.276c.023-.025.043-.052.065-.079a1.732,1.732,0,0,0,.2-.3c.01-.019.026-.033.035-.052s.005-.02.009-.029a1.739,1.739,0,0,0,.131-.418C100.943,109.278,100.943,109.246,100.947,109.213ZM30.531,26.364l3.686,7.318a8.925,8.925,0,0,0,8.013,4.935H62.25v2.908a5,5,0,1,0,3.5,0V38.617H85.769a8.926,8.926,0,0,0,8.014-4.935l3.686-7.318v77.661l-2.717-3.384a8.929,8.929,0,0,0-7-3.356H40.245a8.931,8.931,0,0,0-7,3.356l-2.717,3.384ZM64,44.691a1.5,1.5,0,1,1-1.495,1.495A1.5,1.5,0,0,1,64,44.691ZM96.378,20.75l-5.72,11.356a5.446,5.446,0,0,1-4.889,3.011H65.75V32.6a5,5,0,1,0-3.5,0v2.522H42.23a5.444,5.444,0,0,1-4.887-3.01L31.622,20.75ZM64,29.429a1.5,1.5,0,1,1,1.5-1.495A1.5,1.5,0,0,1,64,29.429ZM32.43,107.25l3.547-4.418a5.447,5.447,0,0,1,4.268-2.047h47.51a5.448,5.448,0,0,1,4.268,2.047l3.546,4.418Z"/>
</svg>
