<svg xmlns="http://www.w3.org/2000/svg" width="128" height="128" viewBox="0 0 128 128">
  <title>PENCIL CASE</title>
  <path d="M88.407,56.617A1.746,1.746,0,0,0,87.1,56.03H83.22L87.1,36.917c.012-.062.01-.126.016-.189,0-.034.008-.066.009-.1a1.744,1.744,0,0,0-.061-.534c0-.007,0-.015,0-.022l-4.4-14.944a1.749,1.749,0,0,0-3.033-.614L69.777,32.559a1.738,1.738,0,0,0-.286.5c-.014.035-.024.07-.035.1a1.641,1.641,0,0,0-.061.179L66.247,48.883l-1.371-7.158,0-.02-.006-.019L63.4,34.04v-.013l0-.013L60.459,18.671a1.75,1.75,0,0,0-2.048-1.39L40.571,20.7a1.75,1.75,0,0,0-1.389,2.048l6.38,33.281H40.9a1.751,1.751,0,0,0-1.738,1.953l5.32,45.464a8.283,8.283,0,0,0,8.218,7.3H75.3a8.285,8.285,0,0,0,8.219-7.307l5.319-45.46A1.753,1.753,0,0,0,88.407,56.617ZM79.778,36.4a4.1,4.1,0,0,1,.542-.12c.056-.008.112-.011.168-.017a4.072,4.072,0,0,1,.454-.023c.061,0,.122,0,.183,0a4.143,4.143,0,0,1,.578.068l.027.005a4.126,4.126,0,0,1,.564.163c.056.021.111.044.167.067a4.136,4.136,0,0,1,.414.2c.048.027.1.05.144.079a3.985,3.985,0,0,1,.457.324L79.649,56.03H75.8ZM80.236,25.3l2.236,7.6c-.011,0-.022,0-.033,0-.053-.011-.108-.014-.161-.023a7.366,7.366,0,0,0-.961-.113c-.121-.006-.24-.005-.361-.006a7.537,7.537,0,0,0-.821.042c-.114.012-.227.02-.34.038a7.522,7.522,0,0,0-1.127.249c-.032-.027-.07-.046-.1-.073a7.823,7.823,0,0,0-.814-.579c-.113-.069-.229-.128-.345-.191a7.189,7.189,0,0,0-.684-.333c-.12-.051-.239-.1-.361-.145a7.551,7.551,0,0,0-.84-.249c-.077-.018-.153-.044-.23-.06-.023-.005-.045-.013-.068-.018Zm-7.6,9.666a4.164,4.164,0,0,1,.51-.115c.079-.013.159-.017.238-.025.123-.012.246-.021.369-.022.077,0,.153,0,.229,0a4.256,4.256,0,0,1,.451.048c.042.007.085.009.127.018a4.027,4.027,0,0,1,.569.156c.044.015.086.034.129.051a4.092,4.092,0,0,1,.452.208l.113.061a4.149,4.149,0,0,1,.524.358L72.229,56.03H68.37ZM42.948,23.809l14.4-2.761,2.283,11.919-8.06,1.544A1.75,1.75,0,0,0,51.9,37.98a1.774,1.774,0,0,0,.331-.031L60.293,36.4l.812,4.241-3.753.719a1.75,1.75,0,0,0,.328,3.469,1.79,1.79,0,0,0,.331-.031l3.753-.719.812,4.24-8.059,1.545a1.75,1.75,0,0,0,.327,3.469,1.71,1.71,0,0,0,.331-.032l8.06-1.544.818,4.269H49.126ZM75.3,107.25H52.7a4.78,4.78,0,0,1-4.742-4.212l-.422-3.618H80.464l-.421,3.613A4.782,4.782,0,0,1,75.3,107.25Zm5.575-11.33H47.125L42.867,59.53H85.133Z"/>
</svg>
