<?xml version="1.0" encoding="UTF-8"?>
<svg id="Dash_Line" xmlns="http://www.w3.org/2000/svg" viewBox="0 0 96 96">
  <path d="M5,58.81v-1.79c0-.552.447-1,1-1s1,.448,1,1v1.79c0,.552-.447,1-1,1s-1-.448-1-1ZM91,31.694v43.195c0,1.654-1.346,3-3,3H27.097c-.536.818-1.458,1.361-2.507,1.361H8c-1.654,0-3-1.346-3-3v-13.84c0-.552.447-1,1-1s1,.448,1,1v13.84c0,.551.448,1,1,1h16.59c.552,0,1-.449,1-1v-31.083H7v8.243c0,.552-.447,1-1,1s-1-.448-1-1v-23.08c0-1.654,1.346-3,3-3h1.469v-2.774c0-1.654,1.346-3,3-3h7.652c1.654,0,3,1.346,3,3v2.774h1.469c1.05,0,1.973.544,2.509,1.364h11.108l4.655-10.248c.477-1.047,1.441-1.697,2.518-1.697h25.83c1.077,0,2.042.65,2.517,1.698l4.655,10.248h9.618c1.654,0,3,1.346,3,3ZM11.469,27.33h9.652v-2.774c0-.551-.448-1-1-1h-7.652c-.552,0-1,.449-1,1v2.774ZM25.59,30.33c0-.551-.448-1-1-1H8c-.552,0-1,.449-1,1v12.837h18.59v-12.837ZM40.403,28.694h35.782l-4.279-9.421c-.147-.324-.414-.524-.696-.524h-25.83c-.282,0-.55.201-.697.525l-4.279,9.42ZM89,46.73h-13.25c.771,2.045,1.213,4.25,1.213,6.562,0,10.294-8.375,18.668-18.669,18.668s-18.669-8.375-18.669-18.668c0-2.312.442-4.517,1.213-6.562h-13.25v29.159h60.41c.552,0,1-.449,1-1v-28.159ZM58.295,69.96c9.191,0,16.669-7.478,16.669-16.668s-7.478-16.668-16.669-16.668-16.669,7.478-16.669,16.668,7.478,16.668,16.669,16.668ZM89,31.694c0-.551-.448-1-1-1H27.59v14.036h14.134c3.11-5.995,9.364-10.107,16.571-10.107s13.461,4.112,16.571,10.107h14.134v-13.036ZM44.596,53.292c0-7.554,6.146-13.699,13.699-13.699s13.698,6.145,13.698,13.699-6.145,13.699-13.698,13.699-13.699-6.145-13.699-13.699ZM46.596,53.292c0,6.451,5.248,11.699,11.699,11.699s11.698-5.248,11.698-11.699-5.248-11.699-11.698-11.699-11.699,5.248-11.699,11.699ZM50.568,53.292c0-4.257,3.468-7.721,7.73-7.721.355,0,.729.188.909.495.18.306.229.685.056.994-.211.378-.323.811-.323,1.253,0,1.397,1.138,2.534,2.535,2.534.826,0,1.58-.387,2.069-1.062.205-.285.542-.443.896-.41.351.03.659.242.812.558.502,1.029.768,2.19.768,3.358,0,4.257-3.464,7.721-7.722,7.721s-7.73-3.463-7.73-7.721ZM52.568,53.292c0,3.154,2.57,5.721,5.73,5.721s5.722-2.566,5.722-5.721c0-.394-.038-.778-.114-1.152-.72.456-1.562.708-2.431.708-2.501,0-4.535-2.034-4.535-4.534,0-.192.012-.384.036-.574-2.553.618-4.408,2.874-4.408,5.553ZM85.213,34.358v6.474c0,.552-.447,1-1,1h-6.475c-.553,0-1-.448-1-1v-6.474c0-.552.447-1,1-1h6.475c.553,0,1,.448,1,1ZM83.213,35.358h-4.475v4.474h4.475v-4.474ZM38.851,70.273h-5.09c-.553,0-1,.448-1,1s.447,1,1,1h5.09c.553,0,1-.448,1-1s-.447-1-1-1Z"/>
</svg>