<?xml version="1.0" encoding="UTF-8" standalone="no"?>
<!DOCTYPE svg PUBLIC "-//W3C//DTD SVG 1.1//EN" "http://www.w3.org/Graphics/SVG/1.1/DTD/svg11.dtd">
<svg width="100%" height="100%" viewBox="0 0 48 48" version="1.1" xmlns="http://www.w3.org/2000/svg" xmlns:xlink="http://www.w3.org/1999/xlink" xml:space="preserve" xmlns:serif="http://www.serif.com/" style="fill-rule:evenodd;clip-rule:evenodd;stroke-linejoin:round;stroke-miterlimit:2;">
    <g transform="matrix(1,0,0,1,-78,-10)">
        <g id="DesignHere">
            <path d="M102.83,13.442C102.644,13.166 102.333,13 102,13C101.667,13 101.356,13.166 101.17,13.442L98.655,17.182C98.655,17.182 94.899,14.689 94.899,14.689C94.622,14.505 94.271,14.471 93.964,14.599C93.656,14.726 93.432,14.998 93.366,15.324L92.474,19.743C92.474,19.743 88.05,18.877 88.05,18.877C87.723,18.813 87.386,18.915 87.151,19.151C86.915,19.386 86.813,19.723 86.877,20.05L87.743,24.474C87.743,24.474 83.324,25.366 83.324,25.366C82.998,25.432 82.726,25.656 82.599,25.964C82.471,26.271 82.505,26.622 82.689,26.899L85.182,30.655C85.182,30.655 81.442,33.17 81.442,33.17C81.166,33.356 81,33.667 81,34C81,34.333 81.166,34.644 81.442,34.83L85.182,37.345C85.182,37.345 82.689,41.101 82.689,41.101C82.505,41.378 82.471,41.729 82.599,42.036C82.726,42.344 82.998,42.568 83.324,42.634L87.743,43.526C87.743,43.526 86.877,47.95 86.877,47.95C86.813,48.277 86.915,48.614 87.151,48.849C87.386,49.085 87.723,49.187 88.05,49.123L92.474,48.257C92.474,48.257 93.366,52.676 93.366,52.676C93.432,53.002 93.656,53.274 93.964,53.401C94.271,53.529 94.622,53.495 94.899,53.311L98.655,50.818C98.655,50.818 101.17,54.558 101.17,54.558C101.356,54.834 101.667,55 102,55C102.333,55 102.644,54.834 102.83,54.558L105.345,50.818C105.345,50.818 109.101,53.311 109.101,53.311C109.378,53.495 109.729,53.529 110.036,53.401C110.344,53.274 110.568,53.002 110.634,52.676L111.526,48.257C111.526,48.257 115.95,49.123 115.95,49.123C116.277,49.187 116.614,49.085 116.849,48.849C117.085,48.614 117.187,48.277 117.123,47.95L116.257,43.526C116.257,43.526 120.676,42.634 120.676,42.634C121.002,42.568 121.274,42.344 121.401,42.036C121.529,41.729 121.495,41.378 121.311,41.101L118.818,37.345C118.818,37.345 122.558,34.83 122.558,34.83C122.834,34.644 123,34.333 123,34C123,33.667 122.834,33.356 122.558,33.17L118.818,30.655C118.818,30.655 121.311,26.899 121.311,26.899C121.495,26.622 121.529,26.271 121.401,25.964C121.274,25.656 121.002,25.432 120.676,25.366L116.257,24.474C116.257,24.474 117.123,20.05 117.123,20.05C117.187,19.723 117.085,19.386 116.849,19.151C116.614,18.915 116.277,18.813 115.95,18.877L111.526,19.743C111.526,19.743 110.634,15.324 110.634,15.324C110.568,14.998 110.344,14.726 110.036,14.599C109.729,14.471 109.378,14.505 109.101,14.689L105.345,17.182C105.345,17.182 102.83,13.442 102.83,13.442ZM102,15.792L104.24,19.123C104.547,19.58 105.165,19.703 105.623,19.399L108.968,17.178C108.968,17.178 109.763,21.113 109.763,21.113C109.872,21.652 110.395,22.002 110.935,21.897L114.875,21.125C114.875,21.125 114.103,25.065 114.103,25.065C113.998,25.605 114.348,26.128 114.887,26.237L118.822,27.032C118.822,27.032 116.601,30.377 116.601,30.377C116.297,30.835 116.42,31.453 116.877,31.76L120.208,34C120.208,34 116.877,36.24 116.877,36.24C116.42,36.547 116.297,37.165 116.601,37.623L118.822,40.968C118.822,40.968 114.887,41.763 114.887,41.763C114.348,41.872 113.998,42.395 114.103,42.935L114.875,46.875C114.875,46.875 110.935,46.103 110.935,46.103C110.395,45.998 109.872,46.348 109.763,46.887L108.968,50.822C108.968,50.822 105.623,48.601 105.623,48.601C105.165,48.297 104.547,48.42 104.24,48.877L102,52.208C102,52.208 99.76,48.877 99.76,48.877C99.453,48.42 98.835,48.297 98.377,48.601L95.032,50.822C95.032,50.822 94.237,46.887 94.237,46.887C94.128,46.348 93.605,45.998 93.065,46.103L89.125,46.875C89.125,46.875 89.897,42.935 89.897,42.935C90.002,42.395 89.652,41.872 89.113,41.763L85.178,40.968C85.178,40.968 87.399,37.623 87.399,37.623C87.703,37.165 87.58,36.547 87.123,36.24L83.792,34C83.792,34 87.123,31.76 87.123,31.76C87.58,31.453 87.703,30.835 87.399,30.377L85.178,27.032C85.178,27.032 89.113,26.237 89.113,26.237C89.652,26.128 90.002,25.605 89.897,25.065L89.125,21.125C89.125,21.125 93.065,21.897 93.065,21.897C93.605,22.002 94.128,21.652 94.237,21.113L95.032,17.178C95.032,17.178 98.377,19.399 98.377,19.399C98.835,19.703 99.453,19.58 99.76,19.123L102,15.792ZM108,35C105.24,35 103,37.24 103,40C103,42.76 105.24,45 108,45C110.76,45 113,42.76 113,40C113,37.24 110.76,35 108,35ZM108,37C109.656,37 111,38.344 111,40C111,41.656 109.656,43 108,43C106.344,43 105,41.656 105,40C105,38.344 106.344,37 108,37ZM108.293,26.293L94.293,40.293C93.903,40.683 93.903,41.317 94.293,41.707C94.683,42.097 95.317,42.097 95.707,41.707L109.707,27.707C110.097,27.317 110.097,26.683 109.707,26.293C109.317,25.903 108.683,25.903 108.293,26.293ZM96,23C93.24,23 91,25.24 91,28C91,30.76 93.24,33 96,33C98.76,33 101,30.76 101,28C101,25.24 98.76,23 96,23ZM96,25C97.656,25 99,26.344 99,28C99,29.656 97.656,31 96,31C94.344,31 93,29.656 93,28C93,26.344 94.344,25 96,25Z"/>
        </g>
    </g>
</svg>
