<svg xmlns="http://www.w3.org/2000/svg" width="128" height="128" viewBox="0 0 128 128">
  <title>WORLD</title>
  <path d="M64,5.25A58.75,58.75,0,1,0,122.75,64,58.816,58.816,0,0,0,64,5.25ZM43.165,12.842l1.016,4.223a2.594,2.594,0,0,1-.38,2.067l-3.85,5.62A6.107,6.107,0,0,0,38.9,28.657L39.03,30.3a6.086,6.086,0,0,0,6.729,5.583l3.523-.385a2.6,2.6,0,0,1,2.521,1.28l3.8,6.588a2.571,2.571,0,0,1,.338,1.46l-.408,6.222a6.122,6.122,0,0,0,.532,2.918l.62,1.36a2.586,2.586,0,0,1-1.428,3.483l-2.735,1.05a2.592,2.592,0,0,1-2.577-.422l-4.8-3.981a6.086,6.086,0,0,0-9.078,1.513l-2.439,4a2.607,2.607,0,0,1-.464.562l-2.623,2.4a2.579,2.579,0,0,1-2.093.655l-3.791-.514a2.57,2.57,0,0,1-2.226-2.328,6.088,6.088,0,0,0-6.949-5.469l-1,.148a2.6,2.6,0,0,1-2.238-.762l-2.411-2.5A55.437,55.437,0,0,1,43.165,12.842Zm-5.73,82.705-2.774-3.862a3.228,3.228,0,0,1-.611-1.9V85.232a3.515,3.515,0,0,1,.633-2.015l2.356-3.385a1.382,1.382,0,0,1,1.692-.474l3.02,1.338a2.256,2.256,0,0,1,1.327,1.827l.539,5.231a4.85,4.85,0,0,0,1.244,2.784l1.638,1.8a4.89,4.89,0,0,0,3.61,1.6H55.1a4.885,4.885,0,0,0,3.2-1.193l1.474-1.277a2.244,2.244,0,0,1,3.009.056l4.315,4.031a1.382,1.382,0,0,1,.42,1.232l-.788,4.83a1.372,1.372,0,0,1-1.075,1.128L60.261,103.9a4.914,4.914,0,0,0-2.7,1.612L56.044,107.3A7.751,7.751,0,0,0,54.7,115.06l1.369,3.612A54.911,54.911,0,0,1,32.707,109.5l3.222-1.963a4.85,4.85,0,0,0,2.308-3.612l.421-3.672A6.732,6.732,0,0,0,37.435,95.547Zm22.536,23.54-2-5.267a4.251,4.251,0,0,1,.735-4.259l1.52-1.787a1.384,1.384,0,0,1,.763-.456l5.387-1.152a4.854,4.854,0,0,0,3.8-3.987l.788-4.831A4.871,4.871,0,0,0,69.478,93l-4.314-4.032a5.74,5.74,0,0,0-7.691-.143L56,90.1a1.383,1.383,0,0,1-.9.337H50.109a1.385,1.385,0,0,1-1.021-.452l-1.638-1.8a1.366,1.366,0,0,1-.35-.787l-.54-5.232A5.765,5.765,0,0,0,43.169,77.5l-3.02-1.338a4.887,4.887,0,0,0-5.983,1.675L31.81,81.219a6.991,6.991,0,0,0-1.26,4.013v4.557a6.711,6.711,0,0,0,1.268,3.938l2.774,3.861a3.254,3.254,0,0,1,.59,2.267l-.421,3.67a1.392,1.392,0,0,1-.655,1.023l-4.429,2.7A54.98,54.98,0,0,1,9.146,57.5l.572.592a6.09,6.09,0,0,0,5.266,1.795l1-.148a2.584,2.584,0,0,1,2.952,2.323,6.056,6.056,0,0,0,5.243,5.479l3.791.514a6.163,6.163,0,0,0,.823.056,6.074,6.074,0,0,0,4.1-1.6l2.623-2.4a6.076,6.076,0,0,0,1.087-1.319l2.441-4a2.586,2.586,0,0,1,3.856-.643l4.8,3.981a6.093,6.093,0,0,0,6.063,1l2.736-1.05a6.086,6.086,0,0,0,3.359-8.2l-.618-1.357a2.616,2.616,0,0,1-.227-1.241l.409-6.221a6.069,6.069,0,0,0-.8-3.437l-3.8-6.588A6.091,6.091,0,0,0,48.9,32.02l-3.523.385a2.585,2.585,0,0,1-2.858-2.373l-.126-1.643a2.6,2.6,0,0,1,.444-1.66l3.849-5.62a6.093,6.093,0,0,0,.9-4.861L46.47,11.617A55.06,55.06,0,0,1,98.3,20.732l-2.718,3.092A5.293,5.293,0,0,0,94.3,27.887l.391,3.567a1.782,1.782,0,0,1-1.7,1.974l-5.8.231a5.29,5.29,0,0,0-4.211,2.388L80,40.608a5.269,5.269,0,0,0,.309,6.2l.9,1.119a5.277,5.277,0,0,0,4.321,1.965l9.229-.362a11.817,11.817,0,0,0,4.919-1.3l1.729-.89a3.276,3.276,0,0,1,1.49-.361h3.9a1.784,1.784,0,0,1,1.721,1.32l1.074,4.012a1.788,1.788,0,0,1-.209,1.4l-2.464,3.962a1.792,1.792,0,0,1-1.12.8L99.88,59.812a1.769,1.769,0,0,1-1.757-.594l-2.246-2.681a5.279,5.279,0,0,0-5.962-1.531l-3.879,1.507A5.3,5.3,0,0,0,82.82,62.7l1.412,5.741a1.787,1.787,0,0,1-.739,1.905l-3.549,2.376a5.3,5.3,0,0,0-1.811,6.7L79.8,82.844a5.284,5.284,0,0,0,5.025,2.964l4.2-.219A5.314,5.314,0,0,0,93.105,83.3l1.027-1.5a1.786,1.786,0,0,1,2.278-.581l2.859,1.455a2.246,2.246,0,0,1,1.223,2.145l-.509,8.151a1.769,1.769,0,0,1-.227.766l-2.908,5.139a5.741,5.741,0,0,0-.17,5.342l1.519,3.134A54.965,54.965,0,0,1,64,119.25C62.643,119.25,61.3,119.184,59.971,119.087Zm40.99-14.061-1.135-2.341a2.242,2.242,0,0,1,.068-2.089l2.909-5.14a5.317,5.317,0,0,0,.674-2.272l.508-8.15a5.743,5.743,0,0,0-3.129-5.483L98,78.1a5.292,5.292,0,0,0-6.755,1.724l-1.026,1.5a1.8,1.8,0,0,1-1.377.774l-4.2.219a1.793,1.793,0,0,1-1.7-1L81.28,77.888a1.789,1.789,0,0,1,.612-2.261l3.548-2.375a5.3,5.3,0,0,0,2.191-5.65l-1.412-5.74A1.788,1.788,0,0,1,87.3,59.775l3.879-1.506a1.776,1.776,0,0,1,2.011.516l2.245,2.68a5.26,5.26,0,0,0,5.213,1.761l5.91-1.336a5.314,5.314,0,0,0,3.321-2.361l2.464-3.962a5.3,5.3,0,0,0,.618-4.157L111.891,47.4a5.291,5.291,0,0,0-5.1-3.915h-3.9a6.787,6.787,0,0,0-3.091.749l-1.731.891a8.3,8.3,0,0,1-3.453.91l-9.228.362a1.756,1.756,0,0,1-1.458-.663l-.9-1.118a1.778,1.778,0,0,1-.1-2.091l2.98-4.562a1.787,1.787,0,0,1,1.42-.8l5.8-.231a5.282,5.282,0,0,0,5.041-5.853l-.392-3.565a1.793,1.793,0,0,1,.435-1.372l2.768-3.148a55.16,55.16,0,0,1-.015,82.039Z"/>
</svg>
