<svg xmlns="http://www.w3.org/2000/svg" width="128" height="128" viewBox="0 0 128 128">
  <title>SCREWDRIVER</title>
  <g>
    <path d="M110.92,23.292l-5.732-5.731a1.745,1.745,0,0,0-2.217-.211L89.6,26.4A1.75,1.75,0,0,0,89,27.09l-3.143,6.5L59.813,59.637,56.1,55.923a1.749,1.749,0,0,0-2.475,0l-3.569,3.569a4.092,4.092,0,0,0-1.206,2.94,4.149,4.149,0,0,0,1.224,2.927A1.445,1.445,0,1,1,48.031,67.4l-1.7-1.706a1.752,1.752,0,0,0-2.475,0l-22.56,22.56a13.109,13.109,0,0,0-3.857,9.46,13.353,13.353,0,0,0,4.126,9.558,13.2,13.2,0,0,0,9.207,3.671A13.746,13.746,0,0,0,40.5,106.92L62.785,84.631a1.751,1.751,0,0,0,0-2.475L61.079,80.45a1.485,1.485,0,0,1-.44-1.049,1.419,1.419,0,0,1,1.425-1.434h.009a1.489,1.489,0,0,1,1.048.44,4.157,4.157,0,0,0,2.928,1.226,3.937,3.937,0,0,0,2.94-1.206l3.569-3.57a1.75,1.75,0,0,0,0-2.474l-3.716-3.716L94.889,42.623l6.5-3.144a1.737,1.737,0,0,0,.687-.594l9.053-13.375A1.75,1.75,0,0,0,110.92,23.292ZM68.846,73.62l-2.331,2.332a.781.781,0,0,1-.446.181.678.678,0,0,1-.473-.2,4.961,4.961,0,0,0-7.017-.025,4.892,4.892,0,0,0-1.44,3.513,4.963,4.963,0,0,0,1.465,3.5l.469.469L38.021,104.445a10.066,10.066,0,0,1-14.031.31,9.878,9.878,0,0,1-3.056-7.071,9.634,9.634,0,0,1,2.832-6.954L45.088,69.408l.468.469a4.944,4.944,0,1,0,6.992-6.992.651.651,0,0,1-.019-.918l2.332-2.332,3.692,3.692c.008.008.013.018.021.026l2.967,2.962Zm30.6-37.087L93.1,39.6a1.752,1.752,0,0,0-.476.339L66.369,66.19,64,63.826l-1.714-1.714,26.22-26.219a1.761,1.761,0,0,0,.373-.51l3.067-6.346,11.788-7.979,3.689,3.687Z"/>
    <path d="M49.559,76.448,31.041,94.965a1.75,1.75,0,0,0,2.475,2.475L52.033,78.923a1.75,1.75,0,1,0-2.474-2.475Z"/>
  </g>
</svg>
