<svg xmlns="http://www.w3.org/2000/svg" width="128" height="128" viewBox="0 0 128 128">
  <title>INK</title>
  <g>
    <path d="M47.019,36.633V26.624h5.115a1.75,1.75,0,0,0,1.75-1.75V8.468a1.75,1.75,0,0,0-1.75-1.75H12.585a1.75,1.75,0,0,0-1.75,1.75V24.874a1.75,1.75,0,0,0,1.75,1.75H17.7V36.633A15.215,15.215,0,0,0,5.214,51.577V114.7a6.592,6.592,0,0,0,6.585,6.585H52.92a6.592,6.592,0,0,0,6.585-6.585V51.577A15.211,15.211,0,0,0,47.019,36.633ZM34.11,23.124V10.218H40.7V23.124Zm-10.092,0V10.218H30.61V23.124Zm26.366,0H44.2V10.218h6.182ZM14.335,10.218h6.183V23.124H14.335ZM43.519,26.624v9.77H21.2v-9.77Zm12.486,73H8.714V58.054H56.005ZM52.92,117.782H11.8A3.089,3.089,0,0,1,8.714,114.7V103.121H56.005V114.7A3.088,3.088,0,0,1,52.92,117.782Zm3.085-63.228H8.714V51.577A11.693,11.693,0,0,1,20.381,39.894H44.339A11.693,11.693,0,0,1,56.005,51.577Z"/>
    <path d="M32.36,95.254A12.5,12.5,0,0,0,44.841,82.772c0-6.383-10.005-18.383-11.146-19.731a1.809,1.809,0,0,0-2.671,0c-1.141,1.348-11.146,13.348-11.146,19.731A12.5,12.5,0,0,0,32.36,95.254Zm0-28.323c3.922,4.915,8.981,12.4,8.981,15.841a8.982,8.982,0,1,1-17.963,0C23.378,79.334,28.438,71.846,32.36,66.931Z"/>
    <path d="M110.3,36.633V26.624h5.116a1.75,1.75,0,0,0,1.75-1.75V8.468a1.75,1.75,0,0,0-1.75-1.75H75.866a1.75,1.75,0,0,0-1.75,1.75V24.874a1.75,1.75,0,0,0,1.75,1.75h5.115V36.633A15.215,15.215,0,0,0,68.5,51.577V114.7a6.592,6.592,0,0,0,6.585,6.585H116.2a6.592,6.592,0,0,0,6.585-6.585V51.577A15.212,15.212,0,0,0,110.3,36.633ZM97.39,23.124V10.218h6.592V23.124Zm-10.092,0V10.218H93.89V23.124Zm26.367,0h-6.183V10.218h6.183ZM77.616,10.218H83.8V23.124H77.616ZM106.8,26.624v9.77H84.481v-9.77ZM83.661,39.894h23.958a11.692,11.692,0,0,1,11.667,11.683v2.977H72V51.577A11.694,11.694,0,0,1,83.661,39.894Zm35.625,59.727H72V58.054h47.291ZM116.2,117.782H75.08A3.088,3.088,0,0,1,72,114.7V103.121h47.291V114.7A3.089,3.089,0,0,1,116.2,117.782Z"/>
    <path d="M95.64,95.254a12.5,12.5,0,0,0,12.482-12.482c0-6.383-10-18.383-11.146-19.731a1.809,1.809,0,0,0-2.671,0c-1.141,1.348-11.146,13.348-11.146,19.731A12.5,12.5,0,0,0,95.64,95.254Zm0-28.324c3.922,4.914,8.981,12.4,8.981,15.842a8.982,8.982,0,1,1-17.963,0C86.659,79.334,91.718,71.846,95.641,66.93Z"/>
  </g>
</svg>
