<svg xmlns="http://www.w3.org/2000/svg" width="128" height="128" viewBox="0 0 128 128">
  <title>CLIP</title>
  <path d="M106.027,25.75a16.163,16.163,0,0,0-22.84,0L41.228,67.709A11.161,11.161,0,0,0,57.012,83.493L91.6,48.905a4.563,4.563,0,1,0-6.453-6.453L50.559,77.041a2.036,2.036,0,0,1-2.879-2.879L89.64,32.2a7.024,7.024,0,0,1,9.934,9.934l-52.1,52.1A12.364,12.364,0,0,1,29.987,76.752l44.73-44.73a4.563,4.563,0,1,0-6.452-6.453L23.535,70.3a21.489,21.489,0,0,0,30.39,30.391l52.1-52.1a16.164,16.164,0,0,0,0-22.838Zm-2.475,20.363-52.1,52.1A17.99,17.99,0,0,1,26.01,72.773L70.74,28.044a1.063,1.063,0,0,1,1.5,1.5l-44.73,44.73A15.864,15.864,0,0,0,49.948,96.712l52.1-52.1A10.524,10.524,0,0,0,87.165,29.728l-41.96,41.96a5.536,5.536,0,1,0,7.829,7.828L87.623,44.927a1.085,1.085,0,0,1,1.5,0,1.061,1.061,0,0,1,0,1.5L54.537,81.019A7.661,7.661,0,1,1,43.7,70.184L85.662,28.225a12.661,12.661,0,0,1,17.889,0h0a12.665,12.665,0,0,1,0,17.888Z"/>
</svg>
