<?xml version="1.0" encoding="utf-8"?>
<!-- Generator: Adobe Illustrator 24.1.3, SVG Export Plug-In . SVG Version: 6.00 Build 0)  -->
<svg version="1.1" xmlns="http://www.w3.org/2000/svg" xmlns:xlink="http://www.w3.org/1999/xlink" x="0px" y="0px"
	 viewBox="0 0 24 24" style="enable-background:new 0 0 24 24;" xml:space="preserve">
<style type="text/css">
	.st0{fill:#231F20;}
</style>
<g id="Design_here">
	<g>
		<path d="M6.5,22C6.22,22,6,21.78,6,21.5v-8C6,13.22,6.22,13,6.5,13S7,13.22,7,13.5v8C7,21.78,6.78,22,6.5,22z"/>
	</g>
	<g>
		<path d="M6.5,10C6.22,10,6,9.78,6,9.5v-6C6,3.22,6.22,3,6.5,3S7,3.22,7,3.5v6C7,9.78,6.78,10,6.5,10z"/>
	</g>
	<g>
		<path d="M6.5,14C5.12,14,4,12.88,4,11.5S5.12,9,6.5,9S9,10.12,9,11.5S7.88,14,6.5,14z M6.5,10C5.67,10,5,10.67,5,11.5
			S5.67,13,6.5,13S8,12.33,8,11.5S7.33,10,6.5,10z"/>
	</g>
	<g>
		<path d="M12.5,22c-0.28,0-0.5-0.22-0.5-0.5v-2c0-0.28,0.22-0.5,0.5-0.5s0.5,0.22,0.5,0.5v2C13,21.78,12.78,22,12.5,22z"/>
	</g>
	<g>
		<path d="M12.5,16c-0.28,0-0.5-0.22-0.5-0.5v-12C12,3.22,12.22,3,12.5,3S13,3.22,13,3.5v12C13,15.78,12.78,16,12.5,16z"/>
	</g>
	<g>
		<path d="M12.5,20c-1.38,0-2.5-1.12-2.5-2.5s1.12-2.5,2.5-2.5s2.5,1.12,2.5,2.5S13.88,20,12.5,20z M12.5,16
			c-0.83,0-1.5,0.67-1.5,1.5s0.67,1.5,1.5,1.5s1.5-0.67,1.5-1.5S13.33,16,12.5,16z"/>
	</g>
	<g>
		<path d="M18.5,22c-0.28,0-0.5-0.22-0.5-0.5v-11c0-0.28,0.22-0.5,0.5-0.5s0.5,0.22,0.5,0.5v11C19,21.78,18.78,22,18.5,22z"/>
	</g>
	<g>
		<path d="M18.5,7C18.22,7,18,6.78,18,6.5v-3C18,3.22,18.22,3,18.5,3S19,3.22,19,3.5v3C19,6.78,18.78,7,18.5,7z"/>
	</g>
	<g>
		<path d="M18.5,11C17.12,11,16,9.88,16,8.5S17.12,6,18.5,6S21,7.12,21,8.5S19.88,11,18.5,11z M18.5,7C17.67,7,17,7.67,17,8.5
			s0.67,1.5,1.5,1.5S20,9.33,20,8.5S19.33,7,18.5,7z"/>
	</g>
</g>
<g id="Guide">
</g>
</svg>
