<svg xmlns="http://www.w3.org/2000/svg" width="128" height="128" viewBox="0 0 128 128">
  <title>SEARCH</title>
  <path d="M57.06,70.94a20.566,20.566,0,0,0,3.186,2.608h0A20.35,20.35,0,0,0,85.755,70.94a20.417,20.417,0,0,0,1.379-1.526c.069-.085.127-.176.194-.261.357-.452.7-.91,1.018-1.386.019-.029.034-.06.053-.088a20.286,20.286,0,0,0,0-22.175c-.018-.028-.032-.057-.051-.084-.315-.477-.661-.936-1.019-1.388-.067-.085-.124-.175-.193-.26a20.417,20.417,0,0,0-1.379-1.526c-.488-.489-1-.947-1.525-1.379-.094-.076-.194-.14-.289-.214-.442-.349-.891-.689-1.358-1-.039-.025-.08-.046-.119-.071a20.28,20.28,0,0,0-22.148.021c-.027.017-.055.031-.082.049-.48.317-.942.665-1.4,1.026-.082.065-.169.119-.25.186A20.248,20.248,0,0,0,57.06,70.94Zm2.474-26.22q.609-.608,1.263-1.141c.074-.06.153-.11.228-.169.371-.292.746-.577,1.135-.834.028-.019.059-.034.088-.052a16.813,16.813,0,0,1,18.319,0c.029.018.059.033.088.052.389.257.764.542,1.135.834.074.059.154.109.227.169A16.91,16.91,0,0,1,83.28,44.72q.609.609,1.141,1.262c.063.078.116.162.178.241.289.367.571.738.825,1.122.021.032.038.067.059.1a16.838,16.838,0,0,1,0,18.3c-.022.032-.039.068-.06.1-.254.384-.536.755-.825,1.122-.062.079-.115.163-.178.241q-.534.653-1.141,1.262a16.663,16.663,0,0,1-5.125,3.481,16.851,16.851,0,0,1-14.713-.563q-.645-.346-1.264-.755a17.155,17.155,0,0,1-4.8-4.8A16.844,16.844,0,0,1,59.534,44.72Z"/>
  <path d="M28.852,99.148a7.226,7.226,0,0,0,10.21,0L56.024,82.186a29.86,29.86,0,1,0-10.21-10.21L28.852,88.938A7.226,7.226,0,0,0,28.852,99.148Zm2.474-7.735L49.281,73.458a1.748,1.748,0,0,0,.216-2.212A26.36,26.36,0,1,1,56.754,78.5a1.751,1.751,0,0,0-2.212.216L36.587,96.673a3.72,3.72,0,1,1-5.261-5.26Z"/>
</svg>
