<?xml version="1.0" encoding="UTF-8"?>
<svg id="Outline" xmlns="http://www.w3.org/2000/svg" viewBox="0 0 96 96">
  <path d="M31.305,71.668c-.648,0-1.303-.124-1.928-.38-1.229-.524-2.515-.799-3.837-.821h-.139c-1.292.024-2.569.299-3.777.815-1.912.777-4.073.339-5.519-1.108-.964-.965-1.493-2.244-1.492-3.604,0-1.339.515-2.599,1.448-3.554l3.759-4.786c.354-.452.764-.861,1.216-1.217,3.127-2.458,7.672-1.912,10.13,1.215l3.774,4.787c.937.96,1.45,2.221,1.449,3.561,0,1.359-.531,2.638-1.493,3.6-.972.976-2.268,1.493-3.59,1.493ZM25.557,68.467c1.6.027,3.139.355,4.592.976,1.138.466,2.452.2,3.332-.682.586-.585.908-1.361.908-2.187,0-.826-.321-1.603-.904-2.187-.027-.028-.057-.061-.081-.091l-3.808-4.831s0,0,0,0c-1.776-2.261-5.062-2.654-7.324-.879-.327.257-.622.552-.878.878l-3.794,4.831c-.025.032-.052.062-.08.091-.584.583-.906,1.359-.906,2.185,0,.826.321,1.603.904,2.187.879.882,2.188,1.146,3.338.679,1.43-.61,2.958-.938,4.527-.969h.175ZM14.467,59.621c-1.526,0-3.111-1.152-3.949-3.022-1.06-2.369-.465-4.864,1.355-5.68h0c.917-.409,2.012-.306,3.005.283.897.533,1.655,1.416,2.134,2.488.48,1.07.634,2.225.434,3.248-.222,1.135-.874,2.021-1.79,2.431-.383.171-.785.252-1.19.252ZM12.692,52.743h0c-.672.302-.981,1.624-.348,3.038.633,1.413,1.825,2.066,2.497,1.762.43-.192.588-.701.644-.988.12-.613.012-1.359-.296-2.047-.308-.689-.793-1.267-1.331-1.586-.25-.148-.735-.367-1.166-.179ZM36.527,59.617c-.409,0-.808-.082-1.177-.247-1.821-.816-2.416-3.312-1.355-5.68h0c1.06-2.37,3.316-3.586,5.139-2.771.916.41,1.567,1.296,1.79,2.431.2,1.023.046,2.178-.434,3.249-.479,1.071-1.237,1.954-2.134,2.487-.593.352-1.222.531-1.828.531ZM37.956,52.673c-.681,0-1.605.648-2.136,1.834h0c-.633,1.415-.325,2.736.348,3.038.428.189.914-.03,1.166-.179.538-.319,1.022-.896,1.331-1.585s.416-1.435.296-2.048c-.056-.287-.214-.796-.644-.988-.108-.049-.23-.072-.36-.072ZM20.982,53.735c-1.773,0-3.539-1.483-4.292-3.765-.406-1.229-.446-2.51-.112-3.607.366-1.204,1.167-2.09,2.199-2.431h0c1.033-.344,2.204-.108,3.215.642.922.683,1.653,1.735,2.06,2.965.406,1.229.446,2.509.113,3.607-.366,1.204-1.167,2.09-2.199,2.431-.323.107-.653.158-.982.158ZM19.748,45.776c-.113,0-.228.017-.343.055h0c-.556.184-.811.776-.913,1.114-.211.695-.176,1.57.098,2.398.515,1.557,1.799,2.647,2.749,2.335.555-.184.81-.776.912-1.114.211-.695.176-1.57-.098-2.398-.274-.828-.766-1.552-1.351-1.984-.224-.167-.621-.405-1.053-.405ZM38.727,90.005v-12.097c0-2.25.565-4.57,1.729-7.092,1.078-2.338,1.216-4.997.409-7.426,1.808-1.056,3.275-2.713,4.188-4.749.897-2.004,1.173-4.224.778-6.25-.538-2.753-2.233-4.952-4.652-6.035-.554-.248-1.135-.43-1.734-.543-.062-.31-.138-.612-.227-.906-.845-2.781-2.819-4.867-5.414-5.725-2.776-.918-5.93-.229-8.301,1.803-2.371-2.029-5.524-2.718-8.294-1.8-2.596.857-4.57,2.943-5.415,5.725-.089.293-.165.595-.227.903-.601.113-1.183.295-1.735.542-4.379,1.961-6.082,7.357-3.876,12.285.91,2.034,2.375,3.69,4.181,4.745-.345,1.028-.519,2.095-.52,3.181,0,1.446.296,2.841.883,4.145,1.182,2.626,1.781,5.344,1.781,8.08v11.211c0,.553.448,1,1,1s1-.447,1-1v-11.211c0-3.021-.659-6.016-1.958-8.9-.47-1.044-.708-2.161-.707-3.322,0-1.121.233-2.215.69-3.254.22-.5-.002-1.085-.5-1.312-1.747-.799-3.177-2.282-4.025-4.179-1.747-3.905-.487-8.141,2.868-9.643.585-.263,1.216-.425,1.874-.483.469-.042.845-.404.904-.872.058-.463.153-.912.281-1.334.653-2.15,2.158-3.757,4.129-4.408,2.338-.773,5.025-.022,6.947,1.969.377.39,1.062.39,1.439,0,1.921-1.992,4.607-2.746,6.953-1.972,1.97.651,3.475,2.258,4.128,4.407.128.423.223.873.281,1.338.059.468.435.83.904.872.655.058,1.285.221,1.873.484,1.817.812,3.095,2.487,3.506,4.592.317,1.626.09,3.419-.64,5.05-.85,1.898-2.282,3.383-4.03,4.181-.497.228-.72.812-.501,1.312.934,2.13.914,4.559-.057,6.662-1.287,2.79-1.913,5.384-1.913,7.93v12.097c0,.553.448,1,1,1s1-.447,1-1ZM30.027,53.732c-.329,0-.659-.051-.981-.158-2.064-.683-2.98-3.335-2.087-6.038.406-1.229,1.138-2.282,2.06-2.965,1.01-.75,2.183-.986,3.215-.642,1.031.341,1.833,1.227,2.199,2.431.333,1.098.293,2.379-.113,3.607-.753,2.281-2.52,3.765-4.292,3.765ZM31.262,45.774c-.432,0-.829.237-1.053.404-.585.433-1.077,1.156-1.351,1.984h0c-.515,1.558-.133,3.198.815,3.513.949.311,2.232-.778,2.748-2.335.273-.828.309-1.703.098-2.398-.102-.338-.357-.931-.913-1.114-.115-.038-.231-.054-.344-.054ZM76.305,71.668c-.648,0-1.303-.124-1.928-.38-1.229-.524-2.515-.799-3.837-.821h-.139c-1.292.024-2.569.299-3.777.815-1.912.777-4.072.339-5.519-1.108-.964-.965-1.493-2.244-1.492-3.604,0-1.339.515-2.599,1.448-3.554l3.759-4.786c.354-.452.764-.861,1.216-1.217,3.128-2.458,7.672-1.912,10.13,1.215l3.774,4.787c.937.96,1.45,2.221,1.449,3.561,0,1.359-.531,2.638-1.493,3.6-.972.976-2.268,1.493-3.59,1.493ZM70.557,68.467c1.6.027,3.139.355,4.592.976,1.138.466,2.452.2,3.332-.682.586-.585.908-1.361.908-2.187,0-.826-.321-1.603-.904-2.187-.027-.028-.057-.061-.081-.091l-3.808-4.831s0,0,0,0c-1.777-2.261-5.063-2.654-7.324-.879-.327.257-.622.552-.878.878l-3.794,4.831c-.025.032-.052.062-.08.091-.584.583-.906,1.359-.906,2.185,0,.826.321,1.603.904,2.187.879.882,2.188,1.146,3.338.679,1.43-.61,2.958-.938,4.527-.969h.175ZM59.467,59.621c-1.526,0-3.111-1.152-3.949-3.022-1.06-2.369-.465-4.864,1.355-5.68h0c.917-.409,2.011-.306,3.005.283.897.533,1.655,1.416,2.134,2.488.48,1.07.634,2.225.434,3.248-.222,1.135-.874,2.021-1.79,2.431-.383.171-.785.252-1.19.252ZM57.692,52.743h0c-.672.302-.981,1.624-.348,3.038.633,1.413,1.826,2.066,2.497,1.762.43-.192.588-.701.644-.988.12-.613.012-1.359-.296-2.047-.308-.689-.793-1.267-1.331-1.586-.25-.148-.735-.367-1.166-.179ZM81.527,59.617c-.409,0-.808-.082-1.177-.247-1.821-.816-2.416-3.312-1.355-5.68h0c1.06-2.37,3.317-3.586,5.139-2.771.916.41,1.567,1.296,1.79,2.431.2,1.023.046,2.178-.434,3.249-.479,1.071-1.237,1.954-2.134,2.487-.593.352-1.222.531-1.828.531ZM82.956,52.673c-.681,0-1.605.648-2.136,1.834h0c-.633,1.415-.325,2.736.348,3.038.428.189.915-.03,1.166-.179.538-.319,1.022-.896,1.331-1.585s.416-1.435.296-2.048c-.056-.287-.214-.796-.644-.988-.108-.049-.23-.072-.36-.072ZM65.982,53.735c-1.773,0-3.539-1.483-4.292-3.765-.406-1.229-.446-2.51-.112-3.607.366-1.204,1.167-2.09,2.199-2.431h0c1.033-.344,2.204-.108,3.215.642.922.683,1.653,1.735,2.06,2.965.406,1.229.446,2.509.113,3.607-.366,1.204-1.167,2.09-2.199,2.431-.323.107-.653.158-.982.158ZM64.748,45.776c-.113,0-.228.017-.343.055h0c-.556.184-.811.776-.913,1.114-.211.695-.176,1.57.098,2.398.515,1.557,1.803,2.647,2.749,2.335.555-.184.81-.776.912-1.114.211-.695.176-1.57-.098-2.398-.274-.828-.766-1.552-1.351-1.984-.224-.167-.621-.405-1.053-.405ZM83.727,90.005v-12.097c0-2.25.565-4.57,1.729-7.092,1.078-2.338,1.216-4.997.409-7.426,1.808-1.056,3.275-2.713,4.188-4.749.897-2.004,1.173-4.224.778-6.25-.538-2.753-2.233-4.952-4.652-6.035-.554-.248-1.135-.43-1.734-.543-.062-.31-.138-.612-.227-.906-.845-2.781-2.819-4.867-5.414-5.725-2.776-.918-5.93-.229-8.301,1.803-1.671-1.431-3.684-2.208-5.756-2.208-.867,0-1.721.138-2.538.408-2.596.857-4.57,2.943-5.415,5.725-.089.293-.165.595-.227.903-.601.113-1.183.295-1.735.542-4.379,1.961-6.082,7.357-3.876,12.285.91,2.034,2.375,3.69,4.181,4.745-.345,1.028-.519,2.095-.52,3.181,0,1.446.296,2.841.883,4.145,1.182,2.626,1.781,5.344,1.781,8.08v11.211c0,.553.448,1,1,1s1-.447,1-1v-11.211c0-3.021-.659-6.016-1.958-8.9-.47-1.044-.708-2.161-.707-3.322,0-1.121.233-2.215.69-3.254.22-.5-.002-1.085-.5-1.312-1.747-.799-3.177-2.282-4.025-4.179-1.747-3.905-.487-8.141,2.868-9.643.585-.263,1.216-.425,1.874-.483.469-.042.845-.404.904-.872.058-.463.153-.912.281-1.334.653-2.15,2.158-3.757,4.129-4.408,2.339-.773,5.026-.022,6.947,1.969.377.39,1.062.39,1.439,0,1.92-1.992,4.607-2.746,6.953-1.972,1.97.651,3.475,2.258,4.128,4.407.128.423.223.873.281,1.338.059.468.435.83.904.872.655.058,1.285.221,1.873.484,1.817.812,3.095,2.487,3.506,4.592.317,1.626.09,3.419-.64,5.05-.85,1.898-2.282,3.383-4.03,4.181-.497.228-.72.812-.501,1.312.934,2.13.914,4.559-.057,6.662-1.287,2.79-1.913,5.384-1.913,7.93v12.097c0,.553.448,1,1,1s1-.447,1-1ZM75.027,53.732c-.329,0-.659-.051-.981-.158-2.064-.683-2.98-3.335-2.087-6.038.406-1.229,1.138-2.282,2.06-2.965,1.01-.75,2.183-.986,3.215-.642,1.031.341,1.833,1.227,2.199,2.431.333,1.098.293,2.379-.113,3.607-.753,2.281-2.52,3.765-4.292,3.765ZM76.262,45.774c-.432,0-.829.237-1.053.404-.585.433-1.077,1.156-1.351,1.984h0c-.515,1.558-.133,3.198.815,3.513.947.311,2.232-.778,2.748-2.335.273-.828.309-1.703.098-2.398-.102-.338-.357-.931-.913-1.114-.115-.038-.231-.054-.344-.054ZM37.193,16.805c0-2.882,2.108-5.41,4.511-5.41.552,0,1-.447,1-1s-.448-1-1-1c-3.529,0-6.511,3.394-6.511,7.41,0,.553.448,1,1,1s1-.447,1-1ZM48.486,39.403c.399-.226,9.818-5.627,14.389-14.215.259-.487.075-1.093-.413-1.353-.488-.261-1.094-.074-1.353.413-3.718,6.986-11.138,11.896-13.116,13.118-2.673-1.653-15.293-10.053-15.293-21.242,0-4.863,3.602-9.129,7.708-9.129,2.764,0,5.33,1.65,6.696,4.308.342.668,1.436.665,1.779,0,1.365-2.657,3.93-4.308,6.694-4.308,3.359,0,6.483,2.875,7.428,6.836.128.537.675.869,1.205.74.537-.128.869-.668.741-1.205-1.157-4.851-5.1-8.371-9.374-8.371-2.979,0-5.763,1.482-7.584,3.956-1.822-2.474-4.606-3.956-7.584-3.956-5.263,0-9.708,5.097-9.708,11.129,0,13.624,16.115,22.891,16.801,23.278.153.087.322.13.492.13s.34-.043.493-.13ZM64.836,20.037c.104-.457.193-.919.262-1.388.081-.547-.297-1.055-.844-1.135-.542-.086-1.055.297-1.134.844-.061.416-.14.827-.233,1.233-.123.538.214,1.074.752,1.197.075.018.15.025.224.025.456,0,.868-.313.974-.777Z"/>
</svg>