<?xml version="1.0" encoding="utf-8"?>
<!-- Generator: Adobe Illustrator 24.1.3, SVG Export Plug-In . SVG Version: 6.00 Build 0)  -->
<svg version="1.1" xmlns="http://www.w3.org/2000/svg" xmlns:xlink="http://www.w3.org/1999/xlink" x="0px" y="0px"
	 viewBox="0 0 24 24" style="enable-background:new 0 0 24 24;" xml:space="preserve">
<g id="Design_here">
	<g>
		<path d="M20.5,21c-0.1,0-0.19-0.03-0.28-0.08L12,15.43l-8.22,5.48c-0.15,0.1-0.35,0.11-0.51,0.02C3.1,20.85,3,20.68,3,20.5v-17
			C3,3.22,3.22,3,3.5,3h17C20.78,3,21,3.22,21,3.5v17c0,0.18-0.1,0.35-0.26,0.44C20.66,20.98,20.58,21,20.5,21z M12,14.33
			c0.1,0,0.19,0.03,0.28,0.08L20,19.57V4H4v15.57l7.72-5.15C11.81,14.36,11.9,14.33,12,14.33z"/>
	</g>
</g>
<g id="Guide">
</g>
</svg>
