<?xml version="1.0" encoding="UTF-8"?>
<svg id="Capa_1" xmlns="http://www.w3.org/2000/svg" version="1.1" viewBox="0 0 512 393.66">
  <!-- Generator: Adobe Illustrator 30.5.1, SVG Export Plug-In . SVG Version: 2.1.4 Build 3)  -->
  <path d="M494.36,60.84h-12.83v-12.78c0-9.73-7.91-17.64-17.64-17.64h-12.73v-12.78c0-9.73-7.91-17.64-17.64-17.64H17.64C7.91,0,0,7.91,0,17.64v338.04c0,10.15,3.95,19.68,11.12,26.86,7.15,7.14,16.65,11.08,26.74,11.11.04,0,.08,0,.11,0h353.41c4.14,0,7.5-3.36,7.5-7.5s-3.36-7.5-7.5-7.5H68.2c4.86-6.38,7.75-14.34,7.75-22.97v-47.5c0-4.14-3.36-7.5-7.5-7.5s-7.5,3.36-7.5,7.5v40.05h-12.89c-1.46,0-2.64-1.18-2.64-2.64V48.06c0-1.46,1.19-2.64,2.64-2.64h314.18c4.14,0,7.5-3.36,7.5-7.5s-3.36-7.5-7.5-7.5H48.06c-9.73,0-17.64,7.91-17.64,17.64v297.54c0,9.73,7.91,17.64,17.64,17.64h11.61c-3.13,8.95-11.65,15.4-21.65,15.42-.01,0-.03,0-.04,0-6.14,0-11.91-2.39-16.25-6.73-4.34-4.34-6.73-10.11-6.73-16.24V17.64c0-1.46,1.18-2.64,2.64-2.64h415.88c1.46,0,2.64,1.18,2.64,2.64v12.78h-38.92c-4.14,0-7.5,3.36-7.5,7.5s3.36,7.5,7.5,7.5h66.65c1.46,0,2.64,1.18,2.64,2.64v12.78h-128.28c-7.31,0-14.47,2.97-19.64,8.14l-31.49,31.49c-2.41,2.41-5.62,3.74-9.04,3.74H78.59c-9.73,0-17.64,7.91-17.64,17.64v151.34c0,4.14,3.36,7.5,7.5,7.5s7.5-3.36,7.5-7.5V121.85c0-1.46,1.18-2.64,2.64-2.64h199.49c7.42,0,14.4-2.89,19.64-8.14l31.49-31.49c2.38-2.38,5.67-3.74,9.04-3.74h156.11c1.46,0,2.64,1.18,2.64,2.64v297.54c0,1.45-1.18,2.64-2.64,2.64h-67.97c-4.14,0-7.5,3.36-7.5,7.5s3.36,7.5,7.5,7.5h67.97c9.73,0,17.64-7.91,17.64-17.64V78.48c0-9.73-7.91-17.64-17.64-17.64h0Z"/>
</svg>