<svg id="Capa_1" enable-background="new 0 0 512 512" height="512" viewBox="0 0 512 512" width="512" xmlns="http://www.w3.org/2000/svg"><g><path d="m492.743 134.562c-19.038-19.037-34.237-36.955-48.936-54.284-14.96-17.636-30.429-35.872-50.047-55.491-1.88-1.879-4.428-2.934-7.085-2.934h-30.547c-.906-12.201-11.115-21.853-23.543-21.853h-222.751c-12.428 0-22.637 9.652-23.542 21.853h-49.932c-11.05 0-20.039 8.99-20.039 20.039v450.069c0 11.049 8.989 20.039 20.039 20.039h439.278c11.05 0 20.039-8.99 20.039-20.039v-45.414c0-5.534-4.486-10.02-10.02-10.02s-10.02 4.486-10.02 10.02v45.414h-439.277v-450.069h49.859v94.234c0 13.021 10.593 23.614 23.614 23.614h222.751c13.022 0 23.614-10.593 23.614-23.614v-94.234h26.303c17.69 17.949 32.08 34.913 46.022 51.349 14.205 16.747 28.872 34.036 47.113 52.535v209.472c0 5.534 4.486 10.02 10.02 10.02s10.02-4.486 10.02-10.02v-213.601c.001-2.658-1.055-5.206-2.933-7.085zm-160.158 5.139h-222.751c-1.972 0-3.575-1.604-3.575-3.575v-112.511c0-1.972 1.604-3.576 3.575-3.576h222.751c1.972 0 3.575 1.604 3.575 3.576v112.511c0 1.971-1.603 3.575-3.575 3.575z"/><path d="m109.586 237.587c-11.05 0-20.039 8.99-20.039 20.039v163.319c0 11.049 8.989 20.039 20.039 20.039h292.826c11.05 0 20.039-8.99 20.039-20.039v-163.319c0-11.049-8.989-20.039-20.039-20.039zm292.826 20.039.001 20.039h-292.827v-20.039zm0 163.319h-292.826v-123.241h292.829l.01 123.24c0 .001-.004.001-.013.001z"/><path d="m356.983 325.393h-201.968c-5.533 0-10.02 4.486-10.02 10.02s4.486 10.02 10.02 10.02h201.969c5.533 0 10.02-4.486 10.02-10.02-.001-5.534-4.487-10.02-10.021-10.02z"/><path d="m356.983 374.734h-201.968c-5.533 0-10.02 4.486-10.02 10.02s4.486 10.02 10.02 10.02h201.969c5.533 0 10.02-4.486 10.02-10.02s-4.487-10.02-10.021-10.02z"/><path d="m290.412 40.997h-31.613c-8.288 0-15.029 6.742-15.029 15.029v47.688c0 8.287 6.742 15.029 15.029 15.029h31.613c8.288 0 15.029-6.742 15.029-15.029v-47.688c0-8.287-6.741-15.029-15.029-15.029zm-5.01 57.707h-21.593v-37.668h21.593z"/><circle cx="485.66" cy="400.98" r="10.02"/></g></svg>