<svg xmlns="http://www.w3.org/2000/svg" width="128" height="128" viewBox="0 0 128 128">
  <title>CALENDAR</title>
  <g>
    <path d="M93.915,54.889a1.75,1.75,0,0,0-1.34-.624H26.356a1.75,1.75,0,0,0-1.724,1.45L17.984,93.951A1.751,1.751,0,0,0,19.708,96H85.927a1.75,1.75,0,0,0,1.724-1.45L94.3,56.315A1.749,1.749,0,0,0,93.915,54.889ZM88.887,67.01H79.2L80.8,57.765H90.5ZM86.671,79.756H76.98l1.607-9.246h9.691ZM61.52,92.5l1.607-9.245h9.692L71.211,92.5Zm-13.244,0,1.608-9.245h9.691L57.967,92.5Zm-13.244,0,1.608-9.245h9.691L44.724,92.5ZM25.612,70.51H35.3L33.7,79.756H24.005Zm13.244,0h9.691L46.94,79.756H37.248ZM50.763,57.765,49.156,67.01H39.465l1.607-9.245Zm13.244,0L62.4,67.01H52.708l1.608-9.245Zm13.244,0L75.644,67.01H65.952l1.607-9.245ZM61.791,70.51l-1.608,9.246H50.492L52.1,70.51Zm1.945,9.246,1.607-9.246h9.692l-1.608,9.246ZM27.829,57.765H37.52L35.912,67.01H26.221ZM23.4,83.256h9.691L31.48,92.5H21.789ZM84.455,92.5H74.764l1.607-9.245h9.691Z"/>
    <path d="M123.417,105.186l-13.135-75.55c0-.028-.017-.054-.023-.082-.012-.053-.027-.1-.044-.156a1.849,1.849,0,0,0-.076-.2c-.021-.045-.043-.089-.068-.132a1.785,1.785,0,0,0-.123-.184c-.019-.025-.031-.053-.051-.076s-.027-.024-.038-.037a1.833,1.833,0,0,0-.163-.155c-.035-.031-.068-.063-.105-.09a1.712,1.712,0,0,0-.209-.127c-.034-.018-.064-.04-.1-.056a1.8,1.8,0,0,0-.338-.115c-.026-.006-.052,0-.078-.01a1.668,1.668,0,0,0-.284-.031c-.009,0-.017,0-.025,0H98.776a9.168,9.168,0,0,0-18,0H73a9.168,9.168,0,0,0-18,0H47.225a9.168,9.168,0,0,0-18,0H19.442a1.75,1.75,0,0,0-1.724,1.45L4.583,105.186a1.749,1.749,0,0,0,1.724,2.05H95.428a1.7,1.7,0,0,0,.511-.083c.012,0,.024,0,.037-.006l12.582-4.2,12.582,4.2a1.749,1.749,0,0,0,2.277-1.96ZM89.775,24.264a5.68,5.68,0,0,1,5.393,3.922H84.383A5.68,5.68,0,0,1,89.775,24.264ZM64,24.264a5.679,5.679,0,0,1,5.392,3.922H58.608A5.679,5.679,0,0,1,64,24.264Zm-25.775,0a5.68,5.68,0,0,1,5.392,3.922H32.832A5.68,5.68,0,0,1,38.225,24.264Zm-17.31,7.422h8.309a9.185,9.185,0,0,0,9,7.422,1.75,1.75,0,0,0,0-3.5,5.68,5.68,0,0,1-5.393-3.922H55a9.184,9.184,0,0,0,9,7.422,1.75,1.75,0,0,0,0-3.5,5.679,5.679,0,0,1-5.392-3.922H80.775a9.184,9.184,0,0,0,9,7.422,1.75,1.75,0,0,0,0-3.5,5.68,5.68,0,0,1-5.392-3.922h22.094L104.505,43.03H18.942ZM18.334,46.53H103.9L93.95,103.736H8.387Zm90.777,52.913a1.747,1.747,0,0,0-1.107,0L97.648,102.9l10.91-62.746L119.467,102.9Z"/>
  </g>
</svg>
