<svg xmlns="http://www.w3.org/2000/svg" width="128" height="128" viewBox="0 0 128 128">
  <title>CALCULATOR</title>
  <g>
    <path d="M92.073,5.214H35.926A11.676,11.676,0,0,0,24.264,16.877v94.246a11.676,11.676,0,0,0,11.662,11.663H92.073a11.677,11.677,0,0,0,11.663-11.663V16.877A11.677,11.677,0,0,0,92.073,5.214Zm-56.147,3.5H92.073a8.172,8.172,0,0,1,8.163,8.163V44.623H27.764V16.877A8.172,8.172,0,0,1,35.926,8.714ZM92.073,119.286H35.926a8.172,8.172,0,0,1-8.162-8.163v-63h72.472v63A8.172,8.172,0,0,1,92.073,119.286Z"/>
    <path d="M38.481,37.868H89.519a4.836,4.836,0,0,0,4.83-4.831V20.3a4.836,4.836,0,0,0-4.83-4.83H38.481A4.836,4.836,0,0,0,33.65,20.3V33.037A4.836,4.836,0,0,0,38.481,37.868ZM37.15,20.3a1.332,1.332,0,0,1,1.331-1.33H89.519a1.332,1.332,0,0,1,1.33,1.33V33.037a1.332,1.332,0,0,1-1.33,1.331H38.481a1.332,1.332,0,0,1-1.331-1.331Z"/>
    <path d="M46.311,52.711H37.4a3.758,3.758,0,0,0-3.754,3.754v4.006A3.758,3.758,0,0,0,37.4,64.225h8.907a3.758,3.758,0,0,0,3.753-3.754V56.465A3.759,3.759,0,0,0,46.311,52.711Zm.253,7.76a.254.254,0,0,1-.253.254H37.4a.254.254,0,0,1-.254-.254V56.465a.254.254,0,0,1,.254-.254h8.907a.254.254,0,0,1,.253.254Z"/>
    <path d="M68.454,52.711H59.546a3.759,3.759,0,0,0-3.754,3.754v4.006a3.758,3.758,0,0,0,3.754,3.754h8.908a3.758,3.758,0,0,0,3.753-3.754V56.465A3.759,3.759,0,0,0,68.454,52.711Zm.253,7.76a.254.254,0,0,1-.253.254H59.546a.255.255,0,0,1-.254-.254V56.465a.255.255,0,0,1,.254-.254h8.908a.254.254,0,0,1,.253.254Z"/>
    <path d="M90.6,52.711H81.689a3.759,3.759,0,0,0-3.754,3.754v4.006a3.758,3.758,0,0,0,3.754,3.754H90.6a3.757,3.757,0,0,0,3.753-3.754V56.465A3.758,3.758,0,0,0,90.6,52.711Zm.253,7.76a.254.254,0,0,1-.253.254H81.689a.254.254,0,0,1-.254-.254V56.465a.254.254,0,0,1,.254-.254H90.6a.254.254,0,0,1,.253.254Z"/>
    <path d="M46.311,68.814H37.4a3.757,3.757,0,0,0-3.754,3.753v4.006A3.758,3.758,0,0,0,37.4,80.327h8.907a3.758,3.758,0,0,0,3.753-3.754V72.567A3.758,3.758,0,0,0,46.311,68.814Zm.253,7.759a.254.254,0,0,1-.253.254H37.4a.254.254,0,0,1-.254-.254V72.567a.254.254,0,0,1,.254-.253h8.907a.253.253,0,0,1,.253.253Z"/>
    <path d="M68.454,68.814H59.546a3.758,3.758,0,0,0-3.754,3.753v4.006a3.758,3.758,0,0,0,3.754,3.754h8.908a3.758,3.758,0,0,0,3.753-3.754V72.567A3.758,3.758,0,0,0,68.454,68.814Zm.253,7.759a.254.254,0,0,1-.253.254H59.546a.255.255,0,0,1-.254-.254V72.567a.255.255,0,0,1,.254-.253h8.908a.254.254,0,0,1,.253.253Z"/>
    <path d="M90.6,68.814H81.689a3.758,3.758,0,0,0-3.754,3.753v4.006a3.758,3.758,0,0,0,3.754,3.754H90.6a3.757,3.757,0,0,0,3.753-3.754V72.567A3.757,3.757,0,0,0,90.6,68.814Zm.253,7.759a.254.254,0,0,1-.253.254H81.689a.254.254,0,0,1-.254-.254V72.567a.254.254,0,0,1,.254-.253H90.6a.253.253,0,0,1,.253.253Z"/>
    <path d="M46.311,84.916H37.4a3.757,3.757,0,0,0-3.754,3.753v4.006A3.758,3.758,0,0,0,37.4,96.429h8.907a3.758,3.758,0,0,0,3.753-3.754V88.669A3.758,3.758,0,0,0,46.311,84.916Zm.253,7.759a.254.254,0,0,1-.253.254H37.4a.254.254,0,0,1-.254-.254V88.669a.254.254,0,0,1,.254-.253h8.907a.253.253,0,0,1,.253.253Z"/>
    <path d="M68.454,84.916H59.546a3.758,3.758,0,0,0-3.754,3.753v4.006a3.758,3.758,0,0,0,3.754,3.754h8.908a3.758,3.758,0,0,0,3.753-3.754V88.669A3.758,3.758,0,0,0,68.454,84.916Zm.253,7.759a.254.254,0,0,1-.253.254H59.546a.255.255,0,0,1-.254-.254V88.669a.255.255,0,0,1,.254-.253h8.908a.254.254,0,0,1,.253.253Z"/>
    <path d="M90.6,84.916H81.689a3.758,3.758,0,0,0-3.754,3.753v4.006a3.758,3.758,0,0,0,3.754,3.754H90.6a3.757,3.757,0,0,0,3.753-3.754V88.669A3.757,3.757,0,0,0,90.6,84.916Zm.253,7.759a.254.254,0,0,1-.253.254H81.689a.254.254,0,0,1-.254-.254V88.669a.254.254,0,0,1,.254-.253H90.6a.253.253,0,0,1,.253.253Z"/>
    <path d="M46.311,101.018H37.4a3.757,3.757,0,0,0-3.754,3.753v4.006a3.758,3.758,0,0,0,3.754,3.754h8.907a3.758,3.758,0,0,0,3.753-3.754v-4.006A3.758,3.758,0,0,0,46.311,101.018Zm.253,7.759a.254.254,0,0,1-.253.254H37.4a.254.254,0,0,1-.254-.254v-4.006a.254.254,0,0,1,.254-.253h8.907a.253.253,0,0,1,.253.253Z"/>
    <path d="M68.454,101.018H59.546a3.758,3.758,0,0,0-3.754,3.753v4.006a3.758,3.758,0,0,0,3.754,3.754h8.908a3.758,3.758,0,0,0,3.753-3.754v-4.006A3.758,3.758,0,0,0,68.454,101.018Zm.253,7.759a.254.254,0,0,1-.253.254H59.546a.255.255,0,0,1-.254-.254v-4.006a.255.255,0,0,1,.254-.253h8.908a.254.254,0,0,1,.253.253Z"/>
    <path d="M90.6,101.018H81.689a3.758,3.758,0,0,0-3.754,3.753v4.006a3.758,3.758,0,0,0,3.754,3.754H90.6a3.757,3.757,0,0,0,3.753-3.754v-4.006A3.757,3.757,0,0,0,90.6,101.018Zm.253,7.759a.254.254,0,0,1-.253.254H81.689a.254.254,0,0,1-.254-.254v-4.006a.254.254,0,0,1,.254-.253H90.6a.253.253,0,0,1,.253.253Z"/>
  </g>
</svg>
