<svg xmlns="http://www.w3.org/2000/svg" width="128" height="128" viewBox="0 0 128 128">
  <title>COFFEE</title>
  <g>
    <path d="M98.6,16.25H96.649V9.939A4.446,4.446,0,0,0,92.208,5.5H35.792A4.447,4.447,0,0,0,31.35,9.939V16.25H29.4a6.016,6.016,0,0,0-6.009,6.009v9.526a1.751,1.751,0,0,0,1.75,1.75h3.478c2.567,37,5.3,78.422,5.862,80.5a9.061,9.061,0,0,0,9.024,8.463H84.485a9.051,9.051,0,0,0,9.021-8.426c.747-2.816,5.856-80.425,5.865-80.541h3.486a1.75,1.75,0,0,0,1.75-1.75V22.259A6.016,6.016,0,0,0,98.6,16.25ZM34.85,9.939A.943.943,0,0,1,35.792,9H92.208a.942.942,0,0,1,.941.941V16.25H34.85Zm-.869,47.206h60.03L91.56,95.39H36.431Zm56.035,56.67A5.553,5.553,0,0,1,84.485,119H43.507a5.563,5.563,0,0,1-5.534-5.225L36.7,98.89H91.3Zm4.246-60.17H33.731l-1.6-20.11H95.86Zm6.845-23.61c-90,0-67.069,0-74.214,0V22.259A2.512,2.512,0,0,1,29.4,19.75H98.6a2.512,2.512,0,0,1,2.509,2.509Z"/>
    <path d="M52.854,80.24l7.169,7.17A10.688,10.688,0,0,0,75.138,72.3l-7.169-7.17A10.688,10.688,0,0,0,52.854,80.24Zm9.644,4.7-7.169-7.169A7.167,7.167,0,0,1,54.249,69L71.268,86.014A7.2,7.2,0,0,1,62.5,84.935Zm3-17.335,7.17,7.17a7.2,7.2,0,0,1,1.078,8.769L56.725,66.522A7.178,7.178,0,0,1,65.494,67.6Z"/>
  </g>
</svg>
