<svg xmlns="http://www.w3.org/2000/svg" width="128" height="128" viewBox="0 0 128 128">
  <title>GRAPHS</title>
  <path d="M26.75,68.741a33.715,33.715,0,1,0,67.43,0,1.75,1.75,0,0,0-1.75-1.75H62.215V36.776a1.75,1.75,0,0,0-1.75-1.75A33.753,33.753,0,0,0,26.75,68.741ZM58.715,38.577V68.741a1.751,1.751,0,0,0,1.75,1.75H90.63A30.215,30.215,0,1,1,58.715,38.577Z"/>
  <path d="M84.093,28.5a22.86,22.86,0,0,0-12.88-3.948,1.75,1.75,0,0,0-1.75,1.75v21.23A1.752,1.752,0,0,0,70.7,49.205a1.776,1.776,0,0,0,.513.076,1.75,1.75,0,0,0,1.449-.769l11.9-17.585A1.749,1.749,0,0,0,84.093,28.5ZM72.963,41.822V28.129a19.344,19.344,0,0,1,7.675,2.35Z"/>
  <path d="M89.363,34.211a1.75,1.75,0,0,0-2.431.469L70.868,58.422a1.75,1.75,0,0,0,1.449,2.731h28.664a1.75,1.75,0,0,0,1.75-1.75A30.411,30.411,0,0,0,89.363,34.211ZM75.614,57.653l13.2-19.515A26.908,26.908,0,0,1,99.175,57.653Z"/>
</svg>
