<svg id="Capa_1" enable-background="new 0 0 512 512" height="512" viewBox="0 0 512 512" width="512" xmlns="http://www.w3.org/2000/svg"><g><circle cx="256" cy="501.999" r="10"/><path d="m196 432h23c5.523 0 10-4.477 10-10s-4.477-10-10-10h-23c-5.523 0-10 4.477-10 10s4.477 10 10 10z"/><path d="m196 472h56c5.523 0 10-4.477 10-10s-4.477-10-10-10h-56c-5.523 0-10 4.477-10 10s4.477 10 10 10z"/><path d="m439.831 164.287c-5.071-44.694-26.511-86.106-60.37-116.608-34.129-30.746-77.975-47.679-123.461-47.679s-89.332 16.933-123.461 47.679c-33.859 30.502-55.299 71.914-60.37 116.609-.826 7.28 2.388 14.429 8.387 18.657 3.377 2.38 7.33 3.61 11.311 3.65 28.626 41.469 57.255 82.936 85.889 124.405h-12.256c-11.028 0-20 8.972-20 20v161c0 11.028 8.972 20 20 20h50.5c5.523 0 10-4.477 10-10s-4.477-10-10-10h-50.5v-161h45.5v33.859c0 6.974 3.539 13.329 9.467 17.002 3.236 2.004 6.871 3.016 10.521 3.016 3.036 0 6.083-.7 8.917-2.11l16.095-8.004 16.094 8.003c6.243 3.106 13.51 2.767 19.439-.905 5.928-3.673 9.467-10.028 9.467-17.002v-33.859h45.5v161h-50.5c-5.523 0-10 4.477-10 10s4.477 10 10 10h50.5c11.028 0 20-8.972 20-20v-161c0-11.028-8.972-20-20-20h-12.255c28.634-41.468 57.262-82.936 85.889-124.405 3.981-.04 7.934-1.27 11.311-3.65 5.999-4.228 9.212-11.377 8.386-18.658zm-19.851 2.256c-.008.013-.025.03-.043.044-14.948-7.321-30.851-11.032-47.27-11.032-20.083 0-36.584 5.604-48.643 11.73-1.972-56.68-13.358-112.95-33.272-143.61 67.988 14.592 121.073 71.161 129.228 142.868zm-177.024 144.457-33.748-121.809c9.897-6.248 25.993-13.635 46.792-13.635s36.896 7.387 46.792 13.635l-33.748 121.809zm13.044-291c8.118 0 20.704 11.732 31.68 44.661 9.304 27.911 14.983 63.719 16.336 102.301-12.001-5.999-28.286-11.407-48.016-11.407s-36.014 5.408-48.016 11.407c1.353-38.583 7.032-74.391 16.335-102.301 10.978-32.929 23.563-44.661 31.681-44.661zm-34.742 3.674c-19.92 30.654-31.309 86.927-33.282 143.612-12.059-6.126-28.56-11.73-48.642-11.73-16.405 0-32.296 3.706-47.269 11.029-.015-.014-.025-.03-.023-.043 8.136-71.709 61.223-128.28 129.216-142.868zm-109.575 156.423c8.931-3.012 18.19-4.541 27.65-4.541 22.93 0 40.15 8.978 49.64 15.51l33.23 119.934h-20.145c-30.131-43.634-60.253-87.269-90.375-130.903zm169.317 184.761-16.094-8.003c-5.577-2.774-12.235-2.774-17.812 0l-16.094 8.004v-33.859h50zm8.797-53.858 33.229-119.934c9.491-6.532 26.711-15.51 49.64-15.51 9.461 0 18.719 1.529 27.65 4.541-30.122 43.635-60.244 87.269-90.375 130.903z"/></g></svg>