<svg xmlns="http://www.w3.org/2000/svg" width="128" height="128" viewBox="0 0 128 128">
  <title>CONTRACT</title>
  <g>
    <path d="M90.39,17.25H37.409A7.759,7.759,0,0,0,29.659,25V89.46a1.747,1.747,0,0,0,.19.776c.013.027.027.051.041.077a1.759,1.759,0,0,0,.282.384l19.54,19.54a1.756,1.756,0,0,0,.9.48c.027,0,.055,0,.083.008a1.763,1.763,0,0,0,.252.025H90.39A7.759,7.759,0,0,0,98.14,103V25A7.759,7.759,0,0,0,90.39,17.25ZM35.635,91.207h9.318a4.254,4.254,0,0,1,4.25,4.25v9.318ZM94.64,103a4.255,4.255,0,0,1-4.25,4.25H52.7V95.457a7.759,7.759,0,0,0-7.75-7.75H33.159V25a4.254,4.254,0,0,1,4.25-4.25H90.39A4.255,4.255,0,0,1,94.64,25Z"/>
    <path d="M46.331,33.606H61.4a1.75,1.75,0,0,0,0-3.5H46.331a1.75,1.75,0,0,0,0,3.5Z"/>
    <path d="M81.468,66.987H46.331a1.75,1.75,0,0,0,0,3.5H81.468a1.75,1.75,0,0,0,0-3.5Z"/>
    <path d="M81.468,54.693H46.331a1.75,1.75,0,0,0,0,3.5H81.468a1.75,1.75,0,0,0,0-3.5Z"/>
    <path d="M81.468,42.681H46.331a1.75,1.75,0,0,0,0,3.5H81.468a1.75,1.75,0,0,0,0-3.5Z"/>
    <path d="M76.582,82.821a6.636,6.636,0,1,0,6.636,6.636A6.644,6.644,0,0,0,76.582,82.821Zm0,9.772a3.136,3.136,0,1,1,3.136-3.136A3.139,3.139,0,0,1,76.582,92.593Z"/>
  </g>
</svg>
