<?xml version="1.0" encoding="utf-8"?>
<!-- Generator: Adobe Illustrator 23.0.6, SVG Export Plug-In . SVG Version: 6.00 Build 0)  -->
<svg version="1.1" id="Layer_1" xmlns="http://www.w3.org/2000/svg" xmlns:xlink="http://www.w3.org/1999/xlink" x="0px" y="0px"
	 viewBox="0 0 128 128" style="enable-background:new 0 0 128 128;" xml:space="preserve">
<title>WORKFLOW</title>
<path d="M92.3,31.6h-9.7V29c0-2.6-2.1-4.7-4.7-4.7H47.5c-2.6,0-4.7,2.1-4.7,4.7v9.4c0,2.6,2.1,4.7,4.7,4.7h13.4v11.4H47.5
	c-2.6,0-4.7,2.1-4.7,4.7v2.9H33c-2.9,0-5.3,2.4-5.3,5.3v23.2c0,2.9,2.4,5.3,5.3,5.3l2.1,0L34.2,97c-0.7,0.7-0.7,1.8,0,2.5
	c0.7,0.7,1.8,0.7,2.5,0c0,0,3.9-3.9,3.9-3.9c0.6-0.6,0.7-1.7,0-2.5l-3.8-3.8c-0.7-0.7-1.8-0.7-2.5,0c-0.7,0.7-0.7,1.8,0,2.5
	c0,0,0,0,0,0l0.8,0.8l-2,0c-1,0-1.8-0.8-1.8-1.8V67.5c0-1,0.8-1.8,1.8-1.8h9.7v2.9c0,2.6,2.1,4.7,4.7,4.7h13.4v11.5H47.5
	c-2.6,0-4.7,2.1-4.7,4.7V99c0,2.6,2.1,4.7,4.7,4.7h30.3c2.6,0,4.7-2.1,4.7-4.7v-9.4c0-2.6-2.1-4.7-4.7-4.7H64.4V73.4h13.4
	c2.6,0,4.7-2.1,4.7-4.7v-9.4c0-2.6-2.1-4.7-4.7-4.7H64.4V43.1h13.4c2.6,0,4.7-2.1,4.7-4.7v-3.3h9.7c1,0,1.8,0.8,1.8,1.8v23.2
	c0,1-0.8,1.8-1.8,1.8c0,0,0,0,0,0l-2,0l0.8-0.8c0.7-0.7,0.7-1.8,0-2.5s-1.8-0.7-2.5,0l-3.8,3.8c-0.8,0.9-0.6,1.9,0,2.5l0,0l3.8,3.8
	c0.7,0.7,1.8,0.7,2.5,0s0.7-1.8,0-2.5l-0.9-0.9l2.1,0c2.9,0,5.3-2.4,5.3-5.3V36.9C97.6,34,95.2,31.6,92.3,31.6z M77.8,88.4
	c0.7,0,1.2,0.6,1.2,1.2V99c0,0.7-0.6,1.2-1.2,1.2H47.5c-0.7,0-1.2-0.6-1.2-1.2v-9.4c0-0.7,0.6-1.2,1.2-1.2L77.8,88.4z M77.8,58.1
	c0.7,0,1.2,0.6,1.2,1.2v9.4c0,0.7-0.6,1.2-1.2,1.2H47.5c-0.7,0-1.2-0.6-1.2-1.2v-9.4c0-0.7,0.6-1.2,1.2-1.2L77.8,58.1z M79.1,38.4
	c0,0.7-0.6,1.2-1.2,1.2H47.5c-0.7,0-1.2-0.6-1.2-1.2V29c0-0.7,0.6-1.2,1.2-1.2h30.3c0.7,0,1.2,0.6,1.2,1.2V38.4z"/>
<path d="M66.3,30l-3.7,3.7l-1.5-1.5c-0.7-0.7-1.8-0.7-2.5,0c-0.7,0.7-0.7,1.8,0,2.5c0,0,2.8,2.8,2.8,2.8c0.7,0.7,1.8,0.7,2.5,0
	c0,0,5-5,5-5c0.7-0.7,0.7-1.8,0-2.5C68.1,29.3,67,29.3,66.3,30z"/>
<path d="M61.3,67.9c0.7,0.7,1.8,0.7,2.5,0c0,0,0,0,0,0l5-5c0.7-0.7,0.7-1.8,0-2.5s-1.8-0.7-2.5,0l-3.7,3.7l-1.5-1.5
	c-0.7-0.7-1.8-0.7-2.5,0c-0.7,0.7-0.7,1.8,0,2.4L61.3,67.9z"/>
<path d="M61.3,98.4c0.7,0.7,1.8,0.7,2.5,0c0,0,0,0,0,0l5-5c0.7-0.7,0.7-1.8,0-2.5s-1.8-0.7-2.5,0l-3.7,3.7l-1.5-1.5
	c-0.7-0.7-1.8-0.7-2.5,0c-0.7,0.7-0.7,1.8,0,2.5L61.3,98.4z"/>
</svg>
