<?xml version="1.0" encoding="UTF-8"?>
<svg xmlns="http://www.w3.org/2000/svg" version="1.1" viewBox="0 0 64 64">
  <!-- Generator: Adobe Illustrator 28.7.1, SVG Export Plug-In . SVG Version: 1.2.0 Build 142)  -->
  <g>
    <g id="Outline">
      <path d="M45.82001,20.43125c-.25-.37-.72003-.52002-1.14001-.38-.41998.15002-.70001.54999-.67999,1,.12,2.48999-1.46002,4.78998-3.84003,5.58002l-.65997.22998c1.19-5.06.07001-10.37-3.13-14.56l-3.76001-4.90997c-.17999-.22003-.44-.37006-.71997-.39001-.28003-.02002-.57001.07996-.77002.27997-1.98999,1.91003-19.39001,18.98004-19.39001,29.45001,0,11.17999,9.09003,20.27002,20.27002,20.27002s20.27002-9.09003,20.27002-20.27002c0-4.33997-3.35004-11.83997-6.45001-16.29999ZM37.19,54.24125c-1.64001.48999-3.39001.76001-5.19.76001s-3.54999-.27002-5.19-.76001c-.31-1.48999-1.02997-2.87-2.09998-3.95001-1.09003-1.08002-1.71002-2.58002-1.71002-4.12v-6.16998c0-.54999.45001-1,1-1s1,.45001,1,1v4c0,.54999.45001,1,1,1h1c1.09998,0,2,.89996,2,2,0,.54999.45001,1,1,1s1-.45001,1-1c0-2.21002-1.78998-4-4-4v-8c0-.54999.45001-1,1-1s1,.45001,1,1v5c0,.54999.45001,1,1,1s1-.45001,1-1v-8c0-.54999.45001-1,1-1s1,.45001,1,1v8c0,.54999.45001,1,1,1s1-.45001,1-1v-6c0-.54999.45001-1,1-1s1,.45001,1,1v6c0,.54999.45001,1,1,1s1-.45001,1-1v-3c0-.54999.45001-1,1-1s1,.45001,1,1v9.16998c0,1.53998-.62,3.03998-1.71002,4.12-1.07001,1.08002-1.78998,2.46002-2.09998,3.95001ZM39.56,53.34122c.28003-.59998.65997-1.14996,1.15002-1.63,1.44995-1.45996,2.28998-3.47998,2.28998-5.53998v-9.16998c0-1.65002-1.34998-3-3-3-.34998,0-.69.07001-1,.17999v-.17999c0-1.65002-1.34998-3-3-3-.39001,0-.77002.07996-1.12.21997-.34003-1.26996-1.5-2.21997-2.88-2.21997-1.65002,0-3,1.34998-3,3v.17999c-.31-.10999-.65002-.17999-1-.17999-1.65002,0-3,1.34998-3,3v2.17999c-.31-.10999-.65002-.17999-1-.17999-1.65002,0-3,1.34998-3,3v6.16998c0,2.06.84003,4.08002,2.28998,5.53998.49005.48004.87,1.03003,1.15002,1.63-6.31-2.88-10.71002-9.23999-10.71002-16.60999,0-7.53998,10.92999-20.28998,17.97003-27.22998l3.08002,4.01996c3.18994,4.17004,4.03998,9.61005,2.27997,14.55005-.13.35999-.03998.76996.22998,1.03998.26001.27002.66003.37,1.03003.25l2.46997-.83002c2.29004-.76001,4.04004-2.56,4.80005-4.75,2.62,4.47003,4.67999,10.04999,4.67999,12.95001,0,7.37-4.40002,13.72998-10.71002,16.60999Z"/>
    </g>
  </g>
</svg>