<svg xmlns="http://www.w3.org/2000/svg" width="128" height="128" viewBox="0 0 128 128">
  <title>CHECKLIST</title>
  <g>
    <path d="M83.869,44.394a7.117,7.117,0,0,0-5.069,2.1L58.992,66.3,49.2,56.509A7.169,7.169,0,0,0,39.063,66.648L53.924,81.507a7.168,7.168,0,0,0,10.136,0L88.936,56.63a7.167,7.167,0,0,0-5.067-12.236Zm2.593,9.762L61.585,79.032a3.757,3.757,0,0,1-5.187,0L41.538,64.173a3.668,3.668,0,0,1,5.187-5.189L57.754,70.013a1.749,1.749,0,0,0,2.475,0L81.275,48.967a3.758,3.758,0,0,1,5.186,0A3.674,3.674,0,0,1,86.462,54.156Z"/>
    <path d="M64,17.25A46.75,46.75,0,1,0,110.75,64,46.8,46.8,0,0,0,64,17.25Zm0,90A43.25,43.25,0,1,1,107.25,64,43.3,43.3,0,0,1,64,107.25Z"/>
  </g>
</svg>
