<svg id="Capa_1" enable-background="new 0 0 511.998 511.998" height="512" viewBox="0 0 511.998 511.998" width="512" xmlns="http://www.w3.org/2000/svg"><g><path d="m441.152 412.673-17.829-17.828-8.738-41.877 25.436-25.436c2.929-2.93 2.929-7.678 0-10.607-16.438-16.438-38.297-25.491-61.548-25.491-13.871 0-27.235 3.245-39.26 9.335l-16.373-16.373c1.701-4.378.794-9.545-2.735-13.075l-16.471-16.47 1.703-1.703c4.762-4.763 4.762-12.511 0-17.273l-31.69-31.69 9.374-9.375 6.792 6.792c2.299 2.3 5.323 3.451 8.351 3.451 3.025 0 6.054-1.148 8.367-3.449l110.851-110.853c2.233-2.234 3.463-5.204 3.463-8.363s-1.23-6.13-3.464-8.362l-4.19-4.19c-2.93-2.93-7.678-2.929-10.607-.001-2.929 2.929-2.929 7.678 0 10.606l1.947 1.947-28.383 28.383-28.527-28.527 28.382-28.383 1.831 1.83c2.93 2.931 7.678 2.929 10.607-.001 2.928-2.93 2.928-7.678-.001-10.606l-41.614-41.605c-2.226-2.238-5.191-3.474-8.352-3.479-.006 0-.012 0-.018 0-3.158 0-6.127 1.229-8.362 3.464l-110.834 110.835c-2.239 2.226-3.475 5.191-3.48 8.352-.005 3.165 1.225 6.142 3.464 8.382l5.351 5.351-9.374 9.374-5.004-5.004c-2.326-2.325-5.418-3.606-8.708-3.606-3.289 0-6.381 1.281-8.707 3.606l-6.802 6.801-24.427-24.427c-6.601-6.6-17.34-6.6-23.939 0l-14.504 14.505c-3.198 3.197-4.959 7.448-4.959 11.971 0 4.521 1.761 8.772 4.958 11.971l24.426 24.425-6.803 6.803c-2.326 2.326-3.607 5.418-3.607 8.708 0 3.289 1.281 6.381 3.607 8.707l5.004 5.004-9.374 9.374-5.352-5.352c-2.234-2.234-5.203-3.463-8.361-3.463-.006 0-.013 0-.019 0-3.16.004-6.126 1.24-8.336 3.463l-110.849 110.851c-2.239 2.238-3.469 5.214-3.465 8.379.005 3.161 1.241 6.128 3.464 8.337l70.561 70.571c2.306 2.305 5.333 3.457 8.362 3.457s6.058-1.152 8.364-3.457l43.05-43.05c2.929-2.93 2.929-7.678 0-10.607-2.929-2.928-7.678-2.928-10.606 0l-1.817 1.817-27.735-27.735 28.381-28.381 27.735 27.735-1.814 1.814c-2.929 2.93-2.929 7.678 0 10.607 2.929 2.928 7.678 2.928 10.606 0l43.066-43.066c4.587-4.614 4.579-12.106-.016-16.701l-6.793-6.793 9.374-9.374 31.691 31.691c2.381 2.381 5.509 3.571 8.636 3.571 3.128 0 6.256-1.19 8.637-3.571l1.704-1.704 16.469 16.469c2.308 2.308 5.375 3.578 8.638 3.578 1.545 0 3.043-.294 4.441-.839l16.358 16.357c-4.548 8.99-7.509 18.758-8.716 29.043-.483 4.114 2.461 7.84 6.575 8.323 4.117.48 7.84-2.461 8.323-6.575 1.902-16.207 9.023-30.89 20.594-42.46 13.605-13.606 31.697-21.099 50.942-21.099 16.722 0 32.574 5.657 45.368 16.065l-101.346 101.346c-5.383-6.609-9.482-14.031-12.223-22.146-1.326-3.925-5.582-6.029-9.506-4.705-3.924 1.325-6.031 5.581-4.705 9.506 4.286 12.687 11.305 23.966 20.862 33.523 1.464 1.464 3.384 2.196 5.303 2.196s3.839-.732 5.303-2.196l25.436-25.436 41.877 8.738 17.828 17.827c2.204 2.205 5.135 3.42 8.252 3.42s6.048-1.215 8.251-3.418l11.978-11.977c4.55-4.549 4.55-11.952 0-16.502zm-142.979-223.927-28.527-28.526 28.381-28.381 28.527 28.527zm67.369-67.369-28.381 28.381-28.527-28.527 28.381-28.381zm-27.089-105.058 26.943 26.936-28.381 28.381-26.94-26.94zm-38.985 38.985 26.94 26.94-28.381 28.381-26.94-26.94zm-38.988 38.988 26.94 26.94-28.381 28.381-26.94-26.94zm-30.04 84.1c2.327-2.326 3.607-5.419 3.607-8.708 0-3.288-1.281-6.381-3.607-8.708l-4.612-4.612 9.374-9.374 37.212 37.212-9.374 9.375-4.684-4.684c-4.763-4.762-12.511-4.761-17.273 0l-6.873 6.874-10.572-10.572zm-28.93-25.134 16.425 16.426-48.252 48.251-16.425-16.425zm-67.775-2.29c-.467-.468-.565-1-.565-1.364s.098-.896.565-1.363l14.505-14.505c.753-.751 1.976-.751 2.727 0l24.427 24.426-17.231 17.232zm-117.415 187.485 28.377-28.377 27.731 27.731-28.38 28.38zm94.451 37.696-28.383 28.383-27.733-27.737 28.38-28.38zm-27.736-48.949-27.731-27.731 28.381-28.381 27.731 27.731zm11.257-66.72 28.381-28.381 27.731 27.731-28.381 28.381zm66.073 66.074-27.735-27.735 28.381-28.381 27.736 27.736zm28.527-85.471c-2.308 2.307-3.578 5.374-3.578 8.637 0 3.264 1.271 6.331 3.578 8.638l4.683 4.683-9.374 9.374-37.212-37.212 9.374-9.374 4.613 4.613c2.326 2.325 5.418 3.606 8.707 3.606s6.381-1.281 8.707-3.606l6.803-6.803 10.572 10.571zm24.139-45.282 10.572 10.572-17.231 17.231-10.572-10.572zm31.479 96.961-43.042-43.041 48.252-48.252 43.041 43.041zm35.447 14.766-14.5-14.5 27.571-27.571 14.501 14.5zm36.968 9.397c-2.912 2.912-5.577 5.996-8.014 9.218l-13.177-13.177 17.231-17.231 13.18 13.18c-3.226 2.436-6.312 5.101-9.22 8.01zm48.72 84.983 12.828-12.828 19.593 19.593zm23.435-23.435 12.828-12.828 6.765 32.421zm31.844 49.716-10.201-10.2 7.266-7.266 10.201 10.2z"/><path d="m504.504 440.376c-.002 0-.004 0-.006 0-4.139 0-7.497 3.354-7.5 7.494-.011 13.151-5.116 25.493-14.375 34.752s-21.601 14.364-34.753 14.376c-4.143.004-7.497 3.364-7.494 7.507.003 4.14 3.36 7.493 7.5 7.493h.006c17.154-.015 33.258-6.681 45.347-18.769 12.089-12.089 18.754-28.193 18.769-45.348.003-4.141-3.352-7.501-7.494-7.505z"/><path d="m440.376 476.077c.003 4.141 3.36 7.494 7.5 7.494h.006c9.538-.008 18.5-3.721 25.234-10.455s10.447-15.695 10.456-25.233c.003-4.143-3.351-7.503-7.494-7.507-.002 0-.004 0-.006 0-4.139 0-7.497 3.354-7.5 7.493-.005 5.536-2.158 10.735-6.062 14.64-3.905 3.905-9.104 6.058-14.639 6.062-4.144.003-7.499 3.365-7.495 7.506z"/><circle cx="447.878" cy="447.88" r="7.5"/></g></svg>