<svg id="Capa_1" enable-background="new 0 0 512 512" height="512" viewBox="0 0 512 512" width="512" xmlns="http://www.w3.org/2000/svg"><g><path d="m482 96h-15.803l-25.343-59.694c-6.464-15.219-24.11-22.351-39.342-15.896l-178.065 75.59h-193.447c-16.542 0-30 13.458-30 30v260c0 16.542 13.458 30 30 30h15.809l25.337 59.694c4.847 11.412 15.978 18.275 27.667 18.275 3.9 0 7.864-.765 11.675-2.38l178.068-75.589h193.444c16.542 0 30-13.458 30-30v-260c0-16.542-13.458-30-30-30zm-72.678-57.178c5.08-2.154 10.967.225 13.123 5.301l22.023 51.877h-169.838zm-379.322 77.178h452c5.514 0 10 4.486 10 10v30h-196c-5.523 0-10 4.478-10 10 0 5.523 4.477 10 10 10h196v40h-472v-40h196c5.523 0 10-4.477 10-10 0-5.522-4.477-10-10-10h-196v-30c0-5.514 4.486-10 10-10zm72.678 357.178c-5.08 2.153-10.967-.225-13.122-5.3l-22.02-51.878h169.836zm379.322-77.178h-452c-5.514 0-10-4.486-10-10v-150h472v150c0 5.514-4.486 10-10 10z"/><circle cx="256" cy="166" r="10"/><path d="m70 306h93.21c5.523 0 10-4.478 10-10s-4.477-10-10-10h-93.21c-5.523 0-10 4.478-10 10s4.477 10 10 10z"/><path d="m253.21 326h-183.21c-5.523 0-10 4.478-10 10s4.477 10 10 10h183.21c5.523 0 10-4.478 10-10s-4.477-10-10-10z"/><path d="m392.5 321.605c-10.68 0-20.724 4.161-28.281 11.718-3.905 3.905-3.906 10.236 0 14.142 3.905 3.906 10.237 3.906 14.142.001 3.779-3.779 8.801-5.86 14.139-5.86s10.36 2.081 14.139 5.86c1.953 1.952 4.512 2.929 7.071 2.929s5.119-.977 7.071-2.93c3.905-3.905 3.905-10.236 0-14.142-7.557-7.556-17.601-11.718-28.281-11.718z"/><path d="m392.5 281.605c-21.36 0-41.45 8.319-56.568 23.426-3.907 3.904-3.909 10.235-.005 14.142 3.903 3.905 10.235 3.908 14.142.006 11.341-11.333 26.411-17.574 42.432-17.574s31.09 6.241 42.432 17.574c1.953 1.95 4.51 2.926 7.068 2.926 2.56 0 5.121-.978 7.074-2.932 3.904-3.907 3.901-10.238-.005-14.142-15.12-15.106-35.21-23.426-56.57-23.426z"/></g></svg>