<svg id="Outline_Expand" data-name="Outline Expand" xmlns="http://www.w3.org/2000/svg" viewBox="0 0 64 64"><title>Cat</title><path d="M29.17,43.87c-.58-.09-1.1-.61-1.56-1.54a1,1,0,1,0-1.79.88,4.17,4.17,0,0,0,3.05,2.63,2.77,2.77,0,0,0,.49,0,4.64,4.64,0,0,0,2.69-1,4.64,4.64,0,0,0,2.69,1,2.77,2.77,0,0,0,.49,0,4.17,4.17,0,0,0,3.05-2.63,1,1,0,1,0-1.79-.88c-.46.93-1,1.45-1.55,1.54A2.84,2.84,0,0,1,33,43.08V40.9c2.36-.47,4.13-2.55,4.13-4.3,0-2.73-3.73-2.73-5.13-2.73s-5.12,0-5.12,2.73c0,1.75,1.76,3.83,4.12,4.3v2.25A2.74,2.74,0,0,1,29.17,43.87Zm-.28-7.27c0-.18.22-.73,3.12-.73s3.13.55,3.13.73a3.23,3.23,0,0,1-6.25,0Zm-6.5-4a4.16,4.16,0,1,0-4.16-4.16A4.17,4.17,0,0,0,22.39,32.56Zm0-6.32a2.16,2.16,0,1,1-2.16,2.16A2.16,2.16,0,0,1,22.39,26.24Zm19.34,6.32a4.16,4.16,0,1,0-4.16-4.16A4.17,4.17,0,0,0,41.73,32.56Zm0-6.32a2.16,2.16,0,1,1-2.16,2.16A2.16,2.16,0,0,1,41.73,26.24ZM3,45.7a1.07,1.07,0,0,0,.25,0c1.94-.51,3.9-.94,5.87-1.33a15,15,0,0,0,1.27,2.88,10.84,10.84,0,0,0,.69,1.07A8.9,8.9,0,0,0,9.55,51a1,1,0,0,0,.61,1.28,1.26,1.26,0,0,0,.33,0,1,1,0,0,0,.94-.66,7,7,0,0,1,1-1.77C16,53.74,21.87,55.79,29.93,56h4.16c8-.19,13.91-2.24,17.53-6.09a7.36,7.36,0,0,1,1,1.77,1,1,0,0,0,.94.66,1.26,1.26,0,0,0,.33,0A1,1,0,0,0,54.45,51a8.9,8.9,0,0,0-1.53-2.7c.24-.35.47-.7.68-1.07a14.36,14.36,0,0,0,1.27-2.88c2,.39,3.94.82,5.88,1.33a1.07,1.07,0,0,0,.25,0,1,1,0,0,0,.25-2c-1.94-.51-3.9-1-5.88-1.34a21.19,21.19,0,0,0,.31-5.47c.59-.06,1.19-.09,1.78-.1a1,1,0,1,0,0-2c-.66,0-1.32.05-2,.11a25.24,25.24,0,0,0-2.18-7.41A2.56,2.56,0,0,1,53,26.37l-.17-3.15a3,3,0,0,1,.14-1c1.35-4.57.55-7.89-.16-10.83-.09-.38-.19-.76-.27-1.13A2.89,2.89,0,0,0,51.12,8.4a2.83,2.83,0,0,0-2.27-.25,14.84,14.84,0,0,0-7.31,5.6.83.83,0,0,1-.9.33,34,34,0,0,0-17.26,0,.86.86,0,0,1-.92-.33,14.88,14.88,0,0,0-7.31-5.6,2.82,2.82,0,0,0-2.27.25,2.86,2.86,0,0,0-1.38,1.87l-.27,1.13c-.71,2.94-1.52,6.26-.16,10.83a3,3,0,0,1,.13,1L11,26.37a2.83,2.83,0,0,1-.33,1.16,24.93,24.93,0,0,0-2.18,7.41c-.66-.06-1.32-.1-2-.11a1,1,0,0,0-1,1,1,1,0,0,0,1,1c.59,0,1.18,0,1.77.1a20.77,20.77,0,0,0,.32,5.47c-2,.39-3.94.83-5.88,1.34a1,1,0,0,0,.25,2Zm7.3-8.49a21,21,0,0,1,5.18,1.71,1,1,0,0,0,.43.1,1,1,0,0,0,.44-1.9,22.78,22.78,0,0,0-5.85-1.91,22.07,22.07,0,0,1,2-6.72,4.57,4.57,0,0,0,.57-2l.17-3.16A4.67,4.67,0,0,0,13,21.66c-1.2-4.05-.49-7,.19-9.78.1-.4.19-.79.28-1.17a.86.86,0,0,1,.42-.58.91.91,0,0,1,.42-.11.78.78,0,0,1,.26,0,12.73,12.73,0,0,1,6.27,4.85A2.84,2.84,0,0,0,23.89,16a31.92,31.92,0,0,1,16.24,0,2.85,2.85,0,0,0,3-1.11,12.82,12.82,0,0,1,6.28-4.85.82.82,0,0,1,.67.07.91.91,0,0,1,.43.58q.14.57.27,1.17c.69,2.82,1.39,5.73.19,9.78a4.86,4.86,0,0,0-.21,1.66L51,26.48a4.7,4.7,0,0,0,.57,2,22.12,22.12,0,0,1,2,6.72,23.45,23.45,0,0,0-5.85,1.91,1,1,0,0,0,.44,1.9,1,1,0,0,0,.43-.1,21.43,21.43,0,0,1,5.18-1.71A19.09,19.09,0,0,1,53.39,42c-2.09-.37-4.2-.68-6.31-.92a1,1,0,1,0-.22,2c2,.22,4,.52,6,.88a12.92,12.92,0,0,1-1,2.25c-.13.22-.27.44-.41.65A8.94,8.94,0,0,0,49,45.48a1,1,0,0,0-.67,1.89,6.7,6.7,0,0,1,1.94,1.07C47,51.94,41.57,53.8,34.06,54H30c-7.53-.18-12.95-2-16.18-5.53a6.51,6.51,0,0,1,1.94-1.08,1,1,0,0,0-.67-1.89,8.81,8.81,0,0,0-2.51,1.39c-.14-.21-.29-.43-.41-.65a12.21,12.21,0,0,1-1-2.25c2-.36,4-.66,6-.88a1,1,0,1,0-.22-2q-3.17.36-6.32.93A19.67,19.67,0,0,1,10.3,37.21Z"/></svg>