<svg fill="#000000" xmlns="http://www.w3.org/2000/svg"  viewBox="0 0 50 50" width="50px" height="50px"><path d="M 14.8125 5 C 14.757813 5.007813 14.707031 5.015625 14.65625 5.03125 L 8.53125 6.625 C 8.511719 6.632813 8.488281 6.644531 8.46875 6.65625 C 8.46875 6.65625 5.492188 7.539063 4.03125 10.09375 C 2.023438 13.40625 0.125 16.6875 0.125 16.6875 C -0.015625 16.929688 -0.046875 17.21875 0.0351563 17.488281 C 0.117188 17.753906 0.308594 17.972656 0.5625 18.09375 L 6.5625 20.90625 C 6.699219 20.96875 6.847656 21.003906 7 21 L 7 38 C 7 38.550781 7.449219 39 8 39 L 16.53125 39 L 16 42.4375 C 15.957031 42.703125 16.019531 42.976563 16.179688 43.195313 C 16.335938 43.410156 16.578125 43.554688 16.84375 43.59375 L 38.34375 47 C 38.609375 47.042969 38.882813 46.980469 39.101563 46.820313 C 39.316406 46.664063 39.460938 46.421875 39.5 46.15625 L 42.0625 30 L 42.09375 30.09375 C 42.292969 30.550781 42.800781 30.792969 43.28125 30.65625 L 49.28125 28.96875 C 49.546875 28.890625 49.769531 28.703125 49.894531 28.457031 C 50.019531 28.207031 50.035156 27.917969 49.9375 27.65625 C 49.9375 27.65625 48.425781 23.566406 47.125 19.96875 L 47.15625 19.96875 C 46.171875 17.136719 43.21875 15.90625 43.21875 15.90625 C 43.21875 15.894531 43.21875 15.886719 43.21875 15.875 L 36.46875 12.8125 C 35.835938 11.628906 35.679688 11.34375 35 10.0625 C 34.992188 10.046875 34.976563 10.046875 34.96875 10.03125 C 33.597656 7.34375 30.46875 6.53125 30.46875 6.53125 C 30.457031 6.53125 30.449219 6.53125 30.4375 6.53125 L 24.34375 5.03125 C 23.878906 4.910156 23.394531 5.132813 23.1875 5.5625 C 23.1875 5.5625 21.933594 8.09375 19.5 8.09375 C 17.066406 8.09375 15.8125 5.5625 15.8125 5.5625 C 15.628906 5.183594 15.230469 4.957031 14.8125 5 Z M 14.5 7.125 C 15.035156 8.027344 16.433594 10.09375 19.5 10.09375 C 22.566406 10.09375 23.964844 8.027344 24.5 7.125 L 29.9375 8.46875 L 29.96875 8.46875 C 30.015625 8.484375 32.386719 9.273438 33.21875 10.9375 C 33.21875 10.949219 33.21875 10.957031 33.21875 10.96875 C 34.789063 13.9375 36.191406 16.535156 36.625 17.34375 L 32.8125 19.21875 L 31.9375 17.03125 C 31.765625 16.574219 31.289063 16.304688 30.808594 16.398438 C 30.328125 16.488281 29.988281 16.917969 30 17.40625 L 30 37 L 18.125 37 C 17.875 36.894531 17.59375 36.894531 17.34375 37 L 9 37 L 9 17.40625 C 9.011719 16.917969 8.671875 16.488281 8.191406 16.398438 C 7.710938 16.304688 7.234375 16.574219 7.0625 17.03125 L 6.4375 18.625 L 2.4375 16.75 C 2.871094 16 4.042969 13.941406 5.75 11.125 C 5.761719 11.113281 5.769531 11.105469 5.78125 11.09375 C 6.722656 9.449219 9.125 8.5625 9.125 8.5625 Z M 38.03125 15.71875 L 42.375 17.71875 C 42.375 17.71875 44.636719 18.859375 45.25 20.625 C 46.378906 23.746094 47.367188 26.433594 47.6875 27.3125 L 43.5625 28.5 L 42.53125 26 C 42.351563 25.589844 41.925781 25.347656 41.484375 25.40625 C 41.042969 25.464844 40.691406 25.808594 40.625 26.25 L 37.65625 44.84375 L 18.15625 41.78125 L 18.5625 39 L 31 39 C 31.550781 39 32 38.550781 32 38 L 32 21.5625 C 32.25 21.640625 32.519531 21.617188 32.75 21.5 L 38.4375 18.6875 C 38.683594 18.566406 38.867188 18.351563 38.949219 18.09375 C 39.03125 17.832031 39.003906 17.550781 38.875 17.3125 C 38.875 17.3125 38.207031 16.046875 38.03125 15.71875 Z M 19.09375 16.3125 C 17.894531 16.3125 16.914063 16.710938 16.3125 17.3125 C 15.613281 17.914063 15.3125 18.886719 15.3125 20.1875 L 17.6875 20.1875 L 17.6875 19.3125 C 17.6875 19.011719 17.804688 18.792969 17.90625 18.59375 C 18.007813 18.492188 18.113281 18.289063 18.3125 18.1875 C 18.511719 18.085938 18.699219 18 19 18 C 19.398438 18 19.707031 18.105469 19.90625 18.40625 C 20.105469 18.605469 20.1875 19.085938 20.1875 19.6875 C 20.1875 19.988281 20.195313 20.300781 20.09375 20.5 C 19.992188 20.800781 19.914063 20.988281 19.8125 21.1875 C 19.613281 21.386719 19.511719 21.585938 19.3125 21.6875 C 19.113281 21.789063 18.894531 21.90625 18.59375 21.90625 L 17.6875 21.90625 L 17.6875 23.59375 L 18.59375 23.59375 C 18.992188 23.59375 19.300781 23.710938 19.5 23.8125 C 19.699219 23.914063 19.898438 24.113281 20 24.3125 C 20.101563 24.511719 20.1875 24.699219 20.1875 25 C 20.289063 25.199219 20.3125 25.511719 20.3125 25.8125 L 20.3125 26.59375 C 20.3125 26.894531 20.195313 27.113281 20.09375 27.3125 C 19.992188 27.511719 19.886719 27.710938 19.6875 27.8125 C 19.488281 27.914063 19.207031 28 18.90625 28 C 18.40625 28 18.011719 27.804688 17.8125 27.40625 C 17.613281 27.007813 17.5 26.394531 17.5 25.59375 L 15 25.59375 L 15 25.6875 C 15 26.988281 15.304688 28.011719 15.90625 28.8125 C 16.507813 29.511719 17.386719 29.8125 18.6875 29.8125 C 19.585938 29.8125 20.304688 29.605469 20.90625 29.40625 C 21.40625 29.207031 21.886719 28.898438 22.1875 28.5 C 22.488281 28.101563 22.710938 27.6875 22.8125 27.1875 L 23.09375 25.6875 C 23.09375 24.789063 22.894531 24.195313 22.59375 23.59375 C 22.195313 23.09375 21.613281 22.695313 20.8125 22.59375 C 21.511719 22.394531 22.011719 22.09375 22.3125 21.59375 C 22.613281 21.09375 22.8125 20.488281 22.8125 19.6875 C 22.8125 18.488281 22.511719 17.59375 21.8125 17.09375 C 21.210938 16.59375 20.292969 16.3125 19.09375 16.3125 Z"/></svg>