<svg id="Capa_1" enable-background="new 0 0 512 512" height="512" viewBox="0 0 512 512" width="512" xmlns="http://www.w3.org/2000/svg"><g><path d="m315.34 497h-175.84c-16.542 0-30-13.458-30-30v-72.192c5.501-10.499 15.267-18.036 26.795-20.677 4.038-.925 6.561-4.948 5.636-8.985-.925-4.038-4.948-6.56-8.985-5.636-8.753 2.006-16.758 6.075-23.445 11.744v-56.238h63.354c4.143 0 7.5-3.358 7.5-7.5s-3.357-7.5-7.5-7.5h-63.355v-31.516h42.5c4.143 0 7.5-3.358 7.5-7.5s-3.357-7.5-7.5-7.5h-42.5v-31.515h12.5c4.143 0 7.5-3.358 7.5-7.5s-3.357-7.5-7.5-7.5h-12.5v-39.795c0-4.142-3.357-7.5-7.5-7.5s-7.5 3.358-7.5 7.5v39.693c-5.221-.478-10.069-2.735-13.822-6.489l-11.326-11.326c1.504-3.064 2.351-6.505 2.351-10.142 0-12.737-10.362-23.1-23.1-23.1s-23.1 10.362-23.1 23.1 10.362 23.1 23.1 23.1c3.637 0 7.078-.848 10.142-2.351l11.326 11.326c6.589 6.588 15.198 10.418 24.429 10.922v31.577h-40.548c-3.274-11.528-13.889-20-26.452-20-15.163 0-27.5 12.336-27.5 27.5s12.337 27.5 27.5 27.5c12.563 0 23.178-8.472 26.452-20h40.548v31.577c-9.231.503-17.839 4.334-24.43 10.922l-11.325 11.325c-3.063-1.504-6.505-2.351-10.142-2.351-12.737 0-23.1 10.363-23.1 23.1s10.362 23.1 23.1 23.1 23.1-10.362 23.1-23.1c0-3.637-.848-7.078-2.351-10.142l11.325-11.325c3.755-3.754 8.602-6.011 13.823-6.489v151.883c0 24.813 20.187 45 45 45h175.84c4.143 0 7.5-3.358 7.5-7.5s-3.358-7.5-7.5-7.5zm-266.736-309.973c-4.466 0-8.1-3.634-8.1-8.1s3.634-8.1 8.1-8.1 8.1 3.633 8.1 8.1-3.635 8.1-8.1 8.1zm-21.104 86.473c-6.893 0-12.5-5.607-12.5-12.5s5.607-12.5 12.5-12.5 12.5 5.607 12.5 12.5-5.607 12.5-12.5 12.5zm21.104 77.673c-4.466 0-8.1-3.633-8.1-8.1s3.634-8.1 8.1-8.1 8.1 3.634 8.1 8.1-3.635 8.1-8.1 8.1z"/><path d="m268.25 45c4.143 0 7.5-3.358 7.5-7.5s-3.357-7.5-7.5-7.5h-50c-4.143 0-7.5 3.358-7.5 7.5s3.357 7.5 7.5 7.5z"/><path d="m458.048 268.5c3.274 11.528 13.889 20 26.452 20 15.163 0 27.5-12.336 27.5-27.5s-12.337-27.5-27.5-27.5c-12.563 0-23.178 8.472-26.452 20h-40.548v-31.577c9.231-.503 17.839-4.334 24.43-10.922l11.325-11.325c3.063 1.504 6.505 2.351 10.142 2.351 12.737 0 23.1-10.363 23.1-23.1s-10.362-23.1-23.1-23.1-23.1 10.362-23.1 23.1c0 3.637.848 7.078 2.351 10.142l-11.325 11.325c-3.755 3.754-8.602 6.011-13.823 6.489v-161.883c0-24.813-20.187-45-45-45h-233c-24.813 0-45 20.187-45 45v87.19c0 4.142 3.357 7.5 7.5 7.5s7.5-3.358 7.5-7.5v-87.19c0-16.542 13.458-30 30-30h233c16.542 0 30 13.458 30 30v161.985h-12.5c-4.143 0-7.5 3.358-7.5 7.5s3.357 7.5 7.5 7.5h12.5v31.515h-42.5c-4.143 0-7.5 3.358-7.5 7.5s3.357 7.5 7.5 7.5h42.5v31.515h-63.354c-4.143 0-7.5 3.358-7.5 7.5s3.357 7.5 7.5 7.5h63.354v56.263c-7.107-6.024-15.682-10.244-25.009-12.101l-45.584-9.075c.541-2.208.564-4.548.009-6.849-1.178-4.884-4.724-8.753-9.486-10.351l-18.291-6.133v-30.334l11.672-10.212c11.224-9.82 17.66-24.004 17.66-38.916v-5.033c18.686-1.193 33.524-16.765 33.524-35.746v-6.782c0-6.467-2.852-12.277-7.36-16.25l3.197-17.119c4.372-23.432-1.09-47.944-14.988-67.305-1.344-2.023-3.644-3.355-6.255-3.355-4.143 0-7.5 3.363-7.5 7.505 0 1.578.498 3.116 1.423 4.395 11.632 16.084 16.215 36.499 12.574 56.008l-2.699 14.459c-.019 0-.037-.001-.056-.001h-11.86v-18.011c0-18.078-14.708-32.786-32.787-32.786-10.387-.034-20.293 4.941-26.467 13.293-3.578 4.838-9.307 7.727-15.324 7.727h-5.892c-5.83 0-11.379-2.685-14.977-7.213-6.059-8.643-16.172-13.802-26.757-13.808-18.053 0-32.74 14.708-32.74 32.786v18.011h-11.916l-2.699-14.456c-3.743-20.065 1.164-40.919 13.436-57.18 17.764-24.645 49.705-31.978 78.559-32.125 19.039.269 38.862 3.082 55.853 12.137 3.623 2.011 8.187.705 10.198-2.917 2.01-3.621.704-8.187-2.917-10.197-19.186-10.341-41.578-13.76-63.144-14.023-33.485.002-70.027 9.681-90.494 38.052-14.833 19.654-20.751 44.805-16.236 69.005l3.111 16.66c-4.815 3.977-7.888 9.99-7.888 16.708v6.782c0 19.189 15.165 34.9 34.139 35.785v4.994c0 14.912 6.437 29.096 17.66 38.916l11.673 10.213v30.333l-18.292 6.134c-4.763 1.598-8.309 5.467-9.486 10.351-.555 2.302-.531 4.643.01 6.851l-12.607 2.511c-4.062.809-6.7 4.758-5.891 8.821.711 3.568 3.843 6.036 7.348 6.036.485 0 .979-.047 1.473-.146l19.837-3.951 36.266 37.098c1.469 1.502 3.415 2.257 5.364 2.257 1.852 0 3.705-.682 5.154-2.053l11.463-10.848v28.35h-76.837c-9.649 0-17.5 7.851-17.5 17.5v25.412c0 9.649 7.851 17.5 17.5 17.5h168.674c9.649 0 17.5-7.851 17.5-17.5v-25.412c0-9.649-7.851-17.5-17.5-17.5h-76.838v-28.35l11.463 10.848c1.449 1.371 3.303 2.053 5.154 2.053 1.949 0 3.896-.755 5.364-2.257l36.267-37.099 52.814 10.515c12.021 2.269 21.794 10.124 27.938 20.526v72.584c0 16.542-13.458 30-30 30h-22.16c-4.143 0-7.5 3.358-7.5 7.5s3.357 7.5 7.5 7.5h22.16c24.813 0 45-20.187 45-45v-151.883c5.221.478 10.069 2.735 13.822 6.489l11.326 11.326c-1.504 3.064-2.351 6.505-2.351 10.142 0 12.737 10.362 23.1 23.1 23.1s23.1-10.362 23.1-23.1-10.362-23.1-23.1-23.1c-3.637 0-7.078.848-10.142 2.351l-11.326-11.326c-6.589-6.588-15.198-10.418-24.429-10.922v-31.577zm26.452-20c6.893 0 12.5 5.607 12.5 12.5s-5.607 12.5-12.5 12.5-12.5-5.607-12.5-12.5 5.607-12.5 12.5-12.5zm-21.104-77.673c4.466 0 8.1 3.633 8.1 8.1s-3.634 8.1-8.1 8.1-8.1-3.634-8.1-8.1 3.635-8.1 8.1-8.1zm-129.924 22.254h11.86c3.675 0 6.664 2.989 6.664 6.664v6.782c0 10.705-8.121 19.542-18.524 20.693zm-154.944 34.188c-10.695-.865-19.139-9.828-19.139-20.743v-6.782c0-3.675 2.989-6.664 6.664-6.664h12.475zm27.537 47.664c-7.968-6.971-12.537-17.041-12.537-27.627v-87.236c0-9.807 7.958-17.786 17.787-17.786 5.573.013 11.015 2.666 14.255 7.211 6.394 8.647 16.648 13.809 27.432 13.809h5.892c10.754 0 20.991-5.162 27.385-13.809 3.359-4.544 8.755-7.245 14.406-7.211 9.808 0 17.787 7.979 17.787 17.786v87.236c0 10.586-4.569 20.656-12.537 27.627l-27.455 24.022c-4.007 3.506-9.146 5.437-14.471 5.437h-16.018c-5.324 0-10.464-1.931-14.471-5.437zm26.021 109.777-36.991-37.84 17.089-5.73 32.915 31.256zm-15.031 78.88h-45.392c-1.379 0-2.5-1.122-2.5-2.5v-25.412c0-1.378 1.121-2.5 2.5-2.5h45.392zm77.89-30.411h45.392c1.379 0 2.5 1.122 2.5 2.5v25.412c0 1.378-1.121 2.5-2.5 2.5h-45.392zm-15 0v30.412h-47.891v-30.412zm-23.945-71.116-33.139-31.468v-21.036l.782.684c6.742 5.899 15.389 9.148 24.348 9.148h16.018c8.959 0 17.605-3.249 24.348-9.148l.783-.685v21.035zm23.914 22.647-13.013-12.314 32.915-31.256 17.089 5.73zm183.482-49.737c4.466 0 8.1 3.634 8.1 8.1s-3.634 8.1-8.1 8.1-8.1-3.633-8.1-8.1 3.635-8.1 8.1-8.1z"/><path d="m246.328 241.861c3.028 1.543 6.35 2.314 9.672 2.314s6.644-.771 9.672-2.314c3.69-1.881 5.158-6.397 3.277-10.088s-6.396-5.156-10.088-3.277c-1.791.913-3.932.913-5.723 0-3.69-1.879-8.207-.413-10.088 3.277-1.88 3.691-.412 8.207 3.278 10.088z"/><path d="m237.602 270.735c5.761 2.935 12.079 4.402 18.398 4.402s12.638-1.467 18.398-4.402c3.69-1.881 5.158-6.397 3.277-10.087-1.881-3.691-6.396-5.157-10.088-3.278-7.256 3.697-15.92 3.697-23.176 0-3.69-1.88-8.207-.413-10.088 3.278-1.88 3.69-.412 8.206 3.279 10.087z"/><path d="m232.183 185.986c1.229.762 2.594 1.125 3.941 1.125 2.511 0 4.964-1.261 6.384-3.553 2.181-3.521 1.093-8.144-2.429-10.325-7.273-4.504-18.244-4.504-25.518 0-3.521 2.181-4.609 6.803-2.429 10.325 2.183 3.523 6.806 4.609 10.325 2.428 2.454-1.519 7.272-1.519 9.726 0z"/><path d="m279.817 185.986c2.453-1.52 7.271-1.52 9.725 0 1.229.762 2.594 1.125 3.941 1.125 2.511 0 4.964-1.261 6.384-3.553 2.181-3.521 1.093-8.144-2.429-10.325-7.273-4.504-18.244-4.504-25.518 0-3.521 2.181-4.609 6.803-2.429 10.325 2.184 3.523 6.806 4.609 10.326 2.428z"/><path d="m234.82 202.302c0-4.142-3.357-7.5-7.5-7.5s-7.5 3.358-7.5 7.5v10.512c0 4.142 3.357 7.5 7.5 7.5s7.5-3.358 7.5-7.5z"/><path d="m284.68 194.802c-4.143 0-7.5 3.358-7.5 7.5v10.512c0 4.142 3.357 7.5 7.5 7.5s7.5-3.358 7.5-7.5v-10.512c0-4.142-3.358-7.5-7.5-7.5z"/><circle cx="293.75" cy="37.508" r="7.5"/></g></svg>