<svg xmlns="http://www.w3.org/2000/svg" width="128" height="128" viewBox="0 0 128 128">
  <title>PAW PRINT</title>
  <g>
    <path d="M85.892,71.533a21.894,21.894,0,0,0-43.784-.007A21.893,21.893,0,1,0,64,101.926,21.892,21.892,0,1,0,85.892,71.533Zm-1.749,40.209A18.414,18.414,0,0,1,65.75,93.349a1.75,1.75,0,1,0-3.5,0,18.393,18.393,0,1,1-18.482-18.4,1.755,1.755,0,0,0,1.906-1.865,18.373,18.373,0,1,1,36.652,0,1.806,1.806,0,0,0,1.817,1.868,18.393,18.393,0,0,1,0,36.786Z"/>
    <path d="M47.954,46.634c7.209-.573,12.471-8.629,11.73-17.96s-7.207-16.46-14.417-15.883S32.8,21.42,33.537,30.751C34.325,40.679,41.214,47.167,47.954,46.634ZM45.544,16.28c5.863-.467,10.129,6.1,10.651,12.671.588,7.407-3.233,13.774-8.518,14.194S37.614,37.88,37.026,30.473,40.259,16.7,45.544,16.28Z"/>
    <path d="M28.888,67.217c6.055-3.954,6.818-13.547,1.7-21.384C25.912,38.67,16.946,34.468,10.326,38.79c-6.055,3.954-6.817,13.547-1.7,21.384C13.227,67.221,22.216,71.573,28.888,67.217ZM11.557,58.26C7.5,52.039,7.8,44.619,12.24,41.721c4.91-3.208,11.874.6,15.418,6.025,4.062,6.222,3.756,13.641-.684,16.54C22.015,67.526,15.064,63.631,11.557,58.26Z"/>
    <path d="M80.046,46.647c8.039.634,13.757-7.568,14.417-15.883.741-9.331-4.521-17.387-11.73-17.96S69.057,19.357,68.316,28.687,72.837,46.074,80.046,46.647ZM71.805,28.965c.524-6.6,4.856-13.134,10.651-12.672,5.285.42,9.106,6.787,8.518,14.194-.5,6.315-4.7,13.15-10.651,12.671C75.038,42.738,71.217,36.371,71.805,28.965Z"/>
    <path d="M117.674,38.8c-6.056-3.953-15.145-.793-20.262,7.043h0c-5.118,7.837-4.355,17.43,1.7,21.384,6.744,4.4,15.7-.05,20.262-7.043C124.491,52.35,123.729,42.758,117.674,38.8Zm-1.231,19.471c-3.45,5.283-10.4,9.3-15.417,6.025-4.44-2.9-4.746-10.318-.684-16.539h0c4.062-6.222,10.98-8.924,15.418-6.026S120.506,52.052,116.443,58.274Z"/>
  </g>
</svg>
