<svg xmlns="http://www.w3.org/2000/svg" width="128" height="128" viewBox="0 0 128 128">
  <title>COMPUTER</title>
  <g>
    <path d="M117.5,13.25H10.5A5.256,5.256,0,0,0,5.25,18.5v73a5.256,5.256,0,0,0,5.25,5.25H50.25v14.5H43a1.75,1.75,0,0,0,0,3.5H85a1.75,1.75,0,0,0,0-3.5H77.75V96.75H117.5a5.256,5.256,0,0,0,5.25-5.25v-73A5.256,5.256,0,0,0,117.5,13.25ZM8.75,25.75h110.5v58.5H8.75Zm1.75-9h107a1.752,1.752,0,0,1,1.75,1.75v3.75H8.75V18.5A1.752,1.752,0,0,1,10.5,16.75Zm63.75,94.5H53.75V96.75h20.5Zm43.25-18H10.5A1.752,1.752,0,0,1,8.75,91.5V87.75h110.5V91.5A1.752,1.752,0,0,1,117.5,93.25Z"/>
    <path d="M70.61,55.459,73.9,53.5a1.749,1.749,0,0,0-.341-3.164L55.546,44.333a1.75,1.75,0,0,0-2.213,2.214l6,18.013a1.751,1.751,0,0,0,1.473,1.187,1.692,1.692,0,0,0,.188.01,1.749,1.749,0,0,0,1.5-.856l1.958-3.291,3.5,3.5a1.749,1.749,0,0,0,2.475,0l3.675-3.675a1.749,1.749,0,0,0,0-2.475ZM69.2,61.4l-3.852-3.853a1.75,1.75,0,0,0-2.742.343l-1.153,1.938L57.76,48.76l11.065,3.688L66.887,53.6a1.75,1.75,0,0,0-.343,2.741L70.4,60.2Z"/>
  </g>
</svg>
