<svg id="Capa_1" enable-background="new 0 0 512 512" height="512" viewBox="0 0 512 512" width="512" xmlns="http://www.w3.org/2000/svg"><g><path d="m440.512 355.97h-38.005v-22.205c0-11.05-8.989-20.039-20.039-20.039h-32.982l-18.174-22.205h76.925c11.05 0 20.039-8.989 20.039-20.039v-251.443c0-11.05-8.989-20.039-20.039-20.039h-304.474c-11.05 0-20.039 8.989-20.039 20.039v251.441c0 11.05 8.989 20.039 20.039 20.039h76.925l-18.174 22.205h-32.982c-11.05 0-20.039 8.989-20.039 20.039v22.205h-38.005c-11.05 0-20.039 8.989-20.039 20.039v115.952c0 11.05 8.989 20.039 20.039 20.039h222.547c5.533 0 10.02-4.486 10.02-10.02s-4.486-10.02-10.02-10.02h-222.547v-115.949h369.023v115.952h-55.178c-5.533 0-10.02 4.486-10.02 10.02s4.487 10.019 10.021 10.019h55.178c11.05 0 20.039-8.989 20.039-20.039v-115.952c0-11.05-8.989-20.039-20.039-20.039zm-336.749-335.931h304.474l.013 251.44s-.004.001-.013.001h-304.474zm102.82 271.481h98.834l18.174 22.205h-135.182zm-77.051 64.45v-22.205h252.935v22.205z"/><path d="m106.525 407.473v53.024c0 5.533 4.486 10.02 10.02 10.02 5.533 0 10.02-4.486 10.02-10.02v-53.024c0-5.533-4.486-10.02-10.02-10.02-5.533 0-10.02 4.486-10.02 10.02z"/><path d="m151.207 407.473v53.024c0 5.533 4.486 10.02 10.02 10.02s10.02-4.486 10.02-10.02v-53.024c0-5.533-4.486-10.02-10.02-10.02s-10.02 4.486-10.02 10.02z"/><path d="m195.889 407.473v53.024c0 5.533 4.486 10.02 10.02 10.02 5.533 0 10.02-4.486 10.02-10.02v-53.024c0-5.533-4.486-10.02-10.02-10.02-5.533 0-10.02 4.486-10.02 10.02z"/><path d="m405.475 445.088v-22.206c0-11.05-8.989-20.039-20.039-20.039h-91.666c-11.05 0-20.039 8.989-20.039 20.039v22.206c0 11.05 8.989 20.039 20.039 20.039h91.666c11.049 0 20.039-8.989 20.039-20.039zm-111.706-22.206h91.666l.013 22.206s-.004.001-.013.001h-91.666z"/><path d="m386.716 217.46v-165.88c0-5.533-4.486-10.02-10.02-10.02h-241.393c-5.533 0-10.02 4.486-10.02 10.02v165.88c0 5.533 4.486 10.02 10.02 10.02h241.393c5.534-.001 10.02-4.487 10.02-10.02zm-20.039-10.02h-221.354v-145.84h221.354z"/><circle cx="331.908" cy="249.855" r="10.02"/><circle cx="339.602" cy="501.98" r="10.02"/><circle cx="373.47" cy="249.855" r="10.02"/></g></svg>