<svg xmlns="http://www.w3.org/2000/svg" width="128" height="128" viewBox="0 0 128 128">
  <title>TEA</title>
  <g>
    <path d="M90.382,61.193h5.332a6.826,6.826,0,0,0,0-13.652H90.382a1.75,1.75,0,0,0-1.75,1.75V59.443A1.75,1.75,0,0,0,90.382,61.193Zm1.75-10.152h3.582a3.326,3.326,0,0,1,0,6.652H92.132Z"/>
    <path d="M91.869,69.341h3.845a14.974,14.974,0,0,0,0-29.948H92.132V36.5a1.75,1.75,0,0,0-1.75-1.75H33.977a1.751,1.751,0,0,0-1.75,1.75V66.329a18.451,18.451,0,0,0,7.7,14.98H19.062a1.75,1.75,0,0,0-1.75,1.75A10.2,10.2,0,0,0,27.5,93.248H95.367a10.169,10.169,0,0,0,10.177-10.189,1.749,1.749,0,0,0-1.75-1.75H84.418A18.519,18.519,0,0,0,91.869,69.341Zm9.945,15.468a6.662,6.662,0,0,1-6.447,4.939H27.5a6.7,6.7,0,0,1-6.457-4.939h80.769Zm-51.107-3.5a15,15,0,0,1-14.98-14.98V38.252H49.866v7.589h-.039A7.333,7.333,0,0,0,42.5,53.166V64.193a1.75,1.75,0,0,0,1.75,1.75H58.979a1.75,1.75,0,0,0,1.75-1.75V53.166a7.333,7.333,0,0,0-7.324-7.325h-.039V38.252H88.632v2.891a1.75,1.75,0,0,0,1.75,1.75h5.332a11.474,11.474,0,0,1,0,22.948h-5.4a1.75,1.75,0,0,0-1.745,1.619A15.026,15.026,0,0,1,73.651,81.309Zm2.7-31.968a3.829,3.829,0,0,1,3.824,3.825v9.277H46V53.166a3.829,3.829,0,0,1,3.825-3.825Z"/>
  </g>
</svg>
