<svg xmlns="http://www.w3.org/2000/svg" width="128" height="128" viewBox="0 0 128 128">
  <title>PENCIL</title>
  <path d="M107.09,25.275,102.712,20.9a12.022,12.022,0,0,0-16.973,0l-3.45,3.449,0,0-6.9,6.9a.288.288,0,0,0-.022.027l-48.6,48.6c-.015.015-.025.033-.039.048a1.627,1.627,0,0,0-.15.19c-.027.037-.054.073-.077.112a1.716,1.716,0,0,0-.1.207c-.02.045-.042.089-.058.136,0,.01-.009.018-.012.029L17.9,107.906a1.75,1.75,0,0,0,2.189,2.189l13.119-4.054.014,0,14.185-4.383c.013,0,.023-.011.036-.015a1.814,1.814,0,0,0,.273-.115l.031-.017a1.745,1.745,0,0,0,.4-.288L96.725,52.635c.007-.007.016-.012.024-.02l6.9-6.9,3.442-3.442a12.01,12.01,0,0,0,0-17ZM76.625,34.966l6.489,6.489.474.475L36.842,88.676a8.924,8.924,0,0,1-6.97-6.957ZM35.932,92.053a12.413,12.413,0,0,0,5.464,7.8l-8.051,2.487a42.116,42.116,0,0,0-3.578-4.079,42.63,42.63,0,0,0-4.111-3.608L28.141,86.6A12.387,12.387,0,0,0,35.932,92.053ZM24.546,98.242c.943.78,1.864,1.608,2.746,2.489s1.689,1.782,2.46,2.714l-7.531,2.328Zm21.747-.124a8.94,8.94,0,0,1-6.982-6.961L86.064,44.4l6.516,6.517.454.456ZM95.512,48.9l-1.744-1.746-6.453-6.474c-.021-.021-.046-.037-.068-.056l-8.138-8.149,4.413-4.413L99.936,44.479Zm9.1-9.1-2.2,2.2L86,25.589l2.217-2.217a8.523,8.523,0,0,1,12.023,0l4.378,4.378a8.51,8.51,0,0,1,0,12.05Z"/>
</svg>
