<?xml version="1.0" encoding="utf-8"?>
<!-- Generator: Adobe Illustrator 24.1.3, SVG Export Plug-In . SVG Version: 6.00 Build 0)  -->
<svg version="1.1" xmlns="http://www.w3.org/2000/svg" xmlns:xlink="http://www.w3.org/1999/xlink" x="0px" y="0px"
	 viewBox="0 0 24 24" style="enable-background:new 0 0 24 24;" xml:space="preserve">
<g id="Design_here">
	<g>
		<path d="M12,19c-1.1,0-2-0.9-2-2s0.9-2,2-2c1.1,0,2,0.9,2,2S13.1,19,12,19z M12,16c-0.55,0-1,0.45-1,1s0.45,1,1,1s1-0.45,1-1
			S12.55,16,12,16z"/>
	</g>
	<g>
		<path d="M8.09,15.25c-0.12,0-0.24-0.04-0.33-0.13c-0.21-0.18-0.22-0.5-0.04-0.71C8.8,13.2,10.37,12.5,12,12.5
			c1.63,0,3.2,0.7,4.29,1.92c0.18,0.21,0.17,0.52-0.04,0.71c-0.2,0.18-0.52,0.17-0.71-0.04c-0.9-1.01-2.19-1.58-3.54-1.58
			s-2.64,0.58-3.54,1.58C8.36,15.19,8.22,15.25,8.09,15.25z"/>
	</g>
	<g>
		<path d="M18.25,12.62c-0.13,0-0.26-0.05-0.36-0.15C16.33,10.88,14.23,10,12,10s-4.33,0.88-5.89,2.47c-0.19,0.2-0.51,0.2-0.71,0.01
			c-0.2-0.19-0.2-0.51-0.01-0.71C7.15,9.99,9.49,9,12,9c2.51,0,4.85,0.99,6.61,2.78c0.19,0.2,0.19,0.51-0.01,0.71
			C18.5,12.58,18.37,12.62,18.25,12.62z"/>
	</g>
	<g>
		<path d="M20.75,10.18c-0.13,0-0.26-0.05-0.36-0.15C18.16,7.75,15.18,6.5,12,6.5c-3.18,0-6.16,1.25-8.39,3.53
			c-0.19,0.2-0.51,0.2-0.71,0.01C2.7,9.84,2.7,9.52,2.89,9.33C5.31,6.86,8.55,5.5,12,5.5c3.45,0,6.69,1.36,9.11,3.83
			c0.19,0.2,0.19,0.51-0.01,0.71C21,10.13,20.88,10.18,20.75,10.18z"/>
	</g>
</g>
<g id="Guide">
</g>
</svg>
