<?xml version="1.0" encoding="utf-8"?>
<!-- Generator: Adobe Illustrator 24.1.3, SVG Export Plug-In . SVG Version: 6.00 Build 0)  -->
<svg version="1.1" xmlns="http://www.w3.org/2000/svg" xmlns:xlink="http://www.w3.org/1999/xlink" x="0px" y="0px"
	 viewBox="0 0 24 24" style="enable-background:new 0 0 24 24;" xml:space="preserve">
<style type="text/css">
	.st0{fill:#231F20;}
</style>
<g id="Design_here">
	<g>
		<path class="st0" d="M12,14c-1.1,0-2-0.9-2-2s0.9-2,2-2s2,0.9,2,2S13.1,14,12,14z M12,11c-0.55,0-1,0.45-1,1s0.45,1,1,1
			s1-0.45,1-1S12.55,11,12,11z"/>
	</g>
	<g>
		<path class="st0" d="M12.62,21h-1.23C10.62,21,10,20.38,10,19.62v-1.37c0-0.19-0.14-0.31-0.28-0.37
			c-0.15-0.06-0.34-0.07-0.47,0.06L8.28,18.9c-0.52,0.52-1.43,0.52-1.96,0L5.1,17.68c-0.26-0.26-0.41-0.61-0.41-0.98
			s0.14-0.72,0.41-0.98l0.97-0.97c0.13-0.13,0.12-0.32,0.06-0.46C6.07,14.14,5.95,14,5.76,14H4.38C3.62,14,3,13.38,3,12.62v-1.23
			C3,10.62,3.62,10,4.38,10h1.37c0.19,0,0.31-0.14,0.37-0.28C6.19,9.57,6.2,9.38,6.07,9.25L5.1,8.28C4.83,8.02,4.69,7.67,4.69,7.3
			S4.83,6.58,5.1,6.32L6.32,5.1c0.52-0.52,1.43-0.52,1.96,0l0.97,0.97C9.38,6.2,9.57,6.19,9.71,6.13C9.86,6.07,10,5.95,10,5.76V4.38
			C10,3.62,10.62,3,11.38,3h1.23C13.38,3,14,3.62,14,4.38v1.37c0,0.19,0.14,0.31,0.28,0.37c0.15,0.06,0.34,0.07,0.47-0.06l0.97-0.97
			c0.52-0.52,1.43-0.52,1.96,0l1.23,1.23c0.26,0.26,0.41,0.61,0.41,0.98s-0.14,0.72-0.41,0.98l-0.97,0.97
			c-0.13,0.13-0.12,0.32-0.06,0.46C17.93,9.86,18.05,10,18.24,10h1.37c0.76,0,1.38,0.62,1.38,1.38v1.23c0,0.76-0.62,1.38-1.38,1.38
			h-1.37c-0.19,0-0.31,0.14-0.37,0.28c-0.06,0.15-0.07,0.34,0.06,0.47l0.97,0.97c0.26,0.26,0.41,0.61,0.41,0.98
			s-0.14,0.72-0.41,0.98l-1.23,1.23c-0.52,0.52-1.43,0.52-1.96,0l-0.97-0.97c-0.13-0.13-0.32-0.12-0.46-0.06
			C14.14,17.93,14,18.05,14,18.24v1.37C14,20.38,13.38,21,12.62,21z M9.52,16.83c0.19,0,0.39,0.04,0.57,0.12
			c0.56,0.23,0.91,0.74,0.91,1.3v1.37c0,0.21,0.17,0.38,0.38,0.38h1.23c0.21,0,0.38-0.17,0.38-0.38v-1.37c0-0.56,0.35-1.07,0.9-1.3
			c0.56-0.23,1.16-0.12,1.56,0.28l0.97,0.97c0.15,0.15,0.39,0.15,0.54,0l1.23-1.23c0.15-0.15,0.15-0.39,0-0.54l-0.97-0.97
			c-0.4-0.4-0.51-1-0.28-1.55c0.23-0.56,0.74-0.91,1.3-0.91h1.37c0.21,0,0.38-0.17,0.38-0.38v-1.23c0-0.21-0.17-0.38-0.38-0.38
			h-1.37c-0.56,0-1.07-0.35-1.3-0.9c-0.23-0.55-0.12-1.16,0.28-1.56l0.97-0.97c0.15-0.15,0.15-0.39,0-0.54L16.97,5.8
			c-0.15-0.15-0.39-0.15-0.54,0l-0.97,0.97c-0.4,0.4-1,0.51-1.55,0.28C13.35,6.83,13,6.32,13,5.76V4.38C13,4.17,12.83,4,12.62,4
			h-1.23C11.17,4,11,4.17,11,4.38v1.37c0,0.56-0.35,1.07-0.9,1.3C9.54,7.28,8.94,7.17,8.54,6.77L7.57,5.8
			c-0.15-0.15-0.39-0.15-0.54,0L5.8,7.03c-0.15,0.15-0.15,0.39,0,0.54l0.97,0.97c0.4,0.4,0.51,1,0.28,1.55
			C6.83,10.65,6.32,11,5.76,11H4.38C4.17,11,4,11.17,4,11.38v1.23C4,12.83,4.17,13,4.38,13h1.37c0.56,0,1.07,0.35,1.3,0.9
			c0.23,0.55,0.12,1.16-0.28,1.56L5.8,16.43c-0.15,0.15-0.15,0.39,0,0.54l1.23,1.23c0.15,0.15,0.39,0.15,0.54,0l0.97-0.97
			C8.8,16.97,9.15,16.83,9.52,16.83z"/>
	</g>
</g>
<g id="Guide">
</g>
</svg>
