<?xml version="1.0" encoding="utf-8"?>
<!-- Generator: Adobe Illustrator 24.1.3, SVG Export Plug-In . SVG Version: 6.00 Build 0)  -->
<svg version="1.1" xmlns="http://www.w3.org/2000/svg" xmlns:xlink="http://www.w3.org/1999/xlink" x="0px" y="0px"
	 viewBox="0 0 24 24" style="enable-background:new 0 0 24 24;" xml:space="preserve">
<g id="Design_here">
	<g>
		<path d="M17.5,18h-14C3.22,18,3,17.78,3,17.5v-11C3,6.22,3.22,6,3.5,6h14C17.78,6,18,6.22,18,6.5v11C18,17.78,17.78,18,17.5,18z
			 M4,17h13V7H4V17z"/>
	</g>
	<g>
		<path d="M20.5,15h-3c-0.28,0-0.5-0.22-0.5-0.5s0.22-0.5,0.5-0.5H20v-4h-2.5C17.22,10,17,9.78,17,9.5S17.22,9,17.5,9h3
			C20.78,9,21,9.22,21,9.5v5C21,14.78,20.78,15,20.5,15z"/>
	</g>
	<g>
		<path d="M8.5,15c-0.17,0-0.33-0.09-0.43-0.24C7.93,14.52,8,14.22,8.24,14.07l2.39-1.46l-1.31-0.69c-0.16-0.08-0.26-0.24-0.27-0.42
			s0.07-0.34,0.22-0.44l2.94-1.99c0.23-0.15,0.54-0.09,0.69,0.13c0.15,0.23,0.09,0.54-0.13,0.69l-2.25,1.52l1.35,0.71
			c0.16,0.08,0.26,0.25,0.27,0.43c0.01,0.18-0.09,0.35-0.24,0.44l-3.15,1.92C8.68,14.98,8.59,15,8.5,15z"/>
	</g>
</g>
<g id="Guide">
</g>
</svg>
