<?xml version="1.0" encoding="utf-8"?>
<!-- Generator: Adobe Illustrator 24.1.3, SVG Export Plug-In . SVG Version: 6.00 Build 0)  -->
<svg version="1.1" xmlns="http://www.w3.org/2000/svg" xmlns:xlink="http://www.w3.org/1999/xlink" x="0px" y="0px"
	 viewBox="0 0 24 24" style="enable-background:new 0 0 24 24;" xml:space="preserve">
<g id="Design_here">
	<g>
		<path d="M15.84,21.5c-0.63,0-1.3-0.08-1.99-0.23c-2.44-0.54-4.94-2-7.04-4.09C2.43,12.79,1.19,6.89,4.06,4.03
			C4.9,3.19,5.92,2.68,7.1,2.5C7.33,2.48,7.54,2.6,7.63,2.8l2.07,4.84c0.1,0.24,0,0.53-0.24,0.64L7.56,9.24l0,0
			C7.45,9.3,7.36,9.4,7.32,9.52C7.28,9.65,7.29,9.78,7.36,9.9c0.66,1.23,1.64,2.51,2.93,3.8c1.24,1.24,2.51,2.22,3.79,2.91
			c0.13,0.07,0.27,0.08,0.4,0.04c0.12-0.04,0.22-0.12,0.28-0.24l0.95-1.89c0.1-0.19,0.31-0.3,0.52-0.27l4.84,0.69
			c0.24,0.03,0.42,0.23,0.43,0.47c0.09,1.87-0.44,3.44-1.53,4.52C18.94,20.97,17.51,21.5,15.84,21.5z M6.87,3.56
			C6.06,3.75,5.36,4.14,4.76,4.74c-2.47,2.47-1.23,7.74,2.76,11.74c1.96,1.96,4.29,3.32,6.55,3.82c2.18,0.48,4.02,0.11,5.18-1.06
			c0.8-0.8,1.23-1.96,1.24-3.36l-4.06-0.58l-0.79,1.57c-0.18,0.36-0.49,0.62-0.87,0.75c-0.39,0.12-0.82,0.08-1.17-0.12
			c-1.37-0.74-2.72-1.78-4.02-3.08c-1.36-1.36-2.41-2.72-3.11-4.04c-0.19-0.36-0.23-0.77-0.1-1.16c0.12-0.38,0.39-0.69,0.75-0.87
			L8.6,7.6L6.87,3.56z M7.34,8.79L7.34,8.79L7.34,8.79z"/>
	</g>
	<g>
		<path d="M20.5,11h-7c-0.28,0-0.5-0.22-0.5-0.5v-7C13,3.22,13.22,3,13.5,3S14,3.22,14,3.5V10h6.5c0.28,0,0.5,0.22,0.5,0.5
			S20.78,11,20.5,11z"/>
	</g>
	<g>
		<path d="M13.5,11c-0.13,0-0.26-0.05-0.35-0.15c-0.2-0.2-0.2-0.51,0-0.71l7-7c0.2-0.2,0.51-0.2,0.71,0s0.2,0.51,0,0.71l-7,7
			C13.76,10.95,13.63,11,13.5,11z"/>
	</g>
</g>
<g id="Guide">
</g>
</svg>
