<svg xmlns="http://www.w3.org/2000/svg" width="128" height="128" viewBox="0 0 128 128">
  <title>Vr</title>
  <path d="M91.644,52.434a5.432,5.432,0,1,0,5.432,5.431A5.437,5.437,0,0,0,91.644,52.434Zm0,7.364a1.932,1.932,0,1,1,1.932-1.933A1.934,1.934,0,0,1,91.644,59.8Z"/>
  <path d="M77.859,52.434a5.432,5.432,0,1,0,5.433,5.431A5.438,5.438,0,0,0,77.859,52.434Zm0,7.364a1.932,1.932,0,1,1,1.933-1.933A1.935,1.935,0,0,1,77.859,59.8Z"/>
  <path d="M108.551,51.638H104.32A8.094,8.094,0,0,0,96.433,45.3h-9.2L84.75,39.887a7.563,7.563,0,0,0-6.868-4.416H50.115a7.563,7.563,0,0,0-6.865,4.411L40.76,45.3h-9.2a8.092,8.092,0,0,0-7.886,6.334H19.449a5.638,5.638,0,0,0-5.631,5.632V80a5.638,5.638,0,0,0,5.631,5.632h4.129a8.088,8.088,0,0,0,7.986,6.9H50.731a1.75,1.75,0,0,0,1.6-1.049l4-9.151H71.662l4,9.151a1.75,1.75,0,0,0,1.6,1.049H96.433a8.088,8.088,0,0,0,7.986-6.9h4.132A5.638,5.638,0,0,0,114.182,80V57.27A5.638,5.638,0,0,0,108.551,51.638Zm-62.119-10.3a4.057,4.057,0,0,1,3.683-2.368H77.882a4.056,4.056,0,0,1,3.685,2.372L83.386,45.3H44.611ZM17.318,80V57.27a2.134,2.134,0,0,1,2.131-2.132h4.032V82.13H19.449A2.134,2.134,0,0,1,17.318,80Zm83.7,4.448a4.588,4.588,0,0,1-4.583,4.583H78.41l-4-9.151a1.75,1.75,0,0,0-1.6-1.049H55.19a1.75,1.75,0,0,0-1.6,1.049l-4,9.151H31.564a4.588,4.588,0,0,1-4.583-4.583V53.388A4.588,4.588,0,0,1,31.564,48.8H96.433a4.588,4.588,0,0,1,4.583,4.584ZM110.682,80a2.134,2.134,0,0,1-2.131,2.132h-4.032V55.138h4.032a2.134,2.134,0,0,1,2.131,2.132Z"/>
</svg>
