<?xml version="1.0" encoding="utf-8"?>
<!-- Generator: Adobe Illustrator 28.4.1, SVG Export Plug-In . SVG Version: 6.00 Build 0)  -->
<svg version="1.0" id="Layer_1" xmlns="http://www.w3.org/2000/svg" xmlns:xlink="http://www.w3.org/1999/xlink" x="0px" y="0px"
	 viewBox="0 0 64 64" style="enable-background:new 0 0 64 64;" xml:space="preserve">
<style type="text/css">
	.st0{fill:none;stroke:#231F20;stroke-width:2;stroke-linecap:round;stroke-linejoin:round;stroke-miterlimit:10;}
</style>
<g>
	<path class="st0" d="M60.9,24.3v16.2c0,2.2-1.5,4-3.7,4.4l-9.6,1.7l-4.3,11.5C43.2,58.6,42.6,59,42,59h0c-0.9,0-1.6-0.8-1.4-1.7
		L44,44.5c0.3-1.3,1.4-2.2,2.8-2.4l6.2-1.3V28.2l-3,2.8c-0.7,0.6-1.6,1-2.5,1l-7.8,0c-0.8,0.1-1.4-0.6-1.4-1.4v0
		c0-0.7,0.5-1.3,1.2-1.3l7.9-0.8l3.7-4.5c1.2-1.4,2.9-2.2,4.7-2.2h2.7C59.8,21.8,60.9,22.9,60.9,24.3z"/>
	<circle class="st0" cx="56.6" cy="14.9" r="4.3"/>
	<path class="st0" d="M16.1,38.3h31.1c0.9,0,1.6-0.7,1.6-1.6v0c0-0.9-0.7-1.6-1.6-1.6H16.1c-0.9,0-1.6,0.7-1.6,1.6v0
		C14.5,37.6,15.2,38.3,16.1,38.3z"/>
	<path class="st0" d="M3.1,24.3v16.2c0,2.2,1.5,4,3.7,4.4l9.6,1.7l4.3,11.5c0.2,0.6,0.7,0.9,1.3,0.9h0c0.9,0,1.6-0.8,1.4-1.7
		L20,44.5c-0.3-1.3-1.4-2.2-2.8-2.4l-6.2-1.3V28.2l3,2.8c0.7,0.6,1.6,1,2.5,1l7.8,0c0.8,0.1,1.4-0.6,1.4-1.4v0
		c0-0.7-0.5-1.3-1.2-1.3l-7.9-0.8L13.1,24c-1.2-1.4-2.9-2.2-4.7-2.2H5.6C4.2,21.8,3.1,22.9,3.1,24.3z"/>
	<circle class="st0" cx="7.4" cy="14.9" r="4.3"/>
	<path class="st0" d="M25.9,24.9v-4.4c0-3.4,2.7-6.1,6.1-6.1h0c3.4,0,6.1,2.7,6.1,6.1v4.4"/>
	<circle class="st0" cx="32" cy="9.6" r="4.7"/>
	<path class="st0" d="M38.2,22.7c0-2.9,2.3-5.2,5.2-5.2h0c2.9,0,5.2,2.3,5.2,5.2"/>
	<circle class="st0" cx="43.4" cy="13.6" r="3.9"/>
	<path class="st0" d="M15.4,22.7c0-2.9,2.3-5.2,5.2-5.2h0c2.9,0,5.2,2.3,5.2,5.2"/>
	<circle class="st0" cx="20.6" cy="13.6" r="3.9"/>
</g>
</svg>
