<svg id="Capa_1" enable-background="new 0 0 512 512" height="512" viewBox="0 0 512 512" width="512" xmlns="http://www.w3.org/2000/svg"><g><path d="m506.059 178.275-172.33-172.329c-3.835-3.834-8.933-5.946-14.355-5.946-5.423 0-10.521 2.112-14.354 5.946l-299.069 299.07c-3.835 3.834-5.946 8.932-5.946 14.355 0 5.422 2.112 10.52 5.946 14.354l172.329 172.329c3.835 3.835 8.932 5.946 14.355 5.946s10.521-2.112 14.354-5.946l207.577-207.576c3.913-3.913 3.913-10.257 0-14.17-3.914-3.913-10.256-3.913-14.17 0l-207.577 207.577c-.061.061-.307.061-.368 0l-141.629-141.629 299.439-299.438 141.628 141.628c.102.101.102.267 0 .368l-26.936 26.936c-3.913 3.913-3.913 10.257 0 14.17 3.914 3.914 10.256 3.913 14.17 0l26.936-26.936c7.915-7.915 7.915-20.793 0-28.709zm-469.407 157.811-16.532-16.532c-.03-.031-.076-.076-.076-.184s.046-.154.077-.184l299.07-299.07c.06-.062.308-.06.369 0l16.532 16.532z"/><path d="m444.018 188.476c-10.739-20.518-24.531-39.161-40.994-55.412-15.766-15.563-33.72-28.666-53.365-38.947-3.882-2.032-8.633-1.305-11.731 1.792l-241.619 241.62c-3.054 3.054-3.807 7.72-1.87 11.58 10.533 20.984 24.359 39.949 41.094 56.367 15.75 15.452 33.748 28.311 53.494 38.221 1.428.717 2.965 1.065 4.491 1.065 2.599 0 5.164-1.011 7.088-2.935l241.621-241.62c3.097-3.098 3.824-7.849 1.791-11.731zm-246.465 228.065-11.476-31.492c10.302 5.176 21.597 7.84 32.972 7.84.731 0 1.462-.015 2.193-.037zm170.595-219.364c.107.266.223.525.35.778 5.003 11.655 5.728 24.786 1.901 37.028l-67.247-67.247c18.703-5.845 39.486-1.064 53.898 13.35 4.768 4.767 8.473 10.235 11.098 16.091zm-198.07 143.965c-.009-.014-2.681-7.377-2.777-7.609-2.77-9.868-2.676-20.42.439-30.385l67.247 67.247c-18.704 5.845-39.486 1.064-53.898-13.349-4.716-4.717-8.391-10.119-11.011-15.904zm114.549-163.592 75.958 75.958-107.072 107.073-75.958-75.958zm32.26-32.259 23.8-23.8 11.472 31.634c-10.992-5.543-23.123-8.199-35.272-7.834zm-201.195 201.194 29.603-29.603c-.329 10.936 1.787 21.859 6.257 31.949l22.949 62.978c-8.861-6.156-17.2-13.049-24.935-20.637-13.446-13.191-24.817-28.197-33.874-44.687zm277.153-125.236c.328-10.913-1.777-21.812-6.226-31.884l-22.923-63.211c8.963 6.353 17.405 13.426 25.251 21.171 13.249 13.077 24.598 27.859 33.806 44.016z"/><path d="m318.076 267.679c3.785-3.785 5.869-8.818 5.869-14.17 0-5.353-2.084-10.385-5.869-14.17l-19.279-19.279c-3.785-3.785-8.817-5.869-14.17-5.869s-10.386 2.084-14.17 5.869l-50.393 50.393c-7.813 7.814-7.813 20.526 0 28.34l19.279 19.279c3.907 3.906 9.038 5.859 14.169 5.859s10.263-1.953 14.17-5.859zm-64.564 36.223-19.278-19.279 50.393-50.393 19.279 19.278-50.384 50.402s-.004-.002-.01-.008z"/><circle cx="439.703" cy="259.169" r="10.02"/></g></svg>