<svg xmlns="http://www.w3.org/2000/svg" width="128" height="128" viewBox="0 0 128 128">
  <title>SCISSORS</title>
  <g>
    <path d="M58.5,90.23a9.834,9.834,0,1,0,12.044-6.953A9.847,9.847,0,0,0,58.5,90.23Zm11.138-3.572A6.328,6.328,0,1,1,68,86.441,6.341,6.341,0,0,1,69.641,86.658Z"/>
    <path d="M110.321,43.381a1.749,1.749,0,0,0-2.144-1.241L77.9,50.249,86.01,19.973a1.751,1.751,0,0,0-1.245-2.146,15.141,15.141,0,0,0-3.845-.507,14.855,14.855,0,0,0-14.32,11l-7.21,26.89-6.284,1.683c-.086-.477-.192-.949-.315-1.412A18.05,18.05,0,1,0,40.033,77.56l14.4-3.859L50.58,88.106a18.04,18.04,0,1,0,34.851,9.337v0A18.073,18.073,0,0,0,72.667,75.349c-.466-.124-.939-.23-1.416-.316l1.689-6.29,26.884-7.2a14.806,14.806,0,0,0,10.5-18.159ZM71.767,78.73A14.54,14.54,0,1,1,53.96,89.013l4.379-16.354L69.033,69.8l-1.683,6.27a1.751,1.751,0,0,0,1.574,2.2A14.992,14.992,0,0,1,71.767,78.73ZM63.294,54.157,69.98,29.223a11.35,11.35,0,0,1,10.94-8.4,10.93,10.93,0,0,1,1.221.069L73.993,51.3l-7.022,1.88Zm35.623,4L39.127,74.18a14.536,14.536,0,1,1,10.282-17.8,14.934,14.934,0,0,1,.465,2.837,1.75,1.75,0,0,0,2.2,1.573l17.254-4.621,6.544-1.748c.012,0,.022-.011.034-.014l31.357-8.4a10.98,10.98,0,0,1,.067,1.212A11.354,11.354,0,0,1,98.917,58.159Z"/>
    <path d="M32.823,50.643h0A9.833,9.833,0,1,0,44.866,57.6,9.845,9.845,0,0,0,32.822,50.643Zm8.029,12.665a6.333,6.333,0,1,1-7.123-9.285h0a6.334,6.334,0,0,1,7.124,9.285Z"/>
    <path d="M66.361,59.734A2.038,2.038,0,1,0,68.4,61.772,2.038,2.038,0,0,0,66.361,59.734Z"/>
  </g>
</svg>
