<?xml version="1.0" encoding="UTF-8" standalone="no"?>
<!DOCTYPE svg PUBLIC "-//W3C//DTD SVG 1.1//EN" "http://www.w3.org/Graphics/SVG/1.1/DTD/svg11.dtd">
<svg width="100%" height="100%" viewBox="0 0 48 48" version="1.1" xmlns="http://www.w3.org/2000/svg" xmlns:xlink="http://www.w3.org/1999/xlink" xml:space="preserve" xmlns:serif="http://www.serif.com/" style="fill-rule:evenodd;clip-rule:evenodd;stroke-linejoin:round;stroke-miterlimit:2;">
    <g transform="matrix(1,0,0,1,-146,-10)">
        <g id="DesignHere">
            <path d="M149.293,22.293L149.273,22.314L149.26,22.327L149.254,22.335L149.242,22.348C149.1,22.513 149.011,22.725 149.001,22.957L149.001,22.962C149,22.977 149,22.992 149,23.007L149,51C149,51.552 149.448,52 150,52L190,52C190.552,52 191,51.552 191,51L191,23.007C191,22.992 191,22.977 190.999,22.962L190.999,22.957C190.989,22.725 190.9,22.513 190.758,22.348L190.746,22.334L190.733,22.32L190.72,22.306L190.707,22.293C190.707,22.293 184.707,16.293 184.707,16.293C184.52,16.105 184.265,16 184,16L156,16C155.735,16 155.48,16.105 155.293,16.293L149.293,22.293ZM189,24L189,50C189,50 151,50 151,50L151,24L189,24ZM185,42C185,40.896 184.104,40 183,40C183,40 176,40 176,40C174.896,40 174,40.896 174,42C174,42 174,44 174,44C174,45.104 174.896,46 176,46L183,46C184.104,46 185,45.104 185,44L185,42ZM183,42L183,44C183,44 176,44 176,44C176,44 176,42 176,42L183,42ZM169,18L169,22L152.414,22C152.414,22 156.414,18 156.414,18L169,18ZM171,18L183.586,18L187.586,22L171,22L171,18Z"/>
        </g>
    </g>
</svg>
