<?xml version="1.0" encoding="utf-8"?>
<!-- Generator: Adobe Illustrator 23.0.6, SVG Export Plug-In . SVG Version: 6.00 Build 0)  -->
<svg version="1.1" id="Layer_1" xmlns="http://www.w3.org/2000/svg" xmlns:xlink="http://www.w3.org/1999/xlink" x="0px" y="0px"
	 viewBox="0 0 128 128" style="enable-background:new 0 0 128 128;" xml:space="preserve">
<title>COOPERATION</title>
<path d="M22.2,87.9h12.9c1,0,1.8-0.8,1.8-1.8v-2.3h9c0.6,0,1.2,0.2,1.7,0.7c0.1,0.1-1.1-1.1,11.9,11.9c2,2,5.4,2.1,7.5,0
	c0.7-0.7,1.2-1.5,1.5-2.5c3,0.7,4.8-1.4,4.9-1.4c0.1-0.1,1.5-1.3,1.6-3.5c1.4-0.1,2.8-0.8,3.5-1.6c0.1-0.1,1.5-1.3,1.6-3.5
	c1-0.1,1-0.3,1.7-0.3h9v2.3c0,1,0.8,1.8,1.8,1.8h12.9c1,0,1.7-0.8,1.8-1.8V48.1c0-1-0.8-1.7-1.8-1.8H92.5c-1,0-1.8,0.8-1.8,1.8l0,0
	v3H70.5c-2,0-4,0.9-4.9,1.8c-0.2,0.2-2,2-1.9,1.9l-1.3-1.3c-1.4-1.4-3.3-2.2-5.3-2.2H36.8v-3c0-1-0.8-1.8-1.8-1.8H22.2
	c-1,0-1.7,0.8-1.8,1.8v37.8C20.4,87.1,21.2,87.9,22.2,87.9z M94.2,49.9h9.4v34.3h-9.4V49.9z M67.7,55.7c0.7-0.7,1.7-1.1,2.7-1.1
	h20.2l0,25.5h-5.8c0.6-1.8,0.2-3.9-1.3-5.4l-5.4-5.4c1.5-0.4,2.9-1.2,4-2.3c0.7-0.7,0.7-1.8,0-2.5c-0.7-0.7-1.8-0.7-2.5,0
	c-1.4,1.4-3.3,1.9-5.2,1.4h0h0c-0.9-0.2-1.6-0.7-2.3-1.3c-0.7-0.8-1.8-0.8-2.4-0.2c-0.2,0.2-1.9,1.9-2.9,2.9
	c-3.2,3.2-8.2,3.7-11.9,1.1L67.7,55.7z M36.9,54.9h20.2c1.1,0,2.1,0.4,2.8,1.2l1.3,1.3L51.1,67.4c-0.7,0.7-0.7,1.8,0,2.5
	c0,0,0,0,0,0c5,5,13.2,5,18.2,0l1.7-1.7c0.7,0.4,1.4,0.8,2.1,1l8,8c0.7,0.7,0.7,1.9,0,2.6c-1.2,1.2-2.6,0.2-2.7,0.1
	c-1.3-1.3-5.4-5.4-5.4-5.4c-0.7-0.7-1.8-0.7-2.5,0c-0.7,0.7-0.7,1.8,0,2.4c0.1,0.1,5.8,5.8,5.4,5.4c0.6,0.6,0.8,1.8-0.1,2.6
	c-0.8,0.8-1.9,0.7-2.6,0v0l-5.4-5.4c-0.7-0.7-1.8-0.7-2.5,0s-0.7,1.8,0,2.5c0.1,0.1,5.8,5.8,5.4,5.4c0.6,0.6,0.8,1.7,0,2.6
	c-0.8,0.9-2,0.7-2.6,0.1l-5.4-5.4c-0.7-0.7-1.8-0.7-2.5,0c-0.7,0.7-0.7,1.8,0,2.4l4.2,4.2l0,0c0.6,0.6,0.8,1.7-0.1,2.6
	c-0.7,0.7-1.8,0.8-2.6,0L50,82.1c-1.1-1.1-2.6-1.7-4.2-1.7h-9L36.9,54.9z M23.9,50.1h9.4v34.3h-9.4V50.1z"/>
</svg>
