<svg xmlns="http://www.w3.org/2000/svg" width="128" height="128" viewBox="0 0 128 128">
  <title>TRAFFIC CONE</title>
  <path d="M98.159,91.413H96.738L90.968,75.5,87.306,65.384l-.01-.017L78.275,40.481,77.016,37l0,0L71.845,22.743a8.347,8.347,0,0,0-15.69,0L50.987,37l0,0-1.259,3.477L40.7,65.367l-.01.017L37.032,75.5l-5.77,15.916H29.841a9.542,9.542,0,0,0-9.531,9.531v.275a9.542,9.542,0,0,0,9.531,9.531H98.159a9.541,9.541,0,0,0,9.53-9.531v-.275A9.541,9.541,0,0,0,98.159,91.413ZM88.475,78.89H39.525l.8-2.215L43.57,67.73H84.43l3.242,8.945ZM48.544,54.01H79.456l3.7,10.22H44.839Zm5.314-14.66H74.142l.2.564,3.838,10.6H49.815l3.838-10.6Zm5.587-15.414a4.848,4.848,0,0,1,9.11,0L72.874,35.85H55.126ZM38.256,82.39H89.744l3.27,9.02H34.986Zm65.933,18.829a6.038,6.038,0,0,1-6.03,6.031H29.841a6.038,6.038,0,0,1-6.031-6.031v-.275a6.038,6.038,0,0,1,6.031-6.031H98.159a6.038,6.038,0,0,1,6.03,6.031Z"/>
</svg>
