<svg xmlns="http://www.w3.org/2000/svg" width="24" height="24" viewBox="0 0 24 24">
  <g>
    <path d="M6.646,8.646a.5.5,0,0,0,.708.708.913.913,0,0,1,1.292,0,.5.5,0,0,0,.708-.708A1.918,1.918,0,0,0,6.646,8.646Z"/>
    <path d="M15.354,9.354a.915.915,0,0,1,1.292,0,.5.5,0,0,0,.708-.708,1.918,1.918,0,0,0-2.708,0,.5.5,0,0,0,.708.708Z"/>
    <path d="M12.218,12.446l-.665,1.33a.5.5,0,1,0,.894.448l.665-1.33a1.4,1.4,0,0,0-.171-1.463A5.683,5.683,0,0,1,12.5,9a.5.5,0,0,0-1,0,6.594,6.594,0,0,0,.631,3.016A.446.446,0,0,1,12.218,12.446Z"/>
    <path d="M15.354,15.65a.5.5,0,0,0-.7-.006A3.9,3.9,0,0,1,12,16.5a3.9,3.9,0,0,1-2.649-.856.5.5,0,0,0-.7.71A4.875,4.875,0,0,0,12,17.5a4.875,4.875,0,0,0,3.354-1.146A.5.5,0,0,0,15.354,15.65Z"/>
    <path d="M3.5,9A.5.5,0,0,0,4,8.5v-4A.5.5,0,0,1,4.5,4h4a.5.5,0,0,0,0-1h-4A1.5,1.5,0,0,0,3,4.5v4A.5.5,0,0,0,3.5,9Z"/>
    <path d="M8.5,20h-4a.5.5,0,0,1-.5-.5v-4a.5.5,0,0,0-1,0v4A1.5,1.5,0,0,0,4.5,21h4a.5.5,0,0,0,0-1Z"/>
    <path d="M19.5,3h-4a.5.5,0,0,0,0,1h4a.5.5,0,0,1,.5.5v4a.5.5,0,0,0,1,0v-4A1.5,1.5,0,0,0,19.5,3Z"/>
    <path d="M20.5,15a.5.5,0,0,0-.5.5v4a.5.5,0,0,1-.5.5h-4a.5.5,0,0,0,0,1h4A1.5,1.5,0,0,0,21,19.5v-4A.5.5,0,0,0,20.5,15Z"/>
  </g>
</svg>
