<svg xmlns="http://www.w3.org/2000/svg" width="128" height="128" viewBox="0 0 128 128">
  <title>NOTICEBOARD</title>
  <g>
    <path d="M98.119,25.9H29.881A12.646,12.646,0,0,0,17.25,38.529V89.471A12.646,12.646,0,0,0,29.881,102.1H98.119A12.646,12.646,0,0,0,110.75,89.471V38.529A12.646,12.646,0,0,0,98.119,25.9Zm9.131,63.573A9.142,9.142,0,0,1,98.119,98.6H29.881a9.142,9.142,0,0,1-9.131-9.131V38.529A9.142,9.142,0,0,1,29.881,29.4H98.119a9.142,9.142,0,0,1,9.131,9.131Z"/>
    <path d="M97.175,33.9H30.825a5.582,5.582,0,0,0-5.575,5.576V88.526A5.582,5.582,0,0,0,30.825,94.1h66.35a5.582,5.582,0,0,0,5.575-5.576V39.474A5.582,5.582,0,0,0,97.175,33.9ZM99.25,88.526A2.078,2.078,0,0,1,97.175,90.6H30.825a2.078,2.078,0,0,1-2.075-2.076V39.474A2.078,2.078,0,0,1,30.825,37.4h66.35a2.078,2.078,0,0,1,2.075,2.076Z"/>
    <path d="M56.57,49.7h-3.5v-.39a3.654,3.654,0,0,0-3.65-3.65H46.3a3.654,3.654,0,0,0-3.65,3.65v.39h-3.5a3.464,3.464,0,0,0-3.46,3.46V74.84a3.464,3.464,0,0,0,3.46,3.46H56.57a3.464,3.464,0,0,0,3.46-3.46V53.16A3.464,3.464,0,0,0,56.57,49.7Zm-10.42-.39a.156.156,0,0,1,.15-.15h3.12a.149.149,0,0,1,.15.15v4.28a.15.15,0,0,1-.15.15H46.3a.156.156,0,0,1-.15-.15ZM39.19,74.84,39.15,53.2h3.5v.39a3.654,3.654,0,0,0,3.65,3.65h3.12a3.654,3.654,0,0,0,3.65-3.65v-.4l3.46-.027.04,21.64Z"/>
    <path d="M88.877,46.961h-3.5v-.39a3.654,3.654,0,0,0-3.65-3.65h-3.12a3.654,3.654,0,0,0-3.65,3.65v.39h-3.5A3.464,3.464,0,0,0,68,50.421v31.2a3.464,3.464,0,0,0,3.46,3.46h17.42a3.465,3.465,0,0,0,3.461-3.46v-31.2A3.465,3.465,0,0,0,88.877,46.961Zm-10.42-.39a.156.156,0,0,1,.15-.15h3.12a.149.149,0,0,1,.15.15v4.28a.149.149,0,0,1-.15.15h-3.12a.156.156,0,0,1-.15-.15ZM71.5,81.619l-.04-31.158h3.5v.39a3.654,3.654,0,0,0,3.65,3.65h3.12a3.654,3.654,0,0,0,3.65-3.65v-.4l3.461-.027.039,31.158Z"/>
    <path d="M52.138,60.938H43.583a1.75,1.75,0,0,0,0,3.5h8.555a1.75,1.75,0,0,0,0-3.5Z"/>
    <path d="M52.138,67.6H43.583a1.75,1.75,0,0,0,0,3.5h8.555a1.75,1.75,0,1,0,0-3.5Z"/>
    <path d="M84.444,65.168H75.89a1.75,1.75,0,1,0,0,3.5h8.554a1.75,1.75,0,1,0,0-3.5Z"/>
    <path d="M84.444,57.657H75.89a1.75,1.75,0,0,0,0,3.5h8.554a1.75,1.75,0,0,0,0-3.5Z"/>
    <path d="M84.444,72.679H75.89a1.75,1.75,0,0,0,0,3.5h8.554a1.75,1.75,0,0,0,0-3.5Z"/>
  </g>
</svg>
