<svg xmlns="http://www.w3.org/2000/svg" width="128" height="128" viewBox="0 0 128 128">
  <title>STICKY NOTES</title>
  <g>
    <path d="M109,82.24h-7.83V22.25a1.749,1.749,0,0,0-1.75-1.75H29.89a1.749,1.749,0,0,0-1.75,1.75v9.13H19.01a1.749,1.749,0,0,0-1.75,1.75v71.33a1.749,1.749,0,0,0,1.75,1.75H88.54a1.749,1.749,0,0,0,1.75-1.75V95.33h9.13a11.348,11.348,0,0,0,11.33-11.34A1.749,1.749,0,0,0,109,82.24ZM31.64,24H97.67V82.24H49.05a1.749,1.749,0,0,0-1.75,1.75,7.83,7.83,0,1,1-15.66,0Zm55.15,78.71H20.76V34.88h7.38V83.99A11.348,11.348,0,0,0,39.47,95.33H86.79ZM99.42,91.83H47.648a11.312,11.312,0,0,0,3.017-6.09h56.389A7.847,7.847,0,0,1,99.42,91.83Z"/>
    <path d="M40.769,36.274H88.54a1.75,1.75,0,0,0,0-3.5H40.769a1.75,1.75,0,0,0,0,3.5Z"/>
    <path d="M88.54,44.886H81.019a1.75,1.75,0,0,0,0,3.5H88.54a1.75,1.75,0,0,0,0-3.5Z"/>
    <path d="M40.769,48.386h28.2a1.75,1.75,0,0,0,0-3.5h-28.2a1.75,1.75,0,0,0,0,3.5Z"/>
    <path d="M88.54,57H60.507a1.75,1.75,0,1,0,0,3.5H88.54a1.75,1.75,0,0,0,0-3.5Z"/>
    <path d="M40.769,60.5H49.3a1.75,1.75,0,0,0,0-3.5H40.769a1.75,1.75,0,1,0,0,3.5Z"/>
    <path d="M88.54,69.109H81.019a1.75,1.75,0,0,0,0,3.5H88.54a1.75,1.75,0,0,0,0-3.5Z"/>
    <path d="M40.769,72.609H67.908a1.75,1.75,0,0,0,0-3.5H40.769a1.75,1.75,0,1,0,0,3.5Z"/>
  </g>
</svg>
