<svg xmlns="http://www.w3.org/2000/svg" width="24" height="24" viewBox="0 0 24 24">
  <g>
    <path d="M16.243,5.636a1.5,1.5,0,1,0,2.121,0A1.537,1.537,0,0,0,16.243,5.636ZM17.657,7.05h0a.509.509,0,0,1-.706,0,.5.5,0,1,1,.707,0Z"/>
    <path d="M19.778,4.222a5.485,5.485,0,0,0-8.909,6.08L2.454,18.718a.5.5,0,0,0,.255.844l3.536.707a.55.55,0,0,0,.1.009.5.5,0,0,0,.354-.146l1.06-1.061,1.061,1.061a.5.5,0,0,0,.707,0l1.414-1.415a.5.5,0,0,0,0-.707L9.878,16.95l.708-.708.353.354a.5.5,0,0,0,.707-.707l-.353-.354,2.405-2.4a5.485,5.485,0,0,0,6.08-8.909Zm-.707,7.071a4.474,4.474,0,0,1-5.246.79.5.5,0,0,0-.584.091L8.818,16.6a.5.5,0,0,0,0,.707l1.061,1.061-.708.707L8.111,18.01a.516.516,0,0,0-.707,0L6.179,19.235l-2.357-.471,8-8a.5.5,0,0,0,.091-.584,4.489,4.489,0,1,1,7.154,1.118Z"/>
  </g>
</svg>
