<?xml version="1.0" encoding="UTF-8"?>
<svg id="Expanded" xmlns="http://www.w3.org/2000/svg" viewBox="0 0 64 64">
  <path d="M57.17,9.06c-.54-.3-1.04-.59-1.34-.89-.29-.3-.58-.8-.89-1.34-.65-1.15-1.46-2.58-2.94-2.58-1.24,0-2.01,1-2.61,2h-28.39c-2.62,0-4.75,2.13-4.75,4.75v1.25h-1.25c-2.62,0-4.75,2.13-4.75,4.75v1.25h-1.25c-2.62,0-4.75,2.13-4.75,4.75v32c0,2.62,2.13,4.75,4.75,4.75h32c2.62,0,4.75-2.13,4.75-4.75v-1.25h1.25c2.62,0,4.75-2.13,4.75-4.75v-1.25h1.25c2.62,0,4.75-2.13,4.75-4.75V14.61c1-.6,2-1.36,2-2.61,0-1.49-1.43-2.3-2.58-2.94ZM44.25,55c0,1.79-1.46,3.25-3.25,3.25H9c-1.79,0-3.25-1.46-3.25-3.25V23c0-1.79,1.46-3.25,3.25-3.25h1.25v29.25c0,2.62,2.13,4.75,4.75,4.75h29.25v1.25ZM50.25,49c0,1.79-1.46,3.25-3.25,3.25H15c-1.79,0-3.25-1.46-3.25-3.25V17c0-1.79,1.46-3.25,3.25-3.25h1.25v29.25c0,2.62,2.13,4.75,4.75,4.75h29.25v1.25ZM56.25,43c0,1.79-1.46,3.25-3.25,3.25H21c-1.79,0-3.25-1.46-3.25-3.25V11c0-1.79,1.46-3.25,3.25-3.25h27.5c-.11.16-.22.31-.33.42-.3.29-.8.58-1.34.89-.94.53-2.05,1.17-2.43,2.19h-20.4c-1.52,0-2.75,1.23-2.75,2.75v26c0,1.52,1.23,2.75,2.75,2.75h26c1.52,0,2.75-1.23,2.75-2.75v-20.4c1.02-.38,1.67-1.49,2.19-2.43.3-.54.59-1.04.89-1.34.11-.11.26-.22.42-.33v27.5ZM22.75,35.32v-2.49l28.5,2.85v2.49l-28.5-2.85ZM51.25,39.68v.32c0,.69-.56,1.25-1.25,1.25h-26c-.69,0-1.25-.56-1.25-1.25v-3.17l28.5,2.85ZM22.75,31.32v-.97l9.24-7.56c.52-.43,1.28-.37,1.73.14l6.72,7.56c.27.31.75.34,1.06.06.31-.28.34-.75.06-1.06l-2.57-2.89,3.1-2.78c.5-.44,1.25-.42,1.72.04l7.44,7.44v2.86l-28.5-2.85ZM44.87,22.81c-1.03-1.03-2.69-1.08-3.78-.1l-3.09,2.78-3.16-3.55c-.98-1.11-2.65-1.24-3.8-.3l-8.29,6.78v-8.53c.12.01.24.03.37.03,1.13,0,2.45-.43,3.25-1.88.65.28,1.62.54,2.55.22.5-.17,1.16-.58,1.61-1.55.7-.09,1.93-.4,2.71-1.4.53-.68.75-1.54.65-2.56h10.52c.38,1.02,1.49,1.67,2.43,2.19.54.3,1.04.59,1.34.89.29.3.58.8.89,1.34.53.94,1.17,2.05,2.19,2.43v9.59l-6.38-6.38ZM22.75,18.4v-4.4c0-.69.56-1.25,1.25-1.25h8.37c.09.69-.02,1.24-.32,1.63-.65.84-2.04.87-2.05.87-.32,0-.61.21-.71.51-.2.59-.48.94-.86,1.07-.7.24-1.69-.25-2.01-.46-.19-.13-.44-.16-.66-.09-.22.08-.39.25-.47.47-.54,1.63-1.8,1.74-2.54,1.64ZM56.43,13.64c-.6.34-1.22.69-1.66,1.13s-.79,1.06-1.13,1.66c-.5.89-1.03,1.82-1.64,1.82s-1.13-.92-1.64-1.82c-.34-.6-.69-1.22-1.13-1.66s-1.06-.79-1.66-1.13c-.89-.5-1.82-1.03-1.82-1.64s.92-1.13,1.82-1.64c.6-.34,1.22-.69,1.66-1.13s.79-1.06,1.13-1.66c.5-.89,1.03-1.82,1.64-1.82s1.13.92,1.64,1.82c.34.6.69,1.22,1.13,1.66s1.06.79,1.66,1.13c.89.5,1.82,1.03,1.82,1.64s-.92,1.13-1.82,1.64Z"/>
  <path d="M54,11.25h-1.25v-1.25c0-.41-.34-.75-.75-.75s-.75.34-.75.75v1.25h-1.25c-.41,0-.75.34-.75.75s.34.75.75.75h1.25v1.25c0,.41.34.75.75.75s.75-.34.75-.75v-1.25h1.25c.41,0,.75-.34.75-.75s-.34-.75-.75-.75Z"/>
  <path d="M38,14.25c-1.52,0-2.75,1.23-2.75,2.75s1.23,2.75,2.75,2.75,2.75-1.23,2.75-2.75-1.23-2.75-2.75-2.75ZM38,18.25c-.69,0-1.25-.56-1.25-1.25s.56-1.25,1.25-1.25,1.25.56,1.25,1.25-.56,1.25-1.25,1.25Z"/>
</svg>