<svg xmlns="http://www.w3.org/2000/svg" width="128" height="128" viewBox="0 0 128 128">
  <title>SOLUTION</title>
  <g>
    <path d="M111.823,87.605a6.152,6.152,0,0,0-7.193-4.855L83.558,86.772a7.077,7.077,0,0,0-1.745-2.9,6.985,6.985,0,0,0-4.94-2.04H70.4a6.467,6.467,0,0,1-3.328-.928,7.556,7.556,0,0,1-2.541-2.532A9.826,9.826,0,0,0,56.115,73.7H42.46V69.171a1.749,1.749,0,0,0-1.75-1.75H19.871a1.749,1.749,0,0,0-1.75,1.75v39.463a1.749,1.749,0,0,0,1.75,1.75H40.71a1.749,1.749,0,0,0,1.75-1.75v-4.721l26.012,3.807a22.383,22.383,0,0,0,3.227.234,22.636,22.636,0,0,0,8.271-1.571l28.189-12.132A6,6,0,0,0,111.823,87.605ZM38.96,106.884H21.621V70.921H38.96v35.963Zm67.866-15.869-.034.014L78.64,103.147a19.049,19.049,0,0,1-9.663,1.11L42.46,100.376V77.2H56.115a6.35,6.35,0,0,1,5.439,3.022,11.077,11.077,0,0,0,3.725,3.7A9.961,9.961,0,0,0,70.4,85.336h6.475a3.482,3.482,0,0,1,3.423,2.8,1.747,1.747,0,0,0-.141.687,3.5,3.5,0,0,1-3.5,3.494H54.139a1.75,1.75,0,0,0,0,3.5H76.66a7,7,0,0,0,6.823-5.472l21.769-4.154a2.673,2.673,0,0,1,3.124,2.018A2.525,2.525,0,0,1,106.826,91.015Z"/>
    <path d="M69.249,58.722c.214.213.429.414.629.579a3.182,3.182,0,0,1,1.152,2.39v4.915a7.6,7.6,0,0,0,7.587,7.587h5.895A7.6,7.6,0,0,0,92.1,66.606V61.691a3.011,3.011,0,0,1,1.038-2.3c.24-.2.481-.422.7-.632a17.932,17.932,0,1,0-24.59-.039ZM88.6,66.606a4.091,4.091,0,0,1-4.086,4.087H78.617a4.091,4.091,0,0,1-4.087-4.087V63.638H88.6ZM80.532,31.314a14.421,14.421,0,0,1,10.905,24.9c-.183.175-.377.35-.574.516a6.479,6.479,0,0,0-2.082,3.408H74.338a6.854,6.854,0,0,0-2.2-3.514,6.007,6.007,0,0,1-.449-.416A14.394,14.394,0,0,1,67.146,45.06,14.579,14.579,0,0,1,80.532,31.314Z"/>
    <path d="M54.133,46.792h3.525a1.75,1.75,0,0,0,0-3.5H54.133a1.75,1.75,0,0,0,0,3.5Z"/>
    <path d="M105.47,46.792H109a1.75,1.75,0,0,0,0-3.5H105.47a1.75,1.75,0,0,0,0,3.5Z"/>
    <path d="M62.52,29.111A1.75,1.75,0,1,0,65,26.637L62.5,24.145a1.75,1.75,0,0,0-2.475,2.474Z"/>
    <path d="M81.564,24.274a1.749,1.749,0,0,0,1.75-1.75V19a1.75,1.75,0,0,0-3.5,0v3.524A1.75,1.75,0,0,0,81.564,24.274Z"/>
    <path d="M99.37,29.624a1.741,1.741,0,0,0,1.237-.513l2.493-2.492a1.75,1.75,0,1,0-2.475-2.474l-2.492,2.492a1.75,1.75,0,0,0,1.237,2.987Z"/>
    <path d="M80.327,50.15a1.749,1.749,0,0,0,2.475,0l6.407-6.408a1.75,1.75,0,0,0-2.475-2.474l-5.17,5.171L78.5,43.372a1.75,1.75,0,0,0-2.475,2.475Z"/>
  </g>
</svg>
