<?xml version="1.0" encoding="UTF-8"?>
<svg id="Outline" xmlns="http://www.w3.org/2000/svg" viewBox="0 0 96 96">
  <path d="M39.862,24.536c2.185,0,3.963-1.777,3.963-3.962s-1.778-3.963-3.963-3.963-3.962,1.777-3.962,3.963,1.777,3.962,3.962,3.962ZM39.862,18.611c1.083,0,1.963.881,1.963,1.963s-.88,1.962-1.963,1.962-1.962-.88-1.962-1.962.88-1.963,1.962-1.963ZM56.138,24.536c2.185,0,3.962-1.777,3.962-3.962s-1.777-3.963-3.962-3.963-3.963,1.777-3.963,3.963,1.778,3.962,3.963,3.962ZM56.138,18.611c1.082,0,1.962.881,1.962,1.963s-.88,1.962-1.962,1.962-1.963-.88-1.963-1.962.88-1.963,1.963-1.963ZM42.992,30.951c.656,2.346,2.268,3.691,3.504,4.408.159.092.333.146.504.207v1.044c0,1.389-1.129,2.518-2.518,2.518s-2.518-1.129-2.518-2.518c0-.553-.448-1-1-1s-1,.447-1,1c0,2.002,1.317,3.684,3.124,4.275v2.609c0,2.667,2.17,4.837,4.837,4.837s4.837-2.17,4.837-4.837v-2.563c1.883-.545,3.271-2.265,3.271-4.321,0-.553-.448-1-1-1s-1,.447-1,1c0,1.389-1.129,2.518-2.518,2.518s-2.518-1.129-2.518-2.518v-.984c.258-.081.508-.191.739-.34,1.416-.913,2.519-2.353,3.191-4.164.299-.808.248-1.717-.143-2.494-.394-.784-1.1-1.374-1.937-1.619-2.358-.693-4.46-.325-5.808.108h0c-1.58.508-2.499,2.228-2.05,3.834ZM50.764,41.052v2.442c0,1.564-1.273,2.837-2.837,2.837s-2.837-1.272-2.837-2.837v-2.427c1.178-.16,2.203-.769,2.911-1.656.679.851,1.646,1.452,2.764,1.642ZM45.653,29.021c1.082-.347,2.764-.643,4.634-.094.312.091.564.304.712.598.145.287.164.607.055.901-.363.978-1.074,2.323-2.399,3.178-.345.222-.798.232-1.156.024-.916-.53-2.106-1.519-2.582-3.217-.163-.584.167-1.208.735-1.391ZM90.35,64.451l-7.441-13.141c-.177-.313-.51-.507-.87-.507h-13.596c-.546-2.633-1.271-5.268-2.168-7.854,1.188-1.91,1.464-3.725,1.481-3.847.19-1.516.325-2.96.431-4.361.371.31.752.599,1.148.849.605.382,1.281.569,1.954.569.884,0,1.763-.323,2.472-.954,5.138-4.574,7.271-8.698,7.384-8.923,2.637-6.007-1.979-10.971-2.131-11.128-5.253-6.354-14.22-7.906-16.604-8.214-.129-.081-.257-.164-.39-.237-.254-.17-6.19-4.013-14.002.483-1.808-1.08-7.659-3.964-13.969-.525-.158.086-.308.182-.459.278-2.381.308-11.351,1.86-16.56,8.163-.198.208-4.813,5.172-2.152,11.23.088.173,2.221,4.297,7.359,8.871.709.631,1.588.954,2.472.954.673,0,1.349-.188,1.954-.568.397-.25.778-.54,1.15-.85.106,1.405.242,2.855.432,4.377.015.108.277,1.817,1.388,3.67-.923,2.64-1.667,5.329-2.224,8.016h-13.449c-.36,0-.693.193-.87.507l-7.441,13.141c-.175.31-.173.689.006.997.179.307.508.496.864.496h6.441v21.674c0,1.85,1.504,3.354,3.354,3.354h63.37c1.849,0,3.354-1.504,3.354-3.354v-4.166c0-.553-.448-1-1-1s-1,.447-1,1v4.166c0,.746-.607,1.354-1.354,1.354h-21.701v-33.373l5.571,9.839c.177.313.51.507.87.507h16.613v6.388c0,.553.448,1,1,1s1-.447,1-1v-6.388h6.441c.356,0,.685-.189.864-.496.179-.308.182-.688.006-.997ZM56.006,50.804l7.837-5.203c.345-.252.654-.523.942-.802.644,1.987,1.182,3.996,1.613,6.005h-10.392ZM77.52,16.481c.039.041,3.904,4.194,1.82,8.944-.02.039-2.072,3.981-6.908,8.286-.577.515-1.393.59-2.03.187-.518-.326-1.276-.908-2.055-1.796.462-10.57-1.324-17.497-2.591-20.966-.22-.603-.509-1.166-.845-1.692,3.471.821,9.056,2.743,12.608,7.037ZM47.42,9.178c.326.232.764.246,1.106.036,6.95-4.301,12.169-.987,12.461-.798,1.324.72,2.35,1.93,2.889,3.406,1.468,4.017,3.665,12.868,1.897,27.013-.005.032-.507,3.246-3.075,5.126l-10.309,6.843h-8.782l-10.272-6.816c-2.605-1.906-3.107-5.12-3.109-5.133-.289-2.309-.463-4.461-.561-6.49,0-.003,0-.006,0-.009-.503-10.416,1.229-17.179,2.458-20.541.539-1.473,1.562-2.679,2.881-3.396,6.328-3.445,12.17.587,12.414.759ZM25.598,33.899c-.639.401-1.453.327-2.03-.188-4.828-4.297-6.881-8.233-6.883-8.233-2.096-4.774,1.637-8.829,1.841-9.048,3.52-4.258,9.095-6.168,12.564-6.986-.336.524-.624,1.084-.843,1.683-1.269,3.47-3.055,10.396-2.594,20.974-.779.889-1.537,1.471-2.056,1.798ZM31.104,44.688c.327.328.687.645,1.09.939l7.799,5.177h-10.538c.439-2.046.989-4.092,1.649-6.116ZM14.544,52.804h40.725l-6.309,11.141H8.236l6.309-11.141ZM16.315,88.972c-.746,0-1.354-.607-1.354-1.354v-21.674h34.582c.36,0,.693-.193.87-.507l5.571-9.838v33.373H16.315ZM65.009,63.944l-6.309-11.141h22.756l6.309,11.141h-22.755ZM36.345,83.605c0,.553-.448,1-1,1h-14.262c-.552,0-1-.447-1-1s.448-1,1-1h14.262c.552,0,1,.447,1,1ZM20.083,77.616c0-.553.448-1,1-1h8.272c.552,0,1,.447,1,1s-.448,1-1,1h-8.272c-.552,0-1-.447-1-1ZM83.039,77.236v1.312c0,.553-.448,1-1,1s-1-.447-1-1v-1.312c0-.553.448-1,1-1s1,.447,1,1Z"/>
</svg>