<?xml version="1.0" encoding="utf-8"?>
<!-- Generator: Adobe Illustrator 23.0.6, SVG Export Plug-In . SVG Version: 6.00 Build 0)  -->
<svg version="1.1" id="Layer_1" xmlns="http://www.w3.org/2000/svg" xmlns:xlink="http://www.w3.org/1999/xlink" x="0px" y="0px"
	 viewBox="0 0 128 128" style="enable-background:new 0 0 128 128;" xml:space="preserve">
<title>WORK</title>
<path d="M52.3,82.3c1.9,0,3.5-1.6,3.5-3.5c0-1.9-1.6-3.5-3.5-3.5c-1.9,0-3.5,1.6-3.5,3.5C48.8,80.7,50.4,82.3,52.3,82.3
	C52.3,82.3,52.3,82.3,52.3,82.3z"/>
<path d="M102.2,93.6h-1.9V79.7c0-10.5-7.7-19.5-18.1-21.1c9-5.9,11.5-18.1,5.6-27.1S69.6,20,60.6,26S49,44.1,55,53.1
	c1.5,2.2,3.3,4.1,5.6,5.6c-2.1,0.3-4.1,0.9-6,1.8H30.2c-2.8,0-5.1,2.4-4.8,5.3l2.4,26.4c0.1,0.5,0.2,1,0.4,1.4h-1.8
	c-2.7,0.1-4.9,2.3-4.9,5c0.1,2.7,2.2,4.8,4.9,4.9h75.7c2.7-0.1,4.9-2.3,4.9-5C107,95.8,104.8,93.6,102.2,93.6z M96.8,79.7v13.8h-7
	c0.2-0.5,0.4-1,0.5-1.6l0.6-3.5c0.2-1.1-0.7-2-1.7-2H78.3l-2-21.6c-0.1-1.2-0.7-2.3-1.4-3h4C88.8,61.9,96.7,69.9,96.8,79.7z M87,90
	l-0.2,1.4c-0.2,1.2-1.3,2.1-2.5,2.1H79L78.7,90L87,90z M55.3,42.4c0-8.9,7.1-16.1,16-16.1s16.1,7.1,16.1,16s-7.1,16.1-16,16.1
	c0,0,0,0-0.1,0C62.5,58.4,55.3,51.3,55.3,42.4L55.3,42.4z M30.2,64h41.3c0.7,0,1.2,0.5,1.3,1.2l2.6,28.4H33.3c-1,0-1.9-0.8-2-1.8
	l-2.4-26.4C28.8,64.6,29.6,64,30.2,64z M102.2,100H26.4c-0.8,0-1.4-0.7-1.4-1.5c0-0.8,0.6-1.4,1.4-1.4h75.7c0.8,0,1.4,0.7,1.4,1.5
	C103.5,99.3,102.9,99.9,102.2,100L102.2,100z"/>
</svg>
