<svg xmlns="http://www.w3.org/2000/svg" width="128" height="128" viewBox="0 0 128 128">
  <title>EMAIL</title>
  <g>
    <path d="M61.438,73.216A20.515,20.515,0,0,0,76.5,69.128a1.75,1.75,0,1,0-2.132-2.776,17,17,0,1,1,6.02-8.855,2.83,2.83,0,0,1-5.558-.752V43.753a1.75,1.75,0,0,0-3.5,0v1.132a10.83,10.83,0,1,0,.855,15.022,6.326,6.326,0,0,0,11.57-1.454A20.548,20.548,0,0,0,63.993,32.3h-.165a20.538,20.538,0,0,0-2.39,40.915ZM64,60.169a7.333,7.333,0,1,1,7.333-7.333A7.342,7.342,0,0,1,64,60.169Z"/>
    <path d="M120.321,52.057a9.052,9.052,0,0,0-3.5-7.155l-9-6.99V25.769a5.854,5.854,0,0,0-5.848-5.848H84.665l-15.1-11.74a9.062,9.062,0,0,0-11.124,0l-15.1,11.739H26.018a5.854,5.854,0,0,0-5.848,5.848V37.912L11.178,44.9a9.051,9.051,0,0,0-3.5,7.157v60.389a9.23,9.23,0,0,0,9.265,9.28h94.112a9.234,9.234,0,0,0,9.265-9.28ZM76.514,88.032l40.307-33.149v54.876Zm38.167-40.364a5.557,5.557,0,0,1,1.93,2.857l-8.781,7.219v-15.4Zm-54.1-36.722a5.563,5.563,0,0,1,6.83,0l11.547,8.976H49.038ZM23.67,25.769a2.35,2.35,0,0,1,2.348-2.348h75.964a2.35,2.35,0,0,1,2.348,2.348V60.621L73.187,86.236l-5.813-3.131a7.055,7.055,0,0,0-6.744,0l-5.817,3.133L23.67,60.621ZM11.179,54.883c4.087,3.361,36.534,30.045,40.307,33.149L11.179,109.759Zm2.143-7.217,6.848-5.321v15.4l-8.781-7.219A5.564,5.564,0,0,1,13.322,47.666Zm97.734,70.56H16.944a5.724,5.724,0,0,1-5.631-4.564l50.981-27.48a3.613,3.613,0,0,1,3.415,0l50.978,27.478A5.724,5.724,0,0,1,111.056,118.226Z"/>
  </g>
</svg>
