<svg xmlns="http://www.w3.org/2000/svg" width="128" height="128" viewBox="0 0 128 128">
  <title>SMARTPHONE</title>
  <g>
    <path d="M82.306,17.25H45.694a9.943,9.943,0,0,0-9.932,9.932v73.636a9.943,9.943,0,0,0,9.932,9.932H82.306a9.943,9.943,0,0,0,9.932-9.932V27.182A9.943,9.943,0,0,0,82.306,17.25Zm-7.054,3.5v2.06a2.9,2.9,0,0,1-2.9,2.9H55.644a2.9,2.9,0,0,1-2.9-2.9V20.75Zm13.486,80.068a6.439,6.439,0,0,1-6.432,6.432H45.694a6.439,6.439,0,0,1-6.432-6.432V27.182a6.439,6.439,0,0,1,6.432-6.432h3.552v2.06a6.405,6.405,0,0,0,6.4,6.4H72.353a6.406,6.406,0,0,0,6.4-6.4V20.75h3.554a6.439,6.439,0,0,1,6.432,6.432Z"/>
    <path d="M77,99.828H51a1.75,1.75,0,0,0,0,3.5H77a1.75,1.75,0,0,0,0-3.5Z"/>
  </g>
</svg>
