<svg xmlns="http://www.w3.org/2000/svg" width="128" height="128" viewBox="0 0 128 128">
  <title>GEOMETRY</title>
  <g>
    <path d="M109.928,88.67l-90-56.247a1.75,1.75,0,0,0-2.678,1.484V90.154A1.749,1.749,0,0,0,19,91.9h90a1.75,1.75,0,0,0,.928-3.234ZM32.166,75.237H20.75V51.086A17.146,17.146,0,0,0,32.641,44.5L93.505,82.535A17.224,17.224,0,0,0,91.824,88.4H33.916V76.987A1.75,1.75,0,0,0,32.166,75.237Zm-2.507-32.6a13.678,13.678,0,0,1-8.909,4.938V37.065ZM20.75,88.4V78.737h9.666V88.4Zm74.591,0a13.727,13.727,0,0,1,1.147-4l6.409,4Z"/>
    <path d="M23.185,95.728l-4.08,10.3h2.88l.6-1.5h4.08l.6,1.5h2.879l-4.08-10.3Zm.2,6.794,1.245-3.165,1.245,3.165Z"/>
    <path d="M107.627,100.617a2.482,2.482,0,0,0,1.425-2.3c0-1.5-1.32-2.594-3.225-2.594h-5.385v10.3h5.58c2.04,0,3.5-1.139,3.5-2.79A2.9,2.9,0,0,0,107.627,100.617ZM102.992,97.9h2.2c.7,0,1.215.391,1.215.946s-.51.96-1.215.96h-2.2Zm2.595,5.955h-2.595v-2.07h2.595c.75,0,1.29.436,1.29,1.035S106.337,103.857,105.587,103.857Z"/>
    <path d="M25.21,30.5a5.6,5.6,0,0,0,4.095-1.784l-1.86-1.651A2.9,2.9,0,0,1,25.21,28.18a3.01,3.01,0,0,1,0-6.016,2.876,2.876,0,0,1,2.22,1.11l1.875-1.665A5.649,5.649,0,0,0,25.21,19.84a5.5,5.5,0,0,0-5.534,5.324A5.511,5.511,0,0,0,25.21,30.5Z"/>
  </g>
</svg>
