<svg xmlns="http://www.w3.org/2000/svg" width="128" height="128" viewBox="0 0 128 128">
  <title>COGWHEEL</title>
  <g>
    <path d="M71.97,75.806l-3.555-.381a.521.521,0,0,1-.425-.359,23.682,23.682,0,0,0-1.574-3.733.491.491,0,0,1,.061-.553l2.242-2.788a3.5,3.5,0,0,0-.243-4.706l-3.6-3.6a3.5,3.5,0,0,0-4.695-.253L57.3,61.753a.492.492,0,0,1-.537.045,22.376,22.376,0,0,0-3.644-1.5.54.54,0,0,1-.381-.44l-.382-3.688a3.517,3.517,0,0,0-3.5-3.126H43.764a3.533,3.533,0,0,0-3.507,3.146l-.393,3.676a.505.505,0,0,1-.353.428,22.432,22.432,0,0,0-3.659,1.5.5.5,0,0,1-.555-.06l-2.854-2.294a3.5,3.5,0,0,0-4.7.245l-3.6,3.6a3.494,3.494,0,0,0-.253,4.694l2.256,2.807a.506.506,0,0,1,.047.563,23.686,23.686,0,0,0-1.565,3.715.522.522,0,0,1-.434.361l-3.539.379A3.509,3.509,0,0,0,17.5,79.311V84.4a3.531,3.531,0,0,0,.516,1.843,3.591,3.591,0,0,0,2.63,1.664l3.453.367a.5.5,0,0,1,.424.354,22.372,22.372,0,0,0,1.57,3.881.513.513,0,0,1-.063.557L23.9,95.721a3.5,3.5,0,0,0,.244,4.7l3.6,3.6a3.5,3.5,0,0,0,4.7.252l2.609-2.1a.507.507,0,0,1,.553-.066,21.883,21.883,0,0,0,3.964,1.658.5.5,0,0,1,.345.438l.355,3.323a3.532,3.532,0,0,0,3.505,3.133h5.088a3.535,3.535,0,0,0,3.506-3.146l.355-3.323a.5.5,0,0,1,.346-.425,22.328,22.328,0,0,0,3.959-1.657.512.512,0,0,1,.562.07l2.592,2.085a3.5,3.5,0,0,0,4.706-.244l3.6-3.6a3.493,3.493,0,0,0,.251-4.7l-2.16-2.686a.5.5,0,0,1-.04-.544,23.389,23.389,0,0,0,1.564-3.869.516.516,0,0,1,.438-.359l3.453-.368a3.531,3.531,0,0,0,3.133-3.5V79.311A3.507,3.507,0,0,0,71.97,75.806Zm.145,8.594a.528.528,0,0,1-.464.523l-3.428.366a3.492,3.492,0,0,0-3,2.472,20.356,20.356,0,0,1-1.36,3.366,3.471,3.471,0,0,0,.384,3.815l2.154,2.68a.507.507,0,0,1-.044.683l-3.6,3.6a.516.516,0,0,1-.7.036l-2.6-2.089a3.493,3.493,0,0,0-3.862-.382,19.3,19.3,0,0,1-3.421,1.433,3.479,3.479,0,0,0-2.454,2.989l-.352,3.3a.538.538,0,0,1-.524.477H43.764a.535.535,0,0,1-.523-.464l-.353-3.3a3.482,3.482,0,0,0-2.453-3,18.83,18.83,0,0,1-3.418-1.43,3.464,3.464,0,0,0-1.646-.415,3.513,3.513,0,0,0-2.215.789l-2.613,2.1a.512.512,0,0,1-.684-.044l-3.6-3.6a.512.512,0,0,1-.035-.694l2.143-2.665a3.509,3.509,0,0,0,.385-3.823,19.415,19.415,0,0,1-1.36-3.366A3.486,3.486,0,0,0,24.4,85.29l-3.416-.364a.581.581,0,0,1-.419-.258A.528.528,0,0,1,20.5,84.4V79.311a.524.524,0,0,1,.465-.522l3.535-.378A3.516,3.516,0,0,0,27.477,76a20.606,20.606,0,0,1,1.366-3.246,3.507,3.507,0,0,0-.367-3.85L26.217,66.09a.508.508,0,0,1,.044-.683l3.6-3.6a.512.512,0,0,1,.695-.036L33.4,64.061a3.479,3.479,0,0,0,3.832.4,19.561,19.561,0,0,1,3.184-1.3,3.513,3.513,0,0,0,2.432-2.982l.391-3.653a.525.525,0,0,1,.525-.475h5.088a.539.539,0,0,1,.275.074.53.53,0,0,1,.247.386l.382,3.68a3.562,3.562,0,0,0,2.458,2.974,19.627,19.627,0,0,1,3.169,1.3,3.471,3.471,0,0,0,3.811-.381l2.879-2.314a.509.509,0,0,1,.684.044l3.6,3.6a.513.513,0,0,1,.036.7L64.144,68.9a3.475,3.475,0,0,0-.37,3.858A20.664,20.664,0,0,1,65.14,76a3.509,3.509,0,0,0,2.966,2.411l3.552.38a.522.522,0,0,1,.457.521Z"/>
    <path d="M46.308,71.07A10.785,10.785,0,1,0,57.093,81.855,10.8,10.8,0,0,0,46.308,71.07Zm0,18.57a7.785,7.785,0,1,1,7.785-7.785A7.794,7.794,0,0,1,46.308,89.64Z"/>
    <path d="M107.681,36.182l-2.733-.3a.156.156,0,0,1-.13-.093,18.109,18.109,0,0,0-1.358-3.311.143.143,0,0,1,.026-.159l1.723-2.134a3.167,3.167,0,0,0-.235-4.21l-2.954-2.953A3.17,3.17,0,0,0,97.8,22.8L95.667,24.52a.138.138,0,0,1-.151.018,18.542,18.542,0,0,0-3.308-1.357.158.158,0,0,1-.095-.138l-.3-2.711A3.138,3.138,0,0,0,88.679,17.5H84.5a3.137,3.137,0,0,0-3.139,2.818l-.3,2.817a.141.141,0,0,1-.108.108A19.4,19.4,0,0,0,77.758,24.6a.156.156,0,0,1-.168-.018L75.371,22.79a3.164,3.164,0,0,0-4.209.235l-2.953,2.953A3.146,3.146,0,0,0,67.98,30.2l1.843,2.284a.157.157,0,0,1,.007.163,19.636,19.636,0,0,0-1.271,3.126.133.133,0,0,1-.127.093l-2.915.317a3.139,3.139,0,0,0-2.833,3.14V43.5A3.134,3.134,0,0,0,65.5,46.633l3.021.329a.137.137,0,0,1,.106.1,18.715,18.715,0,0,0,1.264,3.024.176.176,0,0,1,0,.184l-1.921,2.365a3.155,3.155,0,0,0,.24,4.2l2.953,2.953a3.165,3.165,0,0,0,4.218.229l2.363-1.906A.147.147,0,0,1,77.9,58.1a18.828,18.828,0,0,0,3.038,1.271.145.145,0,0,1,.1.129l.325,2.985a3.139,3.139,0,0,0,3.14,2.831h4.175A3.136,3.136,0,0,0,91.817,62.5l.32-2.938a.147.147,0,0,1,.11-.124,19.624,19.624,0,0,0,3.105-1.265.163.163,0,0,1,.173.012L97.8,60.014a3.146,3.146,0,0,0,4.223-.224l2.955-2.954a3.158,3.158,0,0,0,.84-1.5,3.212,3.212,0,0,0-.614-2.72L103.41,50.4a.148.148,0,0,1-.012-.153,18.543,18.543,0,0,0,1.36-3.208.157.157,0,0,1,.133-.1l2.775-.3A3.139,3.139,0,0,0,110.5,43.5V39.32A3.135,3.135,0,0,0,107.681,36.182ZM107.5,43.5a.153.153,0,0,1-.143.156l-2.789.3a3.149,3.149,0,0,0-2.671,2.182,15.6,15.6,0,0,1-1.143,2.7,3.125,3.125,0,0,0,.331,3.462l1.768,2.189a.2.2,0,0,1,0,.233L99.9,57.669a.167.167,0,0,1-.214.015l-2.268-1.83A3.148,3.148,0,0,0,94,55.5a16.65,16.65,0,0,1-2.633,1.073,3.145,3.145,0,0,0-2.209,2.675l-.319,2.943a.15.15,0,0,1-.155.129H84.5a.152.152,0,0,1-.156-.142L84.023,59.2a3.122,3.122,0,0,0-2.177-2.688,15.749,15.749,0,0,1-2.564-1.074,3.2,3.2,0,0,0-1.456-.352,3.105,3.105,0,0,0-1.975.7l-2.346,1.891a.164.164,0,0,1-.222-.008l-3-3.029a.161.161,0,0,1,.028-.134l1.917-2.36a3.194,3.194,0,0,0,.327-3.443,15.794,15.794,0,0,1-1.068-2.549,3.112,3.112,0,0,0-2.66-2.176l-3.017-.329a.148.148,0,0,1-.127-.154V39.32a.153.153,0,0,1,.142-.156l2.922-.317a3.121,3.121,0,0,0,2.684-2.213A16.546,16.546,0,0,1,72.505,34a3.15,3.15,0,0,0-.352-3.412l-1.842-2.283a.163.163,0,0,1,.019-.208l2.953-2.953a.171.171,0,0,1,.213-.015l2.2,1.777a3.14,3.14,0,0,0,3.475.337,16.362,16.362,0,0,1,2.7-1.144,3.115,3.115,0,0,0,2.177-2.666l.305-2.806A.15.15,0,0,1,84.5,20.5h4.175a.153.153,0,0,1,.156.143l.3,2.717a3.136,3.136,0,0,0,2.209,2.692,15.6,15.6,0,0,1,2.768,1.134,3.12,3.12,0,0,0,3.453-.339l2.117-1.708a.171.171,0,0,1,.222.007l2.953,2.953a.167.167,0,0,1,.015.214l-1.707,2.115a3.127,3.127,0,0,0-.348,3.463,15.178,15.178,0,0,1,1.133,2.764,3.134,3.134,0,0,0,2.687,2.213l2.739.3a.149.149,0,0,1,.128.154Z"/>
    <path d="M86.591,33a8.354,8.354,0,0,0-5.946,2.462h0A8.409,8.409,0,1,0,86.591,33Zm3.823,12.231a5.407,5.407,0,1,1-7.647-7.647h0a5.408,5.408,0,0,1,7.647,7.648Z"/>
  </g>
</svg>
