<svg xmlns="http://www.w3.org/2000/svg" width="128" height="128" viewBox="0 0 128 128">
  <title>DESK LAMP</title>
  <path d="M106.3,36.155l-1.665-2.177h0a19.048,19.048,0,0,0-20.7-6.59l-5.392-7.041A8.1,8.1,0,0,0,67.18,18.833l-3.04,2.316a8.14,8.14,0,0,0-3,8.113L28.558,54.815c-.1,0-.208-.019-.312-.019a8.969,8.969,0,0,0-2.594,17.557l15.03,19.93c0,.074-.015.144-.015.219V98.31H36.126a8,8,0,0,0-7.993,7.993V109a1.751,1.751,0,0,0,1.75,1.75H87.629a1.75,1.75,0,0,0,1.75-1.75v-2.7a8,8,0,0,0-7.992-7.993H75.209v-5a1.749,1.749,0,0,0-1.75-1.75H65.392a1.749,1.749,0,0,0-1.75,1.75v5H56.056V92.5a7.7,7.7,0,0,0-7.186-7.679L36.164,67.99a8.864,8.864,0,0,0,1.057-4.218,9.042,9.042,0,0,0-.148-1.6l30.14-23.655.8,1.05a19.054,19.054,0,0,0,.942,21.7l1.666,2.177a1.75,1.75,0,0,0,2.453.327l7.8-5.97A11.022,11.022,0,0,0,98.173,44.576l7.8-5.968A1.749,1.749,0,0,0,106.3,36.155ZM66.264,23.931l3.043-2.319a4.6,4.6,0,0,1,6.46.861L80.6,28.78a19.186,19.186,0,0,0-2.577,1.652L72.5,34.653a19.028,19.028,0,0,0-2.268,2.053l-1.3-1.7c-.006-.007-.009-.016-.015-.023l-3.519-4.6a4.045,4.045,0,0,1-.614-1.117A4.616,4.616,0,0,1,66.264,23.931ZM22.77,63.772A5.483,5.483,0,0,1,28.246,58.3a6.134,6.134,0,0,1,.66.042h.007a5.47,5.47,0,0,1,4.53,3.7,5.582,5.582,0,0,1,.278,1.737,5.4,5.4,0,0,1-1.09,3.269,5.485,5.485,0,0,1-1.885,1.6,5.241,5.241,0,0,1-3.692.46A5.476,5.476,0,0,1,22.77,63.772ZM41.987,88.2,30.169,72.529a8.541,8.541,0,0,0,3.7-1.774L45.041,85.56A7.673,7.673,0,0,0,41.987,88.2Zm43.892,18.1v.947H31.633V106.3a4.5,4.5,0,0,1,4.493-4.493h6.267l.024,0H54.306l.024,0H81.387A4.5,4.5,0,0,1,85.879,106.3ZM67.142,95.055h4.567V98.31H67.142ZM52.556,92.5V98.31H44.167V92.5a4.248,4.248,0,0,1,3.926-4.186.785.785,0,0,0,.16-.018h.108A4.205,4.205,0,0,1,52.556,92.5ZM35.706,58.793A9,9,0,0,0,32.715,56L62.641,32.534l2.446,3.2ZM95.352,46.734A7.541,7.541,0,0,1,83.7,55.647l5.826-4.456ZM87.4,48.411,80.02,54.055h0L72.34,59.93l-.6-.787a15.536,15.536,0,0,1-.148-18.614,14.973,14.973,0,0,1,3.041-3.1l5.517-4.221a15.041,15.041,0,0,1,3.8-2.13,15.258,15.258,0,0,1,5.572-1.049A15.554,15.554,0,0,1,101.857,36.1l.6.787Z"/>
</svg>
