<svg xmlns="http://www.w3.org/2000/svg" width="24" height="24" viewBox="0 0 24 24">
  <g>
    <path d="M12,12a2,2,0,0,0-.487,3.933A.5.5,0,0,0,11.5,16v2a.5.5,0,0,0,1,0V16a.5.5,0,0,0-.013-.067A2,2,0,0,0,12,12Zm0,3a1,1,0,1,1,1-1A1,1,0,0,1,12,15Z"/>
    <path d="M18.5,9H16V5.5A3.5,3.5,0,0,0,12.5,2h-1A3.5,3.5,0,0,0,8,5.5V9H5.5A1.5,1.5,0,0,0,4,10.5v6A4.505,4.505,0,0,0,8.5,21h7A4.505,4.505,0,0,0,20,16.5v-6A1.5,1.5,0,0,0,18.5,9ZM9,5.5A2.5,2.5,0,0,1,11.5,3h1A2.5,2.5,0,0,1,15,5.5V9H9Zm10,11A3.5,3.5,0,0,1,15.5,20h-7A3.5,3.5,0,0,1,5,16.5v-6a.5.5,0,0,1,.5-.5h13a.5.5,0,0,1,.5.5Z"/>
  </g>
</svg>
