<svg xmlns="http://www.w3.org/2000/svg" width="24" height="24" viewBox="0 0 24 24">
  <g>
    <path d="M12,12a2,2,0,0,0-.487,3.933A.5.5,0,0,0,11.5,16v2a.5.5,0,0,0,1,0V16a.5.5,0,0,0-.013-.067A2,2,0,0,0,12,12Zm0,3a1,1,0,1,1,1-1A1,1,0,0,1,12,15Z"/>
    <path d="M18.5,9H8.919L8.3,5.474a2.5,2.5,0,0,1,2.028-2.9l.985-.174a2.5,2.5,0,0,1,2.9,2.028L14.43,5.7a.5.5,0,0,0,.984-.174l-.223-1.264a3.506,3.506,0,0,0-4.054-2.839l-.985.174A3.5,3.5,0,0,0,7.313,5.647L7.9,9H5.5A1.5,1.5,0,0,0,4,10.5v6A4.505,4.505,0,0,0,8.5,21h7A4.505,4.505,0,0,0,20,16.5v-6A1.5,1.5,0,0,0,18.5,9Zm.5,7.5A3.5,3.5,0,0,1,15.5,20h-7A3.5,3.5,0,0,1,5,16.5v-6a.5.5,0,0,1,.5-.5h13a.5.5,0,0,1,.5.5Z"/>
  </g>
</svg>
