<svg xmlns="http://www.w3.org/2000/svg" width="128" height="128" viewBox="0 0 128 128">
  <title>RELEASE</title>
  <g>
    <path d="M110.218,72.494l-9.231-12.82a1.5,1.5,0,0,0-1.218-.624H28.23a1.5,1.5,0,0,0-1.217.624l-9.231,12.82A1.5,1.5,0,0,0,19,74.87h7.73V109a1.5,1.5,0,0,0,1.5,1.5H99.769a1.5,1.5,0,0,0,1.5-1.5V74.87H109a1.5,1.5,0,0,0,1.218-2.376ZM29,62.05H56.863L49.8,71.87H21.929Zm.731,12.82H50.57a1.5,1.5,0,0,0,1.218-.624l6.5-9.041v42.3H29.73ZM98.269,107.5H61.29V65.2L67.8,74.246a1.5,1.5,0,0,0,1.217.624h29.25Zm1.5-35.63H69.788l-7.07-9.82H99l7.07,9.82Z"/>
    <path d="M35.373,32.138h2.521v16.4a1.5,1.5,0,0,0,1.5,1.5H51.078a1.5,1.5,0,0,0,1.5-1.5v-16.4H55.1a1.5,1.5,0,0,0,1.144-2.47L46.381,18.03a1.551,1.551,0,0,0-2.289,0L34.228,29.668a1.5,1.5,0,0,0,1.145,2.47ZM45.236,21.32l6.626,7.818h-.784a1.5,1.5,0,0,0-1.5,1.5v16.4H40.894v-16.4a1.5,1.5,0,0,0-1.5-1.5H38.61Z"/>
    <path d="M69.917,32.138h2.521v16.4a1.5,1.5,0,0,0,1.5,1.5H85.621a1.5,1.5,0,0,0,1.5-1.5v-16.4h2.523a1.5,1.5,0,0,0,1.144-2.47L80.925,18.03a1.551,1.551,0,0,0-2.289,0L68.772,29.668a1.5,1.5,0,0,0,1.145,2.47ZM79.78,21.32l6.626,7.818h-.785a1.5,1.5,0,0,0-1.5,1.5v16.4H75.438v-16.4a1.5,1.5,0,0,0-1.5-1.5h-.784Z"/>
  </g>
</svg>
