<svg xmlns="http://www.w3.org/2000/svg" width="128" height="128" viewBox="0 0 128 128">
  <title>VECTOR 2</title>
  <g>
    <path d="M65.493,49.964a1.7,1.7,0,0,0-2.961,0c-.681,1.073-17.467,27.705-17.467,27.705a1.755,1.755,0,0,0,.479,2.368,21.15,21.15,0,0,1,8.136,18.1H51.962a5.535,5.535,0,0,0-5.529,5.53v2.228a5.536,5.536,0,0,0,5.529,5.53h24.1a5.536,5.536,0,0,0,5.529-5.53v-2.228a5.535,5.535,0,0,0-5.529-5.53H74.344a21.147,21.147,0,0,1,8.134-18.094,1.75,1.75,0,0,0,.481-2.37S66.607,51.734,65.493,49.964ZM64.012,77.845A2.652,2.652,0,1,1,61.36,80.5,2.654,2.654,0,0,1,64.012,77.845Zm14.079,25.818v2.228a2.032,2.032,0,0,1-2.029,2.03h-24.1a2.032,2.032,0,0,1-2.029-2.03v-2.228a2.032,2.032,0,0,1,2.029-2.03h24.1A2.032,2.032,0,0,1,78.091,103.663Zm-7.259-5.53H57.192a24.671,24.671,0,0,0-8.336-19.914L62.262,56.955V74.6a6.152,6.152,0,1,0,3.5,0V56.955L79.168,78.219A24.671,24.671,0,0,0,70.832,98.133Z"/>
    <path d="M113.958,16.587a8.854,8.854,0,0,0-8.663,7.09H72.852v-2a5.1,5.1,0,0,0-5.09-5.09h-7.5a5.1,5.1,0,0,0-5.089,5.09v1.991H22.705a8.839,8.839,0,1,0,0,3.5H42.738A30.469,30.469,0,0,0,26.531,52.347H24.47a5.1,5.1,0,0,0-5.09,5.09v7.5a5.1,5.1,0,0,0,5.09,5.088h7.5a5.1,5.1,0,0,0,5.089-5.088v-7.5a5.1,5.1,0,0,0-5.089-5.09H30.033a26.96,26.96,0,0,1,25.14-25.118v1.948a5.1,5.1,0,0,0,5.089,5.089h7.5a5.1,5.1,0,0,0,5.09-5.089V27.24A26.959,26.959,0,0,1,97.967,52.355H96.03a5.1,5.1,0,0,0-5.089,5.089v7.5a5.1,5.1,0,0,0,5.089,5.09h7.5a5.1,5.1,0,0,0,5.09-5.09v-7.5a5.1,5.1,0,0,0-5.09-5.089h-2.061A30.469,30.469,0,0,0,85.262,27.177H105.3a8.839,8.839,0,1,0,8.663-10.59ZM14.042,30.757a5.339,5.339,0,1,1,5.338-5.339A5.345,5.345,0,0,1,14.042,30.757Zm19.517,26.68v7.5a1.59,1.59,0,0,1-1.589,1.588h-7.5a1.59,1.59,0,0,1-1.59-1.588v-7.5a1.591,1.591,0,0,1,1.59-1.59h7.5A1.591,1.591,0,0,1,33.559,57.437Zm35.793-28.26a1.591,1.591,0,0,1-1.59,1.589h-7.5a1.591,1.591,0,0,1-1.589-1.589v-7.5a1.591,1.591,0,0,1,1.589-1.59h7.5a1.591,1.591,0,0,1,1.59,1.59ZM105.12,57.444v7.5a1.591,1.591,0,0,1-1.59,1.59h-7.5a1.591,1.591,0,0,1-1.589-1.59v-7.5a1.591,1.591,0,0,1,1.589-1.589h7.5A1.591,1.591,0,0,1,105.12,57.444Zm8.838-26.678a5.34,5.34,0,1,1,5.34-5.339A5.345,5.345,0,0,1,113.958,30.766Z"/>
  </g>
</svg>
