<?xml version="1.0" encoding="UTF-8" standalone="no"?>
<!DOCTYPE svg PUBLIC "-//W3C//DTD SVG 1.1//EN" "http://www.w3.org/Graphics/SVG/1.1/DTD/svg11.dtd">
<svg width="100%" height="100%" viewBox="0 0 48 48" version="1.1" xmlns="http://www.w3.org/2000/svg" xmlns:xlink="http://www.w3.org/1999/xlink" xml:space="preserve" xmlns:serif="http://www.serif.com/" style="fill-rule:evenodd;clip-rule:evenodd;stroke-linejoin:round;stroke-miterlimit:2;">
    <g transform="matrix(1,0,0,1,-214,-146)">
        <g id="DesignHere">
            <path d="M238.887,150.518C238.715,150.187 238.373,149.979 238,149.979C237.627,149.979 237.285,150.187 237.113,150.518L230.974,162.338C230.974,162.338 217.836,164.523 217.836,164.523C217.468,164.585 217.164,164.846 217.049,165.201C216.934,165.556 217.026,165.945 217.287,166.211L226.632,175.702C226.632,175.702 224.65,188.872 224.65,188.872C224.595,189.241 224.75,189.611 225.052,189.83C225.353,190.05 225.753,190.082 226.086,189.916L238,183.961C238,183.961 249.914,189.916 249.914,189.916C250.247,190.082 250.647,190.05 250.948,189.83C251.25,189.611 251.405,189.241 251.35,188.872L249.368,175.702C249.368,175.702 258.713,166.211 258.713,166.211C258.974,165.945 259.066,165.556 258.951,165.201C258.836,164.846 258.532,164.585 258.164,164.523L245.026,162.338C245.026,162.338 238.887,150.518 238.887,150.518ZM238,153.149L243.481,163.703C243.626,163.982 243.894,164.177 244.205,164.229L255.936,166.18C255.936,166.18 247.592,174.655 247.592,174.655C247.372,174.879 247.269,175.194 247.316,175.505L249.085,187.266C249.085,187.266 238.447,181.949 238.447,181.949C238.166,181.808 237.834,181.808 237.553,181.949L226.915,187.266C226.915,187.266 228.684,175.505 228.684,175.505C228.731,175.194 228.628,174.879 228.408,174.655L220.064,166.18C220.064,166.18 231.795,164.229 231.795,164.229C232.106,164.177 232.374,163.982 232.519,163.703C232.519,163.703 238,153.149 238,153.149Z"/>
        </g>
    </g>
</svg>
