<?xml version="1.0" encoding="utf-8"?>
<!-- Generator: Adobe Illustrator 24.1.3, SVG Export Plug-In . SVG Version: 6.00 Build 0)  -->
<svg version="1.1" xmlns="http://www.w3.org/2000/svg" xmlns:xlink="http://www.w3.org/1999/xlink" x="0px" y="0px"
	 viewBox="0 0 24 24" style="enable-background:new 0 0 24 24;" xml:space="preserve">
<g id="Design_here">
	<g>
		<path d="M12,21c-0.46,0-0.88-0.26-1.12-0.67l-3.2-5.65c-0.17-0.31-0.34-0.62-0.49-0.94c-1.08-2.35-2.22-5.82,0.43-8.76
			C8.78,3.71,10.33,3,12,3c1.67,0,3.22,0.71,4.38,1.99c2.67,2.95,1.51,6.45,0.4,8.82c-0.13,0.28-0.27,0.55-0.42,0.81l-3.24,5.71
			C12.89,20.74,12.46,21,12,21z M12,4c-1.38,0-2.67,0.59-3.64,1.66c-2.26,2.5-1.23,5.57-0.27,7.67c0.14,0.29,0.29,0.58,0.45,0.86
			l3.2,5.65c0.12,0.21,0.38,0.21,0.5,0l3.24-5.71c0.14-0.24,0.27-0.49,0.38-0.74c0.99-2.12,2.03-5.22-0.24-7.73
			C14.67,4.59,13.38,4,12,4z"/>
	</g>
	<g>
		<path d="M12,12c-1.65,0-3-1.35-3-3s1.35-3,3-3s3,1.35,3,3S13.65,12,12,12z M12,7c-1.1,0-2,0.9-2,2s0.9,2,2,2c1.1,0,2-0.9,2-2
			S13.1,7,12,7z"/>
	</g>
</g>
<g id="Guide">
</g>
</svg>
