<?xml version="1.0" encoding="UTF-8"?>
<svg id="Capa_1" xmlns="http://www.w3.org/2000/svg" version="1.1" viewBox="0 0 512 511.82">
  <!-- Generator: Adobe Illustrator 30.5.1, SVG Export Plug-In . SVG Version: 2.1.4 Build 3)  -->
  <path d="M214.43,118.85h-13.52v-.61c0-11.08-9.01-20.09-20.09-20.09h-16.34c-11.08,0-20.09,9.01-20.09,20.09v.61h-17.19v-.61c0-11.08-9.01-20.09-20.09-20.09h-16.33c-11.08,0-20.09,9.01-20.09,20.09v.61h-18.19c-4.18,0-7.56,3.38-7.56,7.56s3.38,7.56,7.56,7.56h18.19v.61c0,11.08,9.01,20.09,20.09,20.09h16.34c11.08,0,20.09-9.01,20.09-20.09v-.61h17.19v.61c0,11.08,9.01,20.09,20.09,20.09h16.34c11.08,0,20.09-9.01,20.09-20.09v-.61h13.52v.61c0,11.08,9.01,20.09,20.09,20.09h16.34c11.08,0,20.09-9.01,20.09-20.09v-.61h18.57c4.18,0,7.56-3.38,7.56-7.56s-3.38-7.56-7.56-7.56h-18.57v-.61c0-11.08-9.01-20.09-20.09-20.09h-16.34c-11.08,0-20.09,9.01-20.09,20.09v.61h0ZM112.1,134.58c0,2.69-2.28,4.97-4.97,4.97h-16.34c-2.69,0-4.97-2.28-4.97-4.97v-16.34c0-2.69,2.28-4.97,4.97-4.97h16.34c2.69,0,4.97,2.28,4.97,4.97v16.34h0ZM185.79,134.58c0,2.69-2.28,4.97-4.97,4.97h-16.34c-2.69,0-4.97-2.28-4.97-4.97v-16.34c0-2.69,2.28-4.97,4.97-4.97h16.34c2.69,0,4.97,2.28,4.97,4.97v16.34ZM229.55,118.24c0-2.69,2.28-4.97,4.97-4.97h16.34c2.69,0,4.97,2.28,4.97,4.97v16.34c0,2.69-2.28,4.97-4.97,4.97h-16.34c-2.69,0-4.97-2.28-4.97-4.97v-16.34Z"/>
  <path d="M276.09,298.2h-16.34c-11.08,0-20.09,9.01-20.09,20.09v.61h-18.19c-4.18,0-7.56,3.38-7.56,7.56s3.38,7.56,7.56,7.56h18.19v.61c0,11.08,9.01,20.09,20.09,20.09h16.34c11.08,0,20.09-9.01,20.09-20.09v-.61h18.07v.61c0,11.08,9.01,20.09,20.09,20.09h16.34c11.08,0,20.09-9.01,20.09-20.09v-.61h12.64v.61c0,11.08,9.01,20.09,20.09,20.09h16.34c11.08,0,20.09-9.01,20.09-20.09v-.61h18.57c4.18,0,7.56-3.38,7.56-7.56s-3.38-7.56-7.56-7.56h-18.57v-.61c0-11.08-9.01-20.09-20.09-20.09h-16.34c-11.08,0-20.09,9.01-20.09,20.09v.61h-12.64v-.61c0-11.08-9.01-20.09-20.09-20.09h-16.34c-11.08,0-20.09,9.01-20.09,20.09v.61h-18.07v-.61c0-11.07-9.01-20.08-20.09-20.08h0ZM398.51,318.28c0-2.69,2.28-4.97,4.97-4.97h16.34c2.69,0,4.97,2.28,4.97,4.97v16.34c0,2.69-2.28,4.97-4.97,4.97h-16.34c-2.69,0-4.97-2.28-4.97-4.97v-16.34ZM329.36,318.28c0-2.69,2.28-4.97,4.97-4.97h16.34c2.69,0,4.97,2.28,4.97,4.97v16.34c0,2.69-2.28,4.97-4.97,4.97h-16.34c-2.69,0-4.97-2.28-4.97-4.97v-16.34ZM281.06,334.62c0,2.69-2.28,4.97-4.97,4.97h-16.34c-2.69,0-4.97-2.28-4.97-4.97v-16.34c0-2.69,2.28-4.97,4.97-4.97h16.34c2.69,0,4.97,2.28,4.97,4.97v16.34Z"/>
  <path d="M432.34,165.37c37.71,0,68.39-30.68,68.39-68.39s-30.68-68.39-68.39-68.39-68.38,30.68-68.38,68.39c0,37.71,30.68,68.39,68.38,68.39h0ZM432.34,43.71c29.37,0,53.27,23.9,53.27,53.27s-23.9,53.27-53.27,53.27-53.27-23.9-53.27-53.27c0-29.37,23.9-53.27,53.27-53.27h0Z"/>
  <path d="M420.58,115.75c1.38,1.72,3.43,2.75,5.63,2.82.09,0,.18,0,.26,0,2.11,0,4.12-.88,5.55-2.43l25.94-28.09c2.83-3.07,2.64-7.85-.43-10.68-3.07-2.83-7.85-2.64-10.68.42l-19.98,21.64-8.71-10.85c-2.62-3.26-7.37-3.78-10.63-1.16-3.26,2.61-3.78,7.37-1.16,10.62l14.21,17.7Z"/>
  <path d="M490.71,198.61h-147.67V21.29c0-11.74-9.55-21.29-21.29-21.29H21.29C9.55,0,0,9.55,0,21.29v213.1c0,11.74,9.55,21.29,21.29,21.29h98.03v17.78h-10.08c-7.21,0-12.84,2.05-16.75,6.1-6.21,6.45-5.88,15.68-5.65,21.79.05,1.49.11,2.89.05,3.82-.13,2.08.6,4.13,2.03,5.65s3.42,2.39,5.51,2.39h74.53v35.81c0,4.17,3.38,7.56,7.56,7.56s7.56-3.38,7.56-7.56v-94.86c1.69-1.27,2.83-3.23,2.99-5.47h309.82v155.52H184.08v-24.85c0-4.17-3.38-7.56-7.56-7.56s-7.56,3.38-7.56,7.56v53.64c0,11.74,9.55,21.29,21.29,21.29h98.03v17.78h-10.08c-7.21,0-12.84,2.05-16.75,6.1-6.21,6.45-5.88,15.68-5.65,21.79.05,1.49.11,2.89.05,3.82-.13,2.08.6,4.13,2.03,5.65s3.42,2.39,5.51,2.39h154.25c2.09,0,4.08-.86,5.51-2.39s2.16-3.57,2.03-5.65c-.06-.92-.02-2.28.02-3.72.16-6.18.41-15.52-5.89-21.98-3.89-3.99-9.43-6.02-16.48-6.02h-10.15v-17.78h98.03c11.74,0,21.29-9.55,21.29-21.29v-213.1c0-11.74-9.55-21.29-21.29-21.29h0ZM21.29,15.12h300.46c3.4,0,6.17,2.77,6.17,6.17v13.84l-90.29-.36h-.03c-4.16,0-7.54,3.36-7.56,7.53-.02,4.17,3.35,7.57,7.53,7.59l90.35.36v148.36h-137.68c-6.23,0-11.83,2.71-15.73,6.99H15.12V50.08h192.15c4.18,0,7.56-3.38,7.56-7.56s-3.38-7.56-7.56-7.56H15.12v-13.67c0-3.4,2.77-6.17,6.17-6.17h0ZM15.12,234.39v-13.67h153.84v19.85H21.29c-3.4,0-6.17-2.77-6.17-6.17h0ZM134.44,255.68h34.52v17.78h-34.52v-17.78ZM101.87,298.09c-.05-3.22.15-6.63,1.51-8.04.92-.95,3-1.48,5.86-1.48h59.72v9.52h-67.09ZM184.08,233.57v-13.67c0-.25.02-.5.05-.74,1.42-1.08,2.44-2.65,2.82-4.46.96-.61,2.09-.97,3.31-.97h300.46c3.4,0,6.17,2.77,6.17,6.17v13.67H184.08ZM408.48,488.63c1.4,1.44,1.66,4.83,1.65,8.07h-139.31c-.05-3.22.15-6.63,1.51-8.04.92-.95,3-1.48,5.87-1.48h124.63c1.59,0,4.43.19,5.65,1.45h0ZM377.56,472.07h-74.16v-17.78h74.16v17.78ZM496.88,433c0,3.4-2.77,6.17-6.17,6.17H190.25c-3.4,0-6.17-2.77-6.17-6.17v-13.67h312.81v13.67Z"/>
</svg>