<svg xmlns="http://www.w3.org/2000/svg" width="24" height="24" viewBox="0 0 24 24">
  <path d="M20.026,9.5a.5.5,0,0,0,.5-.5V4a.5.5,0,0,0-.5-.5h-5a.5.5,0,0,0,0,1h3.793l-6.793,6.793L5.233,4.5H9.026a.5.5,0,0,0,0-1h-5a.5.5,0,0,0-.461.309A.487.487,0,0,0,3.526,4V9a.5.5,0,0,0,1,0V5.207L11.319,12,4.526,18.793V15a.5.5,0,0,0-1,0v5a.487.487,0,0,0,.039.191.5.5,0,0,0,.461.309h5a.5.5,0,0,0,0-1H5.233l6.793-6.793L18.819,19.5H15.026a.5.5,0,1,0,0,1h5a.5.5,0,0,0,.5-.5V15a.5.5,0,1,0-1,0v3.793L12.733,12l6.793-6.793V9A.5.5,0,0,0,20.026,9.5Z"/>
</svg>
