<?xml version="1.0" encoding="utf-8"?>
<!-- Generator: Adobe Illustrator 28.4.1, SVG Export Plug-In . SVG Version: 6.00 Build 0)  -->
<svg version="1.0" id="Layer_1" xmlns="http://www.w3.org/2000/svg" xmlns:xlink="http://www.w3.org/1999/xlink" x="0px" y="0px"
	 viewBox="0 0 64 64" style="enable-background:new 0 0 64 64;" xml:space="preserve">
<style type="text/css">
	.st0{fill:none;stroke:#231F20;stroke-width:2;stroke-linecap:round;stroke-linejoin:round;stroke-miterlimit:10;}
</style>
<g>
	<circle class="st0" cx="31.9" cy="13.9" r="5"/>
	<path class="st0" d="M38.2,35.2v3.1c0,1.1,0.9,2,2,2h0c1.1,0,2-0.9,2-2v-10c0-3.1-2.3-5.9-5.4-6.2c-0.2,0-0.4,0-0.6,0h-8.3
		c-0.2,0-0.4,0-0.6,0c-3.1,0.3-5.4,3.1-5.4,6.2v10c0,1.1,0.9,2,2,2h0c1.1,0,2-0.9,2-2v-3.1"/>
	<line class="st0" x1="25.8" y1="56.2" x2="25.8" y2="28.1"/>
	<line class="st0" x1="38.2" y1="28.1" x2="38.2" y2="56.2"/>
	<line class="st0" x1="32" y1="43.4" x2="32" y2="56.2"/>
	<circle class="st0" cx="50.6" cy="12.7" r="5"/>
	<path class="st0" d="M57,34.1v3.1c0,1.1,0.9,2,2,2h0c1.1,0,2-0.9,2-2v-10c0-3.1-2.3-5.9-5.4-6.2c-0.2,0-0.4,0-0.6,0h-8.3
		c-0.2,0-0.4,0-0.6,0c-1.1,0.1-2,0.5-2.9,1.1"/>
	<line class="st0" x1="57" y1="27" x2="57" y2="56.2"/>
	<line class="st0" x1="50.8" y1="42.3" x2="50.8" y2="56.2"/>
	<line class="st0" x1="44.5" y1="42.3" x2="44.5" y2="56.2"/>
	<path class="st0" d="M13.4,7.8c-2.7,0-5,2.2-5,5s2.2,5,5,5s5-2.2,5-5S16.1,7.8,13.4,7.8"/>
	<path class="st0" d="M7,34.1v3.1c0,1.1-0.9,2-2,2h0c-1.1,0-2-0.9-2-2v-10c0-3.1,2.3-5.9,5.4-6.2c0.2,0,0.4,0,0.6,0h8.3
		c0.2,0,0.4,0,0.6,0c1.1,0.1,2,0.5,2.9,1.1"/>
	<line class="st0" x1="7" y1="27" x2="7" y2="56.2"/>
	<line class="st0" x1="13.2" y1="42.3" x2="13.2" y2="56.2"/>
	<line class="st0" x1="19.5" y1="42.3" x2="19.5" y2="56.2"/>
</g>
</svg>
