<svg xmlns="http://www.w3.org/2000/svg" width="128" height="128" viewBox="0 0 128 128">
  <title>BARRIER</title>
  <path d="M109.077,47.609a1.749,1.749,0,0,0,1.75-1.75V27.992a1.749,1.749,0,0,0-1.75-1.75h-7.92V23.708a6.431,6.431,0,1,0-12.861,0v2.534H39.78V23.708a6.431,6.431,0,1,0-12.861,0v2.534h-8a1.749,1.749,0,0,0-1.75,1.75V45.859a1.749,1.749,0,0,0,1.75,1.75h8v5.465h-8a1.75,1.75,0,0,0-1.75,1.75V72.691a1.749,1.749,0,0,0,1.75,1.75h8V97.955H23.24a6,6,0,0,0-5.99,5.99V109A1.75,1.75,0,0,0,19,110.75H47.7a1.75,1.75,0,0,0,1.75-1.75v-5.055a6,6,0,0,0-5.99-5.99H39.78V74.441H88.3V97.955H84.617a6,6,0,0,0-5.99,5.99V109a1.75,1.75,0,0,0,1.75,1.75h28.7a1.75,1.75,0,0,0,1.75-1.75v-5.055a6,6,0,0,0-5.991-5.99h-3.679V74.441h7.92a1.749,1.749,0,0,0,1.75-1.75V54.824a1.75,1.75,0,0,0-1.75-1.75h-7.92V47.609ZM70.365,70.941l6.857-14.367H87.593L80.736,70.941ZM88.3,53.074H39.78V47.609H88.3ZM40.407,70.941l6.857-14.367H57.635L50.778,70.941Zm17.228-41.2L50.778,44.109H40.407l6.857-14.367Zm29.958,0L80.736,44.109H70.365l6.857-14.367Zm19.734,14.367h-7l6.857-14.367h.146Zm-10.881,0H84.614l6.857-14.367H103.3Zm-4.65-20.4a2.931,2.931,0,1,1,5.861,0v2.4H91.8ZM73.344,29.742,66.487,44.109H54.656l6.857-14.367ZM30.419,23.708a2.931,2.931,0,1,1,5.861,0v2.4H30.419Zm-9.746,6.034h7L20.819,44.109h-.146Zm10.881,0H43.386L36.529,44.109H24.7Zm-1.135,18H36.28v5.328H30.419Zm-9.746,8.828h7L20.819,70.941h-.146Zm10.881,0H43.386L36.529,70.941H24.7Zm14.4,47.371v3.305H20.75v-3.305a2.493,2.493,0,0,1,2.49-2.49H43.459A2.493,2.493,0,0,1,45.949,103.945Zm-15.53-5.99V74.441H36.28V97.955ZM54.656,70.941l6.857-14.367H73.344L66.487,70.941Zm52.671,33v3.305h-25.2v-3.305a2.493,2.493,0,0,1,2.49-2.49h20.219A2.493,2.493,0,0,1,107.327,103.945Zm-9.67-5.99H91.8V74.441h5.861Zm9.67-27.014h-7l6.857-14.367h.146Zm-10.881,0H84.614l6.857-14.367H103.3ZM91.8,53.074V47.746h5.861v5.328Z"/>
</svg>
