<svg xmlns="http://www.w3.org/2000/svg" width="128" height="128" viewBox="0 0 128 128">
  <title>TIE</title>
  <path d="M76.024,52.32a1.748,1.748,0,0,0,1.284.561c.052,0,.106,0,.159-.007a1.754,1.754,0,0,0,1.318-.806L94.391,27.476a1.749,1.749,0,0,0-.121-2.042L88.135,17.9a1.765,1.765,0,0,0-.313-.293c-.026-.019-.053-.036-.08-.054a1.779,1.779,0,0,0-.4-.2c-.01,0-.018-.009-.028-.012a1.744,1.744,0,0,0-.481-.076c-.017,0-.034-.008-.052-.008H41.223c-.018,0-.035.008-.053.008a1.737,1.737,0,0,0-.48.076c-.01,0-.018.009-.028.012a1.723,1.723,0,0,0-.4.2c-.027.017-.054.034-.08.053a1.7,1.7,0,0,0-.313.293l-6.136,7.538a1.751,1.751,0,0,0-.12,2.042L49.215,52.068a1.754,1.754,0,0,0,1.318.806c.053,0,.107.007.159.007a1.748,1.748,0,0,0,1.284-.561l2.173-2.345,2.379,5.42-8.7,41.325a1.752,1.752,0,0,0,.6,1.711l14.457,11.92a1.752,1.752,0,0,0,2.226,0L79.57,98.431a1.752,1.752,0,0,0,.6-1.711L71.472,55.4l2.378-5.42Zm1.023-4.045-7.558-8.152-2.91-3.141,18.78-14.656,1.143-.891,4.258,5.23ZM64,34.554,46.31,20.75H81.69ZM50.953,48.275,37.24,26.665l4.258-5.23,1.142.891L61.421,36.982,58.51,40.123ZM68.5,53.456h-9l-2.755-6.279L64,39.349l7.256,7.828ZM64,106.731,51.474,96.4l8.3-39.448h8.448l8.3,39.448Z"/>
</svg>
