<?xml version="1.0" encoding="utf-8"?>
<!-- Generator: Adobe Illustrator 24.1.3, SVG Export Plug-In . SVG Version: 6.00 Build 0)  -->
<svg version="1.1" xmlns="http://www.w3.org/2000/svg" xmlns:xlink="http://www.w3.org/1999/xlink" x="0px" y="0px"
	 viewBox="0 0 24 24" style="enable-background:new 0 0 24 24;" xml:space="preserve">
<g id="Design_here">
	<g>
		<path d="M12.5,10.5c-0.28,0-0.5-0.22-0.5-0.5V5c0-0.28,0.22-0.5,0.5-0.5S13,4.72,13,5v5C13,10.28,12.78,10.5,12.5,10.5z"/>
	</g>
	<g>
		<path d="M15,8h-5C9.72,8,9.5,7.78,9.5,7.5S9.72,7,10,7h5c0.28,0,0.5,0.22,0.5,0.5S15.28,8,15,8z"/>
	</g>
	<g>
		<path d="M18,14H8c-0.22,0-0.42-0.14-0.48-0.36L4.63,4H3C2.72,4,2.5,3.78,2.5,3.5S2.72,3,3,3h2c0.22,0,0.42,0.14,0.48,0.36L8.37,13
			h9.25l1.9-6.64c0.08-0.27,0.36-0.42,0.62-0.34c0.27,0.08,0.42,0.35,0.34,0.62l-2,7C18.42,13.85,18.22,14,18,14z"/>
	</g>
	<g>
		<path d="M7,21c-1.38,0-2.5-1.12-2.5-2.5S5.62,16,7,16s2.5,1.12,2.5,2.5S8.38,21,7,21z M7,17c-0.83,0-1.5,0.67-1.5,1.5
			S6.17,20,7,20s1.5-0.67,1.5-1.5S7.83,17,7,17z"/>
	</g>
	<g>
		<path d="M17,21c-1.38,0-2.5-1.12-2.5-2.5S15.62,16,17,16s2.5,1.12,2.5,2.5S18.38,21,17,21z M17,17c-0.83,0-1.5,0.67-1.5,1.5
			S16.17,20,17,20s1.5-0.67,1.5-1.5S17.83,17,17,17z"/>
	</g>
	<g>
		<path d="M17,17H7c-0.16,0-0.31-0.08-0.41-0.21c-0.09-0.13-0.12-0.3-0.07-0.45l1-3c0.09-0.26,0.37-0.4,0.63-0.32
			c0.26,0.09,0.4,0.37,0.32,0.63L7.69,16H17c0.28,0,0.5,0.22,0.5,0.5S17.28,17,17,17z"/>
	</g>
</g>
<g id="Guide">
</g>
</svg>
