<svg xmlns="http://www.w3.org/2000/svg" width="128" height="128" viewBox="0 0 128 128">
  <title>HIGHLIGHTER</title>
  <path d="M107.842,32.777,96.263,21.2a9.789,9.789,0,0,0-13.317-.455L34.56,62.93c-.015.013-.026.03-.041.044s-.031.023-.045.037l-4.05,4.05a1.749,1.749,0,0,0-.436,1.75,20.073,20.073,0,0,1-5.011,20.121l-.391.392a1.749,1.749,0,0,0,0,2.474l1.1,1.105-7.88,7.879a1.75,1.75,0,0,0,.353,2.747l10.052,5.891a1.747,1.747,0,0,0,2.122-.272l5.8-5.8,1.1,1.105a1.752,1.752,0,0,0,2.475,0l.391-.392a20.076,20.076,0,0,1,20.12-5.009,1.751,1.751,0,0,0,1.75-.436l4.05-4.05c.015-.014.024-.031.038-.046s.031-.026.044-.041L108.3,46.094A9.79,9.79,0,0,0,107.842,32.777Zm-74.179,68.1-4.844,4.843-6.931-4.062,6.278-6.278,2.749,2.749Zm26.565-5.458A23.555,23.555,0,0,0,38.5,100.762l-6.816-6.815L29.4,91.665h0L28.277,90.54a23.562,23.562,0,0,0,5.347-21.73l2.087-2.086,26.605,26.6Zm45.43-51.623L64.7,90.766l-26.43-26.43L85.247,23.381a6.28,6.28,0,0,1,8.541.292l11.579,11.579A6.279,6.279,0,0,1,105.658,43.793Z"/>
</svg>
