<svg xmlns="http://www.w3.org/2000/svg" width="128" height="128" viewBox="0 0 128 128">
  <title>PODIUM</title>
  <path d="M107.057,105.354V99.139a1.75,1.75,0,0,0-1.75-1.75H99.013V70.716h1.828a1.75,1.75,0,0,0,0-3.5h-24V57.832h.413a1.75,1.75,0,0,0,0-3.5H50.75a1.75,1.75,0,0,0,0,3.5h.413V77.553h-24a1.75,1.75,0,1,0,0,3.5h1.828V97.389H22.693a1.75,1.75,0,0,0-1.75,1.75v6.215a1.751,1.751,0,0,0,1.75,1.75h82.614A1.751,1.751,0,0,0,107.057,105.354ZM76.837,70.716H95.513V97.389H76.837ZM54.663,79.3V57.832H73.337V97.389H54.663Zm-22.176,1.75H51.163V97.389H32.487Zm71.07,22.551H24.443v-2.715h79.114Z"/>
  <path d="M76.323,33.18a3.31,3.31,0,0,0-3.194-2.321H68.594l-1.4-4.312a3.357,3.357,0,0,0-6.386,0l-1.4,4.312H54.871A3.358,3.358,0,0,0,52.9,36.934L56.566,39.6l-1.4,4.313a3.358,3.358,0,0,0,5.167,3.754L64,45l3.669,2.666a3.307,3.307,0,0,0,3.947,0,3.306,3.306,0,0,0,1.219-3.753l-1.4-4.313L75.1,36.934A3.309,3.309,0,0,0,76.323,33.18Zm-7.03,3.648a3.348,3.348,0,0,0-1.22,3.754l1.3,3.994-3.4-2.469a3.354,3.354,0,0,0-3.947,0l-3.4,2.469,1.3-3.994a3.347,3.347,0,0,0-1.219-3.754l-3.4-2.469h4.2A3.35,3.35,0,0,0,62.7,32.04L64,28.046l1.3,3.994a3.348,3.348,0,0,0,3.193,2.319h4.2Z"/>
  <polygon points="60.298 66.577 61.203 68.16 62.746 67.202 62.746 73.775 65.008 73.775 65.008 64.635 63.199 64.635 60.298 66.577"/>
  <path d="M87.915,86.16c1.6-1.091,2.1-2.035,2.1-3.246,0-1.743-1.437-2.994-3.486-2.994a4.545,4.545,0,0,0-3.659,1.8l1.423,1.41a2.929,2.929,0,0,1,2.183-1.145,1.093,1.093,0,0,1,1.21,1.025c0,.558-.292,1.064-1.317,1.836l-3.38,2.528v1.85H90.11V87.185H86.478Z"/>
  <path d="M43.2,89.69a2.149,2.149,0,0,0,1.69-2.088c0-1.438-1.291-2.5-3.447-2.5a4.483,4.483,0,0,0-3.592,1.623l1.277,1.383a2.938,2.938,0,0,1,2.076-.97c.825,0,1.37.332,1.37.891,0,.533-.492.838-1.41.825H40.09v1.916l1.078-.013c1.158,0,1.6.292,1.6.864,0,.532-.506.918-1.424.918a3.337,3.337,0,0,1-2.368-1l-1.3,1.5a4.961,4.961,0,0,0,3.793,1.53c2.208,0,3.632-1.144,3.632-2.754A2.223,2.223,0,0,0,43.2,89.69Z"/>
</svg>
