<?xml version="1.0" encoding="UTF-8"?>
<svg id="Dash_Line" xmlns="http://www.w3.org/2000/svg" viewBox="0 0 96 96">
  <path d="M39.744,19.092h-20.231c-1.654,0-3,1.346-3,3v13.944c0,1.654,1.346,3,3,3h20.231c1.654,0,3-1.346,3-3v-13.944c0-1.654-1.346-3-3-3ZM19.513,21.092h20.231c.552,0,1,.448,1,1v13.121l-4.229-5.236c-.548-.683-1.361-1.073-2.235-1.073-.011,0-.021,0-.032,0-.889.009-1.709.421-2.251,1.127l-2.446,3.18-2.617-3.24c-.564-.693-1.383-1.083-2.288-1.067-.884.015-1.697.428-2.227,1.126l-3.906,5.073v-13.012c0-.552.448-1,1-1ZM30.069,37.036h-10.52l4.459-5.791c.22-.29.516-.338.672-.341.285-.007.528.117.7.328l4.689,5.804ZM30.844,34.812l2.74-3.562c.166-.217.416-.343.687-.346.129.002.455.037.687.327l4.688,5.805h-7.005l-1.797-2.224ZM29.329,28.428c1.586,0,2.876-1.29,2.876-2.876s-1.29-2.877-2.876-2.877-2.877,1.291-2.877,2.877,1.291,2.876,2.877,2.876ZM29.329,24.675c.483,0,.876.394.876.877s-.393.876-.876.876-.877-.393-.877-.876.394-.877.877-.877ZM39.744,47.778h-20.231c-1.654,0-3,1.346-3,3v13.944c0,1.654,1.346,3,3,3h20.231c1.654,0,3-1.346,3-3v-13.944c0-1.654-1.346-3-3-3ZM19.513,49.778h20.231c.552,0,1,.448,1,1v13.122l-4.229-5.235c-.548-.683-1.361-1.073-2.235-1.073h-.031c-.889.01-1.71.421-2.252,1.127l-2.446,3.181-2.618-3.239c-.564-.693-1.4-1.117-2.288-1.067-.884.015-1.697.427-2.227,1.125l-3.906,5.073v-13.012c0-.552.448-1,1-1ZM30.069,65.723h-10.52l4.459-5.79c.22-.29.515-.338.672-.341.285.028.528.116.7.328l4.689,5.803ZM30.844,63.5l2.739-3.563c.166-.216.417-.342.688-.345.178.02.456.038.687.327l4.688,5.804h-7.005l-1.796-2.223ZM29.329,57.114c1.586,0,2.876-1.29,2.876-2.876s-1.29-2.876-2.876-2.876-2.877,1.29-2.877,2.876,1.291,2.876,2.877,2.876ZM29.329,53.362c.483,0,.876.393.876.876s-.393.876-.876.876-.877-.393-.877-.876.394-.876.877-.876ZM76.487,19.092h-20.231c-1.654,0-3,1.346-3,3v13.944c0,1.654,1.346,3,3,3h20.231c1.654,0,3-1.346,3-3v-13.944c0-1.654-1.346-3-3-3ZM56.256,21.092h20.231c.552,0,1,.448,1,1v13.012l-3.901-5.066c-.534-.705-1.348-1.118-2.231-1.133-.875-.018-1.724.374-2.289,1.069l-2.616,3.238-2.445-3.179c-.543-.707-1.363-1.119-2.252-1.128-.011,0-.021,0-.032,0-.874,0-1.688.391-2.233,1.071l-4.23,5.238v-13.122c0-.552.448-1,1-1ZM63.36,37.036h-7.005l4.69-5.807c.229-.288.55-.342.685-.325.271.003.521.129.688.347l2.739,3.562-1.797,2.224ZM70.619,31.234c.173-.214.42-.335.701-.33.156.003.452.051.677.348l4.454,5.784h-10.52l4.688-5.802ZM66.671,28.428c1.586,0,2.877-1.29,2.877-2.876s-1.291-2.877-2.877-2.877-2.876,1.291-2.876,2.877,1.29,2.876,2.876,2.876ZM66.671,24.675c.483,0,.877.394.877.877s-.394.876-.877.876-.876-.393-.876-.876.393-.877.876-.877ZM76.487,47.778h-20.231c-1.654,0-3,1.346-3,3v13.944c0,1.654,1.346,3,3,3h20.231c1.654,0,3-1.346,3-3v-13.944c0-1.654-1.346-3-3-3ZM56.256,49.778h20.231c.552,0,1,.448,1,1v13.012l-3.901-5.067c-.534-.704-1.348-1.116-2.231-1.131-.867-.055-1.724.373-2.289,1.069l-2.617,3.238-2.446-3.18c-.542-.707-1.363-1.118-2.252-1.128-.884.03-1.712.382-2.265,1.071l-4.23,5.237v-13.122c0-.552.448-1,1-1ZM63.36,65.723h-7.005l4.69-5.806c.229-.287.532-.303.685-.325.271.003.521.129.688.346l2.739,3.562-1.797,2.223ZM70.619,59.922c.173-.215.42-.354.701-.33.157.003.452.051.677.347l4.454,5.784h-10.52l4.688-5.801ZM66.671,57.114c1.586,0,2.877-1.29,2.877-2.876s-1.291-2.876-2.877-2.876-2.876,1.29-2.876,2.876,1.29,2.876,2.876,2.876ZM66.671,53.362c.483,0,.877.393.877.876s-.394.876-.877.876-.876-.393-.876-.876.393-.876.876-.876ZM87.96,13.5h-2.217v-1.774c0-1.654-1.346-3-3-3h-30.743c-1.641,0-3.088.806-4,2.031-.912-1.225-2.359-2.031-4-2.031H13.257c-1.654,0-3,1.346-3,3v1.774h-2.217c-1.677,0-3.04,1.363-3.04,3.04v16.39c0,.553.447,1,1,1s1-.447,1-1v-16.39c0-.573.467-1.04,1.04-1.04h2.217v59.589c0,1.654,1.346,3,3,3h69.486c1.654,0,3-1.346,3-3V15.5h2.217c.573,0,1.04.467,1.04,1.04v63.46c0,.573-.467,1.04-1.04,1.04h-33.88c-.84,0-1.592.523-1.868,1.295-.645,1.756-2.337,2.935-4.212,2.935s-3.567-1.179-4.209-2.927c-.279-.779-1.031-1.303-1.871-1.303H8.04c-.573,0-1.04-.467-1.04-1.04v-38.07c0-.553-.447-1-1-1s-1,.447-1,1v38.07c0,1.677,1.363,3.04,3.04,3.04l33.871-.016c.931,2.539,3.378,4.245,6.089,4.245s5.158-1.706,6.08-4.229h33.88c1.677,0,3.04-1.363,3.04-3.04V16.54c0-1.677-1.363-3.04-3.04-3.04ZM12.257,75.089V11.726c0-.552.448-1,1-1h30.743c1.654,0,3,1.346,3,3v62.363H13.257c-.552,0-1-.448-1-1ZM82.743,76.089h-33.743V13.726c0-1.654,1.346-3,3-3h30.743c.552,0,1,.448,1,1v63.363c0,.552-.448,1-1,1ZM5,38.33v-1.8c0-.553.447-1,1-1s1,.447,1,1v1.8c0,.553-.447,1-1,1s-1-.447-1-1Z"/>
</svg>