<?xml version="1.0" encoding="utf-8"?>
<!-- Generator: Adobe Illustrator 24.1.3, SVG Export Plug-In . SVG Version: 6.00 Build 0)  -->
<svg version="1.1" xmlns="http://www.w3.org/2000/svg" xmlns:xlink="http://www.w3.org/1999/xlink" x="0px" y="0px"
	 viewBox="0 0 24 24" style="enable-background:new 0 0 24 24;" xml:space="preserve">
<g id="Design_here">
	<g>
		<path d="M17.5,18h-14C3.22,18,3,17.78,3,17.5v-11C3,6.22,3.22,6,3.5,6h14C17.78,6,18,6.22,18,6.5v11C18,17.78,17.78,18,17.5,18z
			 M4,17h13V7H4V17z"/>
	</g>
	<g>
		<path d="M7.5,16h-2C5.22,16,5,15.78,5,15.5v-7C5,8.22,5.22,8,5.5,8h2C7.78,8,8,8.22,8,8.5v7C8,15.78,7.78,16,7.5,16z M6,15h1V9H6
			V15z"/>
	</g>
	<g>
		<path d="M11.5,16h-2C9.22,16,9,15.78,9,15.5v-7C9,8.22,9.22,8,9.5,8h2C11.78,8,12,8.22,12,8.5v7C12,15.78,11.78,16,11.5,16z
			 M10,15h1V9h-1V15z"/>
	</g>
	<g>
		<path d="M15.5,16h-2c-0.28,0-0.5-0.22-0.5-0.5v-7C13,8.22,13.22,8,13.5,8h2C15.78,8,16,8.22,16,8.5v7C16,15.78,15.78,16,15.5,16z
			 M14,15h1V9h-1V15z"/>
	</g>
	<g>
		<path d="M20.5,15h-3c-0.28,0-0.5-0.22-0.5-0.5s0.22-0.5,0.5-0.5H20v-4h-2.5C17.22,10,17,9.78,17,9.5S17.22,9,17.5,9h3
			C20.78,9,21,9.22,21,9.5v5C21,14.78,20.78,15,20.5,15z"/>
	</g>
</g>
<g id="Guide">
</g>
</svg>
