<svg xmlns="http://www.w3.org/2000/svg" width="128" height="128" viewBox="0 0 128 128">
  <title>START UP</title>
  <path d="M64.22,42.93a5.225,5.225,0,0,0,4.286-2.486c.1-.139.193-.275.281-.424.119-.2.213-.424.315-.64a9.653,9.653,0,0,0,.908-4.11c0-4.3-2.543-7.66-5.79-7.66s-5.79,3.365-5.79,7.66a9.442,9.442,0,0,0,1.221,4.746A5.365,5.365,0,0,0,64.22,42.93Zm0-11.82c1.081,0,2.29,1.779,2.29,4.16a5.918,5.918,0,0,1-.739,2.973,1.608,1.608,0,0,1-3.105-.005,5.9,5.9,0,0,1-.736-2.968C61.93,32.889,63.139,31.11,64.22,31.11Z"/>
  <path d="M63.85,65.228a1.749,1.749,0,0,0-1.75,1.75v8.789a1.75,1.75,0,1,0,3.5,0V66.978A1.75,1.75,0,0,0,63.85,65.228Z"/>
  <path d="M56.97,66.625a1.749,1.749,0,0,0-1.75,1.75V72a1.75,1.75,0,0,0,3.5,0V68.375A1.75,1.75,0,0,0,56.97,66.625Z"/>
  <path d="M70.729,66.655a1.75,1.75,0,0,0-1.75,1.75V72.03a1.75,1.75,0,0,0,3.5,0V68.405A1.749,1.749,0,0,0,70.729,66.655Z"/>
  <path d="M107.3,43.52a6.146,6.146,0,0,0-6.14-6.14H76.969c-1.131-8.67-5.443-16.39-11.734-20.875a1.747,1.747,0,0,0-2.029,0c-6.3,4.475-10.609,12.2-11.735,20.877H27.23a6.146,6.146,0,0,0-6.14,6.14V87.14c0,.019,0,.038,0,.058v.551a5.79,5.79,0,0,0,5.5,5.5l.012,0h.012c.2.02.406.031.613.031h28.3v8.36h-6a1.75,1.75,0,0,0,0,3.5H78.864a1.75,1.75,0,0,0,0-3.5h-6V93.28h28.3c.2,0,.39-.011.581-.029a5.8,5.8,0,0,0,5.56-5.5V43.52ZM74.276,56.285c.213-.478.417-.96.605-1.448.008-.022.019-.044.027-.066l.007-.018h0c.286-.727.538-1.464.77-2.2.026-.081.06-.159.085-.24l3.042,3.541-1.857,4.838-3.583-2.546c.04-.074.073-.151.112-.226q.307-.59.59-1.193C74.142,56.576,74.21,56.431,74.276,56.285ZM54.784,39.276c.655-7.826,4.153-14.88,9.434-19.15C69.5,24.407,73,31.463,73.656,39.276l0,.017c.082.879.122,1.781.122,2.757a31.79,31.79,0,0,1-.609,6.221c-.117.612-.264,1.223-.422,1.832-.038.143-.075.286-.115.429-.165.6-.346,1.194-.551,1.784-.007.021-.016.042-.023.064H56.372c-.008-.024-.018-.047-.026-.071-.2-.592-.386-1.19-.553-1.792-.039-.142-.077-.285-.114-.428-.159-.606-.3-1.215-.425-1.826l-.006-.028a32.989,32.989,0,0,1-.588-6.185C54.66,41.074,54.7,40.172,54.784,39.276Zm15.8,16.6c-.17.338-.351.67-.535,1H58.389c-.185-.333-.375-.664-.544-1ZM52.735,52.51c.235.753.49,1.5.777,2.235l0,.008v0l.005.013v0c.191.5.4,1,.628,1.5.06.135.123.269.186.4q.285.614.6,1.219c.039.075.072.151.112.226l-3.613,2.567-1.85-4.836,3.067-3.572C52.678,52.356,52.71,52.432,52.735,52.51Zm16.629,49.13H59.029V93.28H69.364ZM103.8,87.14a2.638,2.638,0,0,1-2.5,2.627c-.046,0-.089.01-.135.01H27.232c-.051,0-.1-.009-.151-.012a2.634,2.634,0,0,1-2.488-2.6V84.642H103.8Zm0-29.657a11.3,11.3,0,0,0-9.4,9.45A11.309,11.309,0,0,0,84.209,78.171a1.75,1.75,0,0,0,3.5,0A7.8,7.8,0,0,1,95.5,70.377a7.724,7.724,0,0,1,3.183.677,1.75,1.75,0,0,0,1.431-3.194,11.248,11.248,0,0,0-2.214-.726,7.811,7.811,0,0,1,5.9-6.1v20.1H24.59V63.562a7.054,7.054,0,0,1,5.123,5.305A10.486,10.486,0,0,0,26.6,70.034a1.75,1.75,0,0,0,1.753,3.029,7.041,7.041,0,0,1,10.558,6.1,1.75,1.75,0,0,0,3.5,0,10.548,10.548,0,0,0-9.171-10.44,10.546,10.546,0,0,0-8.646-8.73V43.52a2.643,2.643,0,0,1,2.64-2.64H51.179c-.013.382-.019.77-.019,1.17a36.471,36.471,0,0,0,.51,6L46.252,54.36a1.75,1.75,0,0,0-.306,1.765l3.03,7.92A1.748,1.748,0,0,0,50.1,65.1a1.73,1.73,0,0,0,.507.075,1.751,1.751,0,0,0,1.014-.323l6.285-4.467H70.481l6.286,4.467a1.749,1.749,0,0,0,2.647-.8l3.04-7.92a1.749,1.749,0,0,0-.307-1.768l-5.392-6.274a35.347,35.347,0,0,0,.525-6.035c0-.4-.006-.788-.018-1.17h23.9a2.643,2.643,0,0,1,2.64,2.64Z"/>
  <path d="M30.5,44.417A1.583,1.583,0,1,0,32.083,46,1.583,1.583,0,0,0,30.5,44.417Z"/>
  <path d="M35.321,44.417A1.583,1.583,0,1,0,36.905,46,1.583,1.583,0,0,0,35.321,44.417Z"/>
  <path d="M40.143,44.417A1.583,1.583,0,1,0,41.726,46,1.583,1.583,0,0,0,40.143,44.417Z"/>
</svg>
