<svg xmlns="http://www.w3.org/2000/svg" width="128" height="128" viewBox="0 0 128 128">
  <title>WARNING SIGN</title>
  <g>
    <path d="M109.436,90.893,71.888,27.729a9.177,9.177,0,0,0-15.776,0h0L18.563,90.893a9.176,9.176,0,0,0,7.887,13.865h75.1a9.175,9.175,0,0,0,7.886-13.865Zm-2.953,7.5a5.614,5.614,0,0,1-4.933,2.869H26.45a5.677,5.677,0,0,1-4.879-8.577L59.12,29.518a5.677,5.677,0,0,1,9.76,0l37.549,63.164A5.612,5.612,0,0,1,106.483,98.389Z"/>
    <path d="M64,47.324a6.331,6.331,0,0,0-6.324,6.324v15.32a6.324,6.324,0,0,0,12.648,0V53.648A6.331,6.331,0,0,0,64,47.324Zm2.824,21.644a2.824,2.824,0,0,1-5.648,0V53.648a2.824,2.824,0,1,1,5.648,0Z"/>
    <path d="M64,79.177A6.324,6.324,0,1,0,70.324,85.5,6.331,6.331,0,0,0,64,79.177Zm0,9.148A2.824,2.824,0,1,1,66.824,85.5,2.827,2.827,0,0,1,64,88.325Z"/>
  </g>
</svg>
