<?xml version="1.0" encoding="utf-8"?>
<!-- Generator: Adobe Illustrator 23.0.6, SVG Export Plug-In . SVG Version: 6.00 Build 0)  -->
<svg version="1.1" id="Layer_1" xmlns="http://www.w3.org/2000/svg" xmlns:xlink="http://www.w3.org/1999/xlink" x="0px" y="0px"
	 viewBox="0 0 128 128" style="enable-background:new 0 0 128 128;" xml:space="preserve">
<title>PROCESS</title>
<g>
	<path d="M83,51.7H46c-2.6,0-4.7,2.1-4.7,4.7v5.8H26.4c-3.3,0-5.9,2.7-5.9,5.9v25.9c0,3.3,2.7,5.9,5.9,5.9l6.3,0l-1.6,1.6
		c-0.7,0.7-0.7,1.8,0,2.5c0.7,0.7,1.8,0.7,2.4,0c0,0,3.4-3.4,4.5-4.5l0,0l0,0c0.6-0.6,0.8-1.7,0-2.4c-0.1-0.1-4.4-4.4-4.6-4.6
		c-0.7-0.7-1.8-0.5-2.5,0.2c-0.5,0.6-0.5,1.6,0,2.2l1.5,1.5l-6.2,0c-1.3,0-2.4-1.1-2.4-2.4V68.2c0-1.3,1.1-2.4,2.4-2.4h14.9v5.8
		c0,2.6,2.1,4.7,4.7,4.7H83c2.6,0,4.7-2.1,4.7-4.7V56.4C87.8,53.8,85.7,51.7,83,51.7z M84.3,71.6c0,0.7-0.6,1.2-1.2,1.2H46
		c-0.7,0-1.2-0.6-1.2-1.2V56.4c0-0.7,0.6-1.2,1.2-1.2H83c0.7,0,1.2,0.6,1.2,1.2V71.6z"/>
	<path d="M83,86.1H46c-2.6,0-4.7,2.1-4.7,4.7V106c0,2.6,2.1,4.7,4.7,4.7H83c2.6,0,4.7-2.1,4.7-4.7V90.9C87.8,88.2,85.7,86.1,83,86.1
		z M84.3,106c0,0.7-0.6,1.2-1.2,1.2H46c-0.7,0-1.2-0.6-1.2-1.2V90.9c0-0.7,0.6-1.2,1.2-1.2H83c0.7,0,1.2,0.6,1.2,1.2V106z"/>
	<path d="M102.6,27.8H87.8V22c0-2.6-2.1-4.7-4.7-4.7H46c-2.6,0-4.7,2.1-4.7,4.7v15.2c0,2.6,2.1,4.7,4.7,4.7H83
		c2.6,0,4.7-2.1,4.7-4.7v-5.8h14.9c1.3,0,2.4,1.1,2.4,2.4v25.6c0,1.4-1.1,2.4-2.5,2.4c0,0,0,0,0,0l-6.1,0l1.5-1.5
		c0.7-0.7,0.7-1.8,0-2.5c-0.7-0.7-1.8-0.7-2.5,0L91,62.4l0,0c-0.7,0.7-0.7,1.8,0,2.5l0,0l0,0l4.5,4.5c0.6,0.7,1.7,0.8,2.5,0.2
		c0.8-0.7,0.8-1.9,0-2.6l-1.6-1.6l6.3,0c3.3,0,5.9-2.7,5.9-5.9V33.8C108.6,30.5,105.9,27.8,102.6,27.8z M84.3,37.1
		c0,0.7-0.6,1.2-1.2,1.2H46c-0.7,0-1.2-0.6-1.2-1.2V22c0-0.7,0.6-1.2,1.2-1.2H83c0.7,0,1.2,0.6,1.2,1.2V37.1z"/>
	<path d="M105.2,97.2c-1.1-1.1-4.5-4.5-4.5-4.5c-0.7-0.7-1.8-0.7-2.5,0s-0.7,1.8,0,2.5l1.6,1.6h-7.5c-1,0-1.8,0.8-1.8,1.8
		s0.8,1.8,1.8,1.8h7.5l-1.6,1.6c-0.7,0.7-0.7,1.8,0,2.5s1.8,0.7,2.5,0c0,0,3.4-3.4,4.5-4.5C105.9,99,105.9,97.9,105.2,97.2z"/>
	<path d="M22.2,29.8h7.5l-1.6,1.6c-0.7,0.7-0.7,1.8,0,2.5s1.8,0.7,2.5,0l0,0c0,0,3.4-3.4,4.5-4.5c0.6-0.6,0.8-1.6,0-2.5
		c-0.5-0.5-4.5-4.5-4.5-4.5c-0.7-0.7-1.8-0.7-2.5,0c-0.7,0.7-0.7,1.8,0,2.4l1.6,1.6h-7.5c-1,0-1.8,0.8-1.8,1.8S21.2,29.8,22.2,29.8
		L22.2,29.8z"/>
</g>
</svg>
