<svg fill="#000000" xmlns="http://www.w3.org/2000/svg"  viewBox="0 0 50 50" width="50px" height="50px"><path d="M 8.984375 5.9863281 A 1.0001 1.0001 0 0 0 8 7 L 8 9 L 3 9 C 1.3550302 9 0 10.35503 0 12 L 0 40 C 0 41.64497 1.3550302 43 3 43 L 23 43 C 23.768584 43 24.466647 42.695875 25 42.212891 C 25.533353 42.695875 26.231416 43 27 43 L 47 43 C 48.64497 43 50 41.64497 50 40 L 50 12 C 50 10.35503 48.64497 9 47 9 L 44 9 L 44 11 L 47 11 C 47.56503 11 48 11.43497 48 12 L 48 40 C 48 40.56503 47.56503 41 47 41 L 27 41 C 26.43497 41 26 40.56503 26 40 L 26 39 L 24 39 L 24 40 C 24 40.56503 23.56503 41 23 41 L 3 41 C 2.4349698 41 2 40.56503 2 40 L 2 12 C 2 11.43497 2.4349698 11 3 11 L 8 11 L 8 12 A 1.0001 1.0001 0 1 0 10 12 L 10 7 A 1.0001 1.0001 0 0 0 8.984375 5.9863281 z M 16.984375 5.9863281 A 1.0001 1.0001 0 0 0 16 7 L 16 9 L 12 9 L 12 11 L 16 11 L 16 12 A 1.0001 1.0001 0 1 0 18 12 L 18 7 A 1.0001 1.0001 0 0 0 16.984375 5.9863281 z M 32.984375 5.9863281 A 1.0001 1.0001 0 0 0 32 7 L 32 9 L 27 9 C 26.231416 9 25.533353 9.3041249 25 9.7871094 C 24.466647 9.3041249 23.768584 9 23 9 L 20 9 L 20 11 L 23 11 C 23.56503 11 24 11.43497 24 12 L 24 13 L 26 13 L 26 12 C 26 11.43497 26.43497 11 27 11 L 32 11 L 32 12 A 1.0001 1.0001 0 1 0 34 12 L 34 7 A 1.0001 1.0001 0 0 0 32.984375 5.9863281 z M 40.984375 5.9863281 A 1.0001 1.0001 0 0 0 40 7 L 40 9 L 36 9 L 36 11 L 40 11 L 40 12 A 1.0001 1.0001 0 1 0 42 12 L 42 7 A 1.0001 1.0001 0 0 0 40.984375 5.9863281 z M 24 15 L 24 17 L 26 17 L 26 15 L 24 15 z M 13 18 C 12.6 20.4 11.4 20.9 9 21 L 9 23 C 12 23 13 22 13 22 L 13 34 L 15 34 L 15 18 L 13 18 z M 37 18 C 32.193 18 32 22.7 32 26 C 32 28.5 31.808 34 37 34 C 41.711 34 42 29.2 42 26 C 42 22.7 41.712 18 37 18 z M 24 19 L 24 21 L 26 21 L 26 19 L 24 19 z M 37 20 C 38.9 20 40 20.982 40 26 C 40 30.996 38.852 32 37 32 C 35.712 32 35.238031 31.525141 35.082031 31.369141 C 33.989031 30.274141 33.997 27.664672 34 26.263672 L 34 26 C 34.001 20.928 35.011 20 37 20 z M 24 23 L 24 25 L 26 25 L 26 23 L 24 23 z M 24 27 L 24 29 L 26 29 L 26 27 L 24 27 z M 24 31 L 24 33 L 26 33 L 26 31 L 24 31 z M 24 35 L 24 37 L 26 37 L 26 35 L 24 35 z"/></svg>