<?xml version="1.0" encoding="utf-8"?>
<!-- Generator: Adobe Illustrator 28.4.1, SVG Export Plug-In . SVG Version: 6.00 Build 0)  -->
<svg version="1.0" id="Layer_1" xmlns="http://www.w3.org/2000/svg" xmlns:xlink="http://www.w3.org/1999/xlink" x="0px" y="0px"
	 viewBox="0 0 64 64" style="enable-background:new 0 0 64 64;" xml:space="preserve">
<style type="text/css">
	.st0{fill:none;stroke:#231F20;stroke-width:2;stroke-linecap:round;stroke-linejoin:round;stroke-miterlimit:10;}
</style>
<g>
	<path class="st0" d="M8.1,59.3v-7.6c0-4.4,3.6-8,8-8h0c4.4,0,8,3.6,8,8v7.6"/>
	<path class="st0" d="M24,59.3v-7.6c0-4.4,3.6-8,8-8h0c4.4,0,8,3.6,8,8v7.6"/>
	<path class="st0" d="M40,59.3v-7.6c0-4.4,3.6-8,8-8h0c4.4,0,8,3.6,8,8v7.6"/>
	<circle class="st0" cx="16.1" cy="37.4" r="6"/>
	<circle class="st0" cx="32" cy="37.4" r="6"/>
	<path class="st0" d="M16.1,27.8V25c0-4.4,3.6-8,8-8h0c4.4,0,8,3.6,8,8v2.8"/>
	<path class="st0" d="M32,27.8V25c0-4.4,3.6-8,8-8h0c4.4,0,8,3.6,8,8v2.8"/>
	<circle class="st0" cx="24" cy="10.7" r="6"/>
	<circle class="st0" cx="40" cy="10.7" r="6"/>
	<circle class="st0" cx="47.9" cy="37.4" r="6"/>
</g>
</svg>
