<svg xmlns="http://www.w3.org/2000/svg" width="128" height="128" viewBox="0 0 128 128">
  <title>TO DO LIST</title>
  <g>
    <path d="M102.272,11.262H84.538L78.345,5.069a1.749,1.749,0,0,0-1.237-.512H50.892a1.749,1.749,0,0,0-1.237.512l-6.193,6.193H25.727a6.758,6.758,0,0,0-6.75,6.75v98.681a6.758,6.758,0,0,0,6.75,6.75h76.545a6.757,6.757,0,0,0,6.75-6.75V18.012A6.757,6.757,0,0,0,102.272,11.262ZM96.491,23.793v87.119H31.509V23.793ZM51.617,8.057H76.383l5.681,5.679v5.307a1.252,1.252,0,0,1-1.25,1.25H47.186a1.252,1.252,0,0,1-1.25-1.25V13.736Zm53.905,108.636a3.254,3.254,0,0,1-3.25,3.25H25.727a3.254,3.254,0,0,1-3.25-3.25V18.012a3.254,3.254,0,0,1,3.25-3.25H42.436v4.281a4.66,4.66,0,0,0,.189,1.25H29.759a1.749,1.749,0,0,0-1.75,1.75v90.619a1.749,1.749,0,0,0,1.75,1.75H98.241a1.749,1.749,0,0,0,1.75-1.75V22.043a1.749,1.749,0,0,0-1.75-1.75H85.375a4.66,4.66,0,0,0,.189-1.25V14.762h16.708a3.254,3.254,0,0,1,3.25,3.25Z"/>
    <path d="M59.619,15.925h8.762a1.75,1.75,0,0,0,0-3.5H59.619a1.75,1.75,0,0,0,0,3.5Z"/>
    <path d="M64,40.276H86.137a1.75,1.75,0,0,0,0-3.5H64a1.75,1.75,0,0,0,0,3.5Z"/>
    <path d="M45.173,44.142a1.752,1.752,0,0,0,2.475,0L56.4,35.385A1.75,1.75,0,1,0,53.93,32.91l-7.52,7.52L43.1,37.12A1.75,1.75,0,0,0,40.626,39.6Z"/>
    <path d="M64,78.712H86.137a1.75,1.75,0,0,0,0-3.5H64a1.75,1.75,0,1,0,0,3.5Z"/>
    <path d="M45.173,82.577a1.749,1.749,0,0,0,2.475,0L56.4,73.82a1.749,1.749,0,0,0-2.474-2.474l-7.52,7.519L43.1,75.556a1.75,1.75,0,0,0-2.475,2.474Z"/>
    <path d="M64,59.494H86.137a1.75,1.75,0,0,0,0-3.5H64a1.75,1.75,0,0,0,0,3.5Z"/>
    <path d="M45.173,63.359a1.749,1.749,0,0,0,2.475,0L56.4,54.6a1.75,1.75,0,1,0-2.474-2.475l-7.52,7.519L43.1,56.338a1.75,1.75,0,0,0-2.475,2.475Z"/>
    <path d="M64,97.929H86.137a1.75,1.75,0,0,0,0-3.5H64a1.75,1.75,0,0,0,0,3.5Z"/>
    <path d="M45.173,101.8a1.749,1.749,0,0,0,2.475,0L56.4,93.038a1.749,1.749,0,1,0-2.474-2.474l-7.52,7.519L43.1,94.773a1.75,1.75,0,0,0-2.475,2.475Z"/>
  </g>
</svg>
