<?xml version="1.0" encoding="utf-8"?>
<!-- Generator: Adobe Illustrator 23.0.6, SVG Export Plug-In . SVG Version: 6.00 Build 0)  -->
<svg version="1.1" id="Layer_1" xmlns="http://www.w3.org/2000/svg" xmlns:xlink="http://www.w3.org/1999/xlink" x="0px" y="0px"
	 viewBox="0 0 128 128" style="enable-background:new 0 0 128 128;" xml:space="preserve">
<title>TIME MANAGEMENT</title>
<path d="M95.9,71.2l-11.6,7.7l-9.1-6.3c-0.8-0.5-1.9-0.3-2.4,0.5c-0.5,0.8-0.3,1.9,0.5,2.4l7.9,5.5l-2,1.4c-0.8,0.5-1,1.6-0.5,2.4
	c0.5,0.8,1.6,1,2.4,0.5l3.2-2.1l3.2,2.2c0.8,0.6,1.9,0.4,2.4-0.4c0.6-0.8,0.4-1.9-0.5-2.5l-2-1.4l10.4-6.9c0.8-0.5,1-1.6,0.5-2.4
	C97.9,70.8,96.7,70.6,95.9,71.2L95.9,71.2z"/>
<path d="M94.7,58.7c0.6-2.3,2.2-4.3,4.2-5.5c2.9-1.6,4.2-5.2,2.8-8.2c-1.2-2.6-2.6-5.2-4.4-7.6c-2-2.7-5.7-3.5-8.6-1.7
	c-4.3,2.5-9.9,1.1-12.4-3.2c-0.8-1.4-1.3-3.1-1.2-4.8c0-3.3-2.5-6.1-5.8-6.5c-2.9-0.3-5.9-0.3-8.8,0c-3.3,0.3-5.8,3.1-5.8,6.4
	c0.1,5-3.8,9.1-8.8,9.2c-1.7,0-3.4-0.4-4.8-1.2c-2.9-1.7-6.6-1-8.6,1.8c-1.7,2.4-3.2,4.9-4.4,7.6c-1.3,3.1-0.1,6.6,2.8,8.2
	c4.3,2.5,5.9,8,3.4,12.3c-0.8,1.4-2,2.6-3.4,3.4c-2.9,1.6-4.2,5.2-2.9,8.3c1.2,2.6,2.6,5.2,4.4,7.6c2,2.7,5.7,3.5,8.6,1.7
	c4.3-2.5,9.9-1.1,12.4,3.2c0.9,1.5,1.3,3.1,1.2,4.8c0,3.3,2.5,6.1,5.8,6.4c4,0.4,8,0.2,9.4-0.1c4.1,3,9,4.6,14.3,4.6
	c13.5,0,24.6-11,24.6-24.6l0,0l0,0C108.9,80.9,109.4,65.5,94.7,58.7z M61,97.6c-1.5-0.2-2.6-1.4-2.7-2.9C58.5,87.8,53,82,46.1,81.8
	c-2.3-0.1-4.6,0.5-6.7,1.7c-1.3,0.8-3.1,0.5-4-0.8c-1.6-2.1-2.9-4.5-4-7c-0.6-1.4,0-3.1,1.4-3.8c6-3.4,8.1-11.1,4.7-17.1
	c-1.1-2-2.8-3.6-4.7-4.7c-1.4-0.7-2-2.4-1.4-3.8c1.1-2.5,2.4-4.8,4-7c0.9-1.3,2.7-1.6,4-0.8c6,3.5,13.6,1.5,17.2-4.4
	c1.2-2,1.8-4.3,1.7-6.7c0-1.5,1.2-2.8,2.7-2.9c2.7-0.3,5.4-0.3,8,0c1.5,0.2,2.6,1.4,2.7,2.9c-0.2,6.9,5.3,12.7,12.3,12.8
	c2.3,0.1,4.6-0.5,6.6-1.7c1.3-0.8,3.1-0.5,4,0.8c1.6,2.1,2.9,4.5,4,7c0.6,1.4,0,3.1-1.4,3.8h0c-2.8,1.6-4.9,4.2-5.8,7.3
	c-2.7-0.8-5-1-7.4-1c-0.7,0-1.9,0.1-2,0.1C80.1,47.1,70.9,41,61.5,43C52.1,44.9,46,54.2,48,63.6c1.3,6.3,6,11.4,12.2,13.2
	c-0.4,2.1-0.4,4.2-0.4,4.3c0,5.9,2.1,11.8,6.6,16.7C64.6,97.8,62.8,97.8,61,97.6L61,97.6z M78.6,57.1c-8.4,2.3-14.5,7.4-17.6,16.3
	c-7.3-2.2-11.5-10-9.2-17.4c2.2-7.3,10-11.5,17.4-9.2C73.9,48.2,77.5,52.2,78.6,57.1z M104.1,82.7h1.3c-0.9,10.2-9,18.4-19.2,19.2
	v-1.3c0-1-0.8-1.8-1.8-1.8s-1.8,0.8-1.8,1.8v1.3c-10.3-0.9-18.4-9-19.3-19.3h1.3c1,0,1.8-0.8,1.8-1.8s-0.8-1.8-1.8-1.8h-1.3
	C64.2,69.1,72,60.6,82.6,60v1.3c0,1,0.8,1.8,1.8,1.8s1.8-0.8,1.8-1.8V60c1,0,3.7,0.5,6,1.4c7.5,3,12.6,9.9,13.2,17.8h-1.3
	c-1,0-1.8,0.8-1.8,1.8S103.1,82.7,104.1,82.7z"/>
</svg>
