<?xml version="1.0" encoding="UTF-8" standalone="no"?>
<!DOCTYPE svg PUBLIC "-//W3C//DTD SVG 1.1//EN" "http://www.w3.org/Graphics/SVG/1.1/DTD/svg11.dtd">
<svg width="100%" height="100%" viewBox="0 0 48 48" version="1.1" xmlns="http://www.w3.org/2000/svg" xmlns:xlink="http://www.w3.org/1999/xlink" xml:space="preserve" xmlns:serif="http://www.serif.com/" style="fill-rule:evenodd;clip-rule:evenodd;stroke-linejoin:round;stroke-miterlimit:2;">
    <g transform="matrix(1,0,0,1,-146,-78)">
        <g id="DesignHere">
            <path d="M165.882,112.608L167.502,115.848C167.975,116.794 168.942,117.392 170,117.392C171.058,117.392 172.025,116.794 172.498,115.848L174.118,112.608L188.074,112.608C189.69,112.608 191,111.298 191,109.682C191,105.184 191,94.032 191,89.534C191,87.918 189.69,86.608 188.074,86.608L151.926,86.608C150.31,86.608 149,87.918 149,89.534C149,94.032 149,105.184 149,109.682C149,111.298 150.31,112.608 151.926,112.608L165.882,112.608ZM167.394,111.161C167.225,110.822 166.879,110.608 166.5,110.608L151.926,110.608C151.415,110.608 151,110.193 151,109.682C151,105.184 151,94.032 151,89.534C151,89.023 151.415,88.608 151.926,88.608C151.926,88.608 188.074,88.608 188.074,88.608C188.585,88.608 189,89.023 189,89.534C189,94.032 189,105.184 189,109.682C189,110.193 188.585,110.608 188.074,110.608C188.074,110.608 173.5,110.608 173.5,110.608C173.121,110.608 172.775,110.822 172.606,111.161L170.709,114.954C170.575,115.222 170.3,115.392 170,115.392C169.7,115.392 169.425,115.222 169.291,114.954C169.291,114.954 167.394,111.161 167.394,111.161ZM169,104.608L169,105.608C169,106.16 169.448,106.608 170,106.608C170.552,106.608 171,106.16 171,105.608L171,104.608C171,104.056 170.552,103.608 170,103.608C169.448,103.608 169,104.056 169,104.608ZM168,94.89C168,94.734 168.126,94.608 168.282,94.608L171.718,94.608C171.793,94.608 171.865,94.638 171.917,94.691C171.97,94.743 172,94.815 172,94.89L172,97.326C172,97.401 171.97,97.473 171.917,97.526C171.865,97.578 171.793,97.608 171.718,97.608L170,97.608C169.448,97.608 169,98.056 169,98.608L169,101.608C169,102.16 169.448,102.608 170,102.608C170.552,102.608 171,102.16 171,101.608L171,99.608C171,99.608 171.718,99.608 171.718,99.608C172.323,99.608 172.904,99.368 173.332,98.94C173.76,98.512 174,97.931 174,97.326C174,96.578 174,95.638 174,94.89C174,94.285 173.76,93.704 173.332,93.276C172.904,92.848 172.323,92.608 171.718,92.608C170.97,92.608 169.03,92.608 168.282,92.608C167.022,92.608 166,93.63 166,94.89C166,95.442 166.448,95.89 167,95.89C167.552,95.89 168,95.442 168,94.89Z"/>
        </g>
    </g>
</svg>
