<svg xmlns="http://www.w3.org/2000/svg" width="128" height="128" viewBox="0 0 128 128">
  <title>Router</title>
  <path d="M21.512,105.4h2.673l1.685,5.365a7.455,7.455,0,0,0,7.062,4.8H95.071a7.473,7.473,0,0,0,7.086-4.869l1.661-5.294h2.67a8.935,8.935,0,0,0,8.925-8.924V76.11a8.935,8.935,0,0,0-8.925-8.924H48.176V63.944a8.183,8.183,0,0,0-6.422-7.979V36.023a6.772,6.772,0,1,0-3.5,0V55.965a8.183,8.183,0,0,0-6.422,7.979v3.242H21.512a8.935,8.935,0,0,0-8.925,8.924V96.473A8.935,8.935,0,0,0,21.512,105.4Zm77.33,4.175a3.949,3.949,0,0,1-3.771,2.488H32.932a3.933,3.933,0,0,1-3.746-2.417L27.854,105.4h72.3ZM36.732,29.489a3.272,3.272,0,1,1,3.448,3.253A1.692,1.692,0,0,0,40,32.725a1.711,1.711,0,0,0-.177.017A3.266,3.266,0,0,1,36.732,29.489Zm-1.4,34.455a4.672,4.672,0,1,1,9.344,0v3.242H35.332ZM16.087,76.11a5.431,5.431,0,0,1,5.425-5.424h84.976a5.431,5.431,0,0,1,5.425,5.424V96.473a5.431,5.431,0,0,1-5.425,5.424H21.512a5.431,5.431,0,0,1-5.425-5.424Z"/>
  <path d="M35.207,94.643A9.108,9.108,0,1,0,26.1,85.535,9.119,9.119,0,0,0,35.207,94.643Zm0-14.716A5.608,5.608,0,1,1,29.6,85.535,5.613,5.613,0,0,1,35.207,79.927Z"/>
  <path d="M64,83h36.152a1.75,1.75,0,0,0,0-3.5H64A1.75,1.75,0,0,0,64,83Z"/>
  <path d="M64,91.566h36.152a1.75,1.75,0,0,0,0-3.5H64a1.75,1.75,0,0,0,0,3.5Z"/>
  <path d="M30.8,40.814A1.75,1.75,0,1,0,33.012,38.1a11.1,11.1,0,0,1-.006-17.22,1.75,1.75,0,0,0-2.213-2.712,14.6,14.6,0,0,0,.01,22.647Z"/>
  <path d="M47,20.88A11.085,11.085,0,0,1,47,38.1a1.75,1.75,0,1,0,2.2,2.717,14.583,14.583,0,0,0,.01-22.649A1.75,1.75,0,1,0,47,20.88Z"/>
  <path d="M24.364,46.464a1.75,1.75,0,0,0,1.252-2.973,20.064,20.064,0,0,1,0-28,1.75,1.75,0,1,0-2.5-2.445,23.565,23.565,0,0,0,0,32.894A1.744,1.744,0,0,0,24.364,46.464Z"/>
  <path d="M60.092,29.49a19.968,19.968,0,0,1-5.695,14,1.75,1.75,0,0,0,2.508,2.442,23.565,23.565,0,0,0,0-32.89A1.75,1.75,0,0,0,54.4,15.486,19.969,19.969,0,0,1,60.092,29.49Z"/>
</svg>
