<?xml version="1.0" encoding="UTF-8"?>
<svg id="Expanded" xmlns="http://www.w3.org/2000/svg" viewBox="0 0 64 64">
  <path d="M42.99,27.14c0-2.43-2.02-4.41-4.44-4.23-.48-1.56-1.89-2.65-3.55-2.65-1.23,0-2.31.61-2.99,1.54-.68-.93-1.76-1.54-2.99-1.54-1.71,0-3.17,1.19-3.6,2.82-1.96.11-3.53,1.77-3.53,3.79,0,.55.12,1.1.36,1.6-1.19.65-1.98,1.93-1.98,3.35,0,1.14.5,2.19,1.34,2.9-.38.65-.58,1.39-.58,2.15,0,2.43,2,4.39,4.44,4.23.48,1.56,1.89,2.65,3.55,2.65,1.23,0,2.31-.61,2.99-1.54.68.93,1.76,1.54,2.99,1.54,1.71,0,3.17-1.19,3.6-2.82,1.96-.11,3.53-1.77,3.53-3.79,0-.55-.12-1.1-.36-1.6,1.19-.65,1.98-1.93,1.98-3.35,0-1.14-.5-2.19-1.34-2.9.38-.65.58-1.39.58-2.15ZM31.25,30.02c-.83.16-2.15.66-3.22,2.18-1.04,1.48-1.74,1.63-1.81,1.65-.39,0-.72.3-.75.7-.03.41.28.77.7.8.02,0,.04,0,.06,0,.34,0,1.54-.17,3.03-2.29.67-.95,1.44-1.33,1.99-1.49v8.39c0,1.27-1.01,2.3-2.24,2.3-1.14,0-2.08-.88-2.21-2.05,0-.27.13-1.73,1.94-2.32.39-.13.61-.55.48-.95s-.55-.61-.95-.48c-1.93.63-2.69,2.08-2.9,3.13-1.57.13-2.86-1.14-2.86-2.72,0-.68.25-1.33.7-1.84.15-.17.22-.41.18-.63s-.19-.42-.39-.53c-.77-.4-1.24-1.18-1.24-2.05,0-1.07.74-2.02,1.77-2.25.26-.06.46-.24.55-.49.08-.25.03-.52-.14-.72-.25-.3-.55-.8-.55-1.49,0-1.17.86-2.13,1.96-2.27.08.53.27,1.25.73,1.91-.42.53-.93,1.38-.81,2.33.08.58.43,1.4,1.68,2.03.11.05.22.08.34.08.27,0,.54-.15.67-.41.19-.37.04-.82-.33-1.01-.53-.27-.82-.56-.86-.88-.05-.37.19-.8.44-1.13.54.3,1.16.49,1.88.52.01,0,.02,0,.03,0,.4,0,.73-.32.75-.72.02-.41-.3-.76-.72-.78-2.36-.1-2.36-2.34-2.35-2.62.08-1.2,1.05-2.15,2.22-2.15,1.24,0,2.24,1.03,2.24,2.3v5.97ZM40.48,34.43c-.26.06-.46.24-.55.49-.08.25-.03.52.14.72.25.3.55.8.55,1.49,0,1.17-.86,2.13-1.96,2.27-.08-.53-.27-1.25-.73-1.91.42-.53.93-1.38.81-2.33-.08-.58-.43-1.4-1.68-2.03-.37-.19-.82-.04-1.01.33s-.04.82.33,1.01c.53.27.82.56.86.88.05.37-.19.8-.44,1.13-.54-.3-1.16-.49-1.88-.52-.41,0-.76.3-.78.72-.02.41.3.76.72.78,2.36.1,2.36,2.34,2.35,2.62-.08,1.2-1.05,2.15-2.22,2.15-1.24,0-2.24-1.03-2.24-2.3v-5.97c.83-.16,2.15-.65,3.22-2.17,1.04-1.48,1.74-1.63,1.81-1.65.39,0,.72-.3.75-.7.03-.41-.28-.77-.7-.8-.24-.02-1.5.02-3.09,2.28-.67.95-1.44,1.34-1.99,1.5v-8.39c0-1.27,1.01-2.3,2.24-2.3,1.14,0,2.08.88,2.21,2.05,0,.27-.13,1.73-1.94,2.32-.39.13-.61.55-.48.95.1.32.4.52.71.52.08,0,.16-.01.23-.04,1.93-.63,2.69-2.08,2.9-3.13,1.58-.13,2.86,1.14,2.86,2.72,0,.68-.25,1.33-.7,1.84-.15.17-.22.41-.18.63s.19.42.39.53c.77.4,1.24,1.18,1.24,2.05,0,1.07-.74,2.02-1.77,2.25Z"/>
  <path d="M56,28.25c-1.81,0-3.33,1.29-3.67,3h-2.69c-.24-1.19-.99-2.23-1.74-3.23-.52-.71-1.02-1.38-1.3-2.06-.26-.64-.38-1.43-.5-2.28-.18-1.21-.38-2.55-1.1-3.62l1.9-1.9c.62.41,1.35.62,2.07.62.96,0,1.92-.37,2.65-1.1s1.1-1.65,1.1-2.65-.39-1.94-1.1-2.65c-1.42-1.42-3.89-1.42-5.3,0-1.28,1.28-1.44,3.26-.48,4.72l-1.9,1.9c-1.06-.72-2.41-.92-3.62-1.1-.84-.12-1.64-.24-2.28-.5-.68-.28-1.35-.78-2.06-1.3-1.01-.74-2.04-1.5-3.23-1.74v-2.69c1.71-.35,3-1.86,3-3.67,0-2.07-1.68-3.75-3.75-3.75s-3.75,1.68-3.75,3.75c0,1.81,1.29,3.33,3,3.67v2.69c-1.19.24-2.23.99-3.23,1.74-.71.52-1.38,1.02-2.06,1.3-.64.26-1.43.38-2.28.5-1.21.18-2.55.38-3.62,1.1l-1.9-1.9c.96-1.46.8-3.44-.48-4.72-1.42-1.42-3.89-1.42-5.3,0-.71.71-1.1,1.65-1.1,2.65s.39,1.94,1.1,2.65,1.69,1.1,2.65,1.1c.72,0,1.44-.21,2.07-.62l1.9,1.9c-.72,1.06-.92,2.41-1.1,3.62-.12.84-.24,1.64-.5,2.28-.28.68-.78,1.35-1.3,2.06-.74,1.01-1.5,2.04-1.74,3.23h-2.69c-.35-1.71-1.86-3-3.67-3-2.07,0-3.75,1.68-3.75,3.75s1.68,3.75,3.75,3.75c1.81,0,3.33-1.29,3.67-3h2.69c.24,1.19.99,2.23,1.74,3.23.52.71,1.02,1.38,1.3,2.06.26.64.38,1.43.5,2.28.18,1.21.38,2.55,1.1,3.62l-1.9,1.9c-1.46-.96-3.44-.8-4.72.48-.71.71-1.1,1.65-1.1,2.65s.39,1.94,1.1,2.65c.71.71,1.65,1.1,2.65,1.1s1.94-.39,2.65-1.1c1.28-1.28,1.44-3.26.48-4.72l1.9-1.9c1.06.72,2.41.92,3.62,1.1.84.12,1.64.24,2.28.5.68.28,1.35.78,2.06,1.3,1.01.74,2.04,1.5,3.23,1.74v2.69c-1.71.35-3,1.86-3,3.67,0,2.07,1.68,3.75,3.75,3.75s3.75-1.68,3.75-3.75c0-1.81-1.29-3.33-3-3.67v-2.69c1.19-.24,2.23-.99,3.23-1.74.71-.52,1.38-1.02,2.06-1.3.64-.26,1.43-.38,2.28-.5,1.21-.18,2.55-.38,3.62-1.1l1.9,1.9c-.96,1.46-.8,3.44.48,4.72.71.71,1.65,1.1,2.65,1.1s1.94-.39,2.65-1.1c.71-.71,1.1-1.65,1.1-2.65s-.39-1.94-1.1-2.65c-1.28-1.28-3.26-1.44-4.72-.48l-1.9-1.9c.72-1.06.92-2.41,1.1-3.62.12-.84.24-1.64.5-2.28.28-.68.78-1.35,1.3-2.06.74-1.01,1.5-2.04,1.74-3.23h2.69c.35,1.71,1.86,3,3.67,3,2.07,0,3.75-1.68,3.75-3.75s-1.68-3.75-3.75-3.75ZM47.38,13.44c.43-.43.99-.66,1.59-.66s1.17.23,1.59.66c.43.42.66.99.66,1.59s-.23,1.17-.66,1.59c-.88.88-2.3.88-3.18,0,0,0,0,0,0,0s0,0,0,0c-.87-.88-.87-2.3,0-3.18ZM16.62,16.62s0,0,0,0,0,0,0,0c-.88.87-2.3.87-3.18,0-.43-.43-.66-.99-.66-1.59s.23-1.17.66-1.59c.42-.43.99-.66,1.59-.66s1.17.23,1.59.66c.88.88.88,2.3,0,3.18ZM8,34.25c-1.24,0-2.25-1.01-2.25-2.25s1.01-2.25,2.25-2.25,2.25,1.01,2.25,2.25-1.01,2.25-2.25,2.25ZM16.62,50.56c-.85.85-2.33.85-3.18,0-.43-.42-.66-.99-.66-1.59s.23-1.17.66-1.59,1.01-.66,1.59-.66,1.15.22,1.59.65c0,0,0,0,0,0s0,0,0,0c.87.88.87,2.3,0,3.18ZM47.38,47.38s0,0,0,0,0,0,0,0c.44-.44,1.01-.65,1.59-.65s1.15.22,1.59.66.66.99.66,1.59-.23,1.17-.66,1.59c-.85.85-2.33.85-3.18,0s-.88-2.3,0-3.18ZM29.75,8c0-1.24,1.01-2.25,2.25-2.25s2.25,1.01,2.25,2.25-1.01,2.25-2.25,2.25-2.25-1.01-2.25-2.25ZM34.25,56c0,1.24-1.01,2.25-2.25,2.25s-2.25-1.01-2.25-2.25,1.01-2.25,2.25-2.25,2.25,1.01,2.25,2.25ZM48.22,32c0,1.02-.74,2.03-1.53,3.09-.56.75-1.13,1.53-1.48,2.38-.34.81-.47,1.74-.6,2.64-.19,1.33-.38,2.59-1.15,3.36-.77.77-2.03.95-3.36,1.15-.9.13-1.83.26-2.64.6-.85.35-1.63.92-2.38,1.48-1.06.78-2.07,1.52-3.09,1.53,0,0,0,0,0,0s0,0,0,0c-1.02,0-2.03-.74-3.09-1.53-.75-.56-1.53-1.13-2.38-1.48-.81-.34-1.74-.47-2.64-.6-1.33-.19-2.59-.38-3.36-1.15-.77-.77-.95-2.03-1.15-3.36-.13-.9-.26-1.83-.6-2.64-.35-.85-.92-1.63-1.48-2.38-.78-1.06-1.52-2.07-1.53-3.09,0,0,0,0,0,0s0,0,0,0c0-1.02.74-2.03,1.53-3.09.56-.75,1.13-1.53,1.48-2.38.34-.81.47-1.74.6-2.64.19-1.33.38-2.59,1.15-3.36.77-.77,2.03-.95,3.36-1.15.9-.13,1.83-.26,2.64-.6.85-.35,1.63-.92,2.38-1.48,1.06-.78,2.07-1.52,3.09-1.53,0,0,0,0,0,0s0,0,0,0c1.02,0,2.03.74,3.09,1.53.75.56,1.53,1.13,2.38,1.48.81.34,1.74.47,2.64.6,1.33.19,2.59.38,3.36,1.15.77.77.95,2.03,1.15,3.36.13.9.26,1.83.6,2.64.35.85.92,1.63,1.48,2.38.78,1.06,1.52,2.07,1.53,3.09,0,0,0,0,0,0s0,0,0,0ZM56,34.25c-1.24,0-2.25-1.01-2.25-2.25s1.01-2.25,2.25-2.25,2.25,1.01,2.25,2.25-1.01,2.25-2.25,2.25Z"/>
</svg>