<svg xmlns="http://www.w3.org/2000/svg" width="128" height="128" viewBox="0 0 128 128">
  <title>Satelite</title>
  <path d="M99.185,97.435H88.767L81.882,75.987a34.668,34.668,0,0,0,18.706-13.779,1.751,1.751,0,0,0-.463-2.431L85.743,50l.988-20.65a7.8,7.8,0,1,0-8.956-5.9L59.682,32.274,45.216,22.436a1.75,1.75,0,0,0-2.431.462,34.935,34.935,0,0,0,5.678,45.773L39.23,97.435H28.815a1.75,1.75,0,0,0-1.75,1.75v13.148a1.75,1.75,0,0,0,1.75,1.75h70.37a1.75,1.75,0,0,0,1.75-1.75V99.185A1.75,1.75,0,0,0,99.185,97.435ZM85.349,17.417a4.281,4.281,0,1,1-4.28,4.28A4.285,4.285,0,0,1,85.349,17.417ZM79.31,26.592a7.8,7.8,0,0,0,3.925,2.586l-.886,18.511L63.017,34.542ZM40.786,48.438a31.208,31.208,0,0,1,3.948-22.1L96.67,61.661A31.456,31.456,0,0,1,40.786,48.438ZM51.393,71c.213.152.421.309.638.457A34.681,34.681,0,0,0,71.613,77.52a35.3,35.3,0,0,0,6.611-.628c.086-.017.169-.038.255-.055l6.612,20.6H42.907Zm46.042,39.585H30.565v-9.648h66.87Z"/>
</svg>
