<?xml version="1.0" encoding="UTF-8"?>
<svg id="Outline" xmlns="http://www.w3.org/2000/svg" viewBox="0 0 128 128">
  <path d="M84.347,58.222h-40.693c-7.549,0-13.69,6.142-13.69,13.691v27.473c0,7.549,6.141,13.69,13.69,13.69h40.693c7.549,0,13.69-6.142,13.69-13.69v-27.473c0-7.55-6.141-13.691-13.69-13.691ZM95.037,99.386c0,5.895-4.796,10.69-10.69,10.69h-40.693c-5.896,0-10.691-4.796-10.691-10.69v-27.473c0-5.896,4.797-10.691,10.691-10.691h40.693c5.896,0,10.691,4.796,10.691,10.691v27.473ZM80.976,88.974h-33.951c-4.213,0-7.641,3.428-7.641,7.641s3.428,7.641,7.641,7.641h33.951c4.213,0,7.641-3.428,7.641-7.641s-3.428-7.641-7.641-7.641ZM60.906,91.974h6.188v9.281h-6.188v-9.281ZM57.906,101.255h-6.187v-9.281h6.187v9.281ZM70.094,91.974h6.187v9.281h-6.187v-9.281ZM42.384,96.614c0-2.559,2.082-4.641,4.641-4.641h1.695v9.281h-1.695c-2.559,0-4.641-2.082-4.641-4.641ZM80.976,101.255h-1.695v-9.281h1.695c2.559,0,4.641,2.082,4.641,4.641s-2.082,4.641-4.641,4.641ZM52.076,83.285c4.424,0,8.022-3.6,8.022-8.023s-3.599-8.022-8.022-8.022-8.022,3.599-8.022,8.022,3.599,8.023,8.022,8.023ZM52.076,70.239c2.77,0,5.022,2.253,5.022,5.022s-2.253,5.023-5.022,5.023-5.022-2.254-5.022-5.023,2.253-5.022,5.022-5.022ZM75.924,83.285c4.424,0,8.022-3.6,8.022-8.023s-3.599-8.022-8.022-8.022-8.022,3.599-8.022,8.022,3.599,8.023,8.022,8.023ZM75.924,70.239c2.77,0,5.022,2.253,5.022,5.022s-2.253,5.023-5.022,5.023-5.022-2.254-5.022-5.023,2.253-5.022,5.022-5.022ZM84.015,31.99c2.396-3.459,3.663-7.484,3.663-11.641,0-4.156-1.268-8.182-3.663-11.642-.472-.681-.302-1.615.38-2.087.679-.471,1.615-.302,2.087.38,2.744,3.963,4.195,8.58,4.195,13.35,0,4.769-1.45,9.384-4.195,13.349-.292.42-.759.646-1.234.646-.295,0-.593-.087-.854-.267-.681-.472-.851-1.406-.379-2.088ZM77.688,24.483c.715-1.29,1.078-2.681,1.078-4.133s-.362-2.844-1.078-4.133c-.402-.724-.141-1.637.584-2.039.723-.4,1.636-.142,2.039.584.952,1.715,1.455,3.647,1.455,5.588s-.503,3.872-1.455,5.588c-.273.494-.785.772-1.312.772-.246,0-.496-.061-.727-.188-.725-.401-.986-1.314-.584-2.039ZM41.519,33.699c-2.745-3.964-4.196-8.58-4.196-13.35,0-4.77,1.452-9.386,4.196-13.349.472-.682,1.408-.853,2.087-.38.682.472.852,1.406.38,2.087-2.396,3.46-3.662,7.486-3.662,11.643,0,4.155,1.266,8.181,3.662,11.64.472.682.302,1.616-.379,2.088-.261.18-.559.267-.854.267-.476,0-.942-.226-1.234-.646ZM47.688,25.938c-.952-1.716-1.455-3.648-1.455-5.588s.503-3.873,1.455-5.588c.403-.726,1.316-.984,2.039-.584.725.402.986,1.315.584,2.039-.716,1.289-1.078,2.68-1.078,4.133s.363,2.843,1.078,4.133c.402.725.141,1.638-.584,2.039-.23.128-.48.188-.727.188-.527,0-1.039-.278-1.312-.772ZM108.161,72.25h-1.554c-.002-12.46-10.14-22.597-22.6-22.597h-2.507v-2.772c0-3.828-3.115-6.943-6.943-6.943h-9.056l.005-11.111c4.037-.713,7.116-4.238,7.116-8.476,0-4.75-3.865-8.615-8.615-8.615s-8.615,3.865-8.615,8.615c0,4.237,3.079,7.762,7.115,8.476l-.005,11.111h-9.057c-3.828,0-6.943,3.115-6.943,6.943v2.772h-2.507c-12.461,0-22.598,10.137-22.6,22.597h-1.554c-4.257,0-7.72,3.463-7.72,7.719v11.36c0,4.257,3.463,7.72,7.72,7.72h1.554c.003,12.461,10.14,22.597,22.6,22.597h40.014c12.46,0,22.598-10.136,22.6-22.597h1.554c4.257,0,7.72-3.463,7.72-7.72v-11.36c0-4.256-3.463-7.719-7.72-7.719ZM58.391,20.351c0-3.097,2.519-5.615,5.615-5.615s5.615,2.519,5.615,5.615-2.519,5.615-5.615,5.615-5.615-2.519-5.615-5.615ZM49.5,46.881c0-2.175,1.769-3.943,3.943-3.943h21.113c2.175,0,3.943,1.769,3.943,3.943v2.772h-29v-2.772ZM15.119,91.329v-11.36c0-2.602,2.117-4.719,4.72-4.719h1.554v20.799h-1.554c-2.603,0-4.72-2.117-4.72-4.72ZM103.607,99.044c0,10.809-8.793,19.602-19.601,19.602h-40.014c-10.808,0-19.601-8.793-19.601-19.602v-26.79c0-10.808,8.793-19.601,19.601-19.601h40.014c10.808,0,19.601,8.793,19.601,19.601v26.79ZM112.881,91.329c0,2.603-2.117,4.72-4.72,4.72h-1.554v-20.799h1.554c2.603,0,4.72,2.117,4.72,4.719v11.36Z"/>
</svg>