<svg xmlns="http://www.w3.org/2000/svg" width="128" height="128" viewBox="0 0 128 128">
  <title>COLOR PALLETE</title>
  <g>
    <path d="M114.579,86.033H67.956l37.187-37.174,0,0a8.234,8.234,0,0,0,0-11.608L90.754,22.876a8.192,8.192,0,0,0-11.614,0L41.967,60.045V13.421A8.217,8.217,0,0,0,33.76,5.214H13.423a8.216,8.216,0,0,0-8.206,8.207V114.576a8.215,8.215,0,0,0,8.206,8.206H114.579a8.215,8.215,0,0,0,8.206-8.206V94.239A8.216,8.216,0,0,0,114.579,86.033ZM29.558,77.4l8.83,8.63H20.928ZM63.73,89.533h3.317v29.749H44.428V89.533Zm6.817,0H93.166v29.749H70.547ZM43.4,86.033,32.033,74.928l15.98-15.98,21.04,21.04-6.048,6.045ZM66.482,40.479,87.524,61.522l-16,15.992L50.487,56.474ZM81.614,25.347a4.69,4.69,0,0,1,6.662,0l14.391,14.376a4.727,4.727,0,0,1,0,6.664L90,59.048,68.956,38.005ZM15.978,86.033H13.423a8.358,8.358,0,0,0-4.706,1.488V60.953h29.75v2.592Zm22.489-28.58H8.717V34.835h29.75ZM13.423,8.714H33.76a4.712,4.712,0,0,1,4.707,4.707V31.335H8.717V13.421A4.711,4.711,0,0,1,13.423,8.714ZM8.717,114.576V94.239a4.712,4.712,0,0,1,4.706-4.706h27.5v29.749h-27.5A4.711,4.711,0,0,1,8.717,114.576Zm110.568,0a4.711,4.711,0,0,1-4.706,4.706H96.666V89.533h17.913a4.712,4.712,0,0,1,4.706,4.706Z"/>
    <path d="M23.592,98.315a6.093,6.093,0,1,0,6.092,6.092A6.1,6.1,0,0,0,23.592,98.315Zm0,8.685a2.593,2.593,0,1,1,2.592-2.593A2.6,2.6,0,0,1,23.592,107Z"/>
  </g>
</svg>
