<svg xmlns="http://www.w3.org/2000/svg" width="128" height="128" viewBox="0 0 128 128">
  <title>ACHIEVEMENT</title>
  <path d="M33.091,54.038l4.454,6.048-.834,7.47a1.75,1.75,0,0,0,1.039,1.8l6.891,3,3.005,6.891a1.751,1.751,0,0,0,1.8,1.039l.4-.044v19.6a1.749,1.749,0,0,0,2.529,1.567L64,95.635l11.631,5.782A1.749,1.749,0,0,0,78.16,99.85v-19.6l.4.044a1.752,1.752,0,0,0,1.8-1.039l3-6.891,6.891-3a1.75,1.75,0,0,0,1.039-1.8l-.834-7.47,4.454-6.048a1.749,1.749,0,0,0,0-2.076l-4.454-6.048.834-7.47a1.75,1.75,0,0,0-1.039-1.8l-6.891-3.005-3-6.891a1.752,1.752,0,0,0-1.8-1.039l-7.47.834-6.048-4.454a1.752,1.752,0,0,0-2.076,0l-6.048,4.454-7.47-.834a1.754,1.754,0,0,0-1.8,1.039L44.64,33.64l-6.89,3.006a1.75,1.75,0,0,0-1.039,1.8l.834,7.47-4.454,6.048A1.749,1.749,0,0,0,33.091,54.038ZM74.66,97.026l-9.881-4.913a1.75,1.75,0,0,0-1.558,0L53.34,97.026V79.855l3.574-.4,6.048,4.453a1.75,1.75,0,0,0,2.076,0l6.048-4.453,3.574.4ZM40.769,47.438a1.751,1.751,0,0,0,.33-1.232l-.766-6.868,6.336-2.764a1.754,1.754,0,0,0,.905-.905l2.764-6.336,6.868.766a1.731,1.731,0,0,0,1.231-.33L64,25.673l5.562,4.1a1.737,1.737,0,0,0,1.232.33l6.868-.766,2.764,6.336a1.748,1.748,0,0,0,.9.905l6.337,2.764L86.9,46.206a1.751,1.751,0,0,0,.33,1.232L91.327,53l-4.1,5.563a1.747,1.747,0,0,0-.33,1.231l.766,6.868L81.33,69.426a1.743,1.743,0,0,0-.9.9l-2.764,6.338L70.794,75.9a1.747,1.747,0,0,0-1.232.33L64,80.327l-5.563-4.1A1.747,1.747,0,0,0,57.989,76c-.025-.009-.049-.02-.074-.028a1.731,1.731,0,0,0-.474-.075c-.014,0-.027-.007-.041-.007a1.788,1.788,0,0,0-.194.011l-6.868.767L47.574,70.33a1.748,1.748,0,0,0-.905-.9l-6.336-2.764.766-6.868a1.747,1.747,0,0,0-.33-1.231L36.673,53Z"/>
  <path d="M64,70.377A17.377,17.377,0,1,0,46.623,53,17.4,17.4,0,0,0,64,70.377Zm0-31.254A13.877,13.877,0,1,1,50.123,53,13.892,13.892,0,0,1,64,39.123Z"/>
</svg>
