<svg id="Capa_1" enable-background="new 0 0 512 512" height="512" viewBox="0 0 512 512" width="512" xmlns="http://www.w3.org/2000/svg"><g><path d="m358.286 160.564h-204.572c-5.534 0-10.02 4.486-10.02 10.02v141.239c0 5.533 4.486 10.02 10.02 10.02h204.572c5.534 0 10.02-4.486 10.02-10.02v-141.239c0-5.533-4.486-10.02-10.02-10.02zm-10.019 141.24h-184.533v-121.2h184.533z"/><path d="m456.493 457.238c-.165-1.159.148-1.226-.844-3.803l-43.04-97.332v-236.978l20.956-43.538c.364-.84.975-2.282.992-4.345v-51.203c0-11.05-8.99-20.039-20.039-20.039h-317.036c-11.049 0-20.039 8.989-20.039 20.039v51.203c.091 1.249.031 2.171.992 4.345l20.956 43.538v236.977l-43.04 97.332c-.247.538-.879 2.371-.856 4.052v34.474c0 11.05 8.99 20.039 20.039 20.039h238.844c5.534 0 10.02-4.486 10.02-10.02 0-5.533-4.486-10.02-10.02-10.02h-238.844v-24.454h360.933v24.454h-30.79c-5.534 0-10.02 4.486-10.02 10.02 0 5.533 4.486 10.02 10.02 10.02h30.79c11.049 0 20.039-8.989 20.039-20.039v-34.474c0-.084-.011-.165-.013-.248zm-60.2-350.417h-280.585l-12.302-25.559h305.19zm-276.863 20.039h273.14v221.339h-273.14zm-21.948-106.821 317.036-.013v.013 41.184h-317.036zm-16.582 427.428 35.035-79.229h280.13l35.035 79.229z"/><path d="m171.544 406.542h-2.938v-17.631c0-5.533-4.486-10.02-10.02-10.02s-10.02 4.486-10.02 10.02v17.631h-2.938c-5.534 0-10.02 4.486-10.02 10.02s4.486 10.02 10.02 10.02h25.915c5.534 0 10.02-4.486 10.02-10.02s-4.485-10.02-10.019-10.02z"/><circle cx="225.691" cy="416.563" r="10.02"/><circle cx="265.769" cy="416.563" r="10.02"/><circle cx="329.955" cy="416.563" r="10.02"/><circle cx="366.37" cy="394.52" r="10.02"/><circle cx="359.943" cy="501.98" r="10.02"/></g></svg>