<svg xmlns="http://www.w3.org/2000/svg" width="128" height="128" viewBox="0 0 128 128">
  <title>BINDER</title>
  <g>
    <path d="M41.331,29.991H26.669a1.75,1.75,0,0,0-1.75,1.75V62.309a1.751,1.751,0,0,0,1.75,1.75H41.331a1.751,1.751,0,0,0,1.75-1.75V31.741A1.75,1.75,0,0,0,41.331,29.991Zm-12.912,3.5H39.581V53.256H28.419ZM39.581,60.559H28.419v-3.8H39.581Z"/>
    <path d="M34,79.413a8.751,8.751,0,1,0,8.75,8.75A8.76,8.76,0,0,0,34,79.413Zm0,14a5.251,5.251,0,1,1,5.25-5.251A5.257,5.257,0,0,1,34,93.414Z"/>
    <path d="M64,79.413a8.751,8.751,0,1,0,8.75,8.75A8.76,8.76,0,0,0,64,79.413Zm0,14a5.251,5.251,0,1,1,5.25-5.251A5.257,5.257,0,0,1,64,93.414Z"/>
    <path d="M94,79.413a8.751,8.751,0,1,0,8.75,8.75A8.76,8.76,0,0,0,94,79.413Zm0,14a5.251,5.251,0,1,1,5.25-5.251A5.256,5.256,0,0,1,94,93.414Z"/>
    <path d="M71.331,29.991H56.669a1.75,1.75,0,0,0-1.75,1.75V62.309a1.751,1.751,0,0,0,1.75,1.75H71.331a1.75,1.75,0,0,0,1.75-1.75V31.741A1.749,1.749,0,0,0,71.331,29.991Zm-12.912,3.5H69.581V53.256H58.419ZM69.581,60.559H58.419v-3.8H69.581Z"/>
    <path d="M105.081,17.25H82.919A5.645,5.645,0,0,0,79,18.833a5.645,5.645,0,0,0-3.919-1.583H52.919A5.645,5.645,0,0,0,49,18.833a5.645,5.645,0,0,0-3.919-1.583H22.919a5.675,5.675,0,0,0-5.669,5.669v82.162a5.675,5.675,0,0,0,5.669,5.669H45.081A5.645,5.645,0,0,0,49,109.167a5.645,5.645,0,0,0,3.919,1.583H75.081A5.645,5.645,0,0,0,79,109.167a5.645,5.645,0,0,0,3.919,1.583h22.162a5.675,5.675,0,0,0,5.669-5.669V22.919A5.675,5.675,0,0,0,105.081,17.25Zm-60,90H22.919a2.171,2.171,0,0,1-2.169-2.169V22.919a2.171,2.171,0,0,1,2.169-2.169H45.081a2.171,2.171,0,0,1,2.169,2.169v82.162A2.171,2.171,0,0,1,45.081,107.25Zm30,0H52.919a2.171,2.171,0,0,1-2.169-2.169V22.919a2.171,2.171,0,0,1,2.169-2.169H75.081a2.171,2.171,0,0,1,2.169,2.169v82.162A2.171,2.171,0,0,1,75.081,107.25Zm32.169-2.169a2.171,2.171,0,0,1-2.169,2.169H82.919a2.171,2.171,0,0,1-2.169-2.169V22.919a2.171,2.171,0,0,1,2.169-2.169h22.162a2.171,2.171,0,0,1,2.169,2.169Z"/>
    <path d="M101.331,29.991H86.669a1.749,1.749,0,0,0-1.75,1.75V62.309a1.75,1.75,0,0,0,1.75,1.75h14.662a1.75,1.75,0,0,0,1.75-1.75V31.741A1.749,1.749,0,0,0,101.331,29.991Zm-12.912,3.5H99.581V53.256H88.419ZM99.581,60.559H88.419v-3.8H99.581Z"/>
  </g>
</svg>
