<svg id="Capa_1" enable-background="new 0 0 512 512" height="512" viewBox="0 0 512 512" width="512" xmlns="http://www.w3.org/2000/svg"><g><path d="m462.517 416.288h-15.224v-25.737c0-12.098-9.841-21.939-21.938-21.939h-23.839c-9.636 0-17.835 6.248-20.774 14.903-10.332-9.464-24.085-15.25-39.168-15.25h-46.788v-201.857c28.974-14.341 48.946-44.218 48.946-78.676 0-48.376-39.356-87.732-87.732-87.732-48.375 0-87.731 39.356-87.731 87.732 0 34.458 19.972 64.335 48.946 78.676v201.856h-46.788c-15.082 0-28.836 5.786-39.168 15.25-2.939-8.656-11.138-14.903-20.775-14.903h-23.838c-12.097 0-21.938 9.841-21.938 21.939v25.737h-15.224c-12.18 0-22.088 9.909-22.088 22.088v51.536c0 12.179 9.909 22.088 22.088 22.088h160.949c5.534 0 10.02-4.486 10.02-10.02s-4.486-10.02-10.02-10.02h-160.949c-1.13 0-2.049-.919-2.049-2.049v-51.536c0-1.13.919-2.049 2.049-2.049h413.033c1.129 0 2.048.919 2.048 2.049v51.536c0 1.13-.919 2.049-2.048 2.049h-160.786c-5.533 0-10.02 4.486-10.02 10.02s4.486 10.02 10.02 10.02h160.786c12.179 0 22.087-9.909 22.087-22.088v-51.536c0-12.178-9.908-22.087-22.087-22.087zm-274.209-328.556c0-37.326 30.366-67.693 67.692-67.693s67.693 30.367 67.693 67.693-30.367 67.692-67.693 67.692-67.692-30.366-67.692-67.692zm48.946 85.708c6.043 1.32 12.314 2.023 18.747 2.023s12.704-.703 18.747-2.023v194.824h-37.493v-194.824zm-152.507 217.111c0-1.048.852-1.9 1.899-1.9h23.838c1.047 0 1.9.852 1.9 1.9v25.737h-27.637zm49.016 25.737c4.407-16.111 19.175-27.984 36.664-27.984h171.147c17.489 0 32.257 11.874 36.663 27.984zm265.854 0v-25.737c0-1.048.852-1.9 1.899-1.9h23.839c1.047 0 1.899.852 1.899 1.9v25.737z"/><circle cx="256" cy="501.98" r="10.02"/></g></svg>