<svg xmlns="http://www.w3.org/2000/svg" width="128" height="128" viewBox="0 0 128 128">
  <title>EASEL PAINTING</title>
  <path d="M106.5,62.931h-.157V16.2a5.918,5.918,0,0,0-5.912-5.911H78.347V9.1a3.889,3.889,0,0,0-3.884-3.885H53.537A3.889,3.889,0,0,0,49.653,9.1V10.29H27.567A5.918,5.918,0,0,0,21.655,16.2v46.73H21.5a3.923,3.923,0,0,0-3.92,3.919v5.225A3.924,3.924,0,0,0,21.5,76H30.3l-9.058,38.931a6.408,6.408,0,0,0,12.483,2.9l4.29-18.439H57.468v16.863a6.532,6.532,0,1,0,13.064,0V99.391H89.981l4.29,18.439a6.408,6.408,0,0,0,12.483-2.9L97.7,76H106.5a3.924,3.924,0,0,0,3.92-3.92V66.85A3.923,3.923,0,0,0,106.5,62.931Zm-81.347-26.6,13.76-10.9a4.705,4.705,0,0,1,6.05.167L62.144,40.811a1.751,1.751,0,0,0,2.32-2.622l-4.443-3.935,11.14-8.824a4.707,4.707,0,0,1,6.05.167l25.634,22.7v1.118L25.155,42.8Zm22.5,26.6L43.624,51.939,55.6,62.931Zm13.12,0L44.464,47.96l58.381,4.969v10ZM53.537,8.714H74.463a.386.386,0,0,1,.384.385v5.879a.385.385,0,0,1-.384.383H53.537a.385.385,0,0,1-.384-.383V9.1A.386.386,0,0,1,53.537,8.714ZM27.567,13.79H49.653v1.188a3.888,3.888,0,0,0,3.884,3.883H74.463a3.888,3.888,0,0,0,3.884-3.883V13.79h22.086a2.414,2.414,0,0,1,2.412,2.411V43.622L79.532,22.977a8.2,8.2,0,0,0-10.544-.291L57.359,31.9l-10.073-8.92a8.2,8.2,0,0,0-10.544-.291L25.155,31.864V16.2A2.414,2.414,0,0,1,27.567,13.79ZM25.155,46.317l13.089,1.114,5.68,15.5H25.155Zm5.164,70.72a2.908,2.908,0,1,1-5.664-1.318L33.9,76h5.971Zm8.514-21.146L43.462,76H57.468v19.9Zm28.2,20.363a3.032,3.032,0,1,1-6.064,0V76h6.064Zm3.5-20.363V76H84.538l4.629,19.9Zm32.813,19.828a2.908,2.908,0,1,1-5.664,1.318L88.132,76H94.1Zm3.577-43.644a.42.42,0,0,1-.42.42h-85a.42.42,0,0,1-.42-.42V66.85a.419.419,0,0,1,.42-.419h85a.419.419,0,0,1,.42.419Z"/>
</svg>
