<svg id="Capa_1" enable-background="new 0 0 512 512" height="512" viewBox="0 0 512 512" width="512" xmlns="http://www.w3.org/2000/svg"><g><path d="m491.961 60.483h-205.424l42.844-31.508c4.458-3.278 5.414-9.55 2.135-14.008-3.28-4.459-9.551-5.413-14.008-2.136l-61.509 45.234-61.509-45.234c-4.456-3.277-10.728-2.323-14.008 2.136-3.278 4.458-2.322 10.729 2.136 14.008l42.844 31.508h-205.423c-11.049 0-20.039 8.989-20.039 20.039v299.254c0 11.049 8.99 20.039 20.039 20.039h2.907v40.786c0 11.049 8.99 20.039 20.039 20.039h14.208v20.437c0 11.049 8.99 20.039 20.039 20.039h45.265c11.049 0 20.039-8.99 20.039-20.039v-20.437h226.926v20.437c0 11.049 8.989 20.039 20.039 20.039h45.265c11.05 0 20.039-8.99 20.039-20.039v-20.437h14.208c11.05 0 20.039-8.99 20.039-20.039v-40.786h2.907c11.05 0 20.039-8.99 20.039-20.039v-299.254c.002-11.05-8.987-20.039-20.037-20.039zm-369.45 420.595s-.004 0-.013 0h-45.265v-20.437h45.27zm312.269 0s-.004 0-.013 0h-45.265v-20.437h45.269zm57.181-101.302h-313.712c-5.534 0-10.02 4.486-10.02 10.02s4.486 10.02 10.02 10.02h290.766v40.786h-426.03v-40.786h43.965c5.534 0 10.02-4.486 10.02-10.02s-4.486-10.02-10.02-10.02h-66.911v-299.254h235.947.013.013 235.949z"/><path d="m50.098 100.561c-5.534 0-10.02 4.486-10.02 10.02v239.137c0 5.534 4.486 10.02 10.02 10.02h411.804c5.533 0 10.02-4.486 10.02-10.02v-239.138c0-5.534-4.486-10.02-10.02-10.02h-411.804zm401.785 239.137h-391.766v-219.098h391.765v219.098z"/><circle cx="132.518" cy="390.477" r="10.02"/><circle cx="349.121" cy="420.208" r="10.02"/><circle cx="389.2" cy="420.208" r="10.02"/><circle cx="429.278" cy="420.208" r="10.02"/></g></svg>