<svg id="Capa_1" enable-background="new 0 0 512 512" height="512" viewBox="0 0 512 512" width="512" xmlns="http://www.w3.org/2000/svg"><g><path d="m217.31 205.821h77.381c11.038 0 20.017-8.979 20.017-20.017v-125.798c0-11.038-8.979-20.017-20.017-20.017h-77.381c-11.038 0-20.017 8.979-20.017 20.017v125.798c0 11.037 8.979 20.017 20.017 20.017zm77.358-145.815.022 125.775-77.358.032-.022-125.785z"/><path d="m364.888 256c0-8.987-3.946-17.065-10.191-22.607v-197.467c0-19.81-16.117-35.926-35.926-35.926h-125.542c-19.81 0-35.926 16.116-35.926 35.926v197.467c-6.245 5.542-10.191 13.62-10.191 22.607s3.946 17.065 10.191 22.607v198.38c0 19.306 15.706 35.013 35.013 35.013h127.368c19.306 0 35.013-15.707 35.013-35.013v-69.351c0-5.534-4.486-10.02-10.02-10.02s-10.02 4.486-10.02 10.02v69.351c0 8.257-6.717 14.974-14.974 14.974h-127.367c-8.256 0-14.974-6.717-14.974-14.974v-190.759h157.315v30.11c0 5.534 4.486 10.02 10.02 10.02s10.02-4.486 10.02-10.02v-37.732c6.245-5.541 10.191-13.619 10.191-22.606zm-197.737 0c0-5.618 4.571-10.189 10.189-10.189h157.319c5.618 0 10.189 4.571 10.189 10.189s-4.571 10.189-10.189 10.189h-157.318c-5.619 0-10.19-4.571-10.19-10.189zm26.078-235.961h125.541c8.76 0 15.887 7.127 15.887 15.887v189.845h-157.315v-189.845c0-8.76 7.127-15.887 15.887-15.887z"/><path d="m238.481 326.801c0-5.534-4.486-10.02-10.02-10.02h-12.451c-5.534 0-10.02 4.486-10.02 10.02s4.486 10.02 10.02 10.02h12.451c5.534-.001 10.02-4.486 10.02-10.02z"/><path d="m295.989 316.781h-12.451c-5.534 0-10.02 4.486-10.02 10.02s4.486 10.02 10.02 10.02h12.451c5.534 0 10.02-4.486 10.02-10.02s-4.486-10.02-10.02-10.02z"/><circle cx="344.673" cy="362.07" r="10.02"/><circle cx="216.012" cy="371.408" r="10.02"/><circle cx="256" cy="371.408" r="10.02"/><circle cx="295.988" cy="371.408" r="10.02"/><circle cx="216.012" cy="411.401" r="10.02"/><circle cx="256" cy="411.401" r="10.02"/><circle cx="295.988" cy="411.401" r="10.02"/><circle cx="216.012" cy="451.394" r="10.02"/><circle cx="256" cy="451.394" r="10.02"/><circle cx="295.988" cy="451.394" r="10.02"/></g></svg>