<svg xmlns="http://www.w3.org/2000/svg" width="128" height="128" viewBox="0 0 128 128">
  <title>Laptop</title>
  <path d="M26.037,103.142h75.925a13.575,13.575,0,0,0,13.56-13.56V85.744a1.751,1.751,0,0,0-1.75-1.75h-5.017V34.117a9.193,9.193,0,0,0-9.183-9.183H28.428a9.193,9.193,0,0,0-9.183,9.183V83.994H14.228a1.751,1.751,0,0,0-1.75,1.75v3.838A13.575,13.575,0,0,0,26.037,103.142ZM22.745,34.117a5.689,5.689,0,0,1,5.683-5.683H99.572a5.689,5.689,0,0,1,5.683,5.683V83.994h-4.58v-43.1a7.013,7.013,0,0,0-7.009-7H34.334a7.013,7.013,0,0,0-7.009,7v43.1h-4.58Zm74.43,49.877H30.825v-43.1a3.509,3.509,0,0,1,3.509-3.5H93.666a3.509,3.509,0,0,1,3.509,3.5Zm-81.2,3.5h96.044v2.088a10.072,10.072,0,0,1-10.06,10.06H26.037a10.071,10.071,0,0,1-10.059-10.06Z"/>
  <path d="M49.9,95.318H78.1a1.75,1.75,0,0,0,0-3.5H49.9a1.75,1.75,0,0,0,0,3.5Z"/>
</svg>
