<svg xmlns="http://www.w3.org/2000/svg" width="128" height="128" viewBox="0 0 128 128">
  <title>STAMP</title>
  <path d="M92.793,85.025H84.01V81.74a7.5,7.5,0,0,0-7.5-7.49H74.019A51.611,51.611,0,0,1,82.26,51.59a22.031,22.031,0,1,0-37-.749A60.019,60.019,0,0,1,53.923,74.25H51.49a7.5,7.5,0,0,0-7.5,7.49v3.285H35.207A8.48,8.48,0,0,0,26.736,93.5V99.07a1.749,1.749,0,0,0,1.75,1.75h7.076V109a1.75,1.75,0,0,0,1.75,1.75H90.687a1.749,1.749,0,0,0,1.75-1.75v-8.18h7.077a1.75,1.75,0,0,0,1.75-1.75V93.5A8.48,8.48,0,0,0,92.793,85.025ZM48.236,49a18.517,18.517,0,1,1,31.124.634,55.224,55.224,0,0,0-8.891,24.62H57.479A63.381,63.381,0,0,0,48.236,49ZM47.49,81.74a4,4,0,0,1,4-3.99H76.51a4,4,0,0,1,4,3.99v3.285H47.49Zm41.447,25.51H39.062v-6.43H88.937Zm8.827-9.93H30.236V93.5a4.977,4.977,0,0,1,4.971-4.971H45.692c.016,0,.032,0,.048,0H82.26c.016,0,.032,0,.048,0H92.793A4.977,4.977,0,0,1,97.764,93.5Z"/>
</svg>
