<svg xmlns="http://www.w3.org/2000/svg" width="128" height="128" viewBox="0 0 128 128">
  <title>OFFICE CHAIR</title>
  <g>
    <path d="M101.849,38.034H98.042a4.755,4.755,0,0,0-4.155,2.446l-1.833,3.307a1.749,1.749,0,0,0,.654,2.363l2.441,1.413L91.886,63.214l-3.257,1.458a9.7,9.7,0,0,0-2.939-1.187l3.556-16.962a21.827,21.827,0,0,0-.388-10.482l-7.453-25.88a7.784,7.784,0,0,0-7.447-5.6H54.042a7.784,7.784,0,0,0-7.447,5.6l-7.453,25.88a21.827,21.827,0,0,0-.388,10.482L42.31,63.485a9.7,9.7,0,0,0-2.939,1.187l-3.257-1.458L32.851,47.563l2.441-1.413a1.749,1.749,0,0,0,.654-2.363L34.113,40.48a4.755,4.755,0,0,0-4.155-2.446H26.151a4.756,4.756,0,0,0-4.75,4.75v.3a16.793,16.793,0,0,0,.353,3.419L25.89,66.336a8.774,8.774,0,0,0,4.988,6.2l3.8,1.7a6.751,6.751,0,0,0,6.735,6.453H58.6v7.9h-.113a1.75,1.75,0,0,0-1.75,1.75V96.8l-17.2,5.115a1.755,1.755,0,0,0-1.027.819l-3.5,6.224a7.256,7.256,0,1,0,7.912,7.225,7.187,7.187,0,0,0-.765-3.224l1.975-2.317,15.153-3.105.466,2.776a7.259,7.259,0,1,0,8.5,0l.466-2.776,15.153,3.105,1.975,2.317a7.19,7.19,0,0,0-.765,3.224,7.259,7.259,0,1,0,7.912-7.225l-3.5-6.224a1.755,1.755,0,0,0-1.027-.819L71.259,96.8V90.34a1.75,1.75,0,0,0-1.75-1.75H69.4v-7.9H86.584a6.751,6.751,0,0,0,6.735-6.453l3.8-1.7a8.777,8.777,0,0,0,4.99-6.2l4.135-19.828a16.793,16.793,0,0,0,.353-3.419v-.3A4.756,4.756,0,0,0,101.849,38.034ZM42.505,37.01l7.453-25.88a4.27,4.27,0,0,1,4.084-3.073H73.958a4.27,4.27,0,0,1,4.084,3.073L85.5,37.01a18.311,18.311,0,0,1,.325,8.8L82.163,63.25H45.837L42.18,45.805A18.311,18.311,0,0,1,42.505,37.01ZM29.316,65.621,25.181,45.793a13.218,13.218,0,0,1-.28-2.7v-.3a1.252,1.252,0,0,1,1.25-1.25h3.807a1.251,1.251,0,0,1,1.094.644l1,1.8L30,45.166a1.75,1.75,0,0,0-.837,1.872L32.87,64.8a1.748,1.748,0,0,0,1,1.239l2.693,1.206a9.716,9.716,0,0,0-1.569,3.293l-2.683-1.2A5.261,5.261,0,0,1,29.316,65.621Zm6.345,54.322a3.758,3.758,0,1,1,3.758-3.758A3.763,3.763,0,0,1,35.661,119.943Zm28.339,0a3.758,3.758,0,1,1,3.759-3.758A3.763,3.763,0,0,1,64,119.943Zm.925-10.951a6.614,6.614,0,0,0-1.85,0l-.362-2.156L64,106.572l1.287.264ZM96.1,116.185a3.759,3.759,0,1,1-3.759-3.758A3.763,3.763,0,0,1,96.1,116.185Zm-9.31-11.115,2.543,4.518a7.169,7.169,0,0,0-1.182.681l-2-2.354a1.757,1.757,0,0,0-.981-.58l-20.812-4.264a1.765,1.765,0,0,0-.7,0l-20.812,4.264a1.751,1.751,0,0,0-.981.58l-2.006,2.353a7.185,7.185,0,0,0-1.181-.68l2.543-4.518L58.99,99.785a1.75,1.75,0,0,0,1.251-1.678V92.09h7.518v6.017a1.75,1.75,0,0,0,1.251,1.678ZM65.9,88.59H62.1v-7.9H65.9Zm20.688-11.4H41.416a3.253,3.253,0,0,1-3.25-3.25v-.807h0V73a6.257,6.257,0,0,1,6.25-6.25H83.584A6.257,6.257,0,0,1,89.834,73v.133h0v.807A3.253,3.253,0,0,1,86.584,77.191Zm16.515-34.1a13.218,13.218,0,0,1-.28,2.7L98.685,65.621a5.265,5.265,0,0,1-2.994,3.719l-2.683,1.2a9.716,9.716,0,0,0-1.569-3.293l2.693-1.206a1.748,1.748,0,0,0,1-1.239l3.7-17.765A1.75,1.75,0,0,0,98,45.166l-2.049-1.185,1-1.8a1.251,1.251,0,0,1,1.094-.644h3.807a1.252,1.252,0,0,1,1.25,1.25Z"/>
    <path d="M50.646,41.534H77.354a1.75,1.75,0,0,0,0-3.5H50.646a1.75,1.75,0,0,0,0,3.5Z"/>
    <path d="M53.86,30.375H74.14a1.75,1.75,0,0,0,0-3.5H53.86a1.75,1.75,0,0,0,0,3.5Z"/>
    <path d="M57.074,19.216H70.926a1.75,1.75,0,0,0,0-3.5H57.074a1.75,1.75,0,1,0,0,3.5Z"/>
  </g>
</svg>
