<?xml version="1.0" encoding="utf-8"?>
<!-- Generator: Adobe Illustrator 24.1.3, SVG Export Plug-In . SVG Version: 6.00 Build 0)  -->
<svg version="1.1" xmlns="http://www.w3.org/2000/svg" xmlns:xlink="http://www.w3.org/1999/xlink" x="0px" y="0px"
	 viewBox="0 0 24 24" style="enable-background:new 0 0 24 24;" xml:space="preserve">
<style type="text/css">
	.st0{fill:#231F20;}
</style>
<g id="Design_here">
	<g>
		<path d="M15,15.5c-0.13,0-0.26-0.05-0.35-0.15c-0.2-0.2-0.2-0.51,0-0.71l6-6c0.2-0.2,0.51-0.2,0.71,0s0.2,0.51,0,0.71l-6,6
			C15.26,15.45,15.13,15.5,15,15.5z"/>
	</g>
	<g>
		<path d="M21,15.5c-0.13,0-0.26-0.05-0.35-0.15l-6-6c-0.2-0.2-0.2-0.51,0-0.71s0.51-0.2,0.71,0l6,6c0.2,0.2,0.2,0.51,0,0.71
			C21.26,15.45,21.13,15.5,21,15.5z"/>
	</g>
	<g>
		<path d="M11.5,21h-1.43c-0.52,0-1.02-0.28-1.29-0.73l-2.42-4.03C6.27,16.09,6.11,16,5.93,16H4.5C3.67,16,3,15.33,3,14.5v-5
			C3,8.67,3.67,8,4.5,8h1.43c0.17,0,0.34-0.09,0.43-0.24l2.42-4.03C9.05,3.28,9.54,3,10.07,3h1.43C12.33,3,13,3.67,13,4.5v15
			C13,20.33,12.33,21,11.5,21z M4.5,9C4.22,9,4,9.22,4,9.5v5C4,14.78,4.22,15,4.5,15h1.43c0.52,0,1.02,0.28,1.29,0.73l2.42,4.03
			C9.73,19.91,9.89,20,10.07,20h1.43c0.28,0,0.5-0.22,0.5-0.5v-15C12,4.22,11.78,4,11.5,4h-1.43C9.89,4,9.73,4.09,9.64,4.24
			L7.22,8.27C6.95,8.72,6.46,9,5.93,9H4.5z"/>
	</g>
</g>
<g id="Guide">
</g>
</svg>
