<svg xmlns="http://www.w3.org/2000/svg" width="128" height="128" viewBox="0 0 128 128">
  <title>COFFEE MACHINE</title>
  <g>
    <path d="M100.341,43.83a5.871,5.871,0,0,0,5.864-5.864v-8.5A12.234,12.234,0,0,0,93.984,17.25H34.015A12.234,12.234,0,0,0,21.794,29.471v8.5a5.871,5.871,0,0,0,5.864,5.864h.022V89.292h-.022a5.871,5.871,0,0,0-5.864,5.864v3.312a5.871,5.871,0,0,0,5.864,5.864h2.087v.415a6,6,0,1,0,12.005,0v-.415H85.944v.415a6,6,0,1,0,12,0v-.415h2.392a5.871,5.871,0,0,0,5.864-5.864V95.156a5.871,5.871,0,0,0-5.864-5.864h-.031V43.83ZM25.294,37.966v-8.5a8.731,8.731,0,0,1,8.721-8.721H93.984a8.731,8.731,0,0,1,8.721,8.721v8.5a2.367,2.367,0,0,1-2.364,2.364H27.658A2.367,2.367,0,0,1,25.294,37.966ZM56.052,53.731h15.9V58.3a3.016,3.016,0,0,1-3.013,3.014h-9.87A3.017,3.017,0,0,1,56.052,58.3Zm18.872-3.5H53.076a1.456,1.456,0,0,1-1.455-1.455V43.83H76.379v4.946A1.456,1.456,0,0,1,74.924,50.231ZM54.159,83.4V73.6H72.84v9.8a5.9,5.9,0,0,1-5.893,5.893h-6.9A5.9,5.9,0,0,1,54.159,83.4ZM38.25,104.747a2.5,2.5,0,1,1-5.005,0v-.415H38.25Zm56.2,0a2.5,2.5,0,1,1-5,0v-.415h5Zm8.256-9.591v3.312a2.367,2.367,0,0,1-2.364,2.364H27.658a2.367,2.367,0,0,1-2.364-2.364V95.156a2.367,2.367,0,0,1,2.364-2.364h72.683A2.367,2.367,0,0,1,102.705,95.156ZM96.81,89.29H74.251a9.339,9.339,0,0,0,2.062-5.371H78a4.889,4.889,0,0,0,4.883-4.883V76.649A4.888,4.888,0,0,0,78,71.767H76.332A1.746,1.746,0,0,0,74.59,70.1H52.409a1.749,1.749,0,0,0-1.75,1.75V83.4a9.348,9.348,0,0,0,2.088,5.893H31.18V43.83H48.121v4.946a4.944,4.944,0,0,0,4.431,4.9V58.3a6.521,6.521,0,0,0,6.513,6.514h9.87a6.517,6.517,0,0,0,6.5-6.232h8.793a1.75,1.75,0,0,0,0-3.5H75.448V53.678a4.944,4.944,0,0,0,4.431-4.9V43.83H96.81ZM78,75.267a1.384,1.384,0,0,1,1.383,1.382v2.387A1.384,1.384,0,0,1,78,80.419H76.34V75.267Z"/>
    <path d="M41.5,37.252a6.712,6.712,0,1,0-6.712-6.712A6.72,6.72,0,0,0,41.5,37.252Zm0-9.924a3.212,3.212,0,1,1-3.212,3.212A3.216,3.216,0,0,1,41.5,27.328Z"/>
    <path d="M84.313,28.643h6.979a1.75,1.75,0,0,0,0-3.5H84.313a1.75,1.75,0,0,0,0,3.5Z"/>
    <path d="M84.313,35.938h6.979a1.75,1.75,0,0,0,0-3.5H84.313a1.75,1.75,0,0,0,0,3.5Z"/>
  </g>
</svg>
