<svg xmlns="http://www.w3.org/2000/svg" width="128" height="128" viewBox="0 0 128 128">
  <title>PAPER BIN</title>
  <g>
    <path d="M90.952,37.94H85.843V30.37a1.77,1.77,0,0,0-.033-.335v-.008a1.764,1.764,0,0,0-.151-.423c-.017-.035-.035-.068-.054-.1a1.791,1.791,0,0,0-.274-.37L73.96,17.763a1.731,1.731,0,0,0-.37-.274c-.034-.02-.067-.038-.1-.055a1.769,1.769,0,0,0-.422-.15h-.011a1.755,1.755,0,0,0-.332-.033H43.907A1.75,1.75,0,0,0,42.157,19V37.94H37.048a6.414,6.414,0,0,0-6.406,6.406V47.72a6.413,6.413,0,0,0,4,5.932V97.134A13.631,13.631,0,0,0,48.254,110.75H79.746A13.631,13.631,0,0,0,93.362,97.134V53.652a6.413,6.413,0,0,0,4-5.932V44.346A6.414,6.414,0,0,0,90.952,37.94ZM79.868,28.62H74.473V23.225ZM45.657,20.75H70.973v9.62a1.75,1.75,0,0,0,1.75,1.75h9.62v5.82H45.657ZM89.862,97.134A10.127,10.127,0,0,1,79.746,107.25H48.254A10.127,10.127,0,0,1,38.138,97.134V54.127H89.862Zm4-49.414a2.909,2.909,0,0,1-2.906,2.907h-53.9a2.909,2.909,0,0,1-2.906-2.907V44.346a2.908,2.908,0,0,1,2.906-2.906h53.9a2.908,2.908,0,0,1,2.906,2.906Z"/>
    <path d="M64,99.86a1.749,1.749,0,0,0,1.75-1.75V63.267a1.75,1.75,0,1,0-3.5,0V98.11A1.749,1.749,0,0,0,64,99.86Z"/>
    <path d="M49.5,98.116a1.75,1.75,0,0,0,1.75-1.75V65.011a1.75,1.75,0,0,0-3.5,0V96.366A1.75,1.75,0,0,0,49.5,98.116Z"/>
    <path d="M78.5,98.116a1.75,1.75,0,0,0,1.75-1.75V65.011a1.75,1.75,0,0,0-3.5,0V96.366A1.75,1.75,0,0,0,78.5,98.116Z"/>
  </g>
</svg>
