<svg id="Capa_1" enable-background="new 0 0 512 512" height="512" viewBox="0 0 512 512" width="512" xmlns="http://www.w3.org/2000/svg"><g><path d="m491.961 32.302h-471.922c-11.05 0-20.039 8.99-20.039 20.039v407.317c0 11.049 8.989 20.039 20.039 20.039h336.159c5.533 0 10.02-4.486 10.02-10.02s-4.486-10.02-10.02-10.02h-271.554v-407.316h407.317v407.317h-44.465c-5.533 0-10.02 4.486-10.02 10.02s4.486 10.02 10.02 10.02h44.465c11.05 0 20.039-8.99 20.039-20.039v-407.318c0-11.049-8.989-20.039-20.039-20.039zm-471.922 20.039h44.566v407.317h-44.566z"/><path d="m288.302 77.609c-98.365 0-178.391 80.026-178.391 178.391s80.026 178.391 178.391 178.391 178.392-80.026 178.392-178.391-80.027-178.391-178.392-178.391zm35.942 178.391c0 19.818-16.123 35.941-35.941 35.941s-35.941-16.123-35.941-35.941 16.123-35.941 35.941-35.941c19.817 0 35.941 16.123 35.941 35.941zm12.201-28.522 100.718-25.492c6.138 16.864 9.491 35.054 9.491 54.013 0 18.96-3.353 37.151-9.492 54.015l-100.728-25.474c4.978-8.364 7.848-18.122 7.848-28.541.001-10.411-2.865-20.162-7.837-28.521zm-48.143 186.874c-87.316 0-158.352-71.037-158.352-158.352s71.036-158.352 158.352-158.352c61.157 0 114.322 34.852 140.692 85.735l-107.877 27.304c-9.227-6.701-20.564-10.667-32.815-10.667-30.868 0-55.98 25.113-55.98 55.98s25.113 55.98 55.98 55.98c12.24 0 23.566-3.959 32.789-10.649l107.901 27.288c-26.369 50.882-79.533 85.733-140.69 85.733z"/><circle cx="288.302" cy="256.005" r="10.02"/><circle cx="401.764" cy="469.678" r="10.02"/></g></svg>