<?xml version="1.0" encoding="utf-8"?>
<!-- Generator: Adobe Illustrator 24.1.3, SVG Export Plug-In . SVG Version: 6.00 Build 0)  -->
<svg version="1.1" xmlns="http://www.w3.org/2000/svg" xmlns:xlink="http://www.w3.org/1999/xlink" x="0px" y="0px"
	 viewBox="0 0 24 24" style="enable-background:new 0 0 24 24;" xml:space="preserve">
<style type="text/css">
	.st0{fill:#231F20;}
</style>
<g id="Design_here">
	<g>
		<path d="M15,16.5c-0.15,0-0.3-0.07-0.4-0.2c-0.17-0.22-0.12-0.53,0.1-0.7c1.14-0.86,1.8-2.17,1.8-3.6s-0.66-2.74-1.8-3.6
			c-0.22-0.17-0.27-0.48-0.1-0.7s0.48-0.27,0.7-0.1c1.4,1.05,2.2,2.65,2.2,4.4s-0.8,3.35-2.2,4.4C15.21,16.47,15.1,16.5,15,16.5z"/>
	</g>
	<g>
		<path d="M18,19.21c-0.14,0-0.27-0.06-0.37-0.17c-0.18-0.21-0.17-0.52,0.04-0.71c1.8-1.61,2.83-3.92,2.83-6.33
			s-1.03-4.72-2.83-6.33c-0.21-0.18-0.22-0.5-0.04-0.71c0.19-0.21,0.5-0.22,0.71-0.04C20.35,6.72,21.5,9.3,21.5,12
			s-1.15,5.28-3.17,7.08C18.24,19.17,18.12,19.21,18,19.21z"/>
	</g>
	<g>
		<path d="M11.5,21h-1.43c-0.52,0-1.02-0.28-1.29-0.73l-2.42-4.03C6.27,16.09,6.11,16,5.93,16H4.5C3.67,16,3,15.33,3,14.5v-5
			C3,8.67,3.67,8,4.5,8h1.43c0.17,0,0.34-0.09,0.43-0.24l2.42-4.03C9.05,3.28,9.54,3,10.07,3h1.43C12.33,3,13,3.67,13,4.5v15
			C13,20.33,12.33,21,11.5,21z M4.5,9C4.22,9,4,9.22,4,9.5v5C4,14.78,4.22,15,4.5,15h1.43c0.52,0,1.02,0.28,1.29,0.73l2.42,4.03
			C9.73,19.91,9.89,20,10.07,20h1.43c0.28,0,0.5-0.22,0.5-0.5v-15C12,4.22,11.78,4,11.5,4h-1.43C9.89,4,9.73,4.09,9.64,4.24
			L7.22,8.27C6.95,8.72,6.46,9,5.93,9H4.5z"/>
	</g>
</g>
<g id="Guide">
</g>
</svg>
