<svg xmlns="http://www.w3.org/2000/svg" width="128" height="128" viewBox="0 0 128 128">
  <title>SUITCASE</title>
  <path d="M110.75,43.469a6.137,6.137,0,0,0-6.13-6.131H86.01v-5.17a13.441,13.441,0,0,0-13.43-13.42H55.41a13.436,13.436,0,0,0-13.42,13.42v5.17H23.38a6.137,6.137,0,0,0-6.13,6.131v11.01h0v44.84a9.942,9.942,0,0,0,9.93,9.931h73.64a9.941,9.941,0,0,0,9.93-9.931V54.481h0Zm-65.26-11.3a9.932,9.932,0,0,1,9.92-9.92H72.58a9.936,9.936,0,0,1,9.93,9.92v5.17h-3.5v-5.17a6.433,6.433,0,0,0-6.43-6.42H55.41a6.427,6.427,0,0,0-6.42,6.42v5.17h-3.5Zm7,5.17v-5.17a2.924,2.924,0,0,1,2.92-2.92H72.58a2.929,2.929,0,0,1,2.93,2.92v5.17ZM20.75,43.469a2.634,2.634,0,0,1,2.63-2.631h81.24a2.634,2.634,0,0,1,2.63,2.631v11.01a14.576,14.576,0,0,1-14.56,14.56H70.47V67.148a5.31,5.31,0,0,0-5.31-5.3H62.84a5.31,5.31,0,0,0-5.31,5.3v1.891H35.31a14.577,14.577,0,0,1-14.56-14.56ZM61.03,70.79h0V67.148a1.807,1.807,0,0,1,1.81-1.8h2.32a1.807,1.807,0,0,1,1.81,1.8v3.641h0v3.631a1.812,1.812,0,0,1-1.81,1.81H62.84a1.812,1.812,0,0,1-1.81-1.81V70.79Zm46.22,28.531a6.438,6.438,0,0,1-6.43,6.431H27.18a6.438,6.438,0,0,1-6.43-6.431v-34.2a18.029,18.029,0,0,0,14.56,7.42H57.53v1.882a5.316,5.316,0,0,0,5.31,5.31h2.32a5.316,5.316,0,0,0,5.31-5.31V72.539H92.69a18.029,18.029,0,0,0,14.56-7.42Z"/>
</svg>
