<svg id="Capa_1" enable-background="new 0 0 511.998 511.998" height="512" viewBox="0 0 511.998 511.998" width="512" xmlns="http://www.w3.org/2000/svg"><g><path d="m475.395 353.822c1.554-25.802-6.986-54.172-23.642-82.391 26.708-45.298 31.181-87.955 12.552-120.221-6.927-12.004-16.814-22.065-29.388-29.906-3.514-2.192-8.14-1.119-10.333 2.396-2.191 3.515-1.119 8.141 2.396 10.333 10.462 6.524 18.648 14.826 24.333 24.676 14.934 25.866 11.799 60.58-8.698 98.433-14.534-21.104-33.456-41.861-55.94-61.117-5.43-29.092-13.942-55.849-24.946-78.983 12.44.347 24.21 1.833 35.044 4.551 4.016 1.007 8.091-1.432 9.099-5.45s-1.432-8.092-5.45-9.099c-14.117-3.541-29.775-5.233-46.51-5.081-16.108-28.529-36.404-50.105-59.523-61.659.03-.618.047-1.239.047-1.864.002-21.196-17.242-38.44-38.437-38.44s-38.439 17.244-38.439 38.439c0 .625.018 1.246.047 1.864-23.119 11.554-43.415 33.13-59.523 61.658-52.576-.485-91.762 16.975-110.391 49.247-18.63 32.268-14.157 74.925 12.551 120.223-16.656 28.219-25.196 56.589-23.642 82.391-12.372 6.395-20.853 19.303-20.853 34.163 0 21.196 17.244 38.439 38.439 38.439 7.659 0 14.795-2.26 20.795-6.136 21.096 13.939 49.13 20.755 81.01 20.753.719 0 1.446-.016 2.168-.023 5.982 10.587 12.561 20.268 19.699 28.855 1.483 1.785 3.619 2.706 5.771 2.706 1.689 0 3.39-.568 4.79-1.733 3.186-2.648 3.622-7.376.974-10.562-5.067-6.096-9.829-12.806-14.284-20.026 25.538-2.036 52.973-8.056 80.884-17.898 27.914 9.844 55.351 15.864 80.893 17.899-22.532 36.671-51.024 56.739-80.89 56.739-14.579 0-28.889-4.784-42.534-14.219-3.407-2.356-8.079-1.504-10.435 1.903s-1.503 8.079 1.903 10.435c16.2 11.201 33.381 16.881 51.065 16.881 37.26 0 71.966-25.202 97.84-70.98.721.007 1.448.023 2.165.023 31.874 0 59.916-6.817 81.01-20.753 6 3.876 13.136 6.137 20.795 6.137 21.196 0 38.439-17.244 38.439-38.439.002-14.862-8.479-27.77-20.851-34.164zm-14.841-4.168c-.908-.064-1.821-.109-2.745-.109-21.195 0-38.439 17.244-38.439 38.439 0 7.976 2.443 15.391 6.618 21.539-16.65 10.062-38.72 15.644-64.294 16.38 11.208-23.491 19.643-50.242 25-78.966 22.201-19.004 41.155-39.688 55.896-61.144 12.15 22.513 18.352 44.414 17.964 63.861zm-33.891-89.054c2.63 3.625 5.105 7.252 7.441 10.874-11.604 18.004-26.404 35.537-43.776 52.018 2.1-16.896 3.181-34.316 3.181-52.025 0-17.761-1.097-35.131-3.183-51.894 13.859 13.145 26.123 26.948 36.337 41.027zm-293.174 10.868c0-22.975 1.954-45.727 5.693-67.443 16.936-14.096 35.662-27.164 55.557-38.652 20.121-11.617 40.82-21.273 61.39-28.836 20.479 7.575 41.045 17.241 61.129 28.836 19.896 11.488 38.621 24.556 55.558 38.652 3.739 21.716 5.693 44.468 5.693 67.443 0 23.243-1.921 45.935-5.617 67.5-16.824 13.98-35.51 26.986-55.633 38.605-19.899 11.488-40.582 21.173-61.26 28.793-20.678-7.62-41.361-17.304-61.26-28.793-20.103-11.607-38.773-24.599-55.584-38.563-3.706-21.565-5.666-44.292-5.666-67.542zm-11.768 52.072c-17.394-16.496-32.211-34.044-43.827-52.066 2.336-3.622 4.811-7.248 7.441-10.874 10.214-14.08 22.478-27.882 36.337-41.027-2.086 16.763-3.183 34.133-3.183 51.894 0 17.713 1.108 35.157 3.232 52.073zm39.532-194.436c1.825-4.09 3.728-8.046 5.696-11.879 21.415 1.049 44.021 5.108 67.004 11.925-15.801 6.664-31.475 14.435-46.715 23.234-15.38 8.881-29.873 18.516-43.346 28.704 4.454-18.576 10.275-36.099 17.361-51.984zm163.506 23.278c-15.282-8.823-30.852-16.572-46.479-23.186 23.095-6.829 45.694-10.894 66.776-11.958 1.966 3.829 3.866 7.781 5.689 11.865 7.087 15.885 12.908 33.409 17.361 51.984-13.474-10.188-27.967-19.824-43.347-28.705zm-68.76-137.382c12.924 0 23.439 10.515 23.439 23.439s-10.515 23.439-23.439 23.439-23.439-10.515-23.439-23.439 10.515-23.439 23.439-23.439zm-34.569 40.233c6.245 12.802 19.392 21.645 34.569 21.645s28.324-8.843 34.569-21.645c17.043 9.389 32.915 25.717 46.34 47.508-11.624.919-23.65 2.64-35.958 5.203-14.773 3.076-29.814 7.333-44.865 12.637-27.586-9.742-55.002-15.824-80.978-17.866 13.421-21.778 29.287-38.097 46.323-47.482zm-160.746 103.474c14.934-25.871 46.54-40.52 89.595-41.69-11.01 23.139-19.525 49.905-24.957 79.007-22.484 19.255-41.406 40.013-55.94 61.117-20.497-37.853-23.632-72.567-8.698-98.434zm-29.935 229.278c0-12.924 10.515-23.439 23.439-23.439s23.439 10.515 23.439 23.439-10.515 23.439-23.439 23.439-23.439-10.515-23.439-23.439zm55.261 21.539c4.175-6.148 6.618-13.563 6.618-21.539 0-21.196-17.244-38.439-38.439-38.439-.924 0-1.837.044-2.745.109-.388-19.448 5.814-41.349 17.964-63.861 14.762 21.485 33.745 42.196 55.985 61.221 5.403 28.819 13.848 55.606 24.924 78.891-25.58-.735-47.655-6.318-64.307-16.382zm94.068 15.184c-4.46.465-8.844.795-13.153 1.007-9.679-18.845-17.468-40.45-23.083-63.872 13.563 10.249 28.087 19.879 43.398 28.72 15.386 8.883 30.982 16.613 46.546 23.19-18.316 5.43-36.405 9.151-53.708 10.955zm98.133-10.956c15.566-6.576 31.162-14.306 46.548-23.189 15.33-8.851 29.871-18.494 43.449-28.758-5.587 23.281-13.369 44.86-23.157 63.909-4.302-.212-8.679-.542-13.131-1.006-17.304-1.804-35.393-5.525-53.709-10.956zm179.598-2.328c-12.924 0-23.439-10.515-23.439-23.439s10.515-23.439 23.439-23.439c12.925 0 23.439 10.515 23.439 23.439s-10.514 23.439-23.439 23.439z"/><path d="m205.484 298.123 27.006.92c.263.009.478.116.641.319.163.202.221.435.172.699l-9.771 53.153c-1.378 7.511 2.429 14.54 9.472 17.492 2.08.871 4.214 1.292 6.304 1.292 4.992 0 9.725-2.404 12.821-6.814l66.865-95.317c3.336-4.767 3.797-10.965 1.203-16.174-2.592-5.206-7.814-8.571-13.623-8.781l-27-.99c-.255-.009-.467-.116-.629-.319-.166-.207-.226-.444-.179-.699l9.78-53.173c1.379-7.515-2.431-14.548-9.48-17.499-7.048-2.951-14.731-.728-19.117 5.528l-35.26 50.27c-2.378 3.391-1.558 8.069 1.833 10.447 3.39 2.378 8.068 1.558 10.447-1.833l35.261-50.271c.197-.282.401-.573 1.044-.304.644.27.58.618.519.952l-9.78 53.175c-.832 4.54.35 9.208 3.242 12.806 2.889 3.594 7.186 5.748 11.78 5.911l26.993.99c.154.006.514.019.742.478.231.463.023.76-.061.88l-66.858 95.308c-.198.282-.399.576-1.05.303-.64-.268-.577-.615-.516-.948l9.769-53.143c.84-4.546-.339-9.219-3.235-12.82-2.897-3.601-7.209-5.755-11.825-5.908l-27.007-.92c-.153-.005-.512-.017-.739-.473-.229-.458-.021-.754.07-.884l11.57-16.49c2.379-3.391 1.559-8.068-1.832-10.447-3.39-2.378-8.067-1.559-10.447 1.832l-11.568 16.487c-3.353 4.773-3.818 10.98-1.215 16.197 2.602 5.216 7.838 8.575 13.658 8.768z"/></g></svg>