<svg xmlns="http://www.w3.org/2000/svg" width="128" height="128" viewBox="0 0 128 128">
  <title>DART BOARD</title>
  <path d="M110.714,33.83a1.749,1.749,0,0,0-1.183-1.251L98.764,29.253,95.438,18.485a1.749,1.749,0,0,0-2.909-.72l-9.441,9.441a1.749,1.749,0,0,0-.435,1.753l2.469,8L83.565,38.13a40.815,40.815,0,1,0,6.318,6.321l1.17-1.554,7.993,2.467a1.757,1.757,0,0,0,1.753-.434l9.452-9.441A1.755,1.755,0,0,0,110.714,33.83ZM67.61,69.943a9.57,9.57,0,1,1-9.57-9.57c.2,0,.4.026.6.038a7.977,7.977,0,0,0,1.145,5.336L56.8,68.731a1.75,1.75,0,1,0,2.474,2.475l2.969-2.969a7.847,7.847,0,0,0,4.216,1.226,8.006,8.006,0,0,0,1.112-.086C67.586,69.566,67.61,69.755,67.61,69.943ZM69.6,64.664a4.3,4.3,0,0,1-1.324.907,4.47,4.47,0,0,1-4.926-.9l0,0,0,0a4.453,4.453,0,0,1-.895-4.962,4.181,4.181,0,0,1,.9-1.29L65,56.751,71.255,63ZM64.073,52.792l0,0-.021.016c-.017.011-.032.024-.049.036l-.038.029c-.013.01-.022.023-.035.033a1.521,1.521,0,0,0-.16.128l-2.886,2.884a7.547,7.547,0,0,0-.93,1.106,12.9,12.9,0,0,0-1.909-.156,13.07,13.07,0,1,0,13.07,13.07,12.933,12.933,0,0,0-.152-1.878,7.841,7.841,0,0,0,1.111-.926l2.895-2.895,0,0,0,0,.023-.023a1.714,1.714,0,0,0,.117-.141c.006-.007.013-.012.019-.019l4.359-5.792a24.5,24.5,0,1,1-9.736-9.746Zm22.211-9.38c-.009.011-.02.019-.029.031l-12.712,16.9-5.87-5.878L91.2,36.762l.2-.154L89,39.809l0,0Zm6.667-21.12,2.2,7.122-7.056,5.3-1.785-5.783Zm2.394,47.651A37.33,37.33,0,1,1,80.671,40.3l-7.9,5.943A27.681,27.681,0,0,0,58.04,42.009,27.986,27.986,0,1,0,81.766,55.236l5.943-7.9A37.239,37.239,0,0,1,95.345,69.943Zm3.726-28.235L93.29,39.924,98.6,32.867l7.121,2.2Z"/>
</svg>
