<svg xmlns="http://www.w3.org/2000/svg" width="128" height="128" viewBox="0 0 128 128">
  <title>CLOCK</title>
  <path d="M64,98.811A34.811,34.811,0,1,0,29.189,64,34.85,34.85,0,0,0,64,98.811ZM36.375,62.25H32.741A31.351,31.351,0,0,1,62.25,32.741v3.634a1.75,1.75,0,0,0,3.5,0V32.741A31.351,31.351,0,0,1,95.259,62.25H91.625a1.75,1.75,0,0,0,0,3.5h3.634A31.351,31.351,0,0,1,65.75,95.259V91.625a1.75,1.75,0,0,0-3.5,0v3.634A31.351,31.351,0,0,1,32.741,65.75h3.634a1.75,1.75,0,0,0,0-3.5Z"/>
  <path d="M64,107.1A43.1,43.1,0,1,0,20.9,64,43.152,43.152,0,0,0,64,107.1ZM64,24.4A39.6,39.6,0,1,1,24.4,64,39.648,39.648,0,0,1,64,24.4Z"/>
  <path d="M62.7,65.166a1.749,1.749,0,0,0,2,.438l19.587-8.527a1.75,1.75,0,0,0-1.4-3.209L64.462,61.89,48.516,44.047a1.75,1.75,0,1,0-2.609,2.332Z"/>
</svg>
