<svg id="Capa_1" enable-background="new 0 0 512 512" height="512" viewBox="0 0 512 512" width="512" xmlns="http://www.w3.org/2000/svg"><g><path d="m78.41 188.588h14.47c5.613 0 10.734-3.07 13.365-8.013 2.668-5.012 2.345-11.069-.861-15.832-.889-1.308-1.711-2.689-2.44-4.097-3.118-6.036-4.71-12.832-4.604-19.654.344-22.5 19.306-40.804 42.271-40.804h25.69c4.142 0 7.5-3.358 7.5-7.5v-7.14c0-20.663 16.474-37.742 36.723-38.071 10.097-.167 19.632 3.641 26.826 10.718 7.19 7.075 11.15 16.527 11.15 26.613 0 4.142 3.358 7.5 7.5 7.5 4.143 0 7.5-3.358 7.5-7.5 0-10.086 3.961-19.538 11.152-26.613 7.193-7.076 16.7-10.875 26.825-10.718 20.249.329 36.723 17.408 36.723 38.071v7.14c0 4.142 3.357 7.5 7.5 7.5h25.689c17.225 0 33.042 10.582 39.359 26.332 1.542 3.844 5.911 5.71 9.753 4.169 3.845-1.542 5.711-5.909 4.169-9.753-8.576-21.382-29.988-35.748-53.281-35.748h-18.19c-.19-28.64-23.21-52.249-51.478-52.709-14.126-.238-27.507 5.104-37.589 15.023-3.169 3.117-5.891 6.565-8.133 10.265-2.242-3.7-4.964-7.147-8.132-10.265-10.082-9.919-23.419-15.254-37.59-15.023-28.267.46-51.286 24.069-51.477 52.709h-18.19c-31.11 0-56.801 24.931-57.269 55.574-.144 9.285 2.026 18.542 6.279 26.776 1.006 1.942 2.135 3.838 3.338 5.608.189.281.019.429.022.433 0 0-.03.009-.101.009h-14.469c-43.235 0-78.41 35.166-78.41 78.39 0 18.172 6.363 35.888 17.916 49.885 8.475 10.267 19.441 18.192 31.692 23.047-8.32 10.039-13.048 22.804-13.048 36.059 0 15.075 5.869 29.246 16.532 39.909 5.669 5.658 12.603 10.127 20.052 12.923.868.326 1.759.48 2.635.48 3.035 0 5.893-1.856 7.022-4.866 1.456-3.878-.508-8.202-4.386-9.657-5.465-2.052-10.558-5.336-14.722-9.492-7.824-7.824-12.133-18.229-12.133-29.297 0-13.167 6.358-25.678 17.007-33.466 2.396-1.752 3.533-4.752 2.9-7.652s-2.915-5.154-5.823-5.75c-14.107-2.89-26.949-10.627-36.161-21.787-9.339-11.315-14.483-25.64-14.483-40.336 0-34.953 28.446-63.39 63.41-63.39z"/><path d="m433.59 173.588h-14.47c-.05 0-.084-.004-.084-.003-.037-.033-.17-.177-.012-.414 1.221-1.796 2.349-3.692 3.354-5.632 1.156-2.231 2.165-4.548 2.998-6.888 1.389-3.903-.649-8.192-4.552-9.58-3.904-1.388-8.19.649-9.581 4.552-.604 1.699-1.339 3.386-2.184 5.015-.733 1.417-1.556 2.798-2.461 4.131-3.188 4.737-3.512 10.793-.844 15.805 2.631 4.943 7.752 8.013 13.365 8.013h14.47c34.965 0 63.41 28.437 63.41 63.39 0 14.696-5.144 29.02-14.484 40.336-9.212 11.16-22.054 18.897-36.16 21.787-2.908.595-5.19 2.85-5.823 5.75-.632 2.9.505 5.9 2.9 7.652 10.649 7.788 17.008 20.299 17.008 33.466 0 11.068-4.31 21.472-12.127 29.291-7.847 7.828-18.253 12.139-29.304 12.139h-31.509c-7.762 0-14.243 5.791-15.076 13.47-3.013 27.741-26.354 48.66-54.294 48.66-30.123 0-54.63-24.507-54.63-54.63 0-4.142-3.357-7.5-7.5-7.5-4.142 0-7.5 3.358-7.5 7.5 0 30.123-24.507 54.63-54.63 54.63-27.94 0-51.281-20.919-54.294-48.659-.833-7.68-7.314-13.471-15.076-13.471h-14.01c-4.142 0-7.5 3.358-7.5 7.5s3.358 7.5 7.5 7.5h14.01c.114 0 .163.082.164.09 3.841 35.369 33.593 62.04 69.206 62.04 27.097 0 50.628-15.558 62.13-38.21 11.502 22.652 35.033 38.21 62.13 38.21 35.612 0 65.365-26.672 69.207-62.047 0-.001.049-.083.163-.083h31.51c15.051 0 29.22-5.867 39.904-16.527 10.657-10.658 16.526-24.829 16.526-39.903 0-13.255-4.729-26.02-13.048-36.059 12.251-4.855 23.216-12.779 31.691-23.046 11.555-13.997 17.917-31.713 17.917-49.885 0-43.224-35.175-78.39-78.41-78.39z"/><path d="m368.3 212.54c4.143 0 7.5-3.358 7.5-7.5s-3.357-7.5-7.5-7.5h-23.095c-2.684-10.098-10.648-18.063-20.746-20.747v-23.095c0-4.142-3.357-7.5-7.5-7.5s-7.5 3.358-7.5 7.5v22.115h-15.479v-22.115c0-4.142-3.357-7.5-7.5-7.5s-7.5 3.358-7.5 7.5v22.115h-15.48v-22.115c0-4.142-3.357-7.5-7.5-7.5-4.142 0-7.5 3.358-7.5 7.5v22.115h-15.479v-22.115c0-4.142-3.358-7.5-7.5-7.5s-7.5 3.358-7.5 7.5v22.115h-15.479v-22.115c0-4.142-3.358-7.5-7.5-7.5s-7.5 3.358-7.5 7.5v23.095c-10.098 2.684-18.063 10.649-20.747 20.747h-23.095c-4.142 0-7.5 3.358-7.5 7.5s3.358 7.5 7.5 7.5h22.115v15.479h-22.115c-4.142 0-7.5 3.358-7.5 7.5s3.358 7.5 7.5 7.5h22.115v15.479h-22.115c-4.142 0-7.5 3.358-7.5 7.5s3.358 7.5 7.5 7.5h22.115v15.479h-22.115c-4.142 0-7.5 3.358-7.5 7.5s3.358 7.5 7.5 7.5h22.115v15.479h-22.115c-4.142 0-7.5 3.358-7.5 7.5s3.358 7.5 7.5 7.5h23.095c2.684 10.098 10.649 18.063 20.747 20.747v23.095c0 4.142 3.358 7.5 7.5 7.5s7.5-3.358 7.5-7.5v-22.115h15.479v22.115c0 4.142 3.358 7.5 7.5 7.5s7.5-3.358 7.5-7.5v-22.115h15.479v22.115c0 4.142 3.358 7.5 7.5 7.5 4.143 0 7.5-3.358 7.5-7.5v-22.115h15.479v22.115c0 4.142 3.357 7.5 7.5 7.5s7.5-3.358 7.5-7.5v-22.115h15.479v22.115c0 4.142 3.357 7.5 7.5 7.5s7.5-3.358 7.5-7.5v-23.095c10.097-2.684 18.062-10.649 20.746-20.747h23.096c4.143 0 7.5-3.358 7.5-7.5s-3.357-7.5-7.5-7.5h-22.115v-15.479h22.115c4.143 0 7.5-3.358 7.5-7.5s-3.357-7.5-7.5-7.5h-22.115v-15.479h22.115c4.143 0 7.5-3.358 7.5-7.5s-3.357-7.5-7.5-7.5h-22.115v-15.479h22.115c4.143 0 7.5-3.358 7.5-7.5s-3.357-7.5-7.5-7.5h-22.115v-15.479zm-51.341 128.643h-121.917c-7.845 0-14.227-6.382-14.227-14.227v-121.916c0-7.844 6.382-14.227 14.227-14.227h121.917c7.844 0 14.226 6.382 14.226 14.227v121.917c0 7.844-6.382 14.226-14.226 14.226z"/><path d="m243.502 229.608c-.026-.069-.053-.138-.082-.207-1.406-3.416-4.698-5.621-8.391-5.621-.003 0-.007 0-.01 0-3.697.004-6.989 2.218-8.389 5.639-.023.056-.045.113-.067.17l-26.073 68.457c-1.474 3.871.468 8.204 4.339 9.678 3.868 1.474 8.203-.469 9.678-4.339l4.654-12.219h31.539l4.603 12.198c1.134 3.004 3.988 4.854 7.018 4.854.88 0 1.775-.156 2.647-.485 3.875-1.463 5.831-5.79 4.368-9.665zm-18.627 46.558 10.128-26.593 10.036 26.593z"/><path d="m297.5 223.781c-4.143 0-7.5 3.358-7.5 7.5v69.435c0 4.142 3.357 7.5 7.5 7.5s7.5-3.358 7.5-7.5v-69.435c0-4.142-3.357-7.5-7.5-7.5z"/></g></svg>