<?xml version="1.0" encoding="utf-8"?>
<!-- Generator: Adobe Illustrator 24.1.3, SVG Export Plug-In . SVG Version: 6.00 Build 0)  -->
<svg version="1.1" xmlns="http://www.w3.org/2000/svg" xmlns:xlink="http://www.w3.org/1999/xlink" x="0px" y="0px"
	 viewBox="0 0 24 24" style="enable-background:new 0 0 24 24;" xml:space="preserve">
<g id="Design_here">
	<g>
		<path d="M12,21c-1.1,0-2-0.9-2-2s0.9-2,2-2c1.1,0,2,0.9,2,2S13.1,21,12,21z M12,18c-0.55,0-1,0.45-1,1s0.45,1,1,1s1-0.45,1-1
			S12.55,18,12,18z"/>
	</g>
	<g>
		<path d="M13.5,16h-3c-0.25,0-0.46-0.19-0.5-0.44l-1.5-12C8.49,3.42,8.53,3.28,8.62,3.17C8.72,3.06,8.86,3,9,3h6
			c0.14,0,0.28,0.06,0.38,0.17s0.14,0.25,0.12,0.39l-1.5,12C13.96,15.81,13.75,16,13.5,16z M10.94,15h2.12l1.38-11H9.57L10.94,15z"
			/>
	</g>
</g>
<g id="Guide">
</g>
</svg>
