<svg xmlns="http://www.w3.org/2000/svg" width="128" height="128" viewBox="0 0 128 128">
  <title>WATERCOLOR</title>
  <g>
    <path d="M23.4,51.754a10.8,10.8,0,1,0,10.8,10.8A10.813,10.813,0,0,0,23.4,51.754Zm0,18.1a7.3,7.3,0,1,1,7.3-7.3A7.309,7.309,0,0,1,23.4,69.855Z"/>
    <path d="M50.466,51.754a10.8,10.8,0,1,0,10.8,10.8A10.813,10.813,0,0,0,50.466,51.754Zm0,18.1a7.3,7.3,0,1,1,7.3-7.3A7.309,7.309,0,0,1,50.466,69.855Z"/>
    <path d="M77.536,51.754a10.8,10.8,0,1,0,10.8,10.8A10.814,10.814,0,0,0,77.536,51.754Zm0,18.1a7.3,7.3,0,1,1,7.3-7.3A7.309,7.309,0,0,1,77.536,69.855Z"/>
    <path d="M104.605,51.754a10.8,10.8,0,1,0,10.8,10.8A10.813,10.813,0,0,0,104.605,51.754Zm0,18.1a7.3,7.3,0,1,1,7.3-7.3A7.309,7.309,0,0,1,104.605,69.855Z"/>
    <path d="M23.4,78.824a10.8,10.8,0,1,0,10.8,10.8A10.813,10.813,0,0,0,23.4,78.824Zm0,18.1a7.3,7.3,0,1,1,7.3-7.3A7.309,7.309,0,0,1,23.4,96.925Z"/>
    <path d="M50.466,78.824a10.8,10.8,0,1,0,10.8,10.8A10.813,10.813,0,0,0,50.466,78.824Zm0,18.1a7.3,7.3,0,1,1,7.3-7.3A7.309,7.309,0,0,1,50.466,96.925Z"/>
    <path d="M77.536,78.824a10.8,10.8,0,1,0,10.8,10.8A10.813,10.813,0,0,0,77.536,78.824Zm0,18.1a7.3,7.3,0,1,1,7.3-7.3A7.309,7.309,0,0,1,77.536,96.925Z"/>
    <path d="M104.605,78.824a10.8,10.8,0,1,0,10.8,10.8A10.813,10.813,0,0,0,104.605,78.824Zm0,18.1a7.3,7.3,0,1,1,7.3-7.3A7.309,7.309,0,0,1,104.605,96.925Z"/>
    <path d="M115.954,43.858H12.048a6.7,6.7,0,0,0-6.7,6.7v51.071a6.7,6.7,0,0,0,6.7,6.7H115.954a6.7,6.7,0,0,0,6.7-6.7V50.554A6.7,6.7,0,0,0,115.954,43.858Zm3.2,57.767a3.2,3.2,0,0,1-3.2,3.2H12.048a3.2,3.2,0,0,1-3.2-3.2V50.554a3.2,3.2,0,0,1,3.2-3.2H115.954a3.2,3.2,0,0,1,3.2,3.2Z"/>
    <path d="M12.168,36.13H98.653a9.6,9.6,0,0,0,6.783,2.805c4.149,0,17.212-3.519,17.212-9.622s-13.063-9.634-17.212-9.634a9.581,9.581,0,0,0-6.787,2.815H12.168a6.818,6.818,0,1,0,0,13.636Zm64.5-3.5V25.994h6.21V32.63Zm28.77-9.451c4.722,0,13.712,3.666,13.712,6.134s-8.99,6.122-13.712,6.122a6.128,6.128,0,0,1,0-12.256ZM96.4,32.63H86.376V25.994H96.4C96.275,26.83,95.129,28.068,96.4,32.63ZM12.168,25.994h61V32.63h-61a3.318,3.318,0,1,1,0-6.636Z"/>
  </g>
</svg>
