<svg xmlns="http://www.w3.org/2000/svg" width="24" height="24" viewBox="0 0 24 24">
  <path d="M21.9,12.306a.5.5,0,0,0,0-.612C21.716,11.461,17.43,6,12,6A9.663,9.663,0,0,0,7.769,7.062L3.881,3.173a.5.5,0,0,0-.707.707L6.849,7.556A18.566,18.566,0,0,0,2.1,11.694a.5.5,0,0,0,0,.612C2.284,12.539,6.57,18,12,18a9.659,9.659,0,0,0,4.231-1.062l3.915,3.916a.5.5,0,0,0,.708-.708l-3.7-3.7A18.566,18.566,0,0,0,21.9,12.306ZM12,17c-4.236,0-7.878-3.871-8.851-5A17.742,17.742,0,0,1,7.582,8.289L8.853,9.56A3.962,3.962,0,0,0,8,12a4,4,0,0,0,4,4,3.962,3.962,0,0,0,2.44-.853l1.037,1.036A8.44,8.44,0,0,1,12,17Zm2.44-3.267L10.267,9.56A2.972,2.972,0,0,1,12,9a3,3,0,0,1,3,3A2.972,2.972,0,0,1,14.44,13.733Zm-.707.707A2.991,2.991,0,0,1,9.56,10.267Zm2.685,1.271L15.147,14.44A3.96,3.96,0,0,0,16,12,3.978,3.978,0,0,0,9.56,8.853L8.524,7.816A8.446,8.446,0,0,1,12,7c4.236,0,7.878,3.871,8.851,5A17.742,17.742,0,0,1,16.418,15.711Z"/>
</svg>
