<svg id="Capa_1" enable-background="new 0 0 512 512" height="512" viewBox="0 0 512 512" width="512" xmlns="http://www.w3.org/2000/svg"><g><path d="m241.857 199.415c3.899 3.899 9.02 5.848 14.143 5.848 5.122 0 10.243-1.949 14.143-5.848l67.405-67.405c5.74-5.741 7.442-14.296 4.335-21.796-3.106-7.5-10.359-12.347-18.478-12.347h-26.89v-77.867c0-11.028-8.972-20-20-20h-41.031c-11.028 0-20 8.972-20 20v77.867h-26.89c-8.118 0-15.371 4.846-18.477 12.347-3.107 7.5-1.405 16.055 4.335 21.796zm-16.373-81.548c5.522 0 10-4.477 10-10v-87.867h41.031v87.867c0 5.523 4.478 10 10 10l36.884.006-67.399 67.4-67.397-67.405h36.881z"/><path d="m88.338 432h23c5.522 0 10-4.477 10-10s-4.478-10-10-10h-23c-5.522 0-10 4.477-10 10s4.477 10 10 10z"/><path d="m164.338 452h-76c-5.522 0-10 4.477-10 10s4.478 10 10 10h76c5.522 0 10-4.477 10-10s-4.478-10-10-10z"/><path d="m509.486 297.126-37.504-56.257c-1.854-2.782-4.977-4.453-8.32-4.453h-44.66c-5.522 0-10 4.477-10 10s4.478 10 10 10h39.309l29.263 43.896h-183.625l-29.264-43.896h64.314c5.522 0 10-4.477 10-10s-4.478-10-10-10h-290.661c-3.344 0-6.466 1.671-8.32 4.453l-37.503 56.255c-3.058 4.585-3.343 10.451-.742 15.31 2.6 4.859 7.639 7.878 13.149 7.878h23.416v171.688c0 11.028 8.972 20 20 20h395.324c11.028 0 20-8.972 20-20v-171.688h23.416c5.511 0 10.55-3.019 13.149-7.878 2.601-4.859 2.316-10.725-.741-15.308zm-455.797-40.71h183.626l-29.264 43.896h-183.624zm4.649 63.896h149.713c6.703 0 12.924-3.33 16.641-8.906l21.308-31.963v212.557h-187.662zm395.324 171.688h-187.662v-212.556l21.308 31.962c3.718 5.577 9.939 8.907 16.642 8.907h149.713v171.687z"/><circle cx="379" cy="246.415" r="10"/></g></svg>