<svg xmlns="http://www.w3.org/2000/svg" width="128" height="128" viewBox="0 0 128 128">
  <title>PRINTER</title>
  <g>
    <path d="M103.07,41.03h-1.117V30.888a1.751,1.751,0,0,0-1.75-1.75H95.416V23.87a6.627,6.627,0,0,0-6.62-6.62H39.2a6.628,6.628,0,0,0-6.621,6.62v5.268H27.8a1.751,1.751,0,0,0-1.75,1.75V41.03H24.93a7.689,7.689,0,0,0-7.68,7.68V77.54a7.688,7.688,0,0,0,7.68,7.68h7.65v18.91a6.628,6.628,0,0,0,6.62,6.62H88.8a6.628,6.628,0,0,0,6.62-6.62V85.22h7.65a7.688,7.688,0,0,0,7.68-7.68V48.71A7.689,7.689,0,0,0,103.07,41.03Zm-4.617-8.392v8.389H95.416V32.638ZM36.081,23.87A3.124,3.124,0,0,1,39.2,20.75H88.8a3.123,3.123,0,0,1,3.12,3.12V41.027H36.081V23.87Zm-6.536,8.768h3.036v8.389H29.545ZM91.92,104.13a3.124,3.124,0,0,1-3.12,3.12H39.2a3.124,3.124,0,0,1-3.12-3.12V72.28H91.92v31.85Zm15.33-26.59a4.185,4.185,0,0,1-4.18,4.18H95.42V72.28h3.019a1.75,1.75,0,0,0,0-3.5H29.559a1.75,1.75,0,1,0,0,3.5H32.58v9.44H24.93a4.185,4.185,0,0,1-4.18-4.18V48.71a4.185,4.185,0,0,1,4.18-4.18h78.14a4.185,4.185,0,0,1,4.18,4.18Z"/>
    <path d="M83.666,79.917H44.333a1.75,1.75,0,0,0,0,3.5H83.666a1.75,1.75,0,0,0,0-3.5Z"/>
    <path d="M83.666,91.917H44.333a1.75,1.75,0,0,0,0,3.5H83.666a1.75,1.75,0,0,0,0-3.5Z"/>
    <path d="M37.333,48.555h-6a4.422,4.422,0,0,0-4.416,4.417v.363a4.422,4.422,0,0,0,4.416,4.417h6a4.422,4.422,0,0,0,4.417-4.417v-.363A4.422,4.422,0,0,0,37.333,48.555Zm.917,4.78a.929.929,0,0,1-.917.917h-6a.929.929,0,0,1-.916-.917v-.363a.929.929,0,0,1,.916-.917h6a.929.929,0,0,1,.917.917Z"/>
  </g>
</svg>
