<svg xmlns="http://www.w3.org/2000/svg" width="128" height="128" viewBox="0 0 128 128">
  <title>Video Camera</title>
  <path d="M114.723,59.869a1.75,1.75,0,0,0-1.734-.028L91.68,71.534v-11.7a6.362,6.362,0,0,0-6.355-6.354H74.959A18.808,18.808,0,1,0,45.642,34.339,13.887,13.887,0,1,0,25.658,53.482H18.772a6.362,6.362,0,0,0-6.353,6.354v42.457a6.361,6.361,0,0,0,6.353,6.354H85.325a6.362,6.362,0,0,0,6.355-6.354V90.6l21.309,11.693a1.75,1.75,0,0,0,2.592-1.535V61.375A1.749,1.749,0,0,0,114.723,59.869ZM64.068,22.846A15.318,15.318,0,1,1,48.749,38.164,15.335,15.335,0,0,1,64.068,22.846ZM53.177,53.482H44.04a13.934,13.934,0,0,0,3.877-5.709A18.93,18.93,0,0,0,53.177,53.482Zm-28.729-10.4a10.4,10.4,0,1,1,10.4,10.4A10.413,10.413,0,0,1,24.448,43.082ZM88.18,102.293a2.858,2.858,0,0,1-2.855,2.854H18.772a2.857,2.857,0,0,1-2.853-2.854V59.836a2.857,2.857,0,0,1,2.853-2.854H85.325a2.858,2.858,0,0,1,2.855,2.854Zm23.9-4.492L91.68,86.607V75.526l20.4-11.194Z"/>
  <path d="M42.143,82.928H23.556a1.75,1.75,0,0,0-1.75,1.75V97.934a1.75,1.75,0,0,0,1.75,1.75H42.143a1.751,1.751,0,0,0,1.75-1.75V84.678A1.751,1.751,0,0,0,42.143,82.928Zm-1.75,13.256H25.306V86.428H40.393Z"/>
  <path d="M78.284,96.184H54.58a1.75,1.75,0,0,0,0,3.5h23.7a1.75,1.75,0,1,0,0-3.5Z"/>
</svg>
