<svg xmlns="http://www.w3.org/2000/svg" width="128" height="128" viewBox="0 0 128 128">
  <title>MEGAPHONE</title>
  <path d="M42.072,57.708h4.491a1.75,1.75,0,0,0,0-3.5H42.072a1.75,1.75,0,0,0,0,3.5Z"/>
  <path d="M42.072,63.762h4.491a1.75,1.75,0,0,0,0-3.5H42.072a1.75,1.75,0,0,0,0,3.5Z"/>
  <path d="M100,28.515h-.372a6.588,6.588,0,0,0-6.5,5.578L54.6,47.576H39.181a7.2,7.2,0,0,0-7.1,6.1H28.6a7.2,7.2,0,0,0-7.19,7.189v5.559a7.2,7.2,0,0,0,7.19,7.19h3.478A7.205,7.205,0,0,0,37,79.385l2.6,17a6.288,6.288,0,0,0,6.25,5.367H49a6.323,6.323,0,0,0,6.25-7.277L53,79.724h1.6L93.133,93.207a6.588,6.588,0,0,0,6.5,5.578H100a6.591,6.591,0,0,0,6.583-6.584V35.1A6.591,6.591,0,0,0,100,28.515Zm-68.012,41.6H28.6a3.694,3.694,0,0,1-3.69-3.69V60.87a3.694,3.694,0,0,1,3.69-3.689h3.387Zm19.15,27.147A2.819,2.819,0,0,1,49,98.249H45.852a2.806,2.806,0,0,1-2.79-2.4L40.6,79.724h8.858L51.79,95A2.821,2.821,0,0,1,51.141,97.266Zm2-21.042H39.181a3.694,3.694,0,0,1-3.69-3.69V54.766a3.694,3.694,0,0,1,3.69-3.69H53.145Zm39.9,13.245-36.4-12.738V50.568l36.4-12.737ZM103.086,92.2A3.087,3.087,0,0,1,100,95.285h-.372A3.087,3.087,0,0,1,96.548,92.2V35.1a3.087,3.087,0,0,1,3.083-3.084H100a3.087,3.087,0,0,1,3.083,3.084Z"/>
</svg>
