<?xml version="1.0" encoding="UTF-8"?>
<svg id="Dash_Line" xmlns="http://www.w3.org/2000/svg" viewBox="0 0 96 96">
  <path d="M85.94,27.11h-3.987v-3.027c0-1.654-1.346-3-3-3h-8.94c-1.654,0-3,1.346-3,3v3.027h-10.192l-3.204-8.883c-.402-1.116-1.478-1.866-2.676-1.866h-30.078c-1.198,0-2.274.75-2.677,1.866l-3.204,8.883h-4.922c-2.79,0-5.06,2.274-5.06,5.07v17.35c0,.552.447,1,1,1s1-.448,1-1v-17.35c0-1.693,1.372-3.07,3.06-3.07h75.881c1.688,0,3.06,1.377,3.06,3.07v43.71c0,1.688-1.372,3.06-3.06,3.06H10.06c-1.688,0-3.06-1.373-3.06-3.06v-17.36c0-.552-.447-1-1-1s-1,.448-1,1v17.36c0,2.79,2.27,5.06,5.06,5.06h75.881c2.79,0,5.06-2.27,5.06-5.06v-43.71c0-2.796-2.27-5.07-5.06-5.07ZM69.013,24.083c0-.551.448-1,1-1h8.94c.552,0,1,.449,1,1v3.027h-10.94v-3.027ZM20.066,18.905c.118-.326.438-.545.796-.545h30.078c.357,0,.677.219.795.545l2.959,8.205H17.108l2.958-8.205ZM60.731,75.871c.553,0,1-.448,1-1v-41.679c0-.552-.447-1-1-1H11.07c-.553,0-1,.448-1,1v41.679c0,.552.447,1,1,1h49.661ZM12.07,34.192h47.661v39.679H12.07v-39.679ZM57.12,37.356v4.631c0,.552-.447,1-1,1s-1-.448-1-1v-3.631h-3.986c-.553,0-1-.448-1-1s.447-1,1-1h4.986c.553,0,1,.448,1,1ZM21.668,37.356c0,.552-.447,1-1,1h-3.977v3.631c0,.552-.447,1-1,1s-1-.448-1-1v-4.631c0-.552.447-1,1-1h4.977c.553,0,1,.448,1,1ZM57.12,66.076v4.631c0,.552-.447,1-1,1h-4.986c-.553,0-1-.448-1-1s.447-1,1-1h3.986v-3.631c0-.552.447-1,1-1s1,.448,1,1ZM21.668,70.707c0,.552-.447,1-1,1h-4.977c-.553,0-1-.448-1-1v-4.631c0-.552.447-1,1-1s1,.448,1,1v3.631h3.977c.553,0,1,.448,1,1ZM68.14,61.474c1.969,1.968,4.586,3.052,7.369,3.052s5.4-1.084,7.368-3.052c4.062-4.063,4.062-10.674,0-14.737-1.968-1.968-4.585-3.052-7.368-3.052s-5.4,1.084-7.369,3.052c-4.062,4.063-4.062,10.674,0,14.737ZM68.893,48.904l2.78,2.78c-.931,1.476-.931,3.368,0,4.843l-2.78,2.78c-2.395-3.042-2.395-7.361,0-10.403ZM78.053,54.105c0,.68-.266,1.318-.746,1.798h0c-.992.991-2.604.993-3.597,0-.991-.992-.991-2.605,0-3.598.496-.496,1.147-.744,1.798-.744s1.303.248,1.799.744c.48.481.746,1.12.746,1.799ZM70.307,60.721l2.78-2.78c.737.466,1.578.706,2.421.706s1.684-.24,2.422-.706l2.78,2.78c-1.478,1.167-3.289,1.805-5.201,1.805s-3.724-.639-5.202-1.805ZM82.124,59.307l-2.78-2.78c.456-.719.709-1.55.709-2.422s-.253-1.702-.709-2.421l2.781-2.78c2.395,3.042,2.395,7.361,0,10.403ZM80.71,47.49l-2.78,2.78c-1.475-.931-3.367-.93-4.842,0l-2.78-2.78c1.479-1.167,3.29-1.805,5.202-1.805s3.723.639,5.201,1.805ZM30.655,51.559c0,.812.66,1.472,1.473,1.472h1.617c1.914,0,3.472,1.558,3.472,3.472s-1.558,3.472-3.472,3.472h-4.09c-.553,0-1-.448-1-1s.447-1,1-1h4.09c.812,0,1.472-.661,1.472-1.472s-.66-1.472-1.472-1.472h-1.617c-1.915,0-3.473-1.558-3.473-3.472s1.558-3.472,3.473-3.472h4.089c.553,0,1,.448,1,1s-.447,1-1,1h-4.089c-.812,0-1.473.66-1.473,1.472ZM44.116,48.087h-.101c-2.333,0-4.23,1.898-4.23,4.23v3.427c0,2.333,1.897,4.23,4.23,4.23h.101c2.333,0,4.23-1.898,4.23-4.23v-3.427c0-2.333-1.897-4.23-4.23-4.23ZM46.347,55.745c0,1.23-1.001,2.23-2.23,2.23h-.101c-1.229,0-2.23-1-2.23-2.23v-3.427c0-1.23,1.001-2.23,2.23-2.23h.101c1.229,0,2.23,1,2.23,2.23v3.427ZM25.456,49.087v9.888c0,.552-.447,1-1,1s-1-.448-1-1v-9.888c0-.552.447-1,1-1s1,.448,1,1ZM72.003,41.579c1.103,0,2-.897,2-2v-3.326c0-1.103-.897-2-2-2h-3.878c-1.103,0-2,.897-2,2v3.326c0,1.103.897,2,2,2h3.878ZM68.125,36.253h3.878v3.326s-3.878,0-3.878,0v-3.326ZM82.892,41.579c1.103,0,2-.897,2-2v-3.326c0-1.103-.897-2-2-2h-3.878c-1.103,0-2,.897-2,2v3.326c0,1.103.897,2,2,2h3.878ZM79.014,36.253h3.878v3.326h-3.878v-3.326ZM68.125,66.632c-1.103,0-2,.897-2,2v3.326c0,1.103.897,2,2,2h3.878c1.103,0,2-.897,2-2v-3.326c0-1.103-.897-2-2-2h-3.878ZM72.003,71.958h-3.878v-3.326h3.878v3.326ZM79.014,66.632c-1.103,0-2,.897-2,2v3.326c0,1.103.897,2,2,2h3.878c1.103,0,2-.897,2-2v-3.326c0-1.103-.897-2-2-2h-3.878ZM82.892,71.958h-3.878v-3.326s0,0,0,0h3.878v3.326ZM5,54.93v-1.8c0-.552.447-1,1-1s1,.448,1,1v1.8c0,.552-.447,1-1,1s-1-.448-1-1Z"/>
</svg>