<svg id="Capa_1" enable-background="new 0 0 511.997 511.997" height="512" viewBox="0 0 511.997 511.997" width="512" xmlns="http://www.w3.org/2000/svg"><g><path d="m314.384 159.802h-161.1c-21.927 0-39.766 17.839-39.766 39.766v112.861c0 21.927 17.839 39.766 39.767 39.766h161.1c21.927 0 39.766-17.839 39.766-39.766v-112.861c-.001-21.927-17.84-39.766-39.767-39.766zm24.766 152.627c0 13.656-11.109 24.766-24.766 24.766h-161.1c-13.656 0-24.767-11.11-24.767-24.766v-112.861c0-13.656 11.109-24.766 24.766-24.766h161.101c13.656 0 24.766 11.11 24.766 24.766z"/><path d="m398.814 204.598c-5.333 0-10.336 1.422-14.665 3.895v-16.313c0-26.042-16.047-48.397-38.768-57.725l-10.379-46.944c-.894-4.044-4.902-6.6-8.942-5.704-4.045.895-6.599 4.898-5.704 8.942l8.732 39.495c-2.403-.282-4.842-.444-7.319-.444h-175.87c-2.478 0-4.917.162-7.32.444l20.683-93.593c2.777-12.546 14.118-21.651 26.967-21.651h95.21c12.848 0 24.189 9.105 26.967 21.648l4.43 20.04c.894 4.044 4.89 6.598 8.942 5.705 4.044-.894 6.598-4.897 5.704-8.942l-4.431-20.043c-4.355-19.67-21.467-33.408-41.612-33.408h-95.21c-20.146 0-37.258 13.738-41.613 33.412l-22.33 101.043c-22.721 9.328-38.768 31.683-38.768 57.725v127.64c0 26.037 16.046 48.386 38.764 57.714l22.339 101.049c4.349 19.673 21.457 33.414 41.605 33.414h95.216c20.147 0 37.257-13.74 41.606-33.414l22.338-101.05c22.718-9.328 38.763-31.677 38.763-57.714v-16.315c4.329 2.473 9.333 3.895 14.665 3.895 16.357 0 29.665-13.308 29.665-29.665v-43.473c0-16.356-13.308-29.663-29.665-29.663zm-29.665 115.222c0 26.12-21.255 47.37-47.381 47.37h-130.109c-4.143 0-7.5 3.358-7.5 7.5s3.357 7.5 7.5 7.5h130.109c2.479 0 4.92-.162 7.325-.444l-20.691 93.6c-2.818 12.748-13.904 21.651-26.96 21.651h-95.216c-13.056 0-24.142-8.903-26.959-21.651l-20.692-93.6c2.404.283 4.845.444 7.323.444h10.76c4.143 0 7.5-3.358 7.5-7.5s-3.357-7.5-7.5-7.5h-10.76c-26.126 0-47.381-21.25-47.381-47.37v-127.64c0-26.125 21.255-47.38 47.381-47.38h175.869c26.126 0 47.381 21.255 47.381 47.38v127.64zm44.33-42.085c0 8.086-6.579 14.665-14.665 14.665s-14.664-6.579-14.664-14.665v-43.473c0-8.086 6.578-14.665 14.664-14.665s14.665 6.579 14.665 14.665z"/><path d="m306.929 196.002h-146.189c-9.092 0-16.489 7.397-16.489 16.489v17.538c0 9.092 7.397 16.488 16.489 16.488h146.189c9.092 0 16.488-7.396 16.488-16.488v-17.538c0-9.092-7.396-16.489-16.488-16.489zm1.488 34.027c0 .821-.668 1.488-1.488 1.488h-146.189c-.821 0-1.489-.667-1.489-1.488v-17.538c0-.821.668-1.489 1.489-1.489h146.189c.82 0 1.488.668 1.488 1.489z"/><path d="m247.01 265.479h-86.27c-9.092 0-16.489 7.397-16.489 16.489v17.538c0 9.092 7.397 16.489 16.489 16.489h86.271c9.092 0 16.488-7.397 16.488-16.489v-17.538c0-9.092-7.397-16.489-16.489-16.489zm1.489 34.027c0 .821-.668 1.489-1.488 1.489h-86.271c-.821 0-1.489-.668-1.489-1.489v-17.538c0-.821.668-1.489 1.489-1.489h86.271c.82 0 1.488.668 1.488 1.489z"/></g></svg>