<?xml version="1.0" encoding="UTF-8" standalone="no"?>
<!DOCTYPE svg PUBLIC "-//W3C//DTD SVG 1.1//EN" "http://www.w3.org/Graphics/SVG/1.1/DTD/svg11.dtd">
<svg width="100%" height="100%" viewBox="0 0 48 48" version="1.1" xmlns="http://www.w3.org/2000/svg" xmlns:xlink="http://www.w3.org/1999/xlink" xml:space="preserve" xmlns:serif="http://www.serif.com/" style="fill-rule:evenodd;clip-rule:evenodd;stroke-linejoin:round;stroke-miterlimit:2;">
    <g transform="matrix(1,0,0,1,-282,-214)">
        <g id="DesignHere">
            <path d="M317.768,218.64C318.017,218.342 318.07,217.927 317.906,217.576C317.741,217.224 317.388,217 317,217L305,217C304.666,217 304.353,217.167 304.168,217.445L292.168,235.445C291.963,235.752 291.944,236.147 292.118,236.472C292.292,236.797 292.631,237 293,237L299.572,237C299.572,237 292.06,257.658 292.06,257.658C291.898,258.105 292.073,258.605 292.479,258.853C292.884,259.101 293.409,259.029 293.733,258.68L319.733,230.68C320.003,230.389 320.076,229.965 319.917,229.6C319.758,229.236 319.398,229 319,229L309.135,229C309.135,229 317.768,218.64 317.768,218.64ZM314.865,219L306.232,229.36C305.983,229.658 305.93,230.073 306.094,230.424C306.259,230.776 306.612,231 307,231L316.707,231C316.707,231 295.627,253.701 295.627,253.701C295.627,253.701 301.94,236.342 301.94,236.342C302.051,236.035 302.006,235.693 301.819,235.426C301.632,235.159 301.326,235 301,235L294.869,235C294.869,235 305.535,219 305.535,219L314.865,219Z"/>
        </g>
    </g>
</svg>
