<svg id="Capa_1" enable-background="new 0 0 512 512" height="512" viewBox="0 0 512 512" width="512" xmlns="http://www.w3.org/2000/svg"><g><path d="m373.79 303.378h15v15h-15z"/><path d="m343.79 303.378h15v15h-15z"/><path d="m389.14 63.379c-8.435 0-16.228 2.799-22.499 7.518v-18.397c0-20.678-16.822-37.5-37.5-37.5-9.522 0-18.227 3.567-24.847 9.436-5.315-14.255-19.068-24.436-35.153-24.436s-29.838 10.181-35.153 24.437c-6.621-5.869-15.326-9.437-24.848-9.437-20.678 0-37.5 16.822-37.5 37.5v82.499h15v-29.999h45.001v74.999h-45v-29.999h-15v153.29l-14.721-21.345-3.275-62.656c-.729-13.956-6.133-25.604-15.626-33.682-11.272-9.594-28.023-13.978-45.97-12.025l-6.688.728v165.675l20.639 33.024v90.443l70.815 48.548h107.325v-15h-45v-22.5c0-4.135 3.363-7.5 7.498-7.5h90.005c4.135 0 7.499 3.364 7.499 7.5v22.5h-45.001v15h97.5v-65.446l29.999-164.999.001-180.676c0-20.678-16.824-37.5-37.501-37.5zm-247.271 217.999-41.51 39.091v-76.603h39.548zm-13.573-84.347c6.363 5.415 9.852 13.167 10.367 23.042l.46 8.793h-38.764v-40.73c11.107.026 21.237 3.192 27.937 8.895zm43.344 293.234-50.64-34.717v-58.541l50.64 81.021zm0-40.538-69.16-110.651 45.844-43.173 23.316 33.808zm217.5-371.348c12.407 0 22.501 10.094 22.501 22.5v26.62h-45v-26.62c0-12.406 10.092-22.5 22.499-22.5zm-22.499 194.999v-40.881h44.999v40.881zm-120.001-93.379h45v93.38h-45zm0-89.999h45v74.999h-45zm105.001 89.998h-45v-74.999h45zm-45.001 15h45.001v78.38h-45.001zm60.001 22.5v-74.999h45v74.999zm-37.5-187.498c12.406 0 22.5 10.093 22.5 22.5v37.5h-45v-37.5c0-12.407 10.093-22.5 22.5-22.5zm-60-15c12.406 0 22.5 10.093 22.5 22.5v37.5h-45v-37.5c0-12.407 10.093-22.5 22.5-22.5zm-82.501 75v-37.5c0-12.407 10.094-22.5 22.5-22.5s22.5 10.093 22.5 22.5h.001v37.5zm45 104.998v78.38h-45v-78.38zm60.001 160.878c-4.136 0-7.501-3.364-7.501-7.5s3.365-7.5 7.501-7.5 7.5 3.364 7.5 7.5-3.365 7.5-7.5 7.5zm90 89.325v51.799h-22.499v-22.5c0-12.406-10.093-22.5-22.499-22.5h-.743l23.241-33.794v-18.62c8.729-3.096 15-11.432 15-21.21 0-12.407-10.094-22.5-22.5-22.5s-22.5 10.093-22.5 22.5c0 9.777 6.271 18.114 15 21.21v13.96l-26.446 38.454h-18.554v-82.414c8.729-3.096 15-11.432 15-21.21 0-12.407-10.094-22.5-22.5-22.5-12.407 0-22.501 10.093-22.501 22.5 0 9.778 6.271 18.114 15.001 21.21v82.414h-18.555l-26.446-38.455v-13.96c8.73-3.096 15.001-11.432 15.001-21.21 0-12.407-10.094-22.5-22.501-22.5-12.406 0-22.5 10.093-22.5 22.5 0 9.777 6.271 18.114 15 21.21v18.62l23.24 33.795h-.743c-12.405 0-22.498 10.093-22.498 22.5v22.5h-37.5v-208.622h223.513zm-37.5-66.826c0-4.136 3.364-7.5 7.5-7.5s7.5 3.364 7.5 7.5c0 4.135-3.364 7.5-7.5 7.5s-7.5-3.364-7.5-7.5zm-120.001 0c0-4.136 3.364-7.5 7.5-7.5s7.501 3.364 7.501 7.5c0 4.135-3.365 7.5-7.501 7.5s-7.5-3.364-7.5-7.5z"/></g></svg>