<svg xmlns="http://www.w3.org/2000/svg" width="128" height="128" viewBox="0 0 128 128">
  <title>PEN DRIVE</title>
  <g>
    <path d="M110.107,40.17,87.83,17.893a1.749,1.749,0,0,0-2.475,0L68.963,34.285l-1.046-1.046a5.6,5.6,0,0,0-7.909,0l-3.667,3.667L23.083,70.164a20.024,20.024,0,0,0,0,28.284l6.469,6.469a20.024,20.024,0,0,0,28.284,0L91.094,71.659l3.667-3.667a5.6,5.6,0,0,0,0-7.909l-1.046-1.046,16.392-16.392A1.751,1.751,0,0,0,110.107,40.17ZM55.362,102.442a16.521,16.521,0,0,1-23.336,0l-6.468-6.468a16.521,16.521,0,0,1,0-23.336L57.579,40.619l29.8,29.8ZM92.287,65.517l-2.431,2.43-29.8-29.8,2.43-2.431a2.1,2.1,0,0,1,2.959,0L67.726,38,90,60.274l2.284,2.284A2.1,2.1,0,0,1,92.287,65.517ZM91.24,56.562l-19.8-19.8L86.593,21.605l19.8,19.8Z"/>
    <rect x="81.292" y="31.459" width="7.087" height="7.087" transform="translate(0.097 70.24) rotate(-45.001)"/>
    <rect x="89.454" y="39.621" width="7.087" height="7.087" transform="translate(-3.284 78.402) rotate(-45)"/>
  </g>
</svg>
