<svg xmlns="http://www.w3.org/2000/svg" width="128" height="128" viewBox="0 0 128 128">
  <title>PAPER</title>
  <path d="M122.006,22.659,59.527,4.178A1.754,1.754,0,0,0,57.354,5.36L51.9,23.807,6.225,30.827a1.75,1.75,0,0,0-1.464,2l13.09,85.223a1.749,1.749,0,0,0,2,1.464l15.212-2.336v4.97a1.75,1.75,0,0,0,1.75,1.75H101.96a1.75,1.75,0,0,0,1.75-1.75V90.656l19.478-65.822A1.75,1.75,0,0,0,122.006,22.659ZM21.044,115.784,8.485,34.021,69.4,24.657l1.465,9.514H36.808a1.749,1.749,0,0,0-1.75,1.75v77.711Zm79.166,4.609H38.558V37.671H83.109v15.35a1.749,1.749,0,0,0,1.75,1.75H100.21ZM97.735,51.271H86.609V40.145Zm5.975,27.051v-25.3a1.769,1.769,0,0,0-.514-1.239c-4.277-4.272-17.1-17.1-17.1-17.1a1.763,1.763,0,0,0-1.239-.514H74.41L72.6,22.4a1.749,1.749,0,0,0-2-1.464L55.721,23.217,60.213,8.031l59.122,17.488Z"/>
</svg>
